<svg width="894" height="125" viewBox="0 0 894 125" fill="none" xmlns="http://www.w3.org/2000/svg">
<path d="M143.176 95.92C136.435 95.92 130.781 94.32 126.216 91.12C121.651 87.92 118.216 83.568 115.912 78.064C113.608 72.5173 112.456 66.3093 112.456 59.44C112.456 52.4853 113.608 46.256 115.912 40.752C118.216 35.248 121.587 30.9173 126.024 27.76C130.504 24.56 136.029 22.96 142.6 22.96C149.128 22.96 154.781 24.56 159.56 27.76C164.381 30.9173 168.115 35.248 170.76 40.752C173.405 46.2133 174.728 52.4427 174.728 59.44C174.728 66.352 173.427 72.56 170.824 78.064C168.221 83.568 164.552 87.92 159.816 91.12C155.08 94.32 149.533 95.92 143.176 95.92ZM109.832 124.72V24.88H123.464V73.392H125.384V124.72H109.832ZM140.808 82.096C144.819 82.096 148.125 81.0933 150.728 79.088C153.331 77.0827 155.251 74.3733 156.488 70.96C157.768 67.504 158.408 63.664 158.408 59.44C158.408 55.2587 157.768 51.4613 156.488 48.048C155.208 44.592 153.224 41.8613 150.536 39.856C147.848 37.808 144.435 36.784 140.296 36.784C136.371 36.784 133.171 37.744 130.696 39.664C128.221 41.5413 126.387 44.1867 125.192 47.6C124.04 50.9707 123.464 54.9173 123.464 59.44C123.464 63.92 124.04 67.8667 125.192 71.28C126.387 74.6933 128.243 77.36 130.76 79.28C133.32 81.1573 136.669 82.096 140.808 82.096ZM220.259 95.92C213.262 95.92 207.118 94.4053 201.827 91.376C196.536 88.3467 192.398 84.144 189.411 78.768C186.467 73.392 184.995 67.2053 184.995 60.208C184.995 52.656 186.446 46.1067 189.347 40.56C192.248 34.9707 196.28 30.64 201.443 27.568C206.606 24.496 212.579 22.96 219.363 22.96C226.531 22.96 232.611 24.6453 237.603 28.016C242.638 31.344 246.371 36.0587 248.803 42.16C251.235 48.2613 252.152 55.4507 251.555 63.728H236.259V58.096C236.216 50.5867 234.894 45.104 232.291 41.648C229.688 38.192 225.592 36.464 220.003 36.464C213.688 36.464 208.995 38.4267 205.923 42.352C202.851 46.2347 201.315 51.9307 201.315 59.44C201.315 66.4373 202.851 71.856 205.923 75.696C208.995 79.536 213.475 81.456 219.363 81.456C223.16 81.456 226.424 80.624 229.155 78.96C231.928 77.2533 234.062 74.8 235.555 71.6L250.787 76.208C248.142 82.4373 244.046 87.28 238.499 90.736C232.995 94.192 226.915 95.92 220.259 95.92ZM196.451 63.728V52.08H244.003V63.728H196.451ZM265.835 94V24.88H279.467V41.712L277.803 39.536C278.656 37.232 279.787 35.1413 281.195 33.264C282.646 31.344 284.374 29.7653 286.379 28.528C288.086 27.376 289.963 26.48 292.011 25.84C294.102 25.1573 296.235 24.752 298.411 24.624C300.587 24.4533 302.699 24.5387 304.747 24.88V39.28C302.699 38.6827 300.331 38.4907 297.643 38.704C294.998 38.9173 292.608 39.664 290.475 40.944C288.342 42.096 286.592 43.568 285.227 45.36C283.904 47.152 282.923 49.2 282.283 51.504C281.643 53.7653 281.323 56.2187 281.323 58.864V94H265.835ZM318.24 14.384V0.239998H333.664V14.384H318.24ZM318.24 94V24.88H333.664V94H318.24ZM384.259 95.92C377.262 95.92 371.118 94.4053 365.827 91.376C360.536 88.3467 356.398 84.144 353.411 78.768C350.467 73.392 348.995 67.2053 348.995 60.208C348.995 52.656 350.446 46.1067 353.347 40.56C356.248 34.9707 360.28 30.64 365.443 27.568C370.606 24.496 376.579 22.96 383.363 22.96C390.531 22.96 396.611 24.6453 401.603 28.016C406.638 31.344 410.371 36.0587 412.803 42.16C415.235 48.2613 416.152 55.4507 415.555 63.728H400.259V58.096C400.216 50.5867 398.894 45.104 396.291 41.648C393.688 38.192 389.592 36.464 384.003 36.464C377.688 36.464 372.995 38.4267 369.923 42.352C366.851 46.2347 365.315 51.9307 365.315 59.44C365.315 66.4373 366.851 71.856 369.923 75.696C372.995 79.536 377.475 81.456 383.363 81.456C387.16 81.456 390.424 80.624 393.155 78.96C395.928 77.2533 398.062 74.8 399.555 71.6L414.787 76.208C412.142 82.4373 408.046 87.28 402.499 90.736C396.995 94.192 390.915 95.92 384.259 95.92ZM360.451 63.728V52.08H408.003V63.728H360.451ZM475.768 94V60.72C475.768 58.544 475.619 56.1333 475.32 53.488C475.021 50.8427 474.317 48.304 473.208 45.872C472.141 43.3973 470.52 41.3707 468.344 39.792C466.211 38.2133 463.309 37.424 459.64 37.424C457.677 37.424 455.736 37.744 453.816 38.384C451.896 39.024 450.147 40.1333 448.568 41.712C447.032 43.248 445.795 45.3813 444.856 48.112C443.917 50.8 443.448 54.256 443.448 58.48L434.296 54.576C434.296 48.688 435.427 43.3547 437.688 38.576C439.992 33.7973 443.363 30 447.8 27.184C452.237 24.3253 457.699 22.896 464.184 22.896C469.304 22.896 473.528 23.7493 476.856 25.456C480.184 27.1627 482.829 29.3387 484.792 31.984C486.755 34.6293 488.205 37.4453 489.144 40.432C490.083 43.4187 490.68 46.256 490.936 48.944C491.235 51.5893 491.384 53.744 491.384 55.408V94H475.768ZM427.832 94V24.88H441.592V46.32H443.448V94H427.832ZM536.976 95.92C529.851 95.92 523.771 94.3413 518.736 91.184C513.701 87.984 509.84 83.632 507.152 78.128C504.507 72.624 503.163 66.3947 503.12 59.44C503.163 52.3573 504.549 46.0853 507.28 40.624C510.053 35.12 513.979 30.8107 519.056 27.696C524.133 24.5387 530.171 22.96 537.168 22.96C545.019 22.96 551.653 24.944 557.072 28.912C562.533 32.8373 566.096 38.2133 567.76 45.04L552.4 49.2C551.205 45.488 549.221 42.608 546.448 40.56C543.675 38.4693 540.517 37.424 536.976 37.424C532.965 37.424 529.659 38.384 527.056 40.304C524.453 42.1813 522.533 44.784 521.296 48.112C520.059 51.44 519.44 55.216 519.44 59.44C519.44 66.0107 520.912 71.3227 523.856 75.376C526.8 79.4293 531.173 81.456 536.976 81.456C541.072 81.456 544.293 80.5173 546.64 78.64C549.029 76.7627 550.821 74.0533 552.016 70.512L567.76 74.032C565.627 81.072 561.893 86.4907 556.56 90.288C551.227 94.0427 544.699 95.92 536.976 95.92ZM610.134 95.92C603.137 95.92 596.993 94.4053 591.702 91.376C586.411 88.3467 582.273 84.144 579.286 78.768C576.342 73.392 574.87 67.2053 574.87 60.208C574.87 52.656 576.321 46.1067 579.222 40.56C582.123 34.9707 586.155 30.64 591.318 27.568C596.481 24.496 602.454 22.96 609.238 22.96C616.406 22.96 622.486 24.6453 627.478 28.016C632.513 31.344 636.246 36.0587 638.678 42.16C641.11 48.2613 642.027 55.4507 641.43 63.728H626.134V58.096C626.091 50.5867 624.769 45.104 622.166 41.648C619.563 38.192 615.467 36.464 609.878 36.464C603.563 36.464 598.87 38.4267 595.798 42.352C592.726 46.2347 591.19 51.9307 591.19 59.44C591.19 66.4373 592.726 71.856 595.798 75.696C598.87 79.536 603.35 81.456 609.238 81.456C613.035 81.456 616.299 80.624 619.03 78.96C621.803 77.2533 623.937 74.8 625.43 71.6L640.662 76.208C638.017 82.4373 633.921 87.28 628.374 90.736C622.87 94.192 616.79 95.92 610.134 95.92ZM586.326 63.728V52.08H633.878V63.728H586.326Z" fill="#FDC500"/>
<path d="M681.335 94V1.84H719.415C720.311 1.84 721.463 1.88266 722.871 1.96799C724.279 2.01066 725.58 2.13866 726.775 2.352C732.108 3.16266 736.503 4.93333 739.959 7.66399C743.458 10.3947 746.039 13.8507 747.703 18.032C749.41 22.1707 750.263 26.7787 750.263 31.856C750.263 36.8907 749.41 41.4987 747.703 45.68C745.996 49.8187 743.394 53.2533 739.895 55.984C736.439 58.7147 732.066 60.4853 726.775 61.296C725.58 61.4667 724.258 61.5947 722.807 61.68C721.399 61.7653 720.268 61.808 719.415 61.808H696.759V94H681.335ZM696.759 47.408H718.775C719.628 47.408 720.588 47.3653 721.655 47.28C722.722 47.1947 723.703 47.024 724.599 46.768C727.159 46.128 729.164 44.9973 730.615 43.376C732.108 41.7547 733.154 39.92 733.751 37.872C734.391 35.824 734.711 33.8187 734.711 31.856C734.711 29.8933 734.391 27.888 733.751 25.84C733.154 23.7493 732.108 21.8933 730.615 20.272C729.164 18.6507 727.159 17.52 724.599 16.88C723.703 16.624 722.722 16.4747 721.655 16.432C720.588 16.3467 719.628 16.304 718.775 16.304H696.759V47.408ZM780.663 95.92C775.671 95.92 771.447 94.9813 767.991 93.104C764.535 91.184 761.911 88.6453 760.119 85.488C758.37 82.3307 757.495 78.8533 757.495 75.056C757.495 71.728 758.05 68.7413 759.159 66.096C760.268 63.408 761.975 61.104 764.279 59.184C766.583 57.2213 769.57 55.6213 773.239 54.384C776.012 53.488 779.255 52.6773 782.967 51.952C786.722 51.2267 790.775 50.5653 795.127 49.968C799.522 49.328 804.108 48.6453 808.887 47.92L803.383 51.056C803.426 46.2773 802.359 42.7573 800.183 40.496C798.007 38.2347 794.338 37.104 789.175 37.104C786.06 37.104 783.052 37.8293 780.151 39.28C777.25 40.7307 775.223 43.2267 774.071 46.768L759.991 42.352C761.698 36.5067 764.94 31.8133 769.719 28.272C774.54 24.7307 781.026 22.96 789.175 22.96C795.319 22.96 800.716 23.9627 805.367 25.968C810.06 27.9733 813.538 31.2587 815.799 35.824C817.036 38.256 817.783 40.752 818.039 43.312C818.295 45.8293 818.423 48.5813 818.423 51.568V94H804.919V79.024L807.159 81.456C804.044 86.448 800.396 90.1173 796.215 92.464C792.076 94.768 786.892 95.92 780.663 95.92ZM783.735 83.632C787.234 83.632 790.22 83.0133 792.695 81.776C795.17 80.5387 797.132 79.024 798.583 77.232C800.076 75.44 801.079 73.7547 801.591 72.176C802.402 70.2133 802.85 67.9733 802.935 65.456C803.063 62.896 803.127 60.8267 803.127 59.248L807.863 60.656C803.212 61.3813 799.223 62.0213 795.895 62.576C792.567 63.1307 789.708 63.664 787.319 64.176C784.93 64.6453 782.818 65.1787 780.983 65.776C779.191 66.416 777.676 67.1627 776.439 68.016C775.202 68.8693 774.242 69.8507 773.559 70.96C772.919 72.0693 772.599 73.3707 772.599 74.864C772.599 76.5707 773.026 78.0853 773.879 79.408C774.732 80.688 775.97 81.712 777.591 82.48C779.255 83.248 781.303 83.632 783.735 83.632ZM840.298 124.72L853.61 88.176L853.866 98.928L823.722 24.88H839.786L861.162 79.664H857.066L877.866 24.88H893.29L854.762 124.72H840.298Z" fill="#3A5EFC"/>
<path d="M63 2H95V34H63V2Z" fill="url(#paint0_linear_525_3448)"/>
<path d="M32 34H63V65H32V34Z" fill="url(#paint1_linear_525_3448)"/>
<path d="M63 65H95V97H63V65Z" fill="url(#paint2_linear_525_3448)"/>
<path d="M0 2H32V34H0V2Z" fill="url(#paint3_linear_525_3448)"/>
<path d="M0 65H32V97H0V65Z" fill="url(#paint4_linear_525_3448)"/>
<defs>
<linearGradient id="paint0_linear_525_3448" x1="62.6632" y1="2.16842" x2="94.8316" y2="33.6632" gradientUnits="userSpaceOnUse">
<stop stop-color="#FDC500"/>
<stop offset="1" stop-color="#3A5EFC"/>
</linearGradient>
<linearGradient id="paint1_linear_525_3448" x1="31.6737" y1="34.1632" x2="62.8368" y2="64.6737" gradientUnits="userSpaceOnUse">
<stop stop-color="#FDC500"/>
<stop offset="1" stop-color="#3A5EFC"/>
</linearGradient>
<linearGradient id="paint2_linear_525_3448" x1="62.6632" y1="65.1684" x2="94.8316" y2="96.6632" gradientUnits="userSpaceOnUse">
<stop stop-color="#FDC500"/>
<stop offset="1" stop-color="#3A5EFC"/>
</linearGradient>
<linearGradient id="paint3_linear_525_3448" x1="-0.336842" y1="2.16842" x2="31.8316" y2="33.6632" gradientUnits="userSpaceOnUse">
<stop stop-color="#FDC500"/>
<stop offset="1" stop-color="#3A5EFC"/>
</linearGradient>
<linearGradient id="paint4_linear_525_3448" x1="-0.336842" y1="65.1684" x2="31.8316" y2="96.6632" gradientUnits="userSpaceOnUse">
<stop stop-color="#FDC500"/>
<stop offset="1" stop-color="#3A5EFC"/>
</linearGradient>
</defs>
</svg>
