<svg width="598" height="598" viewBox="0 0 598 598" fill="none" xmlns="http://www.w3.org/2000/svg">
<circle cx="299" cy="299" r="298.5" stroke="url(#paint0_linear_1073_3)"/>
<circle cx="299" cy="299" r="218.5" stroke="url(#paint1_linear_1073_3)"/>
<circle cx="299" cy="299" r="138.5" stroke="url(#paint2_linear_1073_3)"/>
<circle cx="100.5" cy="197.5" r="14.5" fill="url(#paint3_linear_1073_3)"/>
<circle cx="490.5" cy="197.5" r="14.5" fill="url(#paint4_linear_1073_3)"/>
<circle cx="295.5" cy="437.5" r="14.5" fill="url(#paint5_linear_1073_3)"/>
<rect x="31.5" y="319.5" width="108" height="37" rx="7.5" fill="#FDC500"/>
<rect x="31.5" y="319.5" width="108" height="37" rx="7.5" stroke="#FDC500"/>
<path d="M76.296 344.24C75.4693 344.24 74.7227 344.099 74.056 343.816C73.3947 343.528 72.848 343.12 72.416 342.592C71.9893 342.059 71.712 341.427 71.584 340.696L73.328 340.432C73.504 341.136 73.872 341.685 74.432 342.08C74.992 342.469 75.6453 342.664 76.392 342.664C76.856 342.664 77.2827 342.592 77.672 342.448C78.0613 342.299 78.3733 342.088 78.608 341.816C78.848 341.539 78.968 341.208 78.968 340.824C78.968 340.616 78.9307 340.432 78.856 340.272C78.7867 340.112 78.688 339.973 78.56 339.856C78.4373 339.733 78.2853 339.629 78.104 339.544C77.928 339.453 77.7333 339.376 77.52 339.312L74.568 338.44C74.28 338.355 73.9867 338.245 73.688 338.112C73.3893 337.973 73.1147 337.795 72.864 337.576C72.6187 337.352 72.4187 337.077 72.264 336.752C72.1093 336.421 72.032 336.021 72.032 335.552C72.032 334.843 72.2133 334.243 72.576 333.752C72.944 333.256 73.44 332.883 74.064 332.632C74.688 332.376 75.3867 332.248 76.16 332.248C76.9387 332.259 77.6347 332.397 78.248 332.664C78.8667 332.931 79.3787 333.315 79.784 333.816C80.1947 334.312 80.4773 334.915 80.632 335.624L78.84 335.928C78.76 335.496 78.5893 335.125 78.328 334.816C78.0667 334.501 77.7467 334.261 77.368 334.096C76.9893 333.925 76.5787 333.837 76.136 333.832C75.7093 333.821 75.3173 333.885 74.96 334.024C74.608 334.163 74.3253 334.357 74.112 334.608C73.904 334.859 73.8 335.147 73.8 335.472C73.8 335.792 73.8933 336.051 74.08 336.248C74.2667 336.445 74.496 336.603 74.768 336.72C75.0453 336.832 75.32 336.925 75.592 337L77.72 337.6C77.9867 337.675 78.288 337.776 78.624 337.904C78.9653 338.027 79.2933 338.2 79.608 338.424C79.928 338.648 80.192 338.947 80.4 339.32C80.608 339.688 80.712 340.152 80.712 340.712C80.712 341.293 80.5947 341.805 80.36 342.248C80.1253 342.685 79.8027 343.053 79.392 343.352C78.9867 343.645 78.5173 343.867 77.984 344.016C77.4507 344.165 76.888 344.24 76.296 344.24ZM86.2489 344.24C85.3902 344.24 84.6355 344.053 83.9849 343.68C83.3395 343.301 82.8355 342.776 82.4729 342.104C82.1155 341.427 81.9369 340.643 81.9369 339.752C81.9369 338.808 82.1129 337.989 82.4649 337.296C82.8222 336.603 83.3182 336.067 83.9529 335.688C84.5875 335.309 85.3262 335.12 86.1689 335.12C87.0489 335.12 87.7982 335.325 88.4169 335.736C89.0355 336.141 89.4969 336.72 89.8009 337.472C90.1102 338.224 90.2329 339.117 90.1689 340.152H88.4969V339.544C88.4862 338.541 88.2942 337.8 87.9209 337.32C87.5529 336.84 86.9902 336.6 86.2329 336.6C85.3955 336.6 84.7662 336.864 84.3449 337.392C83.9235 337.92 83.7129 338.683 83.7129 339.68C83.7129 340.629 83.9235 341.365 84.3449 341.888C84.7662 342.405 85.3742 342.664 86.1689 342.664C86.6915 342.664 87.1422 342.547 87.5209 342.312C87.9049 342.072 88.2035 341.731 88.4169 341.288L90.0569 341.808C89.7209 342.581 89.2115 343.181 88.5289 343.608C87.8462 344.029 87.0862 344.24 86.2489 344.24ZM83.1689 340.152V338.848H89.3369V340.152H83.1689ZM92.1238 344V332.24H93.7958V344H92.1238ZM96.3581 344V332.24H98.0301V344H96.3581Z" fill="black"/>
<rect x="245.5" y="145.5" width="108" height="37" rx="7.5" fill="#FDC500"/>
<rect x="245.5" y="145.5" width="108" height="37" rx="7.5" stroke="#FDC500"/>
<path d="M286.12 170V158.48H290.648C291.379 158.48 291.992 158.629 292.488 158.928C292.984 159.227 293.357 159.613 293.608 160.088C293.859 160.557 293.984 161.053 293.984 161.576C293.984 162.211 293.827 162.755 293.512 163.208C293.203 163.661 292.784 163.971 292.256 164.136L292.24 163.744C292.976 163.925 293.541 164.28 293.936 164.808C294.331 165.331 294.528 165.941 294.528 166.64C294.528 167.317 294.392 167.907 294.12 168.408C293.853 168.909 293.461 169.301 292.944 169.584C292.432 169.861 291.811 170 291.08 170H286.12ZM287.816 168.408H290.824C291.203 168.408 291.541 168.336 291.84 168.192C292.144 168.048 292.381 167.843 292.552 167.576C292.728 167.304 292.816 166.981 292.816 166.608C292.816 166.261 292.739 165.949 292.584 165.672C292.435 165.389 292.216 165.168 291.928 165.008C291.645 164.843 291.312 164.76 290.928 164.76H287.816V168.408ZM287.816 163.184H290.624C290.933 163.184 291.211 163.123 291.456 163C291.707 162.872 291.904 162.691 292.048 162.456C292.197 162.216 292.272 161.928 292.272 161.592C292.272 161.144 292.123 160.776 291.824 160.488C291.525 160.2 291.125 160.056 290.624 160.056H287.816V163.184ZM299.376 170.232C298.779 170.232 298.277 170.136 297.872 169.944C297.467 169.752 297.136 169.501 296.88 169.192C296.629 168.877 296.437 168.536 296.304 168.168C296.171 167.8 296.08 167.44 296.032 167.088C295.984 166.736 295.96 166.427 295.96 166.16V161.36H297.656V165.608C297.656 165.944 297.683 166.291 297.736 166.648C297.795 167 297.901 167.328 298.056 167.632C298.216 167.936 298.437 168.181 298.72 168.368C299.008 168.555 299.381 168.648 299.84 168.648C300.139 168.648 300.421 168.6 300.688 168.504C300.955 168.403 301.187 168.243 301.384 168.024C301.587 167.805 301.744 167.517 301.856 167.16C301.973 166.803 302.032 166.368 302.032 165.856L303.072 166.248C303.072 167.032 302.925 167.725 302.632 168.328C302.339 168.925 301.917 169.392 301.368 169.728C300.819 170.064 300.155 170.232 299.376 170.232ZM302.232 170V167.504H302.032V161.36H303.72V170H302.232ZM307.132 173.84L308.804 169.288L308.828 170.632L305.06 161.36H306.804L309.62 168.52H309.108L311.796 161.36H313.492L308.724 173.84H307.132Z" fill="black"/>
<rect x="451.5" y="319.5" width="108" height="37" rx="7.5" fill="#FDC500"/>
<rect x="451.5" y="319.5" width="108" height="37" rx="7.5" stroke="#FDC500"/>
<path d="M476.12 344V332.48H477.632L481.808 341.144L485.96 332.48H487.488V343.992H485.904V336.112L482.184 344H481.424L477.696 336.112V344H476.12ZM492.169 344.24C491.529 344.24 490.993 344.123 490.561 343.888C490.129 343.648 489.801 343.333 489.577 342.944C489.359 342.549 489.249 342.117 489.249 341.648C489.249 341.211 489.327 340.827 489.481 340.496C489.636 340.165 489.865 339.885 490.169 339.656C490.473 339.421 490.847 339.232 491.289 339.088C491.673 338.976 492.108 338.877 492.593 338.792C493.079 338.707 493.588 338.627 494.121 338.552C494.66 338.477 495.193 338.403 495.721 338.328L495.113 338.664C495.124 337.987 494.98 337.485 494.681 337.16C494.388 336.829 493.881 336.664 493.161 336.664C492.708 336.664 492.292 336.771 491.913 336.984C491.535 337.192 491.271 337.539 491.121 338.024L489.561 337.544C489.775 336.803 490.18 336.213 490.777 335.776C491.38 335.339 492.18 335.12 493.177 335.12C493.951 335.12 494.623 335.253 495.193 335.52C495.769 335.781 496.191 336.197 496.457 336.768C496.596 337.051 496.681 337.349 496.713 337.664C496.745 337.979 496.761 338.317 496.761 338.68V344H495.281V342.024L495.569 342.28C495.212 342.941 494.756 343.435 494.201 343.76C493.652 344.08 492.975 344.24 492.169 344.24ZM492.465 342.872C492.94 342.872 493.348 342.789 493.689 342.624C494.031 342.453 494.305 342.237 494.513 341.976C494.721 341.715 494.857 341.443 494.921 341.16C495.012 340.904 495.063 340.616 495.073 340.296C495.089 339.976 495.097 339.72 495.097 339.528L495.641 339.728C495.113 339.808 494.633 339.88 494.201 339.944C493.769 340.008 493.377 340.072 493.025 340.136C492.679 340.195 492.369 340.267 492.097 340.352C491.868 340.432 491.663 340.528 491.481 340.64C491.305 340.752 491.164 340.888 491.057 341.048C490.956 341.208 490.905 341.403 490.905 341.632C490.905 341.856 490.961 342.064 491.073 342.256C491.185 342.443 491.356 342.592 491.585 342.704C491.815 342.816 492.108 342.872 492.465 342.872ZM504.903 344V339.752C504.903 339.416 504.873 339.072 504.815 338.72C504.761 338.363 504.655 338.032 504.495 337.728C504.34 337.424 504.119 337.179 503.831 336.992C503.548 336.805 503.177 336.712 502.719 336.712C502.42 336.712 502.137 336.763 501.871 336.864C501.604 336.96 501.369 337.117 501.167 337.336C500.969 337.555 500.812 337.843 500.695 338.2C500.583 338.557 500.527 338.992 500.527 339.504L499.487 339.112C499.487 338.328 499.633 337.637 499.927 337.04C500.22 336.437 500.641 335.968 501.191 335.632C501.74 335.296 502.404 335.128 503.183 335.128C503.78 335.128 504.281 335.224 504.687 335.416C505.092 335.608 505.42 335.861 505.671 336.176C505.927 336.485 506.121 336.824 506.255 337.192C506.388 337.56 506.479 337.92 506.527 338.272C506.575 338.624 506.599 338.933 506.599 339.2V344H504.903ZM498.831 344V335.36H500.327V337.856H500.527V344H498.831ZM511.123 344.24C510.483 344.24 509.947 344.123 509.515 343.888C509.083 343.648 508.755 343.333 508.531 342.944C508.312 342.549 508.203 342.117 508.203 341.648C508.203 341.211 508.28 340.827 508.435 340.496C508.589 340.165 508.819 339.885 509.123 339.656C509.427 339.421 509.8 339.232 510.243 339.088C510.627 338.976 511.061 338.877 511.547 338.792C512.032 338.707 512.541 338.627 513.075 338.552C513.613 338.477 514.147 338.403 514.675 338.328L514.067 338.664C514.077 337.987 513.933 337.485 513.635 337.16C513.341 336.829 512.835 336.664 512.115 336.664C511.661 336.664 511.245 336.771 510.867 336.984C510.488 337.192 510.224 337.539 510.075 338.024L508.515 337.544C508.728 336.803 509.133 336.213 509.731 335.776C510.333 335.339 511.133 335.12 512.131 335.12C512.904 335.12 513.576 335.253 514.147 335.52C514.723 335.781 515.144 336.197 515.411 336.768C515.549 337.051 515.635 337.349 515.667 337.664C515.699 337.979 515.715 338.317 515.715 338.68V344H514.235V342.024L514.523 342.28C514.165 342.941 513.709 343.435 513.155 343.76C512.605 344.08 511.928 344.24 511.123 344.24ZM511.419 342.872C511.893 342.872 512.301 342.789 512.643 342.624C512.984 342.453 513.259 342.237 513.467 341.976C513.675 341.715 513.811 341.443 513.875 341.16C513.965 340.904 514.016 340.616 514.027 340.296C514.043 339.976 514.051 339.72 514.051 339.528L514.595 339.728C514.067 339.808 513.587 339.88 513.155 339.944C512.723 340.008 512.331 340.072 511.979 340.136C511.632 340.195 511.323 340.267 511.051 340.352C510.821 340.432 510.616 340.528 510.435 340.64C510.259 340.752 510.117 340.888 510.011 341.048C509.909 341.208 509.859 341.403 509.859 341.632C509.859 341.856 509.915 342.064 510.027 342.256C510.139 342.443 510.309 342.592 510.539 342.704C510.768 342.816 511.061 342.872 511.419 342.872ZM521.352 348.08C520.888 348.08 520.437 348.008 520 347.864C519.568 347.72 519.173 347.507 518.816 347.224C518.459 346.947 518.163 346.603 517.928 346.192L519.472 345.408C519.659 345.776 519.925 346.045 520.272 346.216C520.619 346.387 520.984 346.472 521.368 346.472C521.843 346.472 522.248 346.387 522.584 346.216C522.92 346.051 523.173 345.8 523.344 345.464C523.52 345.128 523.605 344.712 523.6 344.216V341.8H523.8V335.36H525.28V344.232C525.28 344.461 525.272 344.68 525.256 344.888C525.24 345.096 525.211 345.304 525.168 345.512C525.045 346.093 524.811 346.573 524.464 346.952C524.123 347.331 523.685 347.613 523.152 347.8C522.624 347.987 522.024 348.08 521.352 348.08ZM521.224 344.24C520.419 344.24 519.723 344.04 519.136 343.64C518.555 343.24 518.104 342.696 517.784 342.008C517.469 341.315 517.312 340.536 517.312 339.672C517.312 338.803 517.472 338.027 517.792 337.344C518.112 336.656 518.565 336.115 519.152 335.72C519.744 335.32 520.445 335.12 521.256 335.12C522.072 335.12 522.757 335.32 523.312 335.72C523.872 336.115 524.293 336.656 524.576 337.344C524.864 338.032 525.008 338.808 525.008 339.672C525.008 340.536 524.864 341.312 524.576 342C524.288 342.688 523.864 343.235 523.304 343.64C522.744 344.04 522.051 344.24 521.224 344.24ZM521.456 342.728C522.005 342.728 522.453 342.597 522.8 342.336C523.147 342.075 523.4 341.715 523.56 341.256C523.72 340.797 523.8 340.269 523.8 339.672C523.8 339.075 523.717 338.547 523.552 338.088C523.392 337.629 523.141 337.272 522.8 337.016C522.464 336.76 522.035 336.632 521.512 336.632C520.957 336.632 520.501 336.768 520.144 337.04C519.787 337.312 519.52 337.677 519.344 338.136C519.173 338.595 519.088 339.107 519.088 339.672C519.088 340.243 519.173 340.76 519.344 341.224C519.52 341.683 519.781 342.048 520.128 342.32C520.48 342.592 520.923 342.728 521.456 342.728ZM531.358 344.24C530.5 344.24 529.745 344.053 529.094 343.68C528.449 343.301 527.945 342.776 527.582 342.104C527.225 341.427 527.046 340.643 527.046 339.752C527.046 338.808 527.222 337.989 527.574 337.296C527.932 336.603 528.428 336.067 529.062 335.688C529.697 335.309 530.436 335.12 531.278 335.12C532.158 335.12 532.908 335.325 533.526 335.736C534.145 336.141 534.606 336.72 534.91 337.472C535.22 338.224 535.342 339.117 535.278 340.152H533.606V339.544C533.596 338.541 533.404 337.8 533.03 337.32C532.662 336.84 532.1 336.6 531.342 336.6C530.505 336.6 529.876 336.864 529.454 337.392C529.033 337.92 528.822 338.683 528.822 339.68C528.822 340.629 529.033 341.365 529.454 341.888C529.876 342.405 530.484 342.664 531.278 342.664C531.801 342.664 532.252 342.547 532.63 342.312C533.014 342.072 533.313 341.731 533.526 341.288L535.166 341.808C534.83 342.581 534.321 343.181 533.638 343.608C532.956 344.029 532.196 344.24 531.358 344.24ZM528.278 340.152V338.848H534.446V340.152H528.278Z" fill="black"/>
<g filter="url(#filter0_f_1073_3)">
<circle cx="299" cy="299" r="54" fill="url(#paint6_radial_1073_3)" fill-opacity="0.5"/>
</g>
<path d="M306.505 277H322V292.495H306.505V277Z" fill="url(#paint7_linear_1073_3)"/>
<path d="M291.495 292.495H306.505V307.505H291.495V292.495Z" fill="url(#paint8_linear_1073_3)"/>
<path d="M306.505 307.505H322V323H306.505V307.505Z" fill="url(#paint9_linear_1073_3)"/>
<path d="M276 277H291.495V292.495H276V277Z" fill="url(#paint10_linear_1073_3)"/>
<path d="M276 307.505H291.495V323H276V307.505Z" fill="url(#paint11_linear_1073_3)"/>
<defs>
<filter id="filter0_f_1073_3" x="205" y="205" width="188" height="188" filterUnits="userSpaceOnUse" color-interpolation-filters="sRGB">
<feFlood flood-opacity="0" result="BackgroundImageFix"/>
<feBlend mode="normal" in="SourceGraphic" in2="BackgroundImageFix" result="shape"/>
<feGaussianBlur stdDeviation="20" result="effect1_foregroundBlur_1073_3"/>
</filter>
<linearGradient id="paint0_linear_1073_3" x1="70" y1="95" x2="551" y2="469" gradientUnits="userSpaceOnUse">
<stop stop-color="#FDC500"/>
<stop offset="1" stop-color="#3A5EFC"/>
</linearGradient>
<linearGradient id="paint1_linear_1073_3" x1="131.271" y1="149.582" x2="483.575" y2="423.515" gradientUnits="userSpaceOnUse">
<stop stop-color="#FDC500"/>
<stop offset="1" stop-color="#3A5EFC"/>
</linearGradient>
<linearGradient id="paint2_linear_1073_3" x1="192.542" y1="204.164" x2="416.15" y2="378.03" gradientUnits="userSpaceOnUse">
<stop stop-color="#FDC500"/>
<stop offset="1" stop-color="#3A5EFC"/>
</linearGradient>
<linearGradient id="paint3_linear_1073_3" x1="86" y1="191.5" x2="115" y2="202.5" gradientUnits="userSpaceOnUse">
<stop stop-color="#3A5EFC"/>
<stop offset="1" stop-color="#FDC500"/>
</linearGradient>
<linearGradient id="paint4_linear_1073_3" x1="476" y1="191.5" x2="505" y2="202.5" gradientUnits="userSpaceOnUse">
<stop stop-color="#3A5EFC"/>
<stop offset="1" stop-color="#FDC500"/>
</linearGradient>
<linearGradient id="paint5_linear_1073_3" x1="281" y1="431.5" x2="310" y2="442.5" gradientUnits="userSpaceOnUse">
<stop stop-color="#3A5EFC"/>
<stop offset="1" stop-color="#FDC500"/>
</linearGradient>
<radialGradient id="paint6_radial_1073_3" cx="0" cy="0" r="1" gradientUnits="userSpaceOnUse" gradientTransform="translate(299 299) rotate(90) scale(54)">
<stop stop-color="#0C0C0C"/>
<stop offset="1" stop-color="#3A5EFC"/>
</radialGradient>
<linearGradient id="paint7_linear_1073_3" x1="306.342" y1="277.082" x2="321.918" y2="292.332" gradientUnits="userSpaceOnUse">
<stop stop-color="#FDC500"/>
<stop offset="1" stop-color="#3A5EFC"/>
</linearGradient>
<linearGradient id="paint8_linear_1073_3" x1="291.337" y1="292.574" x2="306.426" y2="307.347" gradientUnits="userSpaceOnUse">
<stop stop-color="#FDC500"/>
<stop offset="1" stop-color="#3A5EFC"/>
</linearGradient>
<linearGradient id="paint9_linear_1073_3" x1="306.342" y1="307.587" x2="321.918" y2="322.837" gradientUnits="userSpaceOnUse">
<stop stop-color="#FDC500"/>
<stop offset="1" stop-color="#3A5EFC"/>
</linearGradient>
<linearGradient id="paint10_linear_1073_3" x1="275.837" y1="277.082" x2="291.413" y2="292.332" gradientUnits="userSpaceOnUse">
<stop stop-color="#FDC500"/>
<stop offset="1" stop-color="#3A5EFC"/>
</linearGradient>
<linearGradient id="paint11_linear_1073_3" x1="275.837" y1="307.587" x2="291.413" y2="322.837" gradientUnits="userSpaceOnUse">
<stop stop-color="#FDC500"/>
<stop offset="1" stop-color="#3A5EFC"/>
</linearGradient>
</defs>
</svg>
