<svg width="64" height="64" viewBox="0 0 64 64" fill="none" xmlns="http://www.w3.org/2000/svg">
<path d="M58.2525 17.831C58.2024 17.0695 57.8646 16.3554 57.3076 15.8337C56.7506 15.3119 56.016 15.0215 55.2528 15.0212H12.316C11.9078 15.0211 11.5038 15.1044 11.129 15.2661C10.7541 15.4277 10.4163 15.6642 10.1361 15.9612C9.85792 16.2612 9.64285 16.6141 9.50371 16.9989C9.36457 17.3837 9.30421 17.7925 9.3262 18.2011L10.1261 31.0001H59.0725L58.2525 17.831ZM13.6258 22.0008C13.6266 21.7358 13.7322 21.482 13.9196 21.2946C14.1069 21.1072 14.3608 21.0016 14.6258 21.0009H26.005C26.1365 21.0005 26.2669 21.026 26.3886 21.0761C26.5103 21.1261 26.6209 21.1997 26.7141 21.2926C26.8073 21.3855 26.8812 21.4959 26.9316 21.6174C26.9821 21.7389 27.0081 21.8692 27.0081 22.0008C27.0081 22.1324 26.9821 22.2627 26.9316 22.3842C26.8812 22.5057 26.8073 22.6161 26.7141 22.709C26.6209 22.8019 26.5103 22.8755 26.3886 22.9255C26.2669 22.9756 26.1365 23.0011 26.005 23.0007H14.6258C14.3608 22.9999 14.1069 22.8943 13.9196 22.707C13.7322 22.5196 13.6266 22.2658 13.6258 22.0008ZM36.0042 28.0004H14.9457C14.8142 28.0008 14.6838 27.9752 14.5621 27.9251C14.4404 27.8751 14.3298 27.8015 14.2366 27.7086C14.1435 27.6157 14.0695 27.5053 14.0191 27.3838C13.9686 27.2623 13.9426 27.132 13.9426 27.0004C13.9426 26.8688 13.9686 26.7386 14.0191 26.617C14.0695 26.4955 14.1435 26.3851 14.2366 26.2923C14.3298 26.1994 14.4404 26.1258 14.5621 26.0757C14.6838 26.0256 14.8142 26.0001 14.9457 26.0005H36.0042C36.1358 26.0001 36.2661 26.0256 36.3878 26.0757C36.5095 26.1258 36.6201 26.1994 36.7133 26.2923C36.8065 26.3851 36.8804 26.4955 36.9309 26.617C36.9813 26.7386 37.0073 26.8688 37.0073 27.0004C37.0073 27.132 36.9813 27.2623 36.9309 27.3838C36.8804 27.5053 36.8065 27.6157 36.7133 27.7086C36.6201 27.8015 36.5095 27.8751 36.3878 27.9251C36.2661 27.9752 36.1358 28.0008 36.0042 28.0004ZM59.1925 33H10.2561L11.076 46.169C11.1239 46.9297 11.4596 47.6435 12.015 48.1655C12.5703 48.6874 13.3037 48.9782 14.0658 48.9788H57.0026C57.4116 48.9792 57.8164 48.8957 58.1919 48.7336C58.5673 48.5714 58.9056 48.334 59.1858 48.036C59.4659 47.7381 59.6821 47.3858 59.8208 47.0011C59.9595 46.6163 60.0179 46.2072 59.9924 45.799L59.1925 33ZM55.6027 44.6691C55.5087 44.768 55.3955 44.8465 55.2699 44.8998C55.1443 44.9531 55.0092 44.9801 54.8728 44.9791H37.944C37.6888 44.98 37.4429 44.8831 37.2569 44.7082C37.071 44.5334 36.959 44.294 36.9441 44.0392L36.5141 37.0597C36.5076 36.9246 36.5281 36.7896 36.5745 36.6625C36.6208 36.5354 36.6921 36.4189 36.7841 36.3198C36.8762 36.2177 36.9888 36.1365 37.1147 36.0813C37.2405 36.0261 37.3766 35.9983 37.514 35.9998H54.4328C54.6876 36.0005 54.9325 36.098 55.1182 36.2725C55.3038 36.447 55.4162 36.6855 55.4328 36.9397L55.8727 43.9192C55.8808 44.0559 55.861 44.1929 55.8146 44.3218C55.7682 44.4507 55.6961 44.5689 55.6027 44.6691ZM7.73624 24.8706C8.03389 29.6055 8.69497 40.1713 8.99616 44.9891H7.00632C6.55956 44.9846 6.11937 44.8811 5.71738 44.6861C5.3154 44.4911 4.96161 44.2094 4.68147 43.8614C4.40133 43.5134 4.20179 43.1076 4.0972 42.6732C3.99262 42.2388 3.98558 41.7867 4.0766 41.3493L7.73624 24.8706ZM53.4929 37.9996L53.8029 42.9792H38.884L38.574 37.9996H53.4929Z" fill="url(#paint0_linear_1234_203)"/>
<defs>
<linearGradient id="paint0_linear_1234_203" x1="3.99997" y1="32" x2="60" y2="32" gradientUnits="userSpaceOnUse">
<stop stop-color="#FDC500"/>
<stop offset="1" stop-color="#3A5EFC"/>
</linearGradient>
</defs>
</svg>
