<svg width="382" height="265" viewBox="0 0 382 265" fill="none" xmlns="http://www.w3.org/2000/svg">
<path d="M382 250.154H0V250.345H382V250.154Z" fill="#FDC500"/>
<path d="M343.724 262.446H318.42V262.637H343.724V262.446Z" fill="#FDC500"/>
<path d="M253.052 264.524H246.413V264.715H253.052V264.524Z" fill="#FDC500"/>
<path d="M317.656 255.356H302.995V255.547H317.656V255.356Z" fill="#FDC500"/>
<path d="M73.0763 256.64H40.0791V256.831H73.0763V256.64Z" fill="#FDC500"/>
<path d="M84.7199 256.64H79.8838V256.831H84.7199V256.64Z" fill="#FDC500"/>
<path d="M172.015 259.864H100.443V260.055H172.015V259.864Z" fill="#FDC500"/>
<path d="M181.068 216.079H33.5472C32.3915 216.077 31.2839 215.617 30.4674 214.799C29.6509 213.981 29.1924 212.872 29.1924 211.717V4.34426C29.2024 3.19522 29.6654 2.09656 30.4808 1.2869C31.2962 0.477242 32.3981 0.0219879 33.5472 0.0200195H181.068C182.225 0.0200195 183.335 0.479633 184.153 1.29775C184.971 2.11586 185.43 3.22547 185.43 4.38246V211.717C185.43 212.874 184.971 213.983 184.153 214.801C183.335 215.62 182.225 216.079 181.068 216.079ZM33.5472 0.17282C32.4422 0.174844 31.3831 0.615225 30.6025 1.3973C29.8218 2.17938 29.3834 3.23925 29.3834 4.34426V211.717C29.3834 212.822 29.8218 213.882 30.6025 214.664C31.3831 215.446 32.4422 215.886 33.5472 215.888H181.068C182.174 215.886 183.234 215.446 184.015 214.664C184.797 213.882 185.237 212.822 185.239 211.717V4.34426C185.237 3.23855 184.797 2.1787 184.015 1.39684C183.234 0.614977 182.174 0.17484 181.068 0.17282H33.5472Z" fill="#FDC500"/>
<path d="M346.329 216.079H198.801C197.645 216.077 196.536 215.617 195.718 214.799C194.901 213.982 194.44 212.873 194.438 211.717V4.34426C194.451 3.19453 194.915 2.09587 195.732 1.28642C196.548 0.476975 197.651 0.0219664 198.801 0.0200195H346.329C347.477 0.0239958 348.577 0.480138 349.391 1.28958C350.204 2.09902 350.666 3.19654 350.676 4.34426V211.717C350.676 212.871 350.219 213.978 349.404 214.796C348.589 215.614 347.484 216.075 346.329 216.079ZM198.801 0.17282C197.695 0.17484 196.635 0.614977 195.853 1.39684C195.072 2.1787 194.631 3.23855 194.629 4.34426V211.717C194.631 212.822 195.072 213.882 195.853 214.664C196.635 215.446 197.695 215.886 198.801 215.888H346.329C347.435 215.886 348.495 215.446 349.277 214.664C350.059 213.882 350.499 212.822 350.501 211.717V4.34426C350.499 3.23855 350.059 2.1787 349.277 1.39684C348.495 0.614977 347.435 0.17484 346.329 0.17282H198.801Z" fill="#FDC500"/>
<path d="M90.8701 201.25V212.099L86.2861 215.43H107.678L100.848 212.893V202.006L90.8701 201.25Z" fill="#E0E0E0"/>
<path d="M53.0752 215.117V249.29H148.575V215.117H53.0752ZM146.856 228.502H72.1064V217.332H146.856V228.502Z" fill="#E0E0E0"/>
<path d="M69.8066 215.117V249.29H148.575V215.117H69.8066ZM146.856 228.502H72.1063V217.332H146.856V228.502Z" fill="#FDC500"/>
<path d="M146.856 217.332H131.446V228.502H146.856V217.332Z" fill="#E0E0E0"/>
<path d="M91.1682 222.917H72.1064V228.502H91.1682V222.917Z" fill="#E0E0E0"/>
<path d="M106.922 225.178H92.5742V228.494H106.922V225.178Z" fill="#E0E0E0"/>
<path d="M123.905 221.718H110.237V228.502H123.905V221.718Z" fill="#E0E0E0"/>
<path d="M85.6522 230.931L85.2472 232.268H79.7617L79.3492 230.931H72.1064V245.761H96.1495V230.931H85.6522Z" fill="#E0E0E0"/>
<path d="M114.225 230.931L113.813 232.268H108.327L107.915 230.931H97.4248V245.761H121.468V230.931H114.225Z" fill="#E0E0E0"/>
<path d="M136.29 230.931L135.885 232.268H130.399L129.987 230.931H122.744V245.761H146.787V230.931H136.29Z" fill="#E0E0E0"/>
<path d="M134.609 161.545H63.5651C62.0756 161.545 60.8682 162.752 60.8682 164.242V205.032C60.8682 206.521 62.0756 207.729 63.5651 207.729H134.609C136.099 207.729 137.306 206.521 137.306 205.032V164.242C137.306 162.752 136.099 161.545 134.609 161.545Z" fill="#E0E0E0"/>
<path d="M136.404 161.545H65.36C63.8705 161.545 62.6631 162.752 62.6631 164.242V205.032C62.6631 206.521 63.8705 207.729 65.36 207.729H136.404C137.894 207.729 139.101 206.521 139.101 205.032V164.242C139.101 162.752 137.894 161.545 136.404 161.545Z" fill="#FDC500"/>
<path d="M136.855 205.49V163.791H64.9096V205.49H136.855Z" fill="#F0F0F0"/>
<path d="M237.504 157.542H305.913C307.677 157.541 309.425 157.887 311.055 158.562C312.686 159.236 314.167 160.225 315.415 161.473C316.663 162.72 317.653 164.201 318.329 165.831C319.004 167.461 319.352 169.208 319.352 170.973V224.392H224.073V170.973C224.073 167.41 225.488 163.994 228.007 161.475C230.526 158.957 233.942 157.542 237.504 157.542Z" fill="#FDC500"/>
<path d="M203.85 197.132H216.074C218.191 197.132 220.222 197.973 221.719 199.47C223.217 200.968 224.058 202.998 224.058 205.116V249.29H195.866V205.116C195.866 202.998 196.707 200.968 198.205 199.47C199.702 197.973 201.733 197.132 203.85 197.132Z" fill="#E0E0E0"/>
<path d="M203.85 197.132H204.102C206.22 197.132 208.25 197.973 209.748 199.47C211.245 200.968 212.086 202.998 212.086 205.116V249.29H195.866V205.116C195.866 202.998 196.707 200.968 198.205 199.47C199.702 197.973 201.733 197.132 203.85 197.132Z" fill="#FDC500"/>
<path d="M309.382 228.998H215.502V249.29H309.382V228.998Z" fill="#FDC500"/>
<path d="M305.913 210.441H215.371C210.89 210.441 207.258 214.074 207.258 218.555V223.62C207.258 228.101 210.89 231.734 215.371 231.734H305.913C310.394 231.734 314.027 228.101 314.027 223.62V218.555C314.027 214.074 310.394 210.441 305.913 210.441Z" fill="#F5F5F5"/>
<path d="M305.768 210.441H294.53C290.049 210.441 286.416 214.074 286.416 218.555V223.62C286.416 228.101 290.049 231.734 294.53 231.734H305.768C310.249 231.734 313.882 228.101 313.882 223.62V218.555C313.882 214.074 310.249 210.441 305.768 210.441Z" fill="#E0E0E0"/>
<path d="M306.967 197.132H319.191C321.309 197.132 323.339 197.973 324.837 199.47C326.334 200.968 327.175 202.998 327.175 205.116V249.29H298.983V205.116C298.983 204.067 299.19 203.029 299.591 202.061C299.992 201.092 300.58 200.212 301.322 199.47C302.063 198.729 302.943 198.141 303.912 197.74C304.881 197.339 305.919 197.132 306.967 197.132Z" fill="#E0E0E0"/>
<path d="M306.967 197.132H307.227C309.344 197.132 311.375 197.973 312.872 199.47C314.37 200.968 315.211 202.998 315.211 205.116V249.29H298.983V205.116C298.983 204.067 299.19 203.029 299.591 202.061C299.992 201.092 300.58 200.212 301.322 199.47C302.063 198.729 302.943 198.141 303.912 197.74C304.881 197.339 305.919 197.132 306.967 197.132Z" fill="#F0F0F0"/>
<path d="M233.837 132.925H324.471V39.2743L233.837 39.2743V132.925Z" fill="#FDC500"/>
<path d="M230.667 132.925H321.3V39.2743L230.667 39.2743V132.925Z" fill="#F0F0F0"/>
<path d="M319.015 41.49H233.065V130.748H319.015V41.49Z" fill="#E0E0E0"/>
<path d="M319.016 41.49H235.213V130.748H319.016V41.49Z" fill="#F5F5F5"/>
<path d="M276.247 130.756H277.951V41.4976H276.247V130.756Z" fill="#FDC500"/>
<path d="M266.483 41.49L242.601 130.748H240.309L264.191 41.49H266.483Z" fill="white"/>
<path d="M275.521 132.459H276.98V40.1148H275.521V132.459Z" fill="#F0F0F0"/>
<path d="M257.812 41.49L235.213 125.958V79.5296L245.389 41.49H257.812Z" fill="white"/>
<path d="M319.015 49.5884V58.1605L299.587 130.748H297.295L319.015 49.5884Z" fill="white"/>
<path d="M319.016 66.8929V113.321L314.355 130.748H301.933L319.016 66.8929Z" fill="white"/>
<path d="M74.6121 111.388H129.49V44.6147H74.6121V111.388Z" fill="#FDC500"/>
<path d="M87.1723 94.8476L116.006 66.5032L84.8115 61.3539L87.1723 94.8476Z" fill="#E0E0E0"/>
<path d="M115.31 88.1245L116.739 66.3887L95.026 71.7214L93.4521 88.3537L115.31 88.1245Z" fill="#F0F0F0"/>
<path d="M93.103 63.7422C96.5252 60.32 96.5252 54.7715 93.103 51.3493C89.6808 47.9271 84.1323 47.9271 80.7101 51.3493C77.2879 54.7715 77.2879 60.32 80.7101 63.7422C84.1323 67.1644 89.6808 67.1644 93.103 63.7422Z" fill="#FDC500"/>
<path d="M112.476 95.8714C112.476 95.0295 112.725 94.2064 113.193 93.5064C113.661 92.8065 114.326 92.261 115.104 91.9392C115.882 91.6173 116.738 91.5335 117.564 91.6983C118.39 91.8631 119.148 92.2692 119.743 92.8651C120.338 93.461 120.742 94.2199 120.906 95.0459C121.069 95.8719 120.984 96.7278 120.66 97.5052C120.337 98.2827 119.791 98.9468 119.09 99.4135C118.389 99.8801 117.565 100.128 116.723 100.127C116.165 100.127 115.612 100.017 115.096 99.8028C114.58 99.5889 114.112 99.2753 113.717 98.8801C113.322 98.4848 113.01 98.0156 112.797 97.4994C112.584 96.9831 112.475 96.4299 112.476 95.8714Z" fill="#E0E0E0"/>
<path d="M115.715 103.343L103.445 95.8714L113.759 87.3757L115.715 103.343Z" fill="#F5F5F5"/>
<path d="M101.223 53.1028H98.8086V106.422H101.223V53.1028Z" fill="#E0E0E0"/>
<path d="M124.341 53.1028H121.216V104.062H124.341V53.1028Z" fill="#FDC500"/>
<path d="M96.0734 88.3536H80.1211V104.306H96.0734V88.3536Z" fill="#FDC500"/>
<path d="M152.31 138.304H311.497C311.926 138.304 312.35 138.388 312.746 138.552C313.142 138.716 313.501 138.957 313.804 139.259C314.107 139.562 314.347 139.922 314.511 140.318C314.675 140.714 314.76 141.138 314.76 141.566V256.724H149.048V141.597C149.044 141.166 149.125 140.738 149.288 140.339C149.45 139.94 149.689 139.576 149.993 139.27C150.296 138.964 150.657 138.721 151.055 138.555C151.453 138.389 151.879 138.304 152.31 138.304Z" fill="#263238"/>
<path d="M311.498 145.646H152.311V247.388H311.498V145.646Z" fill="#3A5EFC"/>
<path opacity="0.2" d="M230.452 143.866C231.33 143.866 232.042 143.154 232.042 142.277C232.042 141.399 231.33 140.688 230.452 140.688C229.575 140.688 228.863 141.399 228.863 142.277C228.863 143.154 229.575 143.866 230.452 143.866Z" fill="white"/>
<path opacity="0.2" d="M233.746 143.469C234.404 143.469 234.937 142.935 234.937 142.277C234.937 141.619 234.404 141.085 233.746 141.085C233.087 141.085 232.554 141.619 232.554 142.277C232.554 142.935 233.087 143.469 233.746 143.469Z" fill="white"/>
<path opacity="0.2" d="M232.553 249.474C232.345 249.4 232.125 249.362 231.904 249.359C231.492 249.359 231.088 249.481 230.745 249.711C230.402 249.94 230.135 250.265 229.977 250.647C229.819 251.028 229.778 251.447 229.858 251.852C229.939 252.256 230.138 252.628 230.429 252.92C230.721 253.211 231.093 253.41 231.497 253.49C231.902 253.571 232.321 253.53 232.702 253.372C233.083 253.214 233.409 252.947 233.638 252.604C233.867 252.261 233.99 251.857 233.99 251.445C233.994 251.407 233.994 251.368 233.99 251.33C233.591 251.201 233.241 250.955 232.984 250.624C232.728 250.293 232.578 249.892 232.553 249.474Z" fill="white"/>
<path d="M327.114 255.104V256.632C327.111 257.106 326.957 257.566 326.674 257.946C326.391 258.325 325.993 258.604 325.54 258.741L314.004 262.118C312.571 262.545 311.083 262.761 309.588 262.76H154.236C152.743 262.761 151.258 262.544 149.828 262.118L138.284 258.71C137.829 258.575 137.43 258.296 137.145 257.917C136.861 257.537 136.705 257.076 136.702 256.602V255.074L327.114 255.104Z" fill="#263238"/>
<path opacity="0.2" d="M327.114 255.104V256.632C327.111 257.106 326.957 257.566 326.674 257.946C326.391 258.325 325.993 258.604 325.54 258.741L314.004 262.118C312.571 262.545 311.083 262.761 309.588 262.76H154.236C152.743 262.761 151.258 262.544 149.828 262.118L138.284 258.71C137.829 258.575 137.43 258.296 137.145 257.917C136.861 257.537 136.705 257.076 136.702 256.602V255.074L327.114 255.104Z" fill="white"/>
<path opacity="0.2" d="M327.114 255.104V256.632C327.113 257.028 327.005 257.416 326.801 257.755H137.015C136.811 257.416 136.703 257.028 136.702 256.632V255.104H327.114Z" fill="white"/>
<path opacity="0.2" d="M245.305 255.104V255.761C245.305 255.847 245.288 255.931 245.256 256.01C245.223 256.089 245.175 256.16 245.115 256.22C245.055 256.281 244.983 256.329 244.904 256.361C244.826 256.394 244.741 256.411 244.656 256.411H219.169C219.083 256.412 218.998 256.396 218.918 256.363C218.838 256.331 218.766 256.284 218.705 256.223C218.643 256.163 218.595 256.091 218.562 256.012C218.529 255.932 218.512 255.847 218.512 255.761V255.104H245.305Z" fill="black"/>
<path opacity="0.1" d="M311.498 145.646C311.498 145.646 289.487 233.04 152.311 247.388V145.646H311.498Z" fill="white"/>
<path d="M296.432 105.811V201.51L280.495 217.447H217.48C216.829 217.445 216.205 217.185 215.745 216.724C215.285 216.262 215.027 215.638 215.027 214.987V105.811C215.027 105.16 215.285 104.535 215.745 104.074C216.205 103.613 216.829 103.353 217.48 103.351H293.956C294.281 103.349 294.602 103.411 294.902 103.534C295.203 103.657 295.476 103.837 295.706 104.066C295.936 104.295 296.118 104.567 296.243 104.866C296.367 105.166 296.432 105.487 296.432 105.811Z" fill="#3A5EFC"/>
<path opacity="0.6" d="M296.432 109.99V201.51L280.495 217.447H217.48C216.829 217.445 216.205 217.185 215.745 216.723C215.285 216.262 215.027 215.638 215.027 214.987V109.99H296.432Z" fill="white"/>
<path opacity="0.6" d="M294.292 106.392C294.293 106.628 294.225 106.859 294.095 107.056C293.965 107.253 293.779 107.407 293.561 107.498C293.344 107.59 293.104 107.614 292.872 107.569C292.641 107.524 292.427 107.411 292.26 107.245C292.093 107.078 291.978 106.866 291.932 106.635C291.885 106.403 291.908 106.163 291.998 105.945C292.088 105.727 292.241 105.54 292.437 105.409C292.633 105.278 292.864 105.208 293.1 105.208C293.256 105.207 293.411 105.236 293.556 105.295C293.7 105.355 293.832 105.442 293.942 105.552C294.053 105.662 294.141 105.793 294.201 105.937C294.261 106.081 294.292 106.236 294.292 106.392Z" fill="white"/>
<path opacity="0.6" d="M289.754 106.392C289.754 106.626 289.685 106.855 289.555 107.05C289.424 107.244 289.239 107.396 289.023 107.486C288.807 107.575 288.569 107.599 288.339 107.553C288.109 107.508 287.898 107.395 287.733 107.229C287.567 107.063 287.454 106.852 287.408 106.623C287.363 106.393 287.386 106.155 287.476 105.939C287.566 105.722 287.717 105.537 287.912 105.407C288.107 105.277 288.336 105.208 288.57 105.208C288.726 105.207 288.88 105.236 289.024 105.296C289.168 105.355 289.299 105.442 289.41 105.552C289.52 105.662 289.607 105.793 289.666 105.937C289.725 106.082 289.755 106.236 289.754 106.392Z" fill="white"/>
<path opacity="0.6" d="M285.223 106.392C285.225 106.628 285.156 106.86 285.026 107.057C284.895 107.254 284.709 107.408 284.491 107.499C284.273 107.59 284.033 107.614 283.801 107.569C283.569 107.523 283.356 107.409 283.189 107.242C283.022 107.075 282.908 106.862 282.862 106.63C282.817 106.398 282.841 106.158 282.932 105.94C283.023 105.722 283.177 105.536 283.374 105.405C283.571 105.275 283.803 105.206 284.039 105.208C284.353 105.208 284.655 105.332 284.877 105.554C285.099 105.776 285.223 106.078 285.223 106.392Z" fill="white"/>
<path d="M264.497 117.363H220.872C220.67 117.363 220.475 117.282 220.332 117.139C220.189 116.996 220.108 116.801 220.108 116.599C220.108 116.396 220.189 116.202 220.332 116.058C220.475 115.915 220.67 115.835 220.872 115.835H264.497C264.699 115.835 264.894 115.915 265.037 116.058C265.18 116.202 265.261 116.396 265.261 116.599C265.261 116.801 265.18 116.996 265.037 117.139C264.894 117.282 264.699 117.363 264.497 117.363Z" fill="#3A5EFC"/>
<path d="M252.165 121.542H220.841C220.639 121.542 220.444 121.461 220.301 121.318C220.158 121.175 220.077 120.98 220.077 120.778C220.077 120.575 220.158 120.381 220.301 120.238C220.444 120.094 220.639 120.014 220.841 120.014H252.165C252.368 120.014 252.562 120.094 252.705 120.238C252.849 120.381 252.929 120.575 252.929 120.778C252.929 120.98 252.849 121.175 252.705 121.318C252.562 121.461 252.368 121.542 252.165 121.542Z" fill="#3A5EFC"/>
<path d="M285.987 186.069H230.215C230.013 186.069 229.818 185.989 229.675 185.846C229.532 185.702 229.451 185.508 229.451 185.305C229.451 185.103 229.532 184.908 229.675 184.765C229.818 184.622 230.013 184.541 230.215 184.541H285.987C286.19 184.541 286.384 184.622 286.527 184.765C286.671 184.908 286.751 185.103 286.751 185.305C286.751 185.508 286.671 185.702 286.527 185.846C286.384 185.989 286.19 186.069 285.987 186.069Z" fill="#3A5EFC"/>
<path d="M276.659 202.763H220.887C220.684 202.763 220.49 202.682 220.347 202.539C220.204 202.396 220.123 202.201 220.123 201.999C220.123 201.796 220.204 201.602 220.347 201.458C220.49 201.315 220.684 201.235 220.887 201.235H276.659C276.862 201.235 277.056 201.315 277.199 201.458C277.343 201.602 277.423 201.796 277.423 201.999C277.423 202.201 277.343 202.396 277.199 202.539C277.056 202.682 276.862 202.763 276.659 202.763Z" fill="#3A5EFC"/>
<path d="M285.988 190.256H220.872C220.67 190.256 220.475 190.176 220.332 190.032C220.189 189.889 220.108 189.695 220.108 189.492C220.108 189.289 220.189 189.095 220.332 188.952C220.475 188.809 220.67 188.728 220.872 188.728H285.988C286.191 188.728 286.385 188.809 286.528 188.952C286.672 189.095 286.752 189.289 286.752 189.492C286.752 189.695 286.672 189.889 286.528 190.032C286.385 190.176 286.191 190.256 285.988 190.256Z" fill="#3A5EFC"/>
<path d="M285.988 194.42H220.872C220.67 194.42 220.475 194.339 220.332 194.196C220.189 194.053 220.108 193.858 220.108 193.656C220.108 193.453 220.189 193.259 220.332 193.116C220.475 192.972 220.67 192.892 220.872 192.892H285.988C286.191 192.892 286.385 192.972 286.528 193.116C286.672 193.259 286.752 193.453 286.752 193.656C286.752 193.858 286.672 194.053 286.528 194.196C286.385 194.339 286.191 194.42 285.988 194.42Z" fill="#3A5EFC"/>
<path d="M285.988 198.591H220.872C220.67 198.591 220.475 198.511 220.332 198.367C220.189 198.224 220.108 198.03 220.108 197.827C220.108 197.625 220.189 197.43 220.332 197.287C220.475 197.144 220.67 197.063 220.872 197.063H285.988C286.191 197.063 286.385 197.144 286.528 197.287C286.672 197.43 286.752 197.625 286.752 197.827C286.752 198.03 286.672 198.224 286.528 198.367C286.385 198.511 286.191 198.591 285.988 198.591Z" fill="#3A5EFC"/>
<path opacity="0.5" d="M296.417 201.51L280.479 217.447V201.51H296.417Z" fill="#3A5EFC"/>
<path opacity="0.4" d="M296.416 109.99H291.916V201.51H296.416V109.99Z" fill="black"/>
<path d="M294.139 157.809C293.7 157.809 293.278 157.634 292.967 157.323C292.656 157.012 292.481 156.591 292.481 156.151V146.8C292.491 146.367 292.671 145.955 292.98 145.652C293.29 145.349 293.706 145.18 294.139 145.18C294.357 145.18 294.573 145.223 294.774 145.306C294.975 145.39 295.158 145.512 295.312 145.666C295.466 145.82 295.588 146.002 295.671 146.203C295.754 146.405 295.797 146.62 295.797 146.838V156.189C295.787 156.622 295.608 157.034 295.298 157.337C294.988 157.64 294.572 157.809 294.139 157.809Z" fill="#3A5EFC"/>
<path d="M285.987 163.149H230.215C230.013 163.149 229.818 163.069 229.675 162.925C229.532 162.782 229.451 162.588 229.451 162.385C229.451 162.183 229.532 161.988 229.675 161.845C229.818 161.702 230.013 161.621 230.215 161.621H285.987C286.19 161.621 286.384 161.702 286.527 161.845C286.671 161.988 286.751 162.183 286.751 162.385C286.751 162.588 286.671 162.782 286.527 162.925C286.384 163.069 286.19 163.149 285.987 163.149Z" fill="#3A5EFC"/>
<path d="M276.659 179.843H220.887C220.684 179.843 220.49 179.762 220.347 179.619C220.204 179.476 220.123 179.281 220.123 179.079C220.123 178.876 220.204 178.682 220.347 178.538C220.49 178.395 220.684 178.315 220.887 178.315H276.659C276.862 178.315 277.056 178.395 277.199 178.538C277.343 178.682 277.423 178.876 277.423 179.079C277.423 179.281 277.343 179.476 277.199 179.619C277.056 179.762 276.862 179.843 276.659 179.843Z" fill="#3A5EFC"/>
<path d="M285.988 167.336H220.872C220.67 167.336 220.475 167.255 220.332 167.112C220.189 166.969 220.108 166.775 220.108 166.572C220.108 166.369 220.189 166.175 220.332 166.032C220.475 165.888 220.67 165.808 220.872 165.808H285.988C286.191 165.808 286.385 165.888 286.528 166.032C286.672 166.175 286.752 166.369 286.752 166.572C286.752 166.775 286.672 166.969 286.528 167.112C286.385 167.255 286.191 167.336 285.988 167.336Z" fill="#3A5EFC"/>
<path d="M285.988 171.5H220.872C220.67 171.5 220.475 171.419 220.332 171.276C220.189 171.133 220.108 170.938 220.108 170.736C220.108 170.533 220.189 170.339 220.332 170.196C220.475 170.052 220.67 169.972 220.872 169.972H285.988C286.191 169.972 286.385 170.052 286.528 170.196C286.672 170.339 286.752 170.533 286.752 170.736C286.752 170.938 286.672 171.133 286.528 171.276C286.385 171.419 286.191 171.5 285.988 171.5Z" fill="#3A5EFC"/>
<path d="M285.988 175.671H220.872C220.67 175.671 220.475 175.591 220.332 175.447C220.189 175.304 220.108 175.11 220.108 174.907C220.108 174.705 220.189 174.51 220.332 174.367C220.475 174.224 220.67 174.143 220.872 174.143H285.988C286.191 174.143 286.385 174.224 286.528 174.367C286.672 174.51 286.752 174.705 286.752 174.907C286.752 175.11 286.672 175.304 286.528 175.447C286.385 175.591 286.191 175.671 285.988 175.671Z" fill="#3A5EFC"/>
<path d="M285.98 126.516H220.673V150.887H285.98V126.516Z" fill="#3A5EFC"/>
<path opacity="0.2" d="M220.673 146.975H222.453V142.544H224.5V133.796H227.358V139.183H231.285V146.341H235.968V141.352H239.842L242.401 138.785V132.849H243.967V141.352H247.909V144.378H251.989V128.945L253.12 127.814V132.047H255.725V133.949L258.223 136.455V140.97H261.814V137.395H271.181V134.729H273.297V130.068H274.054V137.395H275.245L277.942 134.698H280.479V132.261H281.762V134.729H283.42V144.829H285.223V139.786L285.987 139.832V126.516H220.673V146.975Z" fill="black"/>
<path d="M285.987 154.745H268.415C268.213 154.745 268.018 154.665 267.875 154.522C267.732 154.378 267.651 154.184 267.651 153.981C267.651 153.779 267.732 153.584 267.875 153.441C268.018 153.298 268.213 153.217 268.415 153.217H285.987C286.19 153.217 286.384 153.298 286.528 153.441C286.671 153.584 286.751 153.779 286.751 153.981C286.751 154.184 286.671 154.378 286.528 154.522C286.384 154.665 286.19 154.745 285.987 154.745Z" fill="#3A5EFC"/>
<path opacity="0.2" d="M246.542 103.351V182.44L234.548 194.466H215.027V105.842C215.027 105.191 215.285 104.566 215.745 104.105C216.205 103.644 216.829 103.384 217.48 103.382L246.542 103.351Z" fill="black"/>
<path opacity="0.4" d="M294.139 157.809C293.7 157.809 293.278 157.634 292.967 157.323C292.656 157.012 292.481 156.591 292.481 156.151V146.8C292.491 146.367 292.671 145.955 292.98 145.652C293.29 145.349 293.706 145.18 294.139 145.18C294.357 145.18 294.573 145.223 294.774 145.306C294.975 145.39 295.158 145.512 295.312 145.666C295.466 145.82 295.588 146.002 295.671 146.203C295.754 146.405 295.797 146.62 295.797 146.838V156.189C295.787 156.622 295.608 157.034 295.298 157.337C294.988 157.64 294.572 157.809 294.139 157.809Z" fill="white"/>
<path d="M199.969 117.737V213.436L184.032 229.373H121.033C120.381 229.371 119.758 229.111 119.298 228.65C118.838 228.188 118.58 227.564 118.58 226.913V117.737C118.58 117.086 118.838 116.461 119.298 116C119.758 115.539 120.381 115.279 121.033 115.277H197.509C198.161 115.277 198.787 115.536 199.248 115.998C199.71 116.459 199.969 117.085 199.969 117.737Z" fill="#3A5EFC"/>
<path opacity="0.6" d="M199.969 121.924V213.444L184.032 229.381H121.033C120.381 229.379 119.758 229.118 119.298 228.657C118.838 228.196 118.58 227.572 118.58 226.92V121.924H199.969Z" fill="white"/>
<path opacity="0.6" d="M197.876 118.325C197.877 118.562 197.809 118.793 197.679 118.99C197.549 119.187 197.363 119.341 197.145 119.432C196.928 119.523 196.688 119.548 196.456 119.503C196.225 119.458 196.011 119.345 195.844 119.179C195.677 119.012 195.562 118.8 195.516 118.568C195.469 118.337 195.492 118.097 195.582 117.879C195.672 117.661 195.825 117.474 196.021 117.343C196.217 117.211 196.448 117.141 196.684 117.141C196.84 117.14 196.995 117.17 197.14 117.229C197.284 117.288 197.416 117.375 197.526 117.485C197.637 117.595 197.725 117.726 197.785 117.871C197.845 118.015 197.876 118.169 197.876 118.325Z" fill="white"/>
<path opacity="0.6" d="M193.292 118.325C193.293 118.562 193.225 118.793 193.094 118.99C192.964 119.188 192.778 119.342 192.56 119.433C192.342 119.524 192.101 119.548 191.869 119.502C191.637 119.457 191.424 119.343 191.257 119.176C191.09 119.009 190.976 118.796 190.931 118.564C190.885 118.332 190.909 118.092 191 117.873C191.092 117.655 191.245 117.469 191.443 117.339C191.64 117.209 191.871 117.14 192.108 117.141C192.263 117.14 192.418 117.17 192.562 117.229C192.706 117.288 192.837 117.376 192.947 117.486C193.057 117.596 193.145 117.727 193.204 117.871C193.263 118.015 193.293 118.17 193.292 118.325Z" fill="white"/>
<path opacity="0.6" d="M188.776 118.325C188.778 118.562 188.709 118.793 188.579 118.99C188.449 119.187 188.263 119.341 188.046 119.432C187.828 119.523 187.588 119.548 187.357 119.503C187.125 119.458 186.912 119.345 186.744 119.179C186.577 119.012 186.463 118.8 186.416 118.568C186.369 118.337 186.393 118.097 186.483 117.879C186.573 117.661 186.725 117.474 186.921 117.343C187.118 117.211 187.348 117.141 187.584 117.141C187.741 117.14 187.895 117.17 188.04 117.229C188.184 117.288 188.316 117.375 188.427 117.485C188.537 117.595 188.625 117.726 188.685 117.871C188.745 118.015 188.776 118.169 188.776 118.325Z" fill="white"/>
<path d="M137.978 129.709H124.425C124.223 129.709 124.028 129.629 123.885 129.485C123.742 129.342 123.661 129.148 123.661 128.945C123.661 128.742 123.742 128.548 123.885 128.405C124.028 128.262 124.223 128.181 124.425 128.181H137.978C138.181 128.181 138.375 128.262 138.519 128.405C138.662 128.548 138.742 128.742 138.742 128.945C138.742 129.148 138.662 129.342 138.519 129.485C138.375 129.629 138.181 129.709 137.978 129.709Z" fill="#3A5EFC"/>
<path d="M144.396 133.881H124.455C124.253 133.881 124.058 133.8 123.915 133.657C123.772 133.513 123.691 133.319 123.691 133.117C123.691 132.914 123.772 132.72 123.915 132.576C124.058 132.433 124.253 132.353 124.455 132.353H144.396C144.598 132.353 144.793 132.433 144.936 132.576C145.079 132.72 145.16 132.914 145.16 133.117C145.16 133.319 145.079 133.513 144.936 133.657C144.793 133.8 144.598 133.881 144.396 133.881Z" fill="#3A5EFC"/>
<path d="M138.2 138.052H124.448C124.245 138.052 124.051 137.971 123.907 137.828C123.764 137.685 123.684 137.491 123.684 137.288C123.684 137.085 123.764 136.891 123.907 136.748C124.051 136.604 124.245 136.524 124.448 136.524H138.2C138.402 136.524 138.597 136.604 138.74 136.748C138.883 136.891 138.964 137.085 138.964 137.288C138.964 137.491 138.883 137.685 138.74 137.828C138.597 137.971 138.402 138.052 138.2 138.052Z" fill="#3A5EFC"/>
<path d="M189.533 206.407H133.761C133.558 206.407 133.364 206.327 133.221 206.183C133.078 206.04 132.997 205.846 132.997 205.643C132.997 205.44 133.078 205.246 133.221 205.103C133.364 204.96 133.558 204.879 133.761 204.879H189.533C189.736 204.879 189.93 204.96 190.073 205.103C190.217 205.246 190.297 205.44 190.297 205.643C190.297 205.846 190.217 206.04 190.073 206.183C189.93 206.327 189.736 206.407 189.533 206.407Z" fill="#3A5EFC"/>
<path d="M158.973 210.578H124.425C124.223 210.578 124.028 210.498 123.885 210.355C123.742 210.211 123.661 210.017 123.661 209.814C123.661 209.612 123.742 209.417 123.885 209.274C124.028 209.131 124.223 209.05 124.425 209.05H158.973C159.176 209.05 159.37 209.131 159.513 209.274C159.657 209.417 159.737 209.612 159.737 209.814C159.737 210.017 159.657 210.211 159.513 210.355C159.37 210.498 159.176 210.578 158.973 210.578Z" fill="#3A5EFC"/>
<path opacity="0.5" d="M199.969 213.443L184.032 229.381V213.443H199.969Z" fill="#3A5EFC"/>
<path opacity="0.4" d="M199.969 121.924H195.469V213.444H199.969V121.924Z" fill="black"/>
<path d="M197.716 207.179C197.276 207.179 196.854 207.004 196.543 206.693C196.232 206.382 196.058 205.961 196.058 205.521V196.169C196.058 195.73 196.232 195.308 196.543 194.997C196.854 194.686 197.276 194.512 197.716 194.512C197.933 194.512 198.149 194.554 198.35 194.638C198.551 194.721 198.734 194.843 198.888 194.997C199.042 195.151 199.164 195.334 199.247 195.535C199.331 195.736 199.373 195.952 199.373 196.169V205.536C199.369 205.973 199.193 206.391 198.882 206.699C198.572 207.006 198.153 207.179 197.716 207.179Z" fill="#3A5EFC"/>
<path d="M189.533 129.709H179.043C178.841 129.709 178.646 129.629 178.503 129.485C178.36 129.342 178.279 129.148 178.279 128.945C178.279 128.742 178.36 128.548 178.503 128.405C178.646 128.262 178.841 128.181 179.043 128.181H189.533C189.736 128.181 189.93 128.262 190.073 128.405C190.217 128.548 190.297 128.742 190.297 128.945C190.297 129.148 190.217 129.342 190.073 129.485C189.93 129.629 189.736 129.709 189.533 129.709Z" fill="#3A5EFC"/>
<path d="M189.532 133.881H184.123C183.921 133.881 183.726 133.8 183.583 133.657C183.44 133.513 183.359 133.319 183.359 133.117C183.359 132.914 183.44 132.72 183.583 132.576C183.726 132.433 183.921 132.353 184.123 132.353H189.548C189.75 132.353 189.945 132.433 190.088 132.576C190.231 132.72 190.312 132.914 190.312 133.117C190.312 133.319 190.231 133.513 190.088 133.657C189.945 133.8 189.75 133.881 189.548 133.881H189.532Z" fill="#3A5EFC"/>
<path d="M189.533 149.107H133.761C133.558 149.107 133.364 149.026 133.221 148.883C133.078 148.74 132.997 148.546 132.997 148.343C132.997 148.14 133.078 147.946 133.221 147.803C133.364 147.659 133.558 147.579 133.761 147.579H189.533C189.736 147.579 189.93 147.659 190.073 147.803C190.217 147.946 190.297 148.14 190.297 148.343C190.297 148.546 190.217 148.74 190.073 148.883C189.93 149.026 189.736 149.107 189.533 149.107Z" fill="#3A5EFC"/>
<path d="M189.533 153.278H124.425C124.223 153.278 124.028 153.198 123.885 153.055C123.742 152.911 123.661 152.717 123.661 152.514C123.661 152.312 123.742 152.118 123.885 151.974C124.028 151.831 124.223 151.75 124.425 151.75H189.533C189.736 151.75 189.93 151.831 190.073 151.974C190.217 152.118 190.297 152.312 190.297 152.514C190.297 152.717 190.217 152.911 190.073 153.055C189.93 153.198 189.736 153.278 189.533 153.278Z" fill="#3A5EFC"/>
<path d="M151.333 157.45H124.425C124.223 157.45 124.028 157.369 123.885 157.226C123.742 157.083 123.661 156.889 123.661 156.686C123.661 156.483 123.742 156.289 123.885 156.146C124.028 156.002 124.223 155.922 124.425 155.922H151.333C151.536 155.922 151.73 156.002 151.873 156.146C152.017 156.289 152.097 156.483 152.097 156.686C152.097 156.889 152.017 157.083 151.873 157.226C151.73 157.369 151.536 157.45 151.333 157.45Z" fill="#3A5EFC"/>
<path opacity="0.7" d="M160.883 162.989H135.228V169.865H160.883V162.989Z" fill="#3A5EFC"/>
<path opacity="0.3" d="M146.848 171.393H135.228V196.781H146.848V171.393Z" fill="#3A5EFC"/>
<path opacity="0.3" d="M175.75 171.393H162.403V196.781H175.75V171.393Z" fill="#3A5EFC"/>
<path opacity="0.7" d="M189.533 162.989H162.403V169.865H189.533V162.989Z" fill="#3A5EFC"/>
<path opacity="0.3" d="M189.541 171.393H177.286V196.781H189.541V171.393Z" fill="#3A5EFC"/>
<path opacity="0.5" d="M133.7 171.393H124.425V196.781H133.7V171.393Z" fill="#3A5EFC"/>
<path d="M133.7 162.989H124.425V169.865H133.7V162.989Z" fill="#3A5EFC"/>
<path opacity="0.3" d="M160.875 171.393H148.376V196.781H160.875V171.393Z" fill="#3A5EFC"/>
<path opacity="0.4" d="M197.716 207.179C197.276 207.179 196.854 207.004 196.543 206.693C196.232 206.382 196.058 205.961 196.058 205.521V196.169C196.058 195.73 196.232 195.308 196.543 194.997C196.854 194.686 197.276 194.512 197.716 194.512C197.933 194.512 198.149 194.554 198.35 194.638C198.551 194.721 198.734 194.843 198.888 194.997C199.042 195.151 199.164 195.334 199.247 195.535C199.331 195.736 199.373 195.952 199.373 196.169V205.536C199.369 205.973 199.193 206.391 198.882 206.699C198.572 207.006 198.153 207.179 197.716 207.179Z" fill="white"/>
<path opacity="0.2" d="M199.969 117.737V197.346H153.877C153.226 197.344 152.602 197.084 152.143 196.623C151.683 196.162 151.425 195.537 151.425 194.886V115.277H197.509C198.162 115.277 198.787 115.536 199.249 115.998C199.71 116.459 199.969 117.085 199.969 117.737Z" fill="black"/>
<path d="M240.439 74.3572V170.056L224.502 185.993H161.502C160.851 185.991 160.227 185.731 159.768 185.27C159.308 184.808 159.05 184.184 159.05 183.533V74.3572C159.05 73.706 159.308 73.0815 159.768 72.6203C160.227 72.1592 160.851 71.8991 161.502 71.8971H237.979C238.631 71.8971 239.257 72.1563 239.718 72.6176C240.18 73.079 240.439 73.7047 240.439 74.3572Z" fill="#3A5EFC"/>
<path opacity="0.6" d="M240.439 78.5363V170.056L224.502 185.993H161.502C160.851 185.991 160.227 185.731 159.768 185.27C159.308 184.808 159.05 184.184 159.05 183.533V78.5363H240.439Z" fill="white"/>
<path opacity="0.6" d="M237.123 76.1221C237.777 76.1221 238.307 75.5919 238.307 74.9379C238.307 74.2838 237.777 73.7537 237.123 73.7537C236.469 73.7537 235.938 74.2838 235.938 74.9379C235.938 75.5919 236.469 76.1221 237.123 76.1221Z" fill="white"/>
<path opacity="0.6" d="M232.585 76.1221C233.239 76.1221 233.769 75.5919 233.769 74.9379C233.769 74.2838 233.239 73.7537 232.585 73.7537C231.931 73.7537 231.4 74.2838 231.4 74.9379C231.4 75.5919 231.931 76.1221 232.585 76.1221Z" fill="white"/>
<path opacity="0.6" d="M229.238 74.9378C229.24 75.1741 229.171 75.4056 229.04 75.6028C228.91 75.7999 228.724 75.9539 228.506 76.045C228.288 76.1362 228.048 76.1604 227.816 76.1147C227.584 76.069 227.371 75.9553 227.204 75.7881C227.036 75.621 226.923 75.4079 226.877 75.176C226.831 74.9441 226.856 74.7039 226.947 74.4858C227.038 74.2677 227.192 74.0816 227.389 73.9512C227.586 73.8209 227.818 73.7521 228.054 73.7536C228.21 73.7526 228.364 73.7825 228.508 73.8416C228.652 73.9008 228.783 73.988 228.894 74.0982C229.004 74.2083 229.091 74.3393 229.15 74.4834C229.209 74.6275 229.239 74.782 229.238 74.9378Z" fill="white"/>
<path d="M205.226 86.352H189.663C189.461 86.352 189.266 86.2715 189.123 86.1282C188.98 85.9849 188.899 85.7906 188.899 85.588C188.899 85.3853 188.98 85.191 189.123 85.0477C189.266 84.9045 189.461 84.824 189.663 84.824H205.226C205.429 84.824 205.623 84.9045 205.766 85.0477C205.91 85.191 205.99 85.3853 205.99 85.588C205.99 85.7906 205.91 85.9849 205.766 86.1282C205.623 86.2715 205.429 86.352 205.226 86.352Z" fill="#3A5EFC"/>
<path d="M211.628 90.4928H183.284C183.081 90.4928 182.887 90.4124 182.743 90.2691C182.6 90.1258 182.52 89.9315 182.52 89.7288C182.52 89.5262 182.6 89.3319 182.743 89.1886C182.887 89.0453 183.081 88.9648 183.284 88.9648H211.628C211.831 88.9648 212.025 89.0453 212.168 89.1886C212.311 89.3319 212.392 89.5262 212.392 89.7288C212.392 89.9315 212.311 90.1258 212.168 90.2691C212.025 90.4124 211.831 90.4928 211.628 90.4928Z" fill="#3A5EFC"/>
<path d="M205.455 94.6719H189.472C189.269 94.6719 189.075 94.5914 188.932 94.4482C188.788 94.3049 188.708 94.1105 188.708 93.9079C188.708 93.7053 188.788 93.511 188.932 93.3677C189.075 93.2244 189.269 93.1439 189.472 93.1439H205.516C205.719 93.1439 205.913 93.2244 206.056 93.3677C206.2 93.511 206.28 93.7053 206.28 93.9079C206.28 94.1105 206.2 94.3049 206.056 94.4482C205.913 94.5914 205.719 94.6719 205.516 94.6719H205.455Z" fill="#3A5EFC"/>
<path d="M230.003 105.719H174.193C173.99 105.719 173.796 105.639 173.652 105.496C173.509 105.352 173.429 105.158 173.429 104.955C173.429 104.753 173.509 104.558 173.652 104.415C173.796 104.272 173.99 104.191 174.193 104.191H229.965C230.167 104.191 230.362 104.272 230.505 104.415C230.648 104.558 230.729 104.753 230.729 104.955C230.729 105.158 230.648 105.352 230.505 105.496C230.362 105.639 230.167 105.719 229.965 105.719H230.003Z" fill="#3A5EFC"/>
<path d="M220.674 122.413H164.902C164.699 122.413 164.505 122.332 164.361 122.189C164.218 122.046 164.138 121.851 164.138 121.649C164.138 121.446 164.218 121.252 164.361 121.109C164.505 120.965 164.699 120.885 164.902 120.885H220.674C220.876 120.885 221.071 120.965 221.214 121.109C221.357 121.252 221.438 121.446 221.438 121.649C221.438 121.851 221.357 122.046 221.214 122.189C221.071 122.332 220.876 122.413 220.674 122.413Z" fill="#3A5EFC"/>
<path d="M230.003 109.891H164.887C164.684 109.891 164.49 109.81 164.347 109.667C164.204 109.524 164.123 109.329 164.123 109.127C164.123 108.924 164.204 108.73 164.347 108.587C164.49 108.443 164.684 108.363 164.887 108.363H230.003C230.205 108.363 230.4 108.443 230.543 108.587C230.686 108.73 230.767 108.924 230.767 109.127C230.767 109.329 230.686 109.524 230.543 109.667C230.4 109.81 230.205 109.891 230.003 109.891Z" fill="#3A5EFC"/>
<path d="M230.003 114.07H164.887C164.684 114.07 164.49 113.989 164.347 113.846C164.204 113.703 164.123 113.508 164.123 113.306C164.123 113.103 164.204 112.909 164.347 112.766C164.49 112.622 164.684 112.542 164.887 112.542H230.003C230.205 112.542 230.4 112.622 230.543 112.766C230.686 112.909 230.767 113.103 230.767 113.306C230.767 113.508 230.686 113.703 230.543 113.846C230.4 113.989 230.205 114.07 230.003 114.07Z" fill="#3A5EFC"/>
<path d="M230.003 118.241H164.887C164.684 118.241 164.49 118.161 164.347 118.018C164.204 117.874 164.123 117.68 164.123 117.477C164.123 117.275 164.204 117.08 164.347 116.937C164.49 116.794 164.684 116.713 164.887 116.713H230.003C230.205 116.713 230.4 116.794 230.543 116.937C230.686 117.08 230.767 117.275 230.767 117.477C230.767 117.68 230.686 117.874 230.543 118.018C230.4 118.161 230.205 118.241 230.003 118.241Z" fill="#3A5EFC"/>
<path d="M230.003 147.739H174.193C173.99 147.739 173.796 147.659 173.652 147.516C173.509 147.372 173.429 147.178 173.429 146.975C173.429 146.773 173.509 146.578 173.652 146.435C173.796 146.292 173.99 146.211 174.193 146.211H229.965C230.167 146.211 230.362 146.292 230.505 146.435C230.648 146.578 230.729 146.773 230.729 146.975C230.729 147.178 230.648 147.372 230.505 147.516C230.362 147.659 230.167 147.739 229.965 147.739H230.003Z" fill="#3A5EFC"/>
<path d="M220.674 164.433H164.902C164.699 164.433 164.505 164.352 164.361 164.209C164.218 164.066 164.138 163.871 164.138 163.669C164.138 163.466 164.218 163.272 164.361 163.129C164.505 162.985 164.699 162.905 164.902 162.905H220.674C220.876 162.905 221.071 162.985 221.214 163.129C221.357 163.272 221.438 163.466 221.438 163.669C221.438 163.871 221.357 164.066 221.214 164.209C221.071 164.352 220.876 164.433 220.674 164.433Z" fill="#3A5EFC"/>
<path d="M230.003 151.911H164.887C164.684 151.911 164.49 151.83 164.347 151.687C164.204 151.544 164.123 151.349 164.123 151.147C164.123 150.944 164.204 150.75 164.347 150.607C164.49 150.463 164.684 150.383 164.887 150.383H230.003C230.205 150.383 230.4 150.463 230.543 150.607C230.686 150.75 230.767 150.944 230.767 151.147C230.767 151.349 230.686 151.544 230.543 151.687C230.4 151.83 230.205 151.911 230.003 151.911Z" fill="#3A5EFC"/>
<path d="M230.003 156.09H164.887C164.684 156.09 164.49 156.009 164.347 155.866C164.204 155.723 164.123 155.529 164.123 155.326C164.123 155.123 164.204 154.929 164.347 154.786C164.49 154.642 164.684 154.562 164.887 154.562H230.003C230.205 154.562 230.4 154.642 230.543 154.786C230.686 154.929 230.767 155.123 230.767 155.326C230.767 155.529 230.686 155.723 230.543 155.866C230.4 156.009 230.205 156.09 230.003 156.09Z" fill="#3A5EFC"/>
<path d="M230.003 160.261H164.887C164.684 160.261 164.49 160.181 164.347 160.038C164.204 159.894 164.123 159.7 164.123 159.497C164.123 159.295 164.204 159.1 164.347 158.957C164.49 158.814 164.684 158.733 164.887 158.733H230.003C230.205 158.733 230.4 158.814 230.543 158.957C230.686 159.1 230.767 159.295 230.767 159.497C230.767 159.7 230.686 159.894 230.543 160.038C230.4 160.181 230.205 160.261 230.003 160.261Z" fill="#3A5EFC"/>
<path d="M230.002 84.6406H222.187V95.0463H230.002V84.6406Z" fill="#3A5EFC"/>
<path d="M169.226 93.3044C171.619 93.3044 173.558 91.3649 173.558 88.9725C173.558 86.5801 171.619 84.6406 169.226 84.6406C166.834 84.6406 164.895 86.5801 164.895 88.9725C164.895 91.3649 166.834 93.3044 169.226 93.3044Z" fill="#3A5EFC"/>
<path d="M164.642 127.875C164.663 128.103 164.769 128.315 164.937 128.469C165.106 128.623 165.327 128.709 165.555 128.709C165.784 128.709 166.005 128.623 166.173 128.469C166.342 128.315 166.448 128.103 166.468 127.875C166.48 127.748 166.465 127.621 166.425 127.5C166.384 127.379 166.319 127.268 166.233 127.174C166.147 127.08 166.042 127.004 165.926 126.953C165.809 126.902 165.683 126.875 165.555 126.875C165.428 126.875 165.302 126.902 165.185 126.953C165.069 127.004 164.964 127.08 164.878 127.174C164.792 127.268 164.727 127.379 164.686 127.5C164.646 127.621 164.631 127.748 164.642 127.875Z" fill="#3A5EFC"/>
<path d="M164.643 132.047C164.641 132.229 164.694 132.407 164.794 132.559C164.894 132.711 165.037 132.83 165.205 132.9C165.373 132.97 165.558 132.989 165.736 132.954C165.915 132.919 166.079 132.831 166.208 132.703C166.336 132.574 166.424 132.41 166.459 132.231C166.494 132.053 166.475 131.868 166.405 131.7C166.335 131.532 166.216 131.389 166.064 131.289C165.912 131.189 165.734 131.136 165.552 131.138C165.311 131.138 165.079 131.233 164.909 131.404C164.738 131.574 164.643 131.806 164.643 132.047Z" fill="#3A5EFC"/>
<path d="M164.642 136.226C164.663 136.454 164.769 136.665 164.937 136.819C165.106 136.974 165.327 137.059 165.555 137.059C165.784 137.059 166.005 136.974 166.173 136.819C166.342 136.665 166.448 136.454 166.468 136.226C166.48 136.099 166.465 135.971 166.425 135.85C166.384 135.729 166.319 135.618 166.233 135.524C166.147 135.43 166.042 135.355 165.926 135.303C165.809 135.252 165.683 135.225 165.555 135.225C165.428 135.225 165.302 135.252 165.185 135.303C165.069 135.355 164.964 135.43 164.878 135.524C164.792 135.618 164.727 135.729 164.686 135.85C164.646 135.971 164.631 136.099 164.642 136.226Z" fill="#3A5EFC"/>
<path d="M164.642 140.397C164.663 140.625 164.769 140.837 164.937 140.991C165.106 141.145 165.327 141.231 165.555 141.231C165.784 141.231 166.005 141.145 166.173 140.991C166.342 140.837 166.448 140.625 166.468 140.397C166.48 140.27 166.465 140.143 166.425 140.022C166.384 139.901 166.319 139.79 166.233 139.696C166.147 139.602 166.042 139.526 165.926 139.475C165.809 139.424 165.683 139.397 165.555 139.397C165.428 139.397 165.302 139.424 165.185 139.475C165.069 139.526 164.964 139.602 164.878 139.696C164.792 139.79 164.727 139.901 164.686 140.022C164.646 140.143 164.631 140.27 164.642 140.397Z" fill="#3A5EFC"/>
<path d="M178.654 128.639H168.722C168.519 128.639 168.325 128.559 168.182 128.416C168.038 128.272 167.958 128.078 167.958 127.875C167.958 127.673 168.038 127.478 168.182 127.335C168.325 127.192 168.519 127.111 168.722 127.111H178.654C178.857 127.111 179.051 127.192 179.194 127.335C179.338 127.478 179.418 127.673 179.418 127.875C179.418 128.078 179.338 128.272 179.194 128.416C179.051 128.559 178.857 128.639 178.654 128.639Z" fill="#3A5EFC"/>
<path d="M187.982 132.811H168.706C168.504 132.811 168.309 132.73 168.166 132.587C168.023 132.444 167.942 132.249 167.942 132.047C167.942 131.844 168.023 131.65 168.166 131.507C168.309 131.363 168.504 131.283 168.706 131.283H187.982C188.185 131.283 188.379 131.363 188.522 131.507C188.666 131.65 188.746 131.844 188.746 132.047C188.746 132.249 188.666 132.444 188.522 132.587C188.379 132.73 188.185 132.811 187.982 132.811Z" fill="#3A5EFC"/>
<path d="M176.522 136.99H168.706C168.504 136.99 168.309 136.909 168.166 136.766C168.023 136.623 167.942 136.429 167.942 136.226C167.942 136.023 168.023 135.829 168.166 135.686C168.309 135.542 168.504 135.462 168.706 135.462H176.522C176.725 135.462 176.919 135.542 177.062 135.686C177.206 135.829 177.286 136.023 177.286 136.226C177.286 136.429 177.206 136.623 177.062 136.766C176.919 136.909 176.725 136.99 176.522 136.99Z" fill="#3A5EFC"/>
<path d="M184.926 141.161H168.706C168.504 141.161 168.309 141.081 168.166 140.938C168.023 140.794 167.942 140.6 167.942 140.397C167.942 140.195 168.023 140 168.166 139.857C168.309 139.714 168.504 139.633 168.706 139.633H184.926C185.129 139.633 185.323 139.714 185.466 139.857C185.61 140 185.69 140.195 185.69 140.397C185.69 140.6 185.61 140.794 185.466 140.938C185.323 141.081 185.129 141.161 184.926 141.161Z" fill="#3A5EFC"/>
<path opacity="0.5" d="M240.439 170.056L224.502 185.993V170.056H240.439Z" fill="#3A5EFC"/>
<path opacity="0.2" d="M230.002 84.6406L222.187 95.0463H230.002V84.6406Z" fill="black"/>
<path opacity="0.2" d="M171.755 86.4436H166.689V91.5089H171.755V86.4436Z" fill="black"/>
<path opacity="0.4" d="M240.431 78.5363H235.931V170.056H240.431V78.5363Z" fill="black"/>
<path d="M238.185 95.7951C237.746 95.7951 237.324 95.6204 237.013 95.3095C236.702 94.9986 236.527 94.5769 236.527 94.1372V84.824C236.527 84.3843 236.702 83.9626 237.013 83.6517C237.324 83.3408 237.746 83.1661 238.185 83.1661C238.625 83.1661 239.047 83.3408 239.358 83.6517C239.668 83.9626 239.843 84.3843 239.843 84.824V94.1754C239.833 94.6084 239.654 95.0204 239.344 95.3231C239.034 95.6258 238.618 95.7952 238.185 95.7951Z" fill="#3A5EFC"/>
<path opacity="0.4" d="M238.185 95.7951C237.746 95.7951 237.324 95.6204 237.013 95.3095C236.702 94.9986 236.527 94.5769 236.527 94.1372V84.824C236.527 84.3843 236.702 83.9626 237.013 83.6517C237.324 83.3408 237.746 83.1661 238.185 83.1661C238.625 83.1661 239.047 83.3408 239.358 83.6517C239.668 83.9626 239.843 84.3843 239.843 84.824V94.1754C239.833 94.6084 239.654 95.0204 239.344 95.3231C239.034 95.6258 238.618 95.7952 238.185 95.7951Z" fill="white"/>
<path d="M64.0465 117.623H90.7254C91.7514 117.625 92.7347 118.034 93.4594 118.76C94.1842 119.486 94.5912 120.47 94.5912 121.496V147.426C94.5912 148.451 94.1839 149.435 93.459 150.16C92.734 150.885 91.7507 151.292 90.7254 151.292H79.8919L81.0608 159.108L75.7128 151.292H64.0465C63.5386 151.293 63.0354 151.194 62.5659 151C62.0965 150.806 61.6699 150.521 61.3107 150.162C60.9515 149.803 60.6668 149.376 60.4729 148.907C60.279 148.437 60.1797 147.934 60.1807 147.426V121.496C60.1797 120.988 60.2789 120.484 60.4727 120.014C60.6666 119.544 60.9512 119.117 61.3102 118.758C61.6693 118.398 62.0958 118.112 62.5654 117.918C63.0349 117.723 63.5382 117.623 64.0465 117.623Z" fill="#3A5EFC"/>
<path opacity="0.6" d="M64.0465 117.623H90.7254C91.7514 117.625 92.7347 118.034 93.4594 118.76C94.1842 119.486 94.5912 120.47 94.5912 121.496V147.426C94.5912 148.451 94.1839 149.435 93.459 150.16C92.734 150.885 91.7507 151.292 90.7254 151.292H79.8919L81.0608 159.108L75.7128 151.292H64.0465C63.5386 151.293 63.0354 151.194 62.5659 151C62.0965 150.806 61.6699 150.521 61.3107 150.162C60.9515 149.803 60.6668 149.376 60.4729 148.907C60.279 148.437 60.1797 147.934 60.1807 147.426V121.496C60.1797 120.988 60.2789 120.484 60.4727 120.014C60.6666 119.544 60.9512 119.117 61.3102 118.758C61.6693 118.398 62.0958 118.112 62.5654 117.918C63.0349 117.723 63.5382 117.623 64.0465 117.623Z" fill="white"/>
<path d="M75.1855 129.067V131.138L76.2551 131.237C76.3853 131.917 76.6446 132.565 77.0191 133.147L76.3392 133.972L77.7984 135.431L78.6312 134.751C79.2141 135.124 79.8621 135.383 80.5412 135.515L80.6405 136.577H82.7033L82.8103 135.515C83.4884 135.38 84.1359 135.121 84.7203 134.751L85.5454 135.431L87.0046 133.972L86.3247 133.147C86.6959 132.563 86.955 131.916 87.0887 131.237L88.1506 131.138V129.067L87.0887 128.968C86.955 128.289 86.6959 127.642 86.3247 127.058L87.0046 126.233L85.5683 124.766L84.7432 125.454C84.1588 125.084 83.5114 124.825 82.8332 124.69L82.7262 123.62H80.6634L80.5641 124.69C79.8851 124.822 79.2371 125.081 78.6541 125.454L77.8213 124.766L76.4003 126.233L77.0803 127.058C76.7058 127.64 76.4464 128.288 76.3163 128.968L75.1855 129.067ZM81.6948 127.302C82.25 127.301 82.7932 127.464 83.2554 127.772C83.7177 128.079 84.0783 128.517 84.2914 129.03C84.5046 129.542 84.5608 130.107 84.4528 130.651C84.3449 131.196 84.0777 131.696 83.6851 132.089C83.2925 132.482 82.7922 132.749 82.2476 132.857C81.703 132.965 81.1386 132.908 80.6259 132.695C80.1133 132.482 79.6755 132.122 79.3679 131.659C79.0604 131.197 78.8971 130.654 78.8986 130.099C78.9006 129.358 79.1958 128.648 79.7198 128.124C80.2438 127.6 80.9538 127.304 81.6948 127.302Z" fill="#F5F5F5"/>
<path d="M76.5223 144.156C77.0656 144.047 77.5837 143.837 78.0503 143.537L78.6997 144.072L79.8457 142.926L79.3109 142.277C79.6101 141.81 79.82 141.292 79.9297 140.749L80.7625 140.672V139.068L79.9297 138.992C79.823 138.447 79.6129 137.929 79.3109 137.464L79.8457 136.814L78.6997 135.668L78.0503 136.203C77.5871 135.897 77.0676 135.687 76.5223 135.584L76.4459 134.744H74.8262L74.7422 135.584C74.1968 135.687 73.6773 135.897 73.2142 136.203L72.5724 135.668L71.4264 136.814L71.9612 137.464C71.6535 137.927 71.4406 138.446 71.3347 138.992L70.502 139.068V140.688L71.3347 140.764C71.4436 141.309 71.6563 141.828 71.9612 142.292L71.4264 142.942L72.5724 144.088L73.2142 143.553C73.6807 143.852 74.1989 144.062 74.7422 144.172L74.8262 145.004H76.4459L76.5223 144.156ZM73.4663 139.893C73.4724 139.458 73.6073 139.034 73.8541 138.676C74.1009 138.318 74.4484 138.04 74.8528 137.88C75.2571 137.719 75.7 137.681 76.1256 137.772C76.5512 137.863 76.9403 138.078 77.2437 138.39C77.5471 138.702 77.7512 139.097 77.8302 139.525C77.9091 139.953 77.8594 140.394 77.6874 140.794C77.5153 141.194 77.2286 141.533 76.8634 141.77C76.4983 142.007 76.0712 142.13 75.636 142.124C75.3442 142.125 75.0551 142.068 74.7857 141.956C74.5162 141.844 74.2719 141.679 74.0669 141.471C73.862 141.263 73.7006 141.017 73.5922 140.746C73.4838 140.475 73.4306 140.185 73.4357 139.893H73.4663Z" fill="#F5F5F5"/>
<path d="M72.305 135.019L72.7558 135.561L73.8789 134.797L73.5351 134.178C73.862 133.853 74.1216 133.466 74.2991 133.04L75.0019 133.109L75.2541 131.772L74.5741 131.573C74.5654 131.117 74.4722 130.666 74.2991 130.244L74.8415 129.793L74.0775 128.67L73.4587 129.006C73.1334 128.679 72.7465 128.419 72.3203 128.242L72.3891 127.539L71.0521 127.302L70.8534 127.975C70.3962 127.982 69.9447 128.078 69.5241 128.257L69.0733 127.715L67.9502 128.479L68.2864 129.098C67.9623 129.426 67.7031 129.812 67.5224 130.236L66.8195 130.175L66.5674 131.512L67.2397 131.703C67.248 132.163 67.344 132.616 67.5224 133.04L66.9799 133.491L67.7439 134.614L68.3628 134.27C68.6911 134.594 69.0772 134.853 69.5011 135.034L69.44 135.737L70.777 135.989L70.968 135.309C71.4277 135.295 71.8808 135.196 72.305 135.019ZM69.0886 131.298C69.1788 130.818 69.456 130.393 69.8593 130.117C70.2627 129.842 70.759 129.737 71.2392 129.828C71.7195 129.918 72.1442 130.195 72.42 130.598C72.6958 131.002 72.8001 131.498 72.7099 131.978C72.6653 132.216 72.5743 132.443 72.442 132.645C72.3098 132.848 72.1389 133.022 71.9392 133.159C71.7395 133.295 71.5148 133.391 71.2781 133.441C71.0413 133.491 70.7971 133.494 70.5593 133.449C70.3215 133.404 70.0948 133.313 69.8922 133.181C69.6896 133.049 69.5151 132.878 69.3785 132.678C69.242 132.478 69.1461 132.254 69.0963 132.017C69.0466 131.78 69.0439 131.536 69.0886 131.298Z" fill="#F5F5F5"/>
</svg>
