<svg width="283" height="283" viewBox="0 0 283 283" fill="none" xmlns="http://www.w3.org/2000/svg">
<path d="M141.5 4.97461C66.2198 4.97461 4.97461 66.2198 4.97461 141.5C4.97461 216.78 66.2198 278.025 141.5 278.025C216.78 278.025 278.025 216.78 278.025 141.5C278.025 66.2198 216.78 4.97461 141.5 4.97461ZM137.631 209.276C121.273 209.488 105.351 211.048 90.4235 213.84C83.0704 193.887 78.9437 170.264 78.5557 145.369H137.631V209.276ZM137.631 217.015V265.492C122.713 263.668 108.643 251.338 97.6621 230.295C96.1349 227.368 94.6928 224.32 93.338 221.162C107.358 218.632 122.287 217.219 137.631 217.015ZM145.369 217.015C160.713 217.219 175.642 218.632 189.662 221.162C188.307 224.32 186.865 227.368 185.338 230.295C174.357 251.338 160.287 263.668 145.369 265.492V217.015ZM145.369 209.276V145.369H204.444C204.056 170.264 199.93 193.887 192.577 213.84C177.649 211.047 161.727 209.488 145.369 209.276ZM145.369 137.631V75.4206C161.953 75.2061 178.068 73.6115 193.149 70.7539C200.142 90.3665 204.066 113.394 204.444 137.631H145.369ZM145.369 67.6812V17.509C160.287 19.3324 174.357 31.6623 185.338 52.706C187.118 56.1169 188.779 59.697 190.324 63.4185C176.124 66.0214 160.972 67.4745 145.369 67.6812ZM137.631 67.6812C122.028 67.4745 106.876 66.0214 92.6759 63.4185C94.2213 59.697 95.8823 56.1175 97.6621 52.706C108.643 31.6623 122.713 19.3324 137.631 17.509V67.6812ZM137.631 75.4206V137.631H78.5552C78.9332 113.394 82.8576 90.3665 89.8503 70.7539C104.932 73.6115 121.047 75.2061 137.631 75.4206ZM70.8158 137.631H12.7759C13.6912 106.768 25.517 78.5983 44.5216 56.8526C55.7925 61.9798 68.5065 66.1164 82.2004 69.1764C75.1415 89.4009 71.1905 112.946 70.8158 137.631ZM70.8158 145.369C71.1999 170.699 75.3543 194.825 82.7648 215.398C69.2886 218.374 56.7481 222.388 45.5945 227.356C25.9636 205.45 13.7089 176.808 12.7759 145.369H70.8158ZM85.5931 222.697C87.2077 226.576 88.9427 230.312 90.8015 233.875C99.7116 250.949 110.715 262.885 122.818 268.927C95.1659 264.891 70.3399 252.037 51.2899 233.318C61.6559 228.924 73.2146 225.362 85.5931 222.697ZM192.198 233.875C194.058 230.312 195.792 226.576 197.407 222.697C209.785 225.362 221.344 228.924 231.71 233.318C212.66 252.037 187.834 264.891 160.182 268.927C172.285 262.885 183.288 250.949 192.198 233.875ZM200.235 215.398C207.646 194.825 211.8 170.699 212.184 145.369H270.224C269.291 176.808 257.036 205.45 237.405 227.356C226.252 222.388 213.711 218.374 200.235 215.398ZM212.184 137.631C211.809 112.946 207.859 89.4004 200.798 69.1764C214.493 66.1164 227.207 61.9798 238.478 56.8526C257.483 78.5983 269.308 106.768 270.224 137.631H212.184ZM232.903 50.8648C222.408 55.4221 210.66 59.1111 198.049 61.8653C196.256 57.4225 194.306 53.1648 192.198 49.1259C183.288 32.0503 172.284 20.114 160.181 14.0726C188.413 18.1927 213.702 31.5031 232.903 50.8648ZM122.82 14.0721C110.717 20.1135 99.7122 32.0503 90.8015 49.1254C88.694 53.1642 86.7439 57.4219 84.9514 61.8648C72.3397 59.1105 60.5924 55.421 50.0976 50.8643C69.298 31.5031 94.5867 18.1927 122.82 14.0721Z" fill="url(#paint0_linear_1241_500)"/>
<defs>
<linearGradient id="paint0_linear_1241_500" x1="237.993" y1="45.007" x2="45.007" y2="237.993" gradientUnits="userSpaceOnUse">
<stop stop-color="#FDC500"/>
<stop offset="1" stop-color="#3A5EFC"/>
</linearGradient>
</defs>
</svg>
