<svg width="64" height="60" viewBox="0 0 64 60" fill="none" xmlns="http://www.w3.org/2000/svg">
<path d="M46.6801 35.4876C45.1133 24.0277 34.3241 14.4076 22.6952 13.819C2.34824 13.2698 -1.23742 36.2889 13.3049 48.4355C26.6492 60.2412 48.7986 55.1417 46.6801 35.4876ZM41.7546 38.4617C41.0859 51.8547 25.1992 52.3341 16.667 44.5903C13.2488 41.7528 10.8515 37.8913 9.83549 33.5863C7.99416 25.6307 13.3237 18.8082 21.5175 18.8751C31.831 18.9139 41.8178 28.0892 41.7546 38.4617ZM48.2434 32.3967C47.8896 30.9957 47.4057 29.6302 46.7979 28.3179C47.7375 27.7586 48.626 27.1189 49.4531 26.4059C58.9513 18.5641 57.2634 3.97849 44.6993 4.24887C39.1001 4.30796 33.015 8.18451 30.1049 13.1499C28.7092 12.657 27.2725 12.2875 25.8113 12.0454C32.0156 -0.593289 53.0216 -5.92062 59.0152 9.24101C62.0463 16.9973 56.751 28.0501 48.2434 32.3967ZM37.0327 55.6269C17.8343 70.3314 -8.72799 44.7934 2.8008 25.7579C-0.922437 41.0773 14.3025 57.1988 29.6337 56.8906C32.1561 56.9086 34.6616 56.4807 37.0327 55.6269ZM32.1715 13.9677C35.8414 7.81175 46.1114 3.30841 51.5625 9.06036C55.7723 13.6084 52.2547 22.6634 45.802 26.3529C42.7078 20.8869 37.9313 16.5469 32.1715 13.9677ZM39.4632 36.0505C38.2594 29.1913 32.4138 23.4066 25.7148 21.573C17.5614 19.1684 9.97179 24.2339 11.9342 33.1403C13.355 40.6704 21.9356 47.7418 29.6338 47.5751C31.1101 47.6692 32.588 47.419 33.9493 46.8446C35.3105 46.2702 36.5173 45.3875 37.4728 44.2672C38.4283 43.1469 39.106 41.8202 39.4516 40.3933C39.7973 38.9665 39.8012 37.4792 39.4632 36.0505ZM32.5247 41.1172C32.427 41.2179 32.3098 41.2981 32.18 41.3528C32.0503 41.4076 31.9108 41.4358 31.7699 41.4358C31.6289 41.4358 31.4894 41.4076 31.3597 41.3528C31.2299 41.2981 31.1127 41.2179 31.015 41.1172L30.3297 40.4374C29.5276 40.9249 28.5899 41.1465 27.6524 41.0701C26.7149 40.9937 25.8262 40.6233 25.1151 40.0125C24.9007 39.828 24.7689 39.5666 24.7489 39.2857C24.7288 39.0048 24.822 38.7275 25.008 38.5148C25.194 38.3021 25.4576 38.1715 25.7407 38.1515C26.0239 38.1316 26.3034 38.2241 26.5178 38.4086C26.7802 38.6337 27.0903 38.7975 27.425 38.8879C27.7598 38.9783 28.1107 38.993 28.452 38.9309C28.7932 38.8689 29.1161 38.7317 29.3967 38.5294C29.6774 38.327 29.9087 38.0648 30.0736 37.7621C30.2386 37.4593 30.3329 37.1236 30.3496 36.7799C30.3664 36.4361 30.3051 36.093 30.1704 35.7759C30.0357 35.4587 29.831 35.1756 29.5713 34.9474C29.3116 34.7192 29.0036 34.5517 28.6699 34.4573C28.2721 34.3409 27.8498 34.3337 27.4482 34.4366C27.0466 34.5395 26.6806 34.7486 26.3893 35.0415C25.6187 35.8058 24.5927 36.2637 23.505 36.329C22.4173 36.3942 21.3432 36.0621 20.4854 35.3955C19.6276 34.7289 19.0455 33.7738 18.8489 32.7105C18.6524 31.6473 18.8551 30.5495 19.4187 29.6243L18.7441 28.9552C18.549 28.7552 18.4406 28.4873 18.4424 28.209C18.4442 27.9307 18.5559 27.6642 18.7536 27.4667C18.9513 27.2692 19.2192 27.1565 19.4997 27.1528C19.7802 27.1491 20.051 27.2547 20.2539 27.4469L20.9392 28.116C21.6142 27.7108 22.3862 27.4922 23.1751 27.4829C23.964 27.4736 24.7411 27.6738 25.4257 28.0629C25.9878 28.3047 26.5943 28.8673 26.4107 29.5288C26.3669 29.7032 26.2797 29.8639 26.1571 29.9962C26.0346 30.1286 25.8805 30.2284 25.7091 30.2865C25.5376 30.3446 25.3543 30.3591 25.1757 30.3288C24.9971 30.2985 24.829 30.2243 24.6868 30.1129C24.3374 29.8361 23.9147 29.6655 23.4697 29.6218C23.0247 29.5781 22.5764 29.6631 22.1791 29.8665C21.7817 30.0699 21.4521 30.3831 21.2302 30.7682C21.0083 31.1533 20.9035 31.5939 20.9285 32.0368C20.9534 32.4797 21.1071 32.906 21.3709 33.2642C21.6347 33.6223 21.9974 33.8971 22.4151 34.0553C22.8329 34.2135 23.2879 34.2484 23.7252 34.1558C24.1625 34.0631 24.5634 33.8469 24.8796 33.5331C25.2898 33.1267 25.7775 32.8053 26.3143 32.5879C27.3687 32.146 28.5547 32.1269 29.623 32.5347C32.0808 33.7538 33.381 36.4707 31.85 38.9504L32.5247 39.6195C32.624 39.7177 32.7028 39.8344 32.7565 39.9629C32.8103 40.0914 32.8379 40.2292 32.8379 40.3683C32.8379 40.5074 32.8103 40.6452 32.7565 40.7737C32.7028 40.9022 32.624 41.0189 32.5247 41.1172ZM49.6996 37.2614C49.6782 37.272 49.4319 37.3677 49.0036 37.5163C48.9731 36.5263 48.8729 35.5396 48.7037 34.5634C58.1358 29.8623 64.6471 18.2577 60.9425 8.25318C61.7281 9.4028 62.3749 10.6399 62.8699 11.939C66.8791 22.1598 59.6877 33.303 49.6996 37.2614Z" fill="url(#paint0_linear_943_212)"/>
<defs>
<linearGradient id="paint0_linear_943_212" x1="8.35162e-06" y1="30" x2="64" y2="30" gradientUnits="userSpaceOnUse">
<stop stop-color="#FDC500"/>
<stop offset="1" stop-color="#3A5EFC"/>
</linearGradient>
</defs>
</svg>
