<svg width="64" height="64" viewBox="0 0 64 64" fill="none" xmlns="http://www.w3.org/2000/svg">
<path d="M46.4839 59.993H13.1467C11.8161 59.9837 10.5437 59.4465 9.6089 58.4996C8.67412 57.5527 8.15343 56.2735 8.16122 54.9429L8.18273 52.5955H45.0841C45.0891 54.9247 44.7541 58.1857 46.4839 59.993ZM54.549 56.3319C54.5454 56.8273 54.4421 57.3168 54.2453 57.7714C54.0485 58.2259 53.7622 58.6362 53.4035 58.9779C53.0448 59.3195 52.6211 59.5854 52.1574 59.7598C51.6938 59.9342 51.1998 60.0136 50.7049 59.9931C49.7387 59.8987 48.844 59.4421 48.2008 58.7149C47.5575 57.9878 47.2134 57.0441 47.2376 56.0736V51.5188C47.2368 51.2334 47.1231 50.96 46.9214 50.7583C46.7196 50.5565 46.4462 50.4428 46.1609 50.4419H12.9744L13.0175 8.98579C13.0246 7.66387 13.5535 6.39825 14.4893 5.46449C15.425 4.53073 16.6918 4.00445 18.0137 4.00024L55.8412 4.06485C54.9953 5.1013 54.5349 6.39888 54.5383 7.73665C54.5428 14.2794 54.5559 49.0177 54.549 56.3319ZM35.996 39.5018L18.8321 39.5449C18.6904 39.5445 18.55 39.572 18.419 39.626C18.288 39.6799 18.1689 39.7591 18.0686 39.8592C17.9682 39.9592 17.8886 40.078 17.8343 40.2089C17.78 40.3398 17.752 40.48 17.752 40.6217C17.752 40.7634 17.78 40.9037 17.8343 41.0346C17.8886 41.1654 17.9682 41.2843 18.0686 41.3843C18.1689 41.4843 18.288 41.5636 18.419 41.6175C18.55 41.6714 18.6904 41.6989 18.8321 41.6985L35.9961 41.6554C36.2792 41.6516 36.5494 41.5365 36.7483 41.335C36.9471 41.1334 37.0586 40.8617 37.0586 40.5786C37.0586 40.2954 36.9471 40.0237 36.7482 39.8222C36.5494 39.6207 36.2791 39.5056 35.996 39.5018ZM49.079 30.8875L18.8322 30.9306C18.5495 30.935 18.2799 31.0504 18.0815 31.2519C17.8832 31.4533 17.772 31.7247 17.772 32.0074C17.772 32.2901 17.8831 32.5615 18.0815 32.763C18.2798 32.9644 18.5494 33.0798 18.8321 33.0842L49.079 33.0411C49.3616 33.0366 49.6312 32.9212 49.8295 32.7198C50.0278 32.5183 50.1389 32.247 50.1389 31.9643C50.1389 31.6816 50.0278 31.4103 49.8295 31.2089C49.6312 31.0074 49.3616 30.892 49.079 30.8875ZM18.8321 24.4699L35.996 24.4268C36.2789 24.4228 36.5489 24.3076 36.7475 24.1061C36.9461 23.9046 37.0575 23.633 37.0575 23.3501C37.0575 23.0671 36.9462 22.7955 36.7475 22.594C36.5489 22.3925 36.2789 22.2773 35.996 22.2732L18.8321 22.3164C18.6904 22.3159 18.55 22.3435 18.419 22.3974C18.288 22.4513 18.1689 22.5306 18.0685 22.6306C17.9682 22.7306 17.8886 22.8495 17.8343 22.9803C17.78 23.1112 17.752 23.2515 17.752 23.3932C17.752 23.5348 17.78 23.6751 17.8343 23.806C17.8886 23.9368 17.9682 24.0557 18.0685 24.1557C18.1689 24.2557 18.288 24.335 18.419 24.3889C18.55 24.4428 18.6904 24.4704 18.8321 24.4699ZM49.079 13.6589L18.8322 13.7021C18.5495 13.7065 18.28 13.8219 18.0817 14.0234C17.8834 14.2248 17.7723 14.4962 17.7723 14.7788C17.7723 15.0615 17.8834 15.3328 18.0817 15.5343C18.28 15.7357 18.5495 15.8511 18.8321 15.8556L49.079 15.8125C49.3618 15.8083 49.6316 15.693 49.8301 15.4915C50.0286 15.2901 50.1399 15.0186 50.1399 14.7357C50.1399 14.4529 50.0286 14.1814 49.8301 13.98C49.6316 13.7785 49.3618 13.6632 49.079 13.6589Z" fill="url(#paint0_linear_1234_209)"/>
<defs>
<linearGradient id="paint0_linear_1234_209" x1="8.15902" y1="31.9999" x2="55.841" y2="31.9999" gradientUnits="userSpaceOnUse">
<stop stop-color="#FDC500"/>
<stop offset="1" stop-color="#3A5EFC"/>
</linearGradient>
</defs>
</svg>
