<svg width="89" height="89" viewBox="0 0 89 89" fill="none" xmlns="http://www.w3.org/2000/svg">
<rect width="89" height="89" rx="8" fill="url(#paint0_linear_1003_55)"/>
<g clip-path="url(#clip0_1003_55)">
<path d="M73.4547 34.495C73.065 32.5375 70.0925 31.2325 68.9416 30.8881H68.9325C68.9234 30.8881 68.9144 30.8791 68.9144 30.8791C65.7878 29.9456 60.8578 29.4653 55.1575 32.4559L52.9553 33.4528L42.5063 31.3231C42.3069 31.2869 42.1075 31.3141 41.9263 31.4047L36.7697 34.0872C36.4706 34.2413 36.2894 34.5584 36.2984 34.8938C36.3075 35.2291 36.5069 35.5281 36.815 35.6731L42.4881 38.2016L30.2809 43.7297L21.7078 39.2981C21.4541 39.1713 21.155 39.1713 20.9103 39.2981L15.9803 41.7994C15.7175 41.9353 15.5453 42.18 15.5091 42.47C15.4728 42.76 15.5816 43.05 15.7991 43.2403L21.9978 48.6597C22.4328 49.0403 22.8044 49.5297 23.1397 50.1641C23.5113 50.8528 24.8344 52.8919 27.6709 52.8919C28.0516 52.8919 28.4684 52.8556 28.9034 52.7741C28.9759 52.765 35.4103 52.0853 42.3069 50.4541L39.0172 57.5953C38.8631 57.9306 38.9356 58.3294 39.1984 58.5922C39.3706 58.7553 39.5881 58.846 39.8147 58.846C39.9416 58.846 40.0684 58.8188 40.1953 58.7553L47.3003 55.3478C47.4634 55.2663 47.5994 55.1484 47.69 54.9853L51.9856 47.3547C52.5475 47.0919 53.3813 46.7113 54.4325 46.24C59.7884 43.8294 69.7572 39.3344 72.4488 36.8694C73.5 36.0084 73.5816 35.1022 73.4547 34.495ZM39.1984 34.8031L42.4609 33.1084L50.2275 34.6944L44.6359 37.2319L39.1984 34.8031ZM21.3 41.0563L24.0641 42.4881L19.8591 44.4456L17.9378 42.7691L21.3 41.0563ZM46.2944 53.8706L41.6363 56.1091L46.8744 44.7356L53.0006 41.9625L46.2944 53.8706ZM71.3069 35.5281C68.7875 37.83 58.6103 42.4247 53.7166 44.6269C53.6259 44.6722 53.5444 44.7084 53.4538 44.7447L55.8553 40.4853C56.0456 40.15 55.9913 39.7422 55.7375 39.4613C55.4838 39.1803 55.0759 39.0988 54.7225 39.2528L45.8503 43.2675C45.66 43.3581 45.5059 43.5122 45.4153 43.7025L43.2494 48.3969C35.9994 50.2275 28.8038 50.9978 28.6588 51.0159C26.23 51.4691 25.1334 50.155 24.6984 49.3303C24.2634 48.5056 23.7559 47.8531 23.1578 47.3275L21.3091 45.7144L26.0397 43.5122L29.855 45.4878C30.0906 45.6147 30.3806 45.6147 30.6253 45.5059L55.9369 34.0328C59.8609 31.9756 63.35 31.7038 66.0325 32.0572L63.2141 33.4709C62.7791 33.6884 62.6069 34.2141 62.8244 34.6491C62.9784 34.9572 63.2866 35.1384 63.6128 35.1384C63.7488 35.1384 63.8756 35.1113 64.0025 35.0478L68.7331 32.6825C70.0563 33.1538 71.5969 34.1506 71.7419 34.8575C71.7509 34.9119 71.7872 35.1294 71.3069 35.5281Z" fill="black"/>
</g>
<defs>
<linearGradient id="paint0_linear_1003_55" x1="0" y1="0" x2="95.7846" y2="79.8029" gradientUnits="userSpaceOnUse">
<stop stop-color="#FDC500"/>
<stop offset="1" stop-color="#3A5EFC"/>
</linearGradient>
<clipPath id="clip0_1003_55">
<rect width="58" height="58" fill="white" transform="translate(15.5 15.5)"/>
</clipPath>
</defs>
</svg>
