<svg width="69" height="69" viewBox="0 0 69 69" fill="none" xmlns="http://www.w3.org/2000/svg">
<rect x="0.5" y="0.5" width="68" height="68" rx="34" fill="#181B20"/>
<rect x="0.5" y="0.5" width="68" height="68" rx="34" stroke="url(#paint0_linear_1111_555)"/>
<path d="M28.42 42.3C27.44 42.3 26.5733 42.0867 25.82 41.66C25.0667 41.2267 24.4733 40.6333 24.04 39.88C23.6133 39.1267 23.4 38.26 23.4 37.28V32.32C23.4 31.34 23.6133 30.4733 24.04 29.72C24.4733 28.9667 25.0667 28.3767 25.82 27.95C26.5733 27.5167 27.44 27.3 28.42 27.3C29.4 27.3 30.2667 27.5167 31.02 27.95C31.7733 28.3767 32.3633 28.9667 32.79 29.72C33.2233 30.4733 33.44 31.34 33.44 32.32V37.28C33.44 38.26 33.2233 39.1267 32.79 39.88C32.3633 40.6333 31.7733 41.2267 31.02 41.66C30.2667 42.0867 29.4 42.3 28.42 42.3ZM28.42 40.3C28.9533 40.3 29.4367 40.1733 29.87 39.92C30.31 39.66 30.66 39.3133 30.92 38.88C31.18 38.44 31.31 37.95 31.31 37.41V32.17C31.31 31.6367 31.18 31.1533 30.92 30.72C30.66 30.28 30.31 29.9333 29.87 29.68C29.4367 29.42 28.9533 29.29 28.42 29.29C27.8867 29.29 27.4 29.42 26.96 29.68C26.5267 29.9333 26.18 30.28 25.92 30.72C25.66 31.1533 25.53 31.6367 25.53 32.17V37.41C25.53 37.95 25.66 38.44 25.92 38.88C26.18 39.3133 26.5267 39.66 26.96 39.92C27.4 40.1733 27.8867 40.3 28.42 40.3ZM42.332 42V39.49H35.832V37.51L40.512 27.6H42.902L38.222 37.51H42.332V33.61H44.452V37.51H45.882V39.49H44.452V42H42.332Z" fill="white"/>
<defs>
<linearGradient id="paint0_linear_1111_555" x1="3.13636" y1="5.25" x2="81.6525" y2="32.3724" gradientUnits="userSpaceOnUse">
<stop stop-color="#FDC500"/>
<stop offset="1" stop-color="#3A5EFC"/>
</linearGradient>
</defs>
</svg>
