<svg width="64" height="64" viewBox="0 0 64 64" fill="none" xmlns="http://www.w3.org/2000/svg">
<path d="M33.2138 40.1655H39.9448C40.3862 37.9586 40.6069 35.6414 40.7172 33.2138H33.2138V40.1655ZM47.8897 42.4828H41.8207C41.1586 45.131 40.2759 47.5586 39.1724 49.6552C42.8138 48.2207 45.7931 45.6828 47.8897 42.4828ZM33.2138 51.0897C34.0965 51.0897 34.9793 50.9793 35.8621 50.7586C37.4069 48.6621 38.6207 45.9034 39.5034 42.4828H33.3241V51.0897H33.2138ZM51.0897 33.2138H43.0345C42.9241 35.6414 42.7034 37.9586 42.3724 40.1655H49.3241C50.2069 37.9586 50.869 35.6414 51.0897 33.2138ZM13.0207 30.7862H20.9655C21.0759 28.3586 21.2966 26.0414 21.6276 23.8345H14.6759C13.7931 26.0414 13.131 28.3586 13.0207 30.7862ZM33.2138 30.7862H40.7172C40.6069 28.3586 40.3862 26.0414 39.9448 23.8345H33.2138V30.7862ZM32 9.93103C34.2069 9.93103 35.9724 8.49655 36.6345 6.51034C46.2345 8.27586 54.069 15.2276 56.8276 24.6069C56.9379 25.0483 57.3793 25.3793 57.931 25.3793H58.2621C58.8138 25.1586 59.1448 24.6069 59.0345 24.0552C56.0552 13.7931 47.3379 6.17931 36.9655 4.41379C36.5241 1.87586 34.5379 0 32 0C29.2414 0 27.0345 2.2069 27.0345 4.96552C27.0345 7.72414 29.2414 9.93103 32 9.93103ZM33.2138 13.0207V21.5172H39.3931C38.5103 18.2069 37.2966 15.3379 35.7517 13.2414C34.9793 13.131 34.0965 13.0207 33.2138 13.0207ZM47.8897 21.5172C45.7931 18.3172 42.8138 15.7793 39.1724 14.3448C40.2759 16.4414 41.1586 18.869 41.8207 21.5172H47.8897ZM49.2138 23.8345H42.2621C42.5931 26.0414 42.9241 28.3586 42.9241 30.7862H50.9793C50.869 28.3586 50.2069 26.0414 49.2138 23.8345ZM9.93103 32C9.93103 29.7931 8.49655 28.0276 6.51034 27.3655C8.27586 17.7655 15.2276 9.93103 24.6069 7.17241C25.1586 6.95172 25.4897 6.4 25.3793 5.84828C25.1586 5.29655 24.6069 4.96552 24.0552 5.07586C13.7931 8.05517 6.17931 16.7724 4.41379 27.1448C1.87586 27.4759 0 29.4621 0 32C0 34.7586 2.2069 36.9655 4.96552 36.9655C7.72414 36.9655 9.93103 34.7586 9.93103 32ZM30.7862 23.8345H24.0552C23.6138 26.0414 23.3931 28.3586 23.2828 30.7862H30.7862V23.8345ZM30.7862 13.0207C29.9034 13.0207 29.0207 13.131 28.1379 13.3517C26.5931 15.4483 25.3793 18.2069 24.4966 21.6276H30.6759V13.0207H30.7862ZM32 54.069C29.7931 54.069 28.0276 55.5034 27.3655 57.4897C17.7655 55.7241 9.93103 48.7724 7.17241 39.3931C6.95172 38.8414 6.4 38.5103 5.84828 38.6207C5.29655 38.8414 4.96552 39.3931 5.07586 39.9448C8.05517 50.2069 16.7724 57.8207 27.1448 59.5862C27.4759 62.0138 29.5724 63.8897 32 63.8897C34.7586 63.8897 36.9655 61.6828 36.9655 58.9241C36.9655 56.1655 34.7586 54.069 32 54.069ZM59.0345 27.0345C56.2759 27.0345 54.069 29.2414 54.069 32C54.069 34.2069 55.5034 35.9724 57.4897 36.6345C55.7241 46.2345 48.7724 54.069 39.3931 56.8276C38.8414 57.0483 38.5103 57.6 38.6207 58.1517C38.731 58.5931 39.1724 58.9241 39.7241 58.9241H40.0552C50.3172 55.9448 57.931 47.2276 59.6965 36.8552C62.1241 36.5241 64 34.4276 64 32C64 29.2414 61.7931 27.0345 59.0345 27.0345ZM30.7862 51.0897V42.5931H24.6069C25.4897 45.9034 26.7034 48.7724 28.2483 50.869C29.0207 50.869 29.9034 50.9793 30.7862 51.0897ZM14.7862 40.1655H21.7379C21.4069 37.9586 21.0759 35.6414 21.0759 33.2138H13.0207C13.131 35.6414 13.7931 37.9586 14.7862 40.1655ZM30.7862 33.2138H23.2828C23.3931 35.6414 23.6138 37.9586 24.0552 40.1655H30.7862V33.2138ZM24.7172 49.6552C23.6138 47.5586 22.731 45.131 22.069 42.4828H16C18.2069 45.6828 21.1862 48.2207 24.7172 49.6552ZM24.7172 14.3448C21.1862 15.7793 18.0966 18.3172 16 21.5172H22.069C22.731 18.869 23.6138 16.4414 24.7172 14.3448Z" fill="url(#paint0_linear_943_208)"/>
<defs>
<linearGradient id="paint0_linear_943_208" x1="51.8996" y1="51.8996" x2="12.1004" y2="12.1004" gradientUnits="userSpaceOnUse">
<stop offset="0.2973" stop-color="#FDC500"/>
<stop offset="1" stop-color="#3A5EFC"/>
</linearGradient>
</defs>
</svg>
