<svg width="64" height="64" viewBox="0 0 64 64" fill="none" xmlns="http://www.w3.org/2000/svg">
<path d="M28.7513 17.8392H42.7493L42.6451 17.4486C42.4888 16.8626 42.1503 16.3418 41.6685 15.9772C41.0695 15.5214 40.3403 15.3521 39.6111 15.3521H28.7513C28.0612 15.3521 27.5013 15.9121 27.5013 16.6022C27.4882 17.2793 28.0612 17.8392 28.7513 17.8392ZM59.2083 16.5892C59.2083 15.899 58.6484 15.3391 57.9582 15.3391H47.0984C46.3562 15.3391 45.627 15.5214 45.041 15.9641C44.5592 16.3287 44.2207 16.8496 44.0644 17.4355L43.9603 17.8262H57.9582C58.6484 17.8392 59.2083 17.2793 59.2083 16.5892ZM4.57064 37.0848H6.96657L11.6933 32.5924C9.80523 32.1627 7.93015 31.733 6.10716 31.3033L4.57064 37.0848ZM13.5033 27.2667L7.57857 19.6622H4.55762L6.35457 27.4099L13.5033 27.2667ZM40.145 22.1623L39.4158 23.6988H47.2937L46.5645 22.1623C46.239 21.4722 46.0176 21.2638 45.627 21.2638H41.0695C40.6919 21.2638 40.4705 21.4722 40.145 22.1623ZM49.26 30.9387H54.3513C53.6742 29.1548 51.734 24.9879 48.5698 24.9489H46.7859L48.1011 30.0533C48.2313 30.5871 48.7 30.9387 49.26 30.9387ZM37.2803 27.3839C37.098 27.3839 36.9678 27.436 36.8506 27.5662L34.6239 29.9361C34.2593 30.3137 34.5328 30.9387 35.0537 30.9387H38.5173L37.8402 27.3839H37.2803ZM58.9479 37.1629H33.1265C35.874 40.7438 41.382 41.7725 45.627 41.7725C49.312 41.7725 57.3983 40.6787 58.9479 37.1629ZM55.0805 32.1888H49.26C48.1271 32.1888 47.1635 31.4596 46.8901 30.3658L45.4968 24.9489C42.3196 24.9489 39.1424 24.9489 35.9651 24.9489L33.2176 27.9568C33.1004 28.087 32.9442 28.1521 32.7619 28.1652L5.87277 28.673C5.46911 28.686 5.49516 29.871 5.80767 29.9621C14.545 31.9023 23.3344 33.8685 32.0457 35.9259H59.0911C58.8176 34.7019 57.4634 33.4258 55.0805 32.1888ZM25.1574 32.1888H22.7485C22.4099 32.1888 22.1234 31.9153 22.1234 31.5637C22.1234 31.2122 22.4099 30.9387 22.7485 30.9387H25.1574C25.509 30.9387 25.7824 31.2252 25.7824 31.5637C25.7824 31.9023 25.509 32.1888 25.1574 32.1888ZM29.4545 32.1888H27.0455C26.6939 32.1888 26.4205 31.9153 26.4205 31.5637C26.4205 31.2122 26.707 30.9387 27.0455 30.9387H29.4545C29.806 30.9387 30.0795 31.2252 30.0795 31.5637C30.0795 31.9023 29.806 32.1888 29.4545 32.1888ZM39.2726 32.1888H35.0537C33.439 32.1888 32.6056 30.2616 33.7124 29.0766L35.9391 26.7068C36.2907 26.3291 36.7594 26.1338 37.2803 26.1338H38.3481C38.6475 26.1338 38.908 26.3422 38.9601 26.6417L39.8846 31.4465C39.9627 31.8372 39.6632 32.1888 39.2726 32.1888ZM43.817 32.1888H41.4471C41.1476 32.1888 40.8872 31.9804 40.8351 31.6809L39.9106 26.876C39.8716 26.6937 39.9236 26.4984 40.0408 26.3552C40.158 26.2119 40.3403 26.1338 40.5226 26.1338H43.179C44.0254 26.1338 44.7415 26.6807 44.9629 27.5011L45.601 29.871C45.9135 31.0429 45.028 32.1888 43.817 32.1888ZM43.7519 27.8266C43.6868 27.5531 43.4524 27.3839 43.179 27.3839H41.2779L41.955 30.9387H43.817C44.2077 30.9387 44.4941 30.5741 44.39 30.1835L43.7519 27.8266ZM44.2598 18.7768H42.4107V20.0138H44.2858V18.7768H44.2598ZM37.9444 45.5747H39.7934V42.3715C39.1684 42.2282 38.5434 42.0459 37.9444 41.8376V45.5747ZM52.2939 45.5747V42.2803C51.6819 42.4235 51.0569 42.5277 50.4449 42.6319V45.5747H52.2939ZM59.1692 44.6242C58.8046 44.2596 58.2187 44.2596 57.8671 44.6242L55.7576 46.7336C55.7055 46.7857 55.6144 46.8248 55.5363 46.8248H32.9702C32.4624 46.8248 32.0457 47.2415 32.0457 47.7493C32.0457 48.2571 32.4624 48.6738 32.9702 48.6738H56.0441C56.2915 48.6738 56.5259 48.5696 56.6952 48.4004L59.1692 45.9263C59.3385 45.757 59.4427 45.5226 59.4427 45.2752C59.4427 45.0278 59.3515 44.7934 59.1692 44.6242Z" fill="url(#paint0_linear_1234_167)"/>
<defs>
<linearGradient id="paint0_linear_1234_167" x1="32.0001" y1="15.3391" x2="32.0001" y2="48.6738" gradientUnits="userSpaceOnUse">
<stop stop-color="#FDC500"/>
<stop offset="1" stop-color="#3A5EFC"/>
</linearGradient>
</defs>
</svg>
