<svg width="64" height="64" viewBox="0 0 64 64" fill="none" xmlns="http://www.w3.org/2000/svg">
<path d="M21.5011 57.4172H27.9791V44.6077H25.0687C23.9632 44.6077 23.0097 43.8674 22.7355 42.7965C22.4875 41.8279 22.859 40.8303 23.6495 40.2555V35.4589L26.3447 35.0433V38.7539L29.0746 37.2582V34.6165L32.1116 34.1474V35.5943L34.2601 34.4172V1.53516L21.5011 6.98928V57.4172ZM32.1117 30.8588L29.0747 31.4304V25.9008L32.1117 25.1514V30.8588ZM32.1117 21.8629L29.0747 22.7148V17.1809L32.1117 16.151V21.8629ZM32.1117 7.51291V12.867L29.0747 13.9992L29.0738 8.81628L32.1117 7.51291ZM23.6496 11.1407L26.3465 9.98466L26.3456 15.0177L23.6495 16.0175L23.6496 11.1407ZM23.6496 19.0207L26.3457 18.1075V23.4858L23.6496 24.241V19.0208V19.0207ZM23.6496 27.2358L26.3457 26.5713V31.9495L23.6496 32.4562V27.2359V27.2358ZM49.2691 7.30991V33.713L44.2695 30.9738C43.0881 30.3265 41.726 30.3265 40.5446 30.9738L35.7601 33.5953V1.53516L49.2691 7.30991ZM7.44248 22.2825V57.4172H20.0011V16.914L7.44248 22.2825ZM12.8074 48.8553H10.615V44.6488L12.8078 44.4347L12.8074 48.8553ZM12.8086 41.9194L10.615 42.2198V37.9973L12.8086 37.5466V41.9194ZM12.8086 35.0368L10.615 35.5763V31.3537L12.8086 30.664V35.0368ZM12.8094 28.1515L10.6151 28.9274V24.9837L12.8101 24.0592L12.8094 28.1515ZM17.5789 48.8553H15.0525V44.2143L17.5789 43.9673V48.8553ZM17.5789 41.2609L15.0525 41.609V37.0869L17.5789 36.5655V41.2609ZM17.5789 33.859L15.0525 34.4814V29.9565L17.5789 29.1582V33.859ZM17.5789 26.4544L15.0517 27.3539V23.1164L17.5789 22.0455V26.4544ZM60.1821 41.4026L43.549 32.2893C42.8166 31.888 41.9981 31.888 41.2656 32.2893L24.6323 41.4026C24.2636 41.6046 24.0845 42.0173 24.1888 42.4247C24.2931 42.832 24.6485 43.1078 25.069 43.1078H29.4793V57.4172H32.8515V48.4911H31.9147C31.5005 48.4911 31.1647 48.1554 31.1647 47.7411C31.1647 47.3269 31.5005 46.9911 31.9147 46.9911H40.2391C40.6534 46.9911 40.9891 47.3269 40.9891 47.7411C40.9891 48.1554 40.6532 48.4911 40.2391 48.4911H39.3023V57.4172H55.3353V43.1078H59.7456C60.1662 43.1078 60.5215 42.832 60.6257 42.4247C60.73 42.0173 60.551 41.6046 60.1821 41.4026ZM40.0592 38.2507C40.0592 36.9539 41.1105 35.9026 42.4072 35.9026C43.704 35.9026 44.7552 36.9539 44.7552 38.2507C44.7552 39.5474 43.704 40.5987 42.4072 40.5987C41.1105 40.5987 40.0592 39.5474 40.0592 38.2507ZM47.1563 46.735H43.8496V43.1079H47.1563V46.735ZM51.963 46.735H48.6563V43.1079H51.963V46.735ZM3.34473 61.5264V59.8554C3.34473 59.3394 3.76698 58.9172 4.28298 58.9172H58.5897C59.1057 58.9172 59.528 59.3394 59.528 59.8554V61.5264C59.528 62.0424 59.1057 62.4646 58.5897 62.4646H4.28298C3.76698 62.4646 3.34473 62.0424 3.34473 61.5264Z" fill="url(#paint0_linear_1234_175)"/>
<defs>
<linearGradient id="paint0_linear_1234_175" x1="31.9998" y1="62.4646" x2="31.9998" y2="1.53516" gradientUnits="userSpaceOnUse">
<stop stop-color="#FDC500"/>
<stop offset="1" stop-color="#3A5EFC"/>
</linearGradient>
</defs>
</svg>
