<svg width="64" height="64" viewBox="0 0 64 64" fill="none" xmlns="http://www.w3.org/2000/svg">
<path d="M57.0713 14.438C57.0377 14.2754 56.9645 14.1237 56.858 13.9963C56.7516 13.8689 56.6153 13.7698 56.4613 13.7079L32.3701 4.06752C32.1317 3.97749 31.8686 3.97749 31.6301 4.06752L7.53904 13.7079C7.38502 13.7698 7.24871 13.8689 7.14228 13.9963C7.03584 14.1237 6.96259 14.2754 6.92904 14.438C2.92885 33.1888 13.7293 52.9197 32.0001 60C50.271 52.9297 61.0714 33.1888 57.0713 14.438ZM32.0001 44.9993C28.5532 44.996 25.2484 43.6253 22.811 41.1879C20.3736 38.7506 19.0029 35.4457 18.9996 31.9988C18.8693 21.8198 30.6738 15.4449 39.1106 21.1084C39.3276 21.2568 39.4777 21.4844 39.5288 21.7422C39.5799 22.0001 39.5279 22.2677 39.3838 22.4876C39.2398 22.7075 39.0153 22.8622 38.7585 22.9184C38.5017 22.9746 38.2331 22.9279 38.0104 22.7883C36.0223 21.4928 33.6685 20.8752 31.3005 21.0276C28.9325 21.1799 26.6773 22.0942 24.8716 23.6337C23.0659 25.1733 21.8067 27.2556 21.2819 29.5697C20.757 31.8839 20.9948 34.3057 21.9596 36.4736C22.9244 38.6415 24.5646 40.4391 26.6352 41.5982C28.7058 42.7572 31.0957 43.2154 33.4482 42.9044C35.8006 42.5933 37.9893 41.5298 39.6875 39.8724C41.3857 38.2151 42.5024 36.0529 42.8706 33.7088C42.9108 33.4465 43.0533 33.2109 43.267 33.0536C43.4808 32.8964 43.7481 32.8304 44.0105 32.8702C44.2728 32.9099 44.5086 33.0522 44.6662 33.2657C44.8237 33.4792 44.8901 33.7465 44.8507 34.0089C44.383 37.0775 42.8278 39.8758 40.4688 41.8933C38.1098 43.9109 35.1042 45.0132 32.0001 44.9993ZM47.5508 26.6385L34.2603 38.269C33.6858 38.7686 32.9434 39.0319 32.1826 39.0059C31.4218 38.9799 30.6991 38.6666 30.16 38.129L24.2998 32.2687C23.929 31.9004 23.6589 31.4431 23.5153 30.9406C23.3718 30.4381 23.3595 29.9072 23.4798 29.3986C23.6098 28.8694 23.8774 28.384 24.2556 27.9917C24.6337 27.5994 25.109 27.3142 25.633 27.1649C26.157 27.0156 26.7113 27.0076 27.2394 27.1417C27.7675 27.2759 28.2508 27.5473 28.6401 27.9286L32.2101 31.4987L43.3506 21.7483C43.6882 21.4509 44.0875 21.2321 44.5198 21.1076C44.9522 20.9831 45.4067 20.956 45.8507 21.0282C48.3817 21.3871 49.6008 24.9542 47.5508 26.6385ZM46.2408 25.1285L32.9401 36.759C32.7511 36.927 32.505 37.0164 32.2522 37.009C31.9994 37.0015 31.759 36.8978 31.5801 36.719L25.7099 30.8587C25.5116 30.6578 25.4007 30.3867 25.4012 30.1045C25.4016 29.8222 25.5135 29.5515 25.7124 29.3512C25.9114 29.151 26.1813 29.0373 26.4636 29.0349C26.7458 29.0326 27.0176 29.1417 27.2199 29.3386L31.4501 33.5688C31.6285 33.7513 31.8702 33.8583 32.1252 33.8676C32.3802 33.8769 32.629 33.7878 32.8201 33.6188L44.6707 23.2484C45.7663 22.2635 47.3001 24.207 46.2408 25.1285Z" fill="url(#paint0_linear_1234_213)"/>
<defs>
<linearGradient id="paint0_linear_1234_213" x1="6.09915" y1="32" x2="57.9012" y2="32" gradientUnits="userSpaceOnUse">
<stop stop-color="#FDC500"/>
<stop offset="1" stop-color="#3A5EFC"/>
</linearGradient>
</defs>
</svg>
