<svg width="36" height="37" viewBox="0 0 36 37" fill="none" xmlns="http://www.w3.org/2000/svg">
<g clip-path="url(#clip0_943_761)">
<path d="M32.6598 0.176758H3.34023C1.49547 0.176758 0 1.67223 0 3.51698V32.8365C0 34.6813 1.49547 36.1768 3.34023 36.1768H32.6598C34.5045 36.1768 36 34.6813 36 32.8365V3.51698C36 1.67223 34.5045 0.176758 32.6598 0.176758Z" fill="url(#paint0_linear_943_761)"/>
<path d="M12.9682 9.99494C12.9682 10.6018 12.7882 11.195 12.4511 11.6995C12.1139 12.2041 11.6347 12.5973 11.0741 12.8296C10.5135 13.0618 9.89657 13.1226 9.3014 13.0042C8.70623 12.8858 8.15953 12.5936 7.73044 12.1645C7.30135 11.7354 7.00913 11.1887 6.89074 10.5935C6.77236 9.99834 6.83312 9.38143 7.06534 8.8208C7.29756 8.26016 7.69082 7.78098 8.19538 7.44384C8.69994 7.1067 9.29314 6.92676 9.89997 6.92676C10.7137 6.92676 11.4941 7.25001 12.0695 7.82541C12.6449 8.4008 12.9682 9.18121 12.9682 9.99494Z" fill="white"/>
<path d="M12.2727 15.1086V28.6638C12.2732 28.7638 12.254 28.8629 12.2161 28.9555C12.1782 29.048 12.1224 29.1321 12.0519 29.203C11.9813 29.2739 11.8975 29.3302 11.8052 29.3686C11.7128 29.407 11.6138 29.4267 11.5138 29.4267H8.27996C8.17996 29.427 8.08089 29.4075 7.98845 29.3694C7.89601 29.3312 7.81202 29.2752 7.74131 29.2045C7.6706 29.1338 7.61456 29.0498 7.57642 28.9573C7.53827 28.8649 7.51878 28.7658 7.51905 28.6658V15.1086C7.51905 14.9068 7.59921 14.7132 7.74191 14.5705C7.88461 14.4278 8.07815 14.3477 8.27996 14.3477H11.5138C11.7153 14.3482 11.9083 14.4286 12.0505 14.5712C12.1928 14.7139 12.2727 14.9071 12.2727 15.1086Z" fill="white"/>
<path d="M29.1764 22.1653V28.7271C29.1766 28.819 29.1587 28.9101 29.1237 28.9951C29.0886 29.0801 29.0371 29.1573 28.9721 29.2224C28.9071 29.2874 28.8298 29.3389 28.7448 29.3739C28.6598 29.409 28.5688 29.4269 28.4768 29.4266H24.9995C24.9076 29.4269 24.8165 29.409 24.7315 29.3739C24.6465 29.3389 24.5693 29.2874 24.5043 29.2224C24.4393 29.1573 24.3878 29.0801 24.3527 28.9951C24.3176 28.9101 24.2997 28.819 24.3 28.7271V22.3678C24.3 21.4187 24.5782 18.2114 21.8189 18.2114C19.6814 18.2114 19.2457 20.4062 19.1598 21.3921V28.7271C19.1598 28.9109 19.0875 29.0873 18.9585 29.2182C18.8295 29.3491 18.6542 29.424 18.4704 29.4266H15.1118C15.02 29.4267 14.9292 29.4085 14.8444 29.3734C14.7597 29.3382 14.6827 29.2866 14.6179 29.2216C14.5531 29.1566 14.5017 29.0795 14.4668 28.9947C14.4319 28.9098 14.414 28.8189 14.4143 28.7271V15.0491C14.414 14.9574 14.4319 14.8665 14.4668 14.7816C14.5017 14.6967 14.5531 14.6196 14.6179 14.5546C14.6827 14.4896 14.7597 14.4381 14.8444 14.4029C14.9292 14.3677 15.02 14.3496 15.1118 14.3496H18.4704C18.656 14.3496 18.8339 14.4233 18.9651 14.5545C19.0963 14.6857 19.17 14.8636 19.17 15.0491V16.2314C19.9636 15.041 21.1398 14.1226 23.6495 14.1226C29.2091 14.1226 29.1764 19.3139 29.1764 22.1653Z" fill="white"/>
</g>
<defs>
<linearGradient id="paint0_linear_943_761" x1="18" y1="0.992894" x2="18" y2="34.0208" gradientUnits="userSpaceOnUse">
<stop stop-color="#0D87FF"/>
<stop offset="1" stop-color="#0B63BD"/>
</linearGradient>
<clipPath id="clip0_943_761">
<rect width="36" height="36" fill="white" transform="translate(0 0.176758)"/>
</clipPath>
</defs>
</svg>
