<svg width="128" height="46" viewBox="0 0 128 46" fill="none" xmlns="http://www.w3.org/2000/svg">
<path d="M92.8097 46V0.189171H111.738C112.184 0.189171 112.756 0.210379 113.456 0.252796C114.156 0.274006 114.803 0.337633 115.397 0.443676C118.048 0.84664 120.233 1.7268 121.95 3.08416C123.69 4.44152 124.973 6.15943 125.8 8.23788C126.648 10.2951 127.072 12.5857 127.072 15.1095C127.072 17.6121 126.648 19.9027 125.8 21.9811C124.952 24.0384 123.658 25.7457 121.919 27.103C120.201 28.4604 118.027 29.3406 115.397 29.7435C114.803 29.8284 114.146 29.892 113.425 29.9344C112.725 29.9768 112.163 29.998 111.738 29.998H100.477V46H92.8097ZM100.477 22.8401H111.42C111.845 22.8401 112.322 22.8189 112.852 22.7765C113.382 22.734 113.87 22.6492 114.315 22.522C115.588 22.2038 116.585 21.6418 117.306 20.8359C118.048 20.0299 118.568 19.118 118.865 18.0999C119.183 17.0819 119.342 16.0851 119.342 15.1095C119.342 14.1339 119.183 13.1371 118.865 12.1191C118.568 11.0798 118.048 10.1573 117.306 9.35134C116.585 8.54541 115.588 7.98338 114.315 7.66525C113.87 7.53799 113.382 7.46376 112.852 7.44255C112.322 7.40014 111.845 7.37893 111.42 7.37893H100.477V22.8401Z" fill="#3A5EFC"/>
<path d="M52.1735 46V0.189159H71.1022C71.5476 0.189159 72.1203 0.210368 72.8202 0.252785C73.52 0.273994 74.1669 0.337621 74.7608 0.443665C77.4118 0.846629 79.5963 1.72679 81.3142 3.08415C83.0534 4.44151 84.3365 6.15941 85.1636 8.23787C86.012 10.2951 86.4362 12.5857 86.4362 15.1095C86.4362 17.6121 86.012 19.9027 85.1636 21.9811C84.3153 24.0384 83.0216 25.7457 81.2824 27.103C79.5645 28.4604 77.3906 29.3405 74.7608 29.7435C74.1669 29.8284 73.5094 29.892 72.7883 29.9344C72.0885 29.9768 71.5264 29.998 71.1022 29.998H59.8404V46H52.1735ZM59.8404 22.8401H70.7841C71.2083 22.8401 71.6855 22.8189 72.2157 22.7765C72.7459 22.734 73.2337 22.6492 73.6791 22.5219C74.9516 22.2038 75.9484 21.6418 76.6695 20.8359C77.4118 20.0299 77.9315 19.1179 78.2284 18.0999C78.5465 17.0819 78.7056 16.0851 78.7056 15.1095C78.7056 14.1339 78.5465 13.1371 78.2284 12.1191C77.9315 11.0798 77.4118 10.1573 76.6695 9.35133C75.9484 8.5454 74.9516 7.98336 73.6791 7.66523C73.2337 7.53798 72.7459 7.46375 72.2157 7.44254C71.6855 7.40012 71.2083 7.37891 70.7841 7.37891H59.8404V22.8401Z" fill="#FDC500"/>
<path d="M30.5052 0H46V15.4947H30.5052V0Z" fill="url(#paint0_linear_1014_80)"/>
<path d="M15.4948 15.4947H30.5053V30.5053H15.4948V15.4947Z" fill="url(#paint1_linear_1014_80)"/>
<path d="M30.5052 30.5053H46V46H30.5052V30.5053Z" fill="url(#paint2_linear_1014_80)"/>
<path d="M0 0H15.4947V15.4947H0V0Z" fill="url(#paint3_linear_1014_80)"/>
<path d="M0 30.5053H15.4947V46H0V30.5053Z" fill="url(#paint4_linear_1014_80)"/>
<defs>
<linearGradient id="paint0_linear_1014_80" x1="30.3421" y1="0.0815513" x2="45.9184" y2="15.3316" gradientUnits="userSpaceOnUse">
<stop stop-color="#FDC500"/>
<stop offset="1" stop-color="#3A5EFC"/>
</linearGradient>
<linearGradient id="paint1_linear_1014_80" x1="15.3367" y1="15.5737" x2="30.4263" y2="30.3473" gradientUnits="userSpaceOnUse">
<stop stop-color="#FDC500"/>
<stop offset="1" stop-color="#3A5EFC"/>
</linearGradient>
<linearGradient id="paint2_linear_1014_80" x1="30.3421" y1="30.5868" x2="45.9184" y2="45.8369" gradientUnits="userSpaceOnUse">
<stop stop-color="#FDC500"/>
<stop offset="1" stop-color="#3A5EFC"/>
</linearGradient>
<linearGradient id="paint3_linear_1014_80" x1="-0.163102" y1="0.0815513" x2="15.4132" y2="15.3316" gradientUnits="userSpaceOnUse">
<stop stop-color="#FDC500"/>
<stop offset="1" stop-color="#3A5EFC"/>
</linearGradient>
<linearGradient id="paint4_linear_1014_80" x1="-0.163102" y1="30.5868" x2="15.4132" y2="45.8369" gradientUnits="userSpaceOnUse">
<stop stop-color="#FDC500"/>
<stop offset="1" stop-color="#3A5EFC"/>
</linearGradient>
</defs>
</svg>
