<svg width="64" height="64" viewBox="0 0 64 64" fill="none" xmlns="http://www.w3.org/2000/svg">
<g clip-path="url(#clip0_1234_105)">
<path fill-rule="evenodd" clip-rule="evenodd" d="M47.1084 43.3719H42.0541V32.8805C42.0541 32.4665 41.7177 32.1297 41.303 32.1297H22.6965C22.2818 32.1297 21.9454 32.4661 21.9454 32.8805V43.3719H16.8915V47.8254C16.8908 49.8032 15.2824 51.4123 13.3046 51.4123H9.93711C7.95935 51.4123 6.35097 49.8035 6.35097 47.8258V40.637C5.48922 39.4925 4.97809 38.0701 4.97809 36.5304C4.97809 33.1287 4.53071 30.1868 7.4621 27.7591H3.32171C-1.10593 27.7591 -1.10593 21.0293 3.32171 21.0293H8.77048C9.07611 21.0293 9.35098 21.2146 9.46648 21.4969C9.61573 21.8637 10.2664 23.4053 10.8202 24.7673L12.9127 18.1789H51.0853L53.1887 24.8014L54.5323 21.4981C54.6474 21.2153 54.9223 21.0304 55.2279 21.0304L60.6767 21.0301C65.1092 21.0301 65.1085 27.7587 60.6767 27.7587H56.5363C58.0524 29.0146 59.0203 30.9102 59.0203 33.0282C59.0203 35.9832 59.3799 38.3367 57.6467 40.6381V47.8254C57.6478 49.8032 56.039 51.4123 54.0613 51.4123H50.6941C48.7164 51.4123 47.1076 49.8035 47.1076 47.8258V43.3719H47.1084ZM13.3901 16.6774C14.1045 14.4282 14.946 12.5876 17.1735 12.5876H46.8256C49.0543 12.5876 49.8946 14.4289 50.609 16.6774H13.3901ZM40.5522 43.3719H23.448V33.632H40.5522V43.3719ZM25.9643 39.9601C25.5495 39.9601 25.2132 39.6234 25.2132 39.209V36.2926C25.2132 35.3037 26.7154 35.3045 26.7154 36.2926V39.209C26.7154 39.6234 26.379 39.9601 25.9643 39.9601ZM29.9884 39.9601C29.5737 39.9601 29.2373 39.6234 29.2373 39.209V36.2926C29.2373 35.3037 30.7392 35.3045 30.7392 36.2926V39.209C30.7392 39.6234 30.4028 39.9601 29.9884 39.9601ZM34.0122 39.9601C33.5978 39.9601 33.2611 39.6234 33.2611 39.209V36.2926C33.2611 35.3037 34.763 35.3045 34.763 36.2926V39.209C34.7633 39.6234 34.4266 39.9601 34.0122 39.9601ZM38.0363 39.9601C37.6216 39.9601 37.2852 39.6234 37.2852 39.209V36.2926C37.2852 35.3037 38.7875 35.3045 38.7875 36.2926V39.209C38.7882 39.6234 38.4511 39.9601 38.0363 39.9601ZM51.2911 38.3907H48.1884C44.0424 38.3907 44.0424 32.0922 48.1884 32.0918H51.2911C55.4398 32.0918 55.4398 38.3907 51.2911 38.3907ZM48.1884 33.5945C46.0198 33.5945 46.0201 36.8885 48.1884 36.8885L51.2911 36.8881C53.459 36.8881 53.459 33.5941 51.2911 33.5941L48.1884 33.5945ZM15.8126 38.3907H12.7095C8.56423 38.3907 8.56423 32.0922 12.7095 32.0918H15.8126C19.9579 32.0918 19.9579 38.3907 15.8126 38.3907ZM12.7095 33.5945C10.5409 33.5945 10.5412 36.8885 12.7095 36.8885L15.8126 36.8881C17.9813 36.8881 17.9809 33.5941 15.8126 33.5941L12.7095 33.5945Z" fill="url(#paint0_linear_1234_105)"/>
</g>
<defs>
<linearGradient id="paint0_linear_1234_105" x1="9.40686" y1="32" x2="54.5927" y2="32" gradientUnits="userSpaceOnUse">
<stop stop-color="#FDC500"/>
<stop offset="1" stop-color="#3A5EFC"/>
</linearGradient>
<clipPath id="clip0_1234_105">
<rect width="64" height="64" fill="white"/>
</clipPath>
</defs>
</svg>
