<svg width="64" height="64" viewBox="0 0 64 64" fill="none" xmlns="http://www.w3.org/2000/svg">
<path d="M57.0287 49.2595C56.3956 48.9892 55.7143 48.8496 55.0259 48.8489H8.96007C2.38807 49.0259 2.30529 58.6411 8.9602 58.8632H55.0259C56.1705 58.851 57.2767 58.4481 58.1611 57.7213C59.0454 56.9944 59.655 55.9873 59.8887 54.8667C60.1224 53.746 59.9662 52.5792 59.4461 51.5595C58.926 50.5397 58.0731 49.7283 57.0287 49.2595ZM12.6954 54.8575C12.4339 54.8526 12.1847 54.7455 12.0011 54.5593C11.8175 54.3731 11.714 54.1225 11.7127 53.861C11.7114 53.5995 11.8124 53.3478 11.9942 53.1598C12.1759 52.9718 12.424 52.8623 12.6854 52.8547C12.9467 52.8599 13.1957 52.967 13.3791 53.1532C13.5626 53.3394 13.666 53.5899 13.6673 53.8512C13.6686 54.1126 13.5676 54.3641 13.3861 54.5521C13.2045 54.7401 12.9566 54.8497 12.6954 54.8575ZM20.4264 54.8575C20.1616 54.8563 19.9081 54.7503 19.7212 54.5626C19.5344 54.3749 19.4295 54.1209 19.4295 53.8561C19.4295 53.5913 19.5344 53.3372 19.7213 53.1496C19.9081 52.9619 20.1617 52.8559 20.4265 52.8547C20.6907 52.8568 20.9435 52.9632 21.1296 53.1508C21.3157 53.3383 21.4201 53.5919 21.4201 53.8561C21.4201 54.1204 21.3157 54.3739 21.1295 54.5615C20.9434 54.7491 20.6907 54.8555 20.4264 54.8575ZM28.1474 54.8575C27.886 54.8525 27.6368 54.7455 27.4532 54.5593C27.2696 54.3731 27.1661 54.1225 27.1648 53.861C27.1635 53.5994 27.2646 53.3478 27.4463 53.1598C27.6281 52.9718 27.8762 52.8623 28.1376 52.8547C28.3989 52.8599 28.6478 52.967 28.8312 53.1532C29.0147 53.3394 29.1181 53.5899 29.1194 53.8513C29.1207 54.1126 29.0197 54.3642 28.8382 54.5521C28.6566 54.7401 28.4087 54.8498 28.1474 54.8575ZM35.8785 54.8575C35.6137 54.8563 35.3602 54.7503 35.1733 54.5626C34.9865 54.3749 34.8816 54.1209 34.8816 53.8561C34.8816 53.5913 34.9865 53.3372 35.1734 53.1496C35.3602 52.9619 35.6138 52.8559 35.8786 52.8547C36.1428 52.8568 36.3955 52.9632 36.5817 53.1508C36.7678 53.3383 36.8722 53.5919 36.8722 53.8561C36.8722 54.1204 36.7678 54.3739 36.5816 54.5615C36.3955 54.749 36.1428 54.8555 35.8785 54.8575ZM43.5996 54.8575C43.3381 54.8526 43.089 54.7455 42.9054 54.5593C42.7217 54.3731 42.6182 54.1225 42.6169 53.861C42.6156 53.5995 42.7166 53.3478 42.8984 53.1598C43.0801 52.9718 43.3282 52.8623 43.5896 52.8547C43.8509 52.8599 44.0999 52.967 44.2833 53.1532C44.4668 53.3393 44.5702 53.5899 44.5715 53.8512C44.5728 54.1126 44.4719 54.3641 44.2903 54.5521C44.1087 54.7401 43.8609 54.8497 43.5996 54.8575ZM51.3306 54.8575C51.0673 54.8554 50.8154 54.7496 50.6295 54.5631C50.4436 54.3766 50.3387 54.1244 50.3373 53.8611C50.336 53.5977 50.4385 53.3445 50.6225 53.1562C50.8065 52.9678 51.0573 52.8595 51.3206 52.8547C51.5837 52.8573 51.8352 52.9632 52.0207 53.1497C52.2063 53.3361 52.3111 53.5881 52.3124 53.8512C52.3137 54.1142 52.2115 54.3673 52.0278 54.5556C51.8441 54.7439 51.5936 54.8524 51.3306 54.8575ZM44.0101 36.8318H56.0273C56.1589 36.8313 56.2893 36.8569 56.4111 36.9071C56.5328 36.9572 56.6434 37.031 56.7364 37.1241C56.8295 37.2172 56.9033 37.3277 56.9534 37.4494C57.0036 37.5712 57.0292 37.7016 57.0287 37.8332V47.1366C56.3784 46.9449 55.7039 46.8471 55.0259 46.8461H43.0087V37.8332C43.0083 37.7016 43.0339 37.5711 43.084 37.4494C43.1342 37.3277 43.2079 37.2171 43.301 37.1241C43.3941 37.031 43.5047 36.9572 43.6264 36.907C43.7481 36.8569 43.8785 36.8313 44.0101 36.8318ZM8.96009 46.8461C8.2821 46.8478 7.60777 46.9456 6.95722 47.1366V37.8332C6.95677 37.7016 6.98236 37.5711 7.03252 37.4494C7.08268 37.3277 7.15643 37.2171 7.24951 37.124C7.34259 37.031 7.45316 36.9572 7.57487 36.907C7.69657 36.8569 7.827 36.8313 7.95863 36.8317H19.9758C20.1074 36.8313 20.2378 36.8569 20.3595 36.907C20.4813 36.9572 20.5918 37.0309 20.6849 37.124C20.778 37.2171 20.8518 37.3277 20.9019 37.4494C20.9521 37.5711 20.9777 37.7015 20.9772 37.8332V46.8461L8.96009 46.8461ZM39.003 37.8332V46.8461H24.983V37.8332C24.9825 37.7016 25.0081 37.5711 25.0583 37.4494C25.1085 37.3277 25.1822 37.2171 25.2753 37.124C25.3684 37.031 25.4789 36.9572 25.6006 36.907C25.7223 36.8569 25.8528 36.8313 25.9844 36.8317H38.0015C38.1332 36.8313 38.2636 36.8569 38.3853 36.907C38.507 36.9572 38.6176 37.0309 38.7107 37.124C38.8038 37.2171 38.8775 37.3277 38.9277 37.4494C38.9779 37.5711 39.0035 37.7015 39.003 37.8332ZM18.4736 22.7717C19.632 22.6818 20.8155 22.8914 21.2976 24.0836C21.8074 25.2654 21.1108 26.2671 20.226 27.0076C20.0384 27.1967 19.9331 27.4523 19.9332 27.7187C19.9332 27.9851 20.0385 28.2407 20.2261 28.4298L23.2204 31.4241C23.4094 31.6117 23.665 31.717 23.9314 31.717C24.1978 31.717 24.4533 31.6117 24.6424 31.4241L25.2433 30.8132C25.5433 30.5221 25.922 30.3251 26.3326 30.2464C26.7432 30.1678 27.1678 30.211 27.5541 30.3707C27.9405 30.5303 28.2717 30.7995 28.507 31.1451C28.7423 31.4906 28.8714 31.8974 28.8784 32.3154L28.8785 33.1766C28.878 33.3082 28.9036 33.4386 28.9538 33.5603C29.0039 33.682 29.0777 33.7926 29.1708 33.8857C29.2639 33.9788 29.3744 34.0525 29.4961 34.1027C29.6178 34.1528 29.7483 34.1784 29.8799 34.178H34.1059C34.2375 34.1784 34.368 34.1528 34.4897 34.1027C34.6114 34.0525 34.7219 33.9788 34.815 33.8857C34.9081 33.7926 34.9819 33.682 35.032 33.5603C35.0822 33.4386 35.1078 33.3082 35.1074 33.1766V32.3154C35.1144 31.8974 35.2435 31.4905 35.4788 31.145C35.7141 30.7995 36.0453 30.5303 36.4317 30.3706C36.8181 30.211 37.2427 30.1678 37.6533 30.2464C38.0639 30.3251 38.4425 30.5221 38.7425 30.8132L39.3434 31.4241C39.5325 31.6117 39.7881 31.717 40.0544 31.717C40.3208 31.717 40.5764 31.6117 40.7654 31.4241L43.7597 28.4298C43.9473 28.2407 44.0526 27.9851 44.0526 27.7187C44.0526 27.4524 43.9473 27.1968 43.7597 27.0077L43.1489 26.4068C42.8578 26.1068 42.6608 25.7282 42.5821 25.3176C42.5035 24.907 42.5467 24.4824 42.7063 24.096C42.866 23.7096 43.1352 23.3784 43.4807 23.1431C43.8263 22.9078 44.2331 22.7787 44.6511 22.7717H45.5122C45.7776 22.7709 46.0318 22.6651 46.2195 22.4775C46.4071 22.2899 46.5129 22.0356 46.5137 21.7703V17.5443C46.5129 17.2789 46.4071 17.0246 46.2195 16.837C46.0319 16.6493 45.7776 16.5436 45.5122 16.5428C42.6179 16.9307 41.444 14.0511 43.7598 12.3067C43.9434 12.1155 44.0458 11.8607 44.0458 11.5957C44.0458 11.3307 43.9433 11.0759 43.7597 10.8847L40.7655 7.89044C40.5764 7.7028 40.3209 7.59751 40.0545 7.59751C39.7881 7.59751 39.5326 7.7028 39.3435 7.89044C37.5804 10.2232 34.7189 9.00702 35.1075 6.13782C35.1079 6.00619 35.0823 5.87578 35.0321 5.75409C34.9819 5.63241 34.9082 5.52185 34.8151 5.42878C34.722 5.33571 34.6114 5.26197 34.4897 5.21181C34.368 5.16164 34.2376 5.13604 34.106 5.13648H29.88C29.7484 5.13603 29.6179 5.16163 29.4962 5.2118C29.3745 5.26197 29.264 5.33572 29.1709 5.4288C29.0778 5.52189 29.0041 5.63247 28.9539 5.75417C28.9037 5.87588 28.8781 6.0063 28.8786 6.13794C28.9686 7.29639 28.7587 8.4798 27.5666 8.96194C26.3854 9.47182 25.3827 8.77499 24.6426 7.8904C24.4535 7.70279 24.1979 7.59751 23.9315 7.59752C23.6651 7.59754 23.4095 7.70283 23.2205 7.89046L20.2262 10.8847C19.5142 11.6599 20.2325 12.3775 20.8372 12.9076C21.1283 13.2076 21.3253 13.5863 21.4039 13.9968C21.4825 14.4074 21.4393 14.8321 21.2796 15.2184C21.1199 15.6048 20.8508 15.936 20.5052 16.1713C20.1597 16.4066 19.7529 16.5357 19.3349 16.5428L18.4737 16.5428C18.2084 16.5436 17.9541 16.6493 17.7665 16.837C17.5788 17.0246 17.4731 17.2789 17.4723 17.5443V21.7703C17.4731 22.0356 17.5788 22.2898 17.7664 22.4775C17.9541 22.6651 18.2083 22.7709 18.4736 22.7717ZM31.9931 13.6487C39.9341 13.8989 39.9323 25.4167 31.993 25.6658C24.0518 25.4155 24.0536 13.8978 31.9931 13.6487Z" fill="url(#paint0_linear_1234_217)"/>
<defs>
<linearGradient id="paint0_linear_1234_217" x1="3.99999" y1="31.9999" x2="60" y2="31.9999" gradientUnits="userSpaceOnUse">
<stop stop-color="#FDC500"/>
<stop offset="1" stop-color="#3A5EFC"/>
</linearGradient>
</defs>
</svg>
