<svg width="638" height="538" viewBox="0 0 638 538" fill="none" xmlns="http://www.w3.org/2000/svg">
<path d="M341.5 33.5C310.639 33.5 280.081 39.5785 251.569 51.3883C223.058 63.1982 197.152 80.5081 175.33 102.33C153.508 124.152 136.198 150.058 124.388 178.569C112.578 207.081 106.5 237.639 106.5 268.5C106.5 299.361 112.578 329.919 124.388 358.431C136.198 386.942 153.508 412.848 175.33 434.67C197.152 456.492 223.058 473.802 251.569 485.612C280.081 497.422 310.639 503.5 341.5 503.5" stroke="#FDC500"/>
<circle cx="341.5" cy="33.5" r="33" fill="#0F1114" stroke="#3A5EFC"/>
<path d="M340.73 53.7025C327.95 48.25 324.5 38.1625 324.32 37.75C324.305 37.6707 324.305 37.5893 324.32 37.51V19.2475C324.313 19.0811 324.361 18.9171 324.458 18.7813C324.554 18.6455 324.693 18.5456 324.852 18.4975L340.812 13.795C340.951 13.7497 341.101 13.7497 341.24 13.795L357.237 18.5275C357.398 18.5743 357.539 18.6735 357.637 18.8094C357.735 18.9454 357.784 19.1101 357.777 19.2775V37.5025C357.779 37.5976 357.761 37.692 357.725 37.78C354.383 44.906 348.552 50.5657 341.33 53.695C341.235 53.7342 341.133 53.7546 341.03 53.755C340.928 53.7517 340.827 53.734 340.73 53.7025ZM325.782 37.3675C326.187 38.44 329.81 47.2675 341.022 52.1875C347.678 49.1675 353.073 43.9214 356.277 37.3525V19.81L341 15.295L325.752 19.795L325.782 37.3675Z" fill="#FDC500"/>
<path d="M341.225 34.42C341.017 34.4123 340.82 34.3234 340.677 34.1725L337.88 31.0975C337.806 31.0266 337.747 30.9412 337.707 30.8467C337.667 30.7522 337.647 30.6505 337.648 30.5479C337.65 30.4454 337.672 30.3441 337.713 30.2505C337.755 30.1568 337.816 30.0726 337.891 30.0033C337.967 29.9339 338.056 29.8807 338.153 29.8471C338.249 29.8135 338.352 29.8001 338.454 29.8078C338.557 29.8154 338.656 29.844 338.747 29.8917C338.838 29.9393 338.918 30.0051 338.982 30.085L341.232 32.5675L349.482 23.935C349.623 23.7953 349.813 23.7169 350.011 23.7169C350.209 23.7169 350.399 23.7953 350.54 23.935C350.61 24.0047 350.666 24.0877 350.704 24.1791C350.742 24.2705 350.762 24.3685 350.762 24.4675C350.762 24.5665 350.742 24.6645 350.704 24.7559C350.666 24.8473 350.61 24.9303 350.54 25L341.75 34.1875C341.682 34.2588 341.601 34.3161 341.51 34.356C341.42 34.3959 341.323 34.4176 341.225 34.42Z" fill="#FDC500"/>
<path d="M341.225 42.0775C338.701 42.0775 336.28 41.0748 334.495 39.2899C332.71 37.505 331.708 35.0842 331.708 32.56C331.708 30.0358 332.71 27.615 334.495 25.8301C336.28 24.0452 338.701 23.0425 341.225 23.0425C342.236 23.0553 343.242 23.1811 344.225 23.4175C344.32 23.4435 344.409 23.4881 344.487 23.5485C344.565 23.609 344.63 23.6842 344.679 23.7699C344.728 23.8556 344.759 23.95 344.771 24.0479C344.783 24.1457 344.776 24.245 344.75 24.34C344.724 24.4351 344.679 24.5241 344.619 24.602C344.559 24.6798 344.483 24.745 344.398 24.7937C344.312 24.8425 344.217 24.8739 344.12 24.8861C344.022 24.8984 343.923 24.8912 343.828 24.865C342.982 24.663 342.117 24.5549 341.248 24.5425C339.661 24.5395 338.11 25.0072 336.789 25.8864C335.469 26.7656 334.439 28.0167 333.83 29.4814C333.221 30.9462 333.06 32.5587 333.367 34.1149C333.675 35.6711 334.437 37.1011 335.558 38.2239C336.679 39.3467 338.107 40.1118 339.663 40.4223C341.219 40.7329 342.831 40.575 344.297 39.9686C345.763 39.3622 347.016 38.3346 347.898 37.0158C348.779 35.697 349.25 34.1463 349.25 32.56C349.258 30.8806 348.733 29.242 347.75 27.88C347.634 27.7179 347.586 27.5162 347.619 27.3193C347.651 27.1224 347.76 26.9464 347.923 26.83C348.085 26.7136 348.286 26.6664 348.483 26.6988C348.68 26.7311 348.856 26.8404 348.973 27.0025C349.993 28.4264 350.602 30.1043 350.731 31.8517C350.86 33.599 350.504 35.348 349.703 36.9064C348.902 38.4647 347.687 39.7719 346.191 40.6843C344.696 41.5966 342.977 42.0787 341.225 42.0775Z" fill="#FDC500"/>
<circle cx="105.5" cy="268.5" r="33" fill="#0F1114" stroke="#3A5EFC"/>
<g clip-path="url(#clip0_1347_3)">
<path d="M105.258 290.844H104.742C104.259 290.844 103.784 290.758 103.331 290.589C98.3538 288.726 94.3541 285.708 91.4434 281.618C89.1576 278.406 87.5723 274.566 86.7315 270.206C85.3446 263.013 86.4676 256.779 86.5161 256.517C86.7644 255.176 87.6639 254.062 88.9221 253.536L103.448 247.467C103.943 247.261 104.465 247.156 105 247.156C105.535 247.156 106.057 247.261 106.551 247.467L121.078 253.536C122.336 254.062 123.235 255.176 123.484 256.517C123.532 256.779 124.655 263.014 123.268 270.206C122.428 274.566 120.842 278.406 118.556 281.618C115.646 285.708 111.646 288.726 106.668 290.589C106.216 290.758 105.741 290.844 105.258 290.844ZM105 248.656C104.664 248.656 104.337 248.722 104.027 248.851L89.5003 254.92C88.711 255.25 88.1468 255.949 87.991 256.79C87.9447 257.04 86.8705 263.005 88.2043 269.922C89.0042 274.07 90.5052 277.713 92.6655 280.748C95.3995 284.59 99.1648 287.428 103.857 289.184C104.141 289.29 104.439 289.344 104.742 289.344H105.258C105.561 289.344 105.859 289.29 106.143 289.184C110.835 287.428 114.6 284.59 117.334 280.748C119.495 277.713 120.996 274.07 121.796 269.922C123.129 263.005 122.055 257.04 122.009 256.79C121.853 255.949 121.289 255.25 120.5 254.92L105.973 248.851C105.663 248.722 105.336 248.656 105 248.656Z" fill="#FDC500"/>
<path d="M105.258 287.569H104.742C104.652 287.569 104.563 287.553 104.479 287.521C100.124 285.892 96.6362 283.267 94.1113 279.719C92.0993 276.892 90.6982 273.483 89.9468 269.586C89.2824 266.141 89.2594 262.941 89.357 260.863C89.4631 258.606 89.7248 257.173 89.7359 257.113C89.782 256.864 89.9506 256.655 90.1842 256.558L104.711 250.489C104.896 250.412 105.104 250.412 105.289 250.489L119.815 256.558C120.049 256.655 120.217 256.864 120.264 257.113C120.275 257.173 120.536 258.606 120.642 260.863C120.74 262.941 120.717 266.141 120.053 269.586C119.301 273.483 117.9 276.892 115.888 279.719C113.363 283.267 109.875 285.892 105.521 287.521C105.437 287.553 105.348 287.569 105.258 287.569ZM104.878 286.069H105.121C112.444 283.285 116.971 277.645 118.58 269.302C119.611 263.952 119.053 259.157 118.851 257.781L105 251.994L91.1479 257.781C91.065 258.344 90.9219 259.479 90.8532 260.979C90.7618 262.976 90.7873 266.049 91.4281 269.346C93.0448 277.665 97.5693 283.29 104.878 286.069Z" fill="#FDC500"/>
<path d="M108.615 278.284H101.385C99.4438 278.284 97.8643 276.704 97.8643 274.763V268.888C97.8643 266.946 99.4438 265.367 101.385 265.367H108.615C110.556 265.367 112.136 266.946 112.136 268.888V274.763C112.136 276.704 110.556 278.284 108.615 278.284ZM101.385 266.867C100.271 266.867 99.3643 267.773 99.3643 268.888V274.763C99.3643 275.877 100.271 276.784 101.385 276.784H108.615C109.729 276.784 110.636 275.877 110.636 274.763V268.888C110.636 267.773 109.729 266.867 108.615 266.867H101.385ZM105 272.722C103.854 272.722 102.922 271.789 102.922 270.644C102.922 269.498 103.854 268.565 105 268.565C106.146 268.565 107.078 269.498 107.078 270.644C107.078 271.789 106.146 272.722 105 272.722ZM105 270.065C104.681 270.065 104.422 270.325 104.422 270.644C104.422 270.962 104.681 271.222 105 271.222C105.319 271.222 105.578 270.962 105.578 270.644C105.578 270.325 105.319 270.065 105 270.065Z" fill="#FDC500"/>
<path d="M109.671 266.867C109.256 266.867 108.921 266.531 108.921 266.117V263.82C108.921 261.658 107.162 259.899 105 259.899C102.838 259.899 101.08 261.658 101.08 263.82V266.117C101.08 266.531 100.744 266.867 100.33 266.867C99.9154 266.867 99.5796 266.531 99.5796 266.117V263.82C99.5796 262.372 100.143 261.011 101.167 259.987C102.191 258.963 103.552 258.399 105 258.399C106.448 258.399 107.809 258.963 108.833 259.987C109.857 261.011 110.421 262.372 110.421 263.82V266.117C110.421 266.531 110.085 266.867 109.671 266.867Z" fill="#FDC500"/>
<path d="M105 274.96C104.586 274.96 104.25 274.624 104.25 274.21V271.972C104.25 271.557 104.586 271.222 105 271.222C105.414 271.222 105.75 271.557 105.75 271.972V274.21C105.75 274.624 105.414 274.96 105 274.96Z" fill="#FDC500"/>
</g>
<circle cx="341.5" cy="504.5" r="33" fill="#0F1114" stroke="#3A5EFC"/>
<path d="M360.105 510.909L353.183 502.021C353.076 501.884 352.913 501.804 352.739 501.804C352.566 501.804 352.402 501.884 352.296 502.021L352.233 502.101L351.802 501.643C352.239 500.865 352.582 500.037 352.823 499.176L354.971 499.11C355.394 499.097 355.725 498.755 355.725 498.333V493.94C355.725 493.518 355.394 493.175 354.971 493.162L352.823 493.096C352.582 492.235 352.239 491.407 351.802 490.629L353.273 489.063C353.563 488.755 353.556 488.28 353.257 487.981L350.151 484.875C349.852 484.577 349.376 484.569 349.069 484.858L347.502 486.33C346.723 485.892 345.894 485.549 345.033 485.308L344.968 483.16C344.956 482.737 344.614 482.405 344.191 482.405H339.799C339.376 482.405 339.034 482.736 339.022 483.16L338.957 485.308C338.094 485.549 337.266 485.892 336.486 486.331L334.922 484.858C334.614 484.568 334.138 484.575 333.839 484.874L330.733 487.98C330.434 488.279 330.428 488.755 330.717 489.063L332.19 490.626C331.751 491.406 331.408 492.235 331.167 493.098L329.019 493.162C328.597 493.174 328.265 493.517 328.265 493.939V498.332C328.265 498.754 328.597 499.097 329.019 499.109L331.167 499.173C331.408 500.036 331.752 500.866 332.19 501.645L331.764 502.098L331.704 502.021C331.598 501.884 331.434 501.804 331.261 501.804C331.088 501.804 330.923 501.884 330.818 502.021L323.895 510.909C323.763 511.079 323.739 511.308 323.833 511.502C323.927 511.695 324.124 511.818 324.338 511.818H327.956V522.883C327.956 523.193 328.208 523.445 328.519 523.445C328.829 523.445 329.081 523.193 329.081 522.883V511.255C329.081 510.945 328.829 510.693 328.519 510.693H325.49L331.261 503.283L337.032 510.693H334.003C333.693 510.693 333.441 510.945 333.441 511.255V522.883C333.441 523.193 333.693 523.445 334.003 523.445C334.313 523.445 334.566 523.193 334.566 522.883V511.818H338.183C338.398 511.818 338.594 511.695 338.689 511.502C338.692 511.496 338.693 511.489 338.696 511.484V527.031C338.696 527.342 338.948 527.594 339.259 527.594C339.569 527.594 339.821 527.342 339.821 527.031V505.024C339.821 504.714 339.569 504.462 339.259 504.462H336.23L342 497.052L347.771 504.462H344.742C344.432 504.462 344.18 504.714 344.18 505.024V527.031C344.18 527.342 344.432 527.594 344.742 527.594C345.053 527.594 345.305 527.342 345.305 527.031V511.485C345.308 511.49 345.309 511.497 345.312 511.503C345.407 511.696 345.603 511.818 345.818 511.818H349.435V522.884C349.435 523.194 349.688 523.446 349.998 523.446C350.308 523.446 350.56 523.194 350.56 522.884V511.255C350.56 510.945 350.308 510.693 349.998 510.693H346.969L352.74 503.283L358.511 510.693H355.481C355.171 510.693 354.919 510.945 354.919 511.255V522.883C354.919 523.193 355.171 523.445 355.481 523.445C355.792 523.445 356.044 523.193 356.044 522.883V511.818H359.662C359.876 511.818 360.072 511.695 360.167 511.502C360.262 511.308 360.237 511.079 360.105 510.909ZM336.92 501.213C335.564 499.857 334.817 498.054 334.817 496.136C334.817 494.219 335.563 492.416 336.92 491.059C339.719 488.261 344.273 488.26 347.072 491.059C348.428 492.415 349.175 494.218 349.175 496.136C349.175 498.054 348.428 499.856 347.072 501.213C346.996 501.288 346.918 501.362 346.839 501.434L345.188 499.312C346.033 498.463 346.499 497.335 346.499 496.136C346.499 494.933 346.03 493.803 345.18 492.952C343.424 491.196 340.568 491.196 338.813 492.952C337.962 493.803 337.493 494.933 337.493 496.136C337.493 497.338 337.961 498.468 338.81 499.318L337.158 501.438C337.076 501.364 336.997 501.289 336.92 501.213ZM342 495.573C341.827 495.573 341.663 495.653 341.557 495.79L339.508 498.42C338.933 497.795 338.618 496.989 338.618 496.135C338.618 495.233 338.969 494.385 339.607 493.746C340.924 492.429 343.067 492.429 344.384 493.746C345.022 494.385 345.373 495.232 345.373 496.135C345.373 496.987 345.06 497.79 344.488 498.414L342.444 495.789C342.338 495.654 342.173 495.573 342 495.573ZM345.373 510.909C345.345 510.946 345.323 510.985 345.305 511.025V505.587H348.923C349.137 505.587 349.333 505.464 349.428 505.271C349.523 505.078 349.498 504.848 349.366 504.678L347.532 502.323C347.647 502.221 347.759 502.115 347.867 502.008C349.435 500.439 350.299 498.354 350.299 496.136C350.299 493.918 349.435 491.833 347.867 490.264C344.63 487.027 339.361 487.027 336.124 490.264C334.555 491.833 333.692 493.918 333.692 496.136C333.692 498.354 334.555 500.439 336.124 502.008C336.233 502.117 336.348 502.224 336.464 502.329L334.634 504.679C334.502 504.849 334.478 505.079 334.572 505.272C334.666 505.465 334.863 505.588 335.078 505.588H338.695V511.026C338.678 510.985 338.655 510.946 338.627 510.91L332.464 502.997L333.187 502.23C333.427 501.975 333.469 501.601 333.29 501.299C332.798 500.471 332.428 499.578 332.19 498.643C332.104 498.303 331.81 498.068 331.46 498.058L329.391 497.996V494.278L331.46 494.216C331.81 494.206 332.104 493.97 332.19 493.631C332.428 492.696 332.798 491.803 333.29 490.975C333.469 490.673 333.428 490.3 333.188 490.045L331.768 488.538L334.397 485.909L335.903 487.327C336.158 487.568 336.533 487.609 336.833 487.43C337.661 486.938 338.555 486.569 339.489 486.331C339.829 486.244 340.064 485.95 340.074 485.6L340.136 483.531H343.853L343.915 485.599C343.926 485.95 344.161 486.243 344.5 486.33C345.434 486.568 346.327 486.937 347.154 487.428C347.455 487.606 347.828 487.565 348.083 487.325L349.594 485.908L352.223 488.538L350.805 490.047C350.565 490.302 350.525 490.675 350.703 490.977C351.193 491.804 351.563 492.695 351.801 493.628C351.887 493.967 352.18 494.202 352.53 494.213L354.6 494.277V497.996L352.529 498.06C352.179 498.071 351.887 498.306 351.8 498.645C351.563 499.578 351.193 500.469 350.702 501.296C350.523 501.597 350.564 501.971 350.804 502.226L351.532 503L345.373 510.909Z" fill="#FDC500"/>
<rect x="375.5" y="18.5" width="71" height="31" rx="15.5" stroke="url(#paint0_linear_1347_3)"/>
<path d="M399.138 39V31.206H396.12V30.36H403.038V31.206H400.02V39H399.138ZM403.403 39V32.52H404.195V34.08L404.039 33.876C404.111 33.684 404.205 33.508 404.321 33.348C404.437 33.184 404.563 33.05 404.699 32.946C404.867 32.798 405.063 32.686 405.287 32.61C405.511 32.53 405.737 32.484 405.965 32.472C406.193 32.456 406.401 32.472 406.589 32.52V33.348C406.353 33.288 406.095 33.274 405.815 33.306C405.535 33.338 405.277 33.45 405.041 33.642C404.825 33.81 404.663 34.012 404.555 34.248C404.447 34.48 404.375 34.728 404.339 34.992C404.303 35.252 404.285 35.51 404.285 35.766V39H403.403ZM410.205 39.162C409.817 39.162 409.477 39.102 409.185 38.982C408.897 38.862 408.651 38.7 408.447 38.496C408.247 38.292 408.085 38.06 407.961 37.8C407.837 37.536 407.747 37.258 407.691 36.966C407.635 36.67 407.607 36.376 407.607 36.084V32.52H408.495V35.826C408.495 36.182 408.529 36.512 408.597 36.816C408.665 37.12 408.773 37.386 408.921 37.614C409.073 37.838 409.267 38.012 409.503 38.136C409.743 38.26 410.033 38.322 410.373 38.322C410.685 38.322 410.959 38.268 411.195 38.16C411.435 38.052 411.635 37.898 411.795 37.698C411.959 37.494 412.083 37.248 412.167 36.96C412.251 36.668 412.293 36.34 412.293 35.976L412.917 36.114C412.917 36.778 412.801 37.336 412.569 37.788C412.337 38.24 412.017 38.582 411.609 38.814C411.201 39.046 410.733 39.162 410.205 39.162ZM412.383 39V37.404H412.293V32.52H413.175V39H412.383ZM417.27 39.174C416.51 39.174 415.884 39.01 415.392 38.682C414.904 38.354 414.604 37.898 414.492 37.314L415.392 37.164C415.488 37.532 415.706 37.826 416.046 38.046C416.39 38.262 416.814 38.37 417.318 38.37C417.81 38.37 418.198 38.268 418.482 38.064C418.766 37.856 418.908 37.574 418.908 37.218C418.908 37.018 418.862 36.856 418.77 36.732C418.682 36.604 418.5 36.486 418.224 36.378C417.948 36.27 417.536 36.142 416.988 35.994C416.4 35.834 415.94 35.674 415.608 35.514C415.276 35.354 415.04 35.17 414.9 34.962C414.76 34.75 414.69 34.492 414.69 34.188C414.69 33.82 414.794 33.498 415.002 33.222C415.21 32.942 415.498 32.726 415.866 32.574C416.234 32.418 416.662 32.34 417.15 32.34C417.638 32.34 418.074 32.42 418.458 32.58C418.846 32.736 419.158 32.956 419.394 33.24C419.63 33.524 419.77 33.854 419.814 34.23L418.914 34.392C418.854 34.012 418.664 33.712 418.344 33.492C418.028 33.268 417.626 33.152 417.138 33.144C416.678 33.132 416.304 33.22 416.016 33.408C415.728 33.592 415.584 33.838 415.584 34.146C415.584 34.318 415.636 34.466 415.74 34.59C415.844 34.71 416.032 34.824 416.304 34.932C416.58 35.04 416.972 35.158 417.48 35.286C418.076 35.438 418.544 35.598 418.884 35.766C419.224 35.934 419.466 36.132 419.61 36.36C419.754 36.588 419.826 36.87 419.826 37.206C419.826 37.818 419.598 38.3 419.142 38.652C418.69 39 418.066 39.174 417.27 39.174ZM424.684 39C424.32 39.076 423.96 39.106 423.604 39.09C423.252 39.074 422.936 38.998 422.656 38.862C422.38 38.726 422.17 38.514 422.026 38.226C421.91 37.986 421.846 37.744 421.834 37.5C421.826 37.252 421.822 36.97 421.822 36.654V30.72H422.698V36.618C422.698 36.89 422.7 37.118 422.704 37.302C422.712 37.482 422.754 37.642 422.83 37.782C422.974 38.05 423.202 38.21 423.514 38.262C423.83 38.314 424.22 38.302 424.684 38.226V39ZM420.436 33.276V32.52H424.684V33.276H420.436Z" fill="white"/>
<rect x="0.5" y="253.5" width="71" height="31" rx="15.5" stroke="url(#paint1_linear_1347_3)"/>
<path d="M16.34 274.18C15.736 274.18 15.192 274.08 14.708 273.88C14.228 273.676 13.83 273.388 13.514 273.016C13.202 272.644 12.998 272.202 12.902 271.69L13.802 271.54C13.946 272.1 14.25 272.54 14.714 272.86C15.178 273.176 15.732 273.334 16.376 273.334C16.8 273.334 17.18 273.268 17.516 273.136C17.852 273 18.116 272.808 18.308 272.56C18.5 272.312 18.596 272.018 18.596 271.678C18.596 271.454 18.556 271.264 18.476 271.108C18.396 270.948 18.29 270.816 18.158 270.712C18.026 270.608 17.882 270.522 17.726 270.454C17.57 270.382 17.418 270.324 17.27 270.28L15.08 269.626C14.816 269.55 14.572 269.454 14.348 269.338C14.124 269.218 13.928 269.076 13.76 268.912C13.596 268.744 13.468 268.548 13.376 268.324C13.284 268.1 13.238 267.844 13.238 267.556C13.238 267.068 13.366 266.646 13.622 266.29C13.878 265.934 14.228 265.66 14.672 265.468C15.116 265.276 15.622 265.182 16.19 265.186C16.766 265.186 17.28 265.288 17.732 265.492C18.188 265.696 18.564 265.988 18.86 266.368C19.156 266.744 19.352 267.19 19.448 267.706L18.524 267.874C18.464 267.498 18.326 267.172 18.11 266.896C17.894 266.62 17.618 266.408 17.282 266.26C16.95 266.108 16.584 266.03 16.184 266.026C15.796 266.026 15.45 266.092 15.146 266.224C14.846 266.352 14.608 266.528 14.432 266.752C14.256 266.976 14.168 267.232 14.168 267.52C14.168 267.812 14.248 268.046 14.408 268.222C14.572 268.398 14.772 268.536 15.008 268.636C15.248 268.736 15.48 268.818 15.704 268.882L17.396 269.38C17.572 269.428 17.778 269.498 18.014 269.59C18.254 269.678 18.486 269.806 18.71 269.974C18.938 270.138 19.126 270.354 19.274 270.622C19.422 270.89 19.496 271.23 19.496 271.642C19.496 272.042 19.416 272.4 19.256 272.716C19.1 273.032 18.878 273.298 18.59 273.514C18.306 273.73 17.972 273.894 17.588 274.006C17.208 274.122 16.792 274.18 16.34 274.18ZM23.4765 274.18C22.8445 274.18 22.2965 274.04 21.8325 273.76C21.3725 273.48 21.0145 273.086 20.7585 272.578C20.5025 272.07 20.3745 271.474 20.3745 270.79C20.3745 270.082 20.5005 269.47 20.7525 268.954C21.0045 268.438 21.3585 268.04 21.8145 267.76C22.2745 267.48 22.8165 267.34 23.4405 267.34C24.0805 267.34 24.6265 267.488 25.0785 267.784C25.5305 268.076 25.8725 268.496 26.1045 269.044C26.3365 269.592 26.4425 270.246 26.4225 271.006H25.5225V270.694C25.5065 269.854 25.3245 269.22 24.9765 268.792C24.6325 268.364 24.1285 268.15 23.4645 268.15C22.7685 268.15 22.2345 268.376 21.8625 268.828C21.4945 269.28 21.3105 269.924 21.3105 270.76C21.3105 271.576 21.4945 272.21 21.8625 272.662C22.2345 273.11 22.7605 273.334 23.4405 273.334C23.9045 273.334 24.3085 273.228 24.6525 273.016C25.0005 272.8 25.2745 272.49 25.4745 272.086L26.2965 272.404C26.0405 272.968 25.6625 273.406 25.1625 273.718C24.6665 274.026 24.1045 274.18 23.4765 274.18ZM20.9985 271.006V270.268H25.9485V271.006H20.9985ZM30.4421 274.18C29.7901 274.18 29.2381 274.034 28.7861 273.742C28.3341 273.45 27.9901 273.048 27.7541 272.536C27.5221 272.02 27.4021 271.428 27.3941 270.76C27.4021 270.08 27.5261 269.484 27.7661 268.972C28.0061 268.456 28.3521 268.056 28.8041 267.772C29.2561 267.484 29.8041 267.34 30.4481 267.34C31.1041 267.34 31.6741 267.5 32.1581 267.82C32.6461 268.14 32.9801 268.578 33.1601 269.134L32.2961 269.41C32.1441 269.022 31.9021 268.722 31.5701 268.51C31.2421 268.294 30.8661 268.186 30.4421 268.186C29.9661 268.186 29.5721 268.296 29.2601 268.516C28.9481 268.732 28.7161 269.034 28.5641 269.422C28.4121 269.81 28.3341 270.256 28.3301 270.76C28.3381 271.536 28.5181 272.16 28.8701 272.632C29.2221 273.1 29.7461 273.334 30.4421 273.334C30.8821 273.334 31.2561 273.234 31.5641 273.034C31.8761 272.83 32.1121 272.534 32.2721 272.146L33.1601 272.41C32.9201 272.986 32.5681 273.426 32.1041 273.73C31.6401 274.03 31.0861 274.18 30.4421 274.18ZM36.8766 274.162C36.4886 274.162 36.1486 274.102 35.8566 273.982C35.5686 273.862 35.3226 273.7 35.1186 273.496C34.9186 273.292 34.7566 273.06 34.6326 272.8C34.5086 272.536 34.4186 272.258 34.3626 271.966C34.3066 271.67 34.2786 271.376 34.2786 271.084V267.52H35.1666V270.826C35.1666 271.182 35.2006 271.512 35.2686 271.816C35.3366 272.12 35.4446 272.386 35.5926 272.614C35.7446 272.838 35.9386 273.012 36.1746 273.136C36.4146 273.26 36.7046 273.322 37.0446 273.322C37.3566 273.322 37.6306 273.268 37.8666 273.16C38.1066 273.052 38.3066 272.898 38.4666 272.698C38.6306 272.494 38.7546 272.248 38.8386 271.96C38.9226 271.668 38.9646 271.34 38.9646 270.976L39.5886 271.114C39.5886 271.778 39.4726 272.336 39.2406 272.788C39.0086 273.24 38.6886 273.582 38.2806 273.814C37.8726 274.046 37.4046 274.162 36.8766 274.162ZM39.0546 274V272.404H38.9646V267.52H39.8466V274H39.0546ZM41.5236 274V267.52H42.3156V269.08L42.1596 268.876C42.2316 268.684 42.3256 268.508 42.4416 268.348C42.5576 268.184 42.6836 268.05 42.8196 267.946C42.9876 267.798 43.1836 267.686 43.4076 267.61C43.6316 267.53 43.8576 267.484 44.0856 267.472C44.3136 267.456 44.5216 267.472 44.7096 267.52V268.348C44.4736 268.288 44.2156 268.274 43.9356 268.306C43.6556 268.338 43.3976 268.45 43.1616 268.642C42.9456 268.81 42.7836 269.012 42.6756 269.248C42.5676 269.48 42.4956 269.728 42.4596 269.992C42.4236 270.252 42.4056 270.51 42.4056 270.766V274H41.5236ZM45.9678 266.29V265.3H46.8498V266.29H45.9678ZM45.9678 274V267.52H46.8498V274H45.9678ZM52.1766 274C51.8126 274.076 51.4526 274.106 51.0966 274.09C50.7446 274.074 50.4286 273.998 50.1486 273.862C49.8726 273.726 49.6626 273.514 49.5186 273.226C49.4026 272.986 49.3386 272.744 49.3266 272.5C49.3186 272.252 49.3146 271.97 49.3146 271.654V265.72H50.1906V271.618C50.1906 271.89 50.1926 272.118 50.1966 272.302C50.2046 272.482 50.2466 272.642 50.3226 272.782C50.4666 273.05 50.6946 273.21 51.0066 273.262C51.3226 273.314 51.7126 273.302 52.1766 273.226V274ZM47.9286 268.276V267.52H52.1766V268.276H47.9286ZM54.2015 276.88L55.4555 273.478L55.4735 274.486L52.6355 267.52H53.5715L55.8995 273.346H55.5155L57.6635 267.52H58.5635L55.0835 276.88H54.2015Z" fill="white"/>
<rect x="375.5" y="489.5" width="71" height="31" rx="15.5" stroke="url(#paint2_linear_1347_3)"/>
<path d="M384.84 510V501.36H390.24V502.206H385.722V505.194H389.52V506.04H385.722V509.154H390.24V510H384.84ZM392.326 510V503.04C392.326 502.872 392.334 502.706 392.35 502.542C392.37 502.378 392.408 502.222 392.464 502.074C392.52 501.922 392.608 501.782 392.728 501.654C392.86 501.51 393.004 501.406 393.16 501.342C393.316 501.274 393.478 501.23 393.646 501.21C393.818 501.19 393.986 501.18 394.15 501.18H394.978V501.924H394.21C393.874 501.924 393.622 502.006 393.454 502.17C393.29 502.334 393.208 502.592 393.208 502.944V510H392.326ZM391.204 504.276V503.52H394.978V504.276H391.204ZM396.022 510V503.04C396.022 502.872 396.03 502.706 396.046 502.542C396.066 502.378 396.104 502.222 396.16 502.074C396.216 501.922 396.304 501.782 396.424 501.654C396.556 501.51 396.7 501.406 396.856 501.342C397.012 501.274 397.174 501.23 397.342 501.21C397.514 501.19 397.682 501.18 397.846 501.18H398.674V501.924H397.906C397.57 501.924 397.318 502.006 397.15 502.17C396.986 502.334 396.904 502.592 396.904 502.944V510H396.022ZM394.9 504.276V503.52H398.674V504.276H394.9ZM399.925 502.29V501.3H400.807V502.29H399.925ZM399.925 510V503.52H400.807V510H399.925ZM405.294 510.18C404.642 510.18 404.09 510.034 403.638 509.742C403.186 509.45 402.842 509.048 402.606 508.536C402.374 508.02 402.254 507.428 402.246 506.76C402.254 506.08 402.378 505.484 402.618 504.972C402.858 504.456 403.204 504.056 403.656 503.772C404.108 503.484 404.656 503.34 405.3 503.34C405.956 503.34 406.526 503.5 407.01 503.82C407.498 504.14 407.832 504.578 408.012 505.134L407.148 505.41C406.996 505.022 406.754 504.722 406.422 504.51C406.094 504.294 405.718 504.186 405.294 504.186C404.818 504.186 404.424 504.296 404.112 504.516C403.8 504.732 403.568 505.034 403.416 505.422C403.264 505.81 403.186 506.256 403.182 506.76C403.19 507.536 403.37 508.16 403.722 508.632C404.074 509.1 404.598 509.334 405.294 509.334C405.734 509.334 406.108 509.234 406.416 509.034C406.728 508.83 406.964 508.534 407.124 508.146L408.012 508.41C407.772 508.986 407.42 509.426 406.956 509.73C406.492 510.03 405.938 510.18 405.294 510.18ZM409.194 502.29V501.3H410.076V502.29H409.194ZM409.194 510V503.52H410.076V510H409.194ZM414.617 510.18C413.985 510.18 413.437 510.04 412.973 509.76C412.513 509.48 412.155 509.086 411.899 508.578C411.643 508.07 411.515 507.474 411.515 506.79C411.515 506.082 411.641 505.47 411.893 504.954C412.145 504.438 412.499 504.04 412.955 503.76C413.415 503.48 413.957 503.34 414.581 503.34C415.221 503.34 415.767 503.488 416.219 503.784C416.671 504.076 417.013 504.496 417.245 505.044C417.477 505.592 417.583 506.246 417.563 507.006H416.663V506.694C416.647 505.854 416.465 505.22 416.117 504.792C415.773 504.364 415.269 504.15 414.605 504.15C413.909 504.15 413.375 504.376 413.003 504.828C412.635 505.28 412.451 505.924 412.451 506.76C412.451 507.576 412.635 508.21 413.003 508.662C413.375 509.11 413.901 509.334 414.581 509.334C415.045 509.334 415.449 509.228 415.793 509.016C416.141 508.8 416.415 508.49 416.615 508.086L417.437 508.404C417.181 508.968 416.803 509.406 416.303 509.718C415.807 510.026 415.245 510.18 414.617 510.18ZM412.139 507.006V506.268H417.089V507.006H412.139ZM423.399 510V506.694C423.399 506.334 423.365 506.004 423.297 505.704C423.229 505.4 423.119 505.136 422.967 504.912C422.819 504.684 422.625 504.508 422.385 504.384C422.149 504.26 421.861 504.198 421.521 504.198C421.209 504.198 420.933 504.252 420.693 504.36C420.457 504.468 420.257 504.624 420.093 504.828C419.933 505.028 419.811 505.272 419.727 505.56C419.643 505.848 419.601 506.176 419.601 506.544L418.977 506.406C418.977 505.742 419.093 505.184 419.325 504.732C419.557 504.28 419.877 503.938 420.285 503.706C420.693 503.474 421.161 503.358 421.689 503.358C422.077 503.358 422.415 503.418 422.703 503.538C422.995 503.658 423.241 503.82 423.441 504.024C423.645 504.228 423.809 504.462 423.933 504.726C424.057 504.986 424.147 505.264 424.203 505.56C424.259 505.852 424.287 506.144 424.287 506.436V510H423.399ZM418.713 510V503.52H419.511V505.116H419.601V510H418.713ZM428.485 510.18C427.833 510.18 427.281 510.034 426.829 509.742C426.377 509.45 426.033 509.048 425.797 508.536C425.565 508.02 425.445 507.428 425.437 506.76C425.445 506.08 425.569 505.484 425.809 504.972C426.049 504.456 426.395 504.056 426.847 503.772C427.299 503.484 427.847 503.34 428.491 503.34C429.147 503.34 429.717 503.5 430.201 503.82C430.689 504.14 431.023 504.578 431.203 505.134L430.339 505.41C430.187 505.022 429.945 504.722 429.613 504.51C429.285 504.294 428.909 504.186 428.485 504.186C428.009 504.186 427.615 504.296 427.303 504.516C426.991 504.732 426.759 505.034 426.607 505.422C426.455 505.81 426.377 506.256 426.373 506.76C426.381 507.536 426.561 508.16 426.913 508.632C427.265 509.1 427.789 509.334 428.485 509.334C428.925 509.334 429.299 509.234 429.607 509.034C429.919 508.83 430.155 508.534 430.315 508.146L431.203 508.41C430.963 508.986 430.611 509.426 430.147 509.73C429.683 510.03 429.129 510.18 428.485 510.18ZM433.131 512.88L434.385 509.478L434.403 510.486L431.565 503.52H432.501L434.829 509.346H434.445L436.593 503.52H437.493L434.013 512.88H433.131Z" fill="white"/>
<mask id="path-20-inside-1_1347_3" fill="white">
<path d="M317 270.5C317 256.417 328.417 245 342.5 245H638V296H342.5C328.417 296 317 284.583 317 270.5Z"/>
</mask>
<path d="M316 270.5C316 255.864 327.864 244 342.5 244H638V246H342.5C328.969 246 318 256.969 318 270.5H316ZM638 297H342.5C327.864 297 316 285.136 316 270.5H318C318 284.031 328.969 295 342.5 295H638V297ZM342.5 297C327.864 297 316 285.136 316 270.5C316 255.864 327.864 244 342.5 244V246C328.969 246 318 256.969 318 270.5C318 284.031 328.969 295 342.5 295V297ZM638 245V296V245Z" fill="url(#paint3_linear_1347_3)" mask="url(#path-20-inside-1_1347_3)"/>
<path d="M333.45 278L329.27 263.6H331.46L334.49 274.49L337.52 263.61L339.72 263.6L342.75 274.49L345.78 263.6H347.98L343.79 278H341.71L338.62 267.23L335.53 278H333.45ZM353.256 278.3C352.183 278.3 351.24 278.067 350.426 277.6C349.62 277.127 348.99 276.47 348.536 275.63C348.09 274.783 347.866 273.803 347.866 272.69C347.866 271.51 348.086 270.487 348.526 269.62C348.973 268.753 349.593 268.083 350.386 267.61C351.18 267.137 352.103 266.9 353.156 266.9C354.256 266.9 355.193 267.157 355.966 267.67C356.74 268.177 357.316 268.9 357.696 269.84C358.083 270.78 358.236 271.897 358.156 273.19H356.066V272.43C356.053 271.177 355.813 270.25 355.346 269.65C354.886 269.05 354.183 268.75 353.236 268.75C352.19 268.75 351.403 269.08 350.876 269.74C350.35 270.4 350.086 271.353 350.086 272.6C350.086 273.787 350.35 274.707 350.876 275.36C351.403 276.007 352.163 276.33 353.156 276.33C353.81 276.33 354.373 276.183 354.846 275.89C355.326 275.59 355.7 275.163 355.966 274.61L358.016 275.26C357.596 276.227 356.96 276.977 356.106 277.51C355.253 278.037 354.303 278.3 353.256 278.3ZM349.406 273.19V271.56H357.116V273.19H349.406ZM365.47 278.3C364.437 278.3 363.57 278.05 362.87 277.55C362.17 277.043 361.64 276.36 361.28 275.5C360.92 274.64 360.74 273.67 360.74 272.59C360.74 271.51 360.917 270.54 361.27 269.68C361.63 268.82 362.157 268.143 362.85 267.65C363.55 267.15 364.41 266.9 365.43 266.9C366.443 266.9 367.317 267.15 368.05 267.65C368.79 268.143 369.36 268.82 369.76 269.68C370.16 270.533 370.36 271.503 370.36 272.59C370.36 273.67 370.16 274.643 369.76 275.51C369.367 276.37 368.803 277.05 368.07 277.55C367.343 278.05 366.477 278.3 365.47 278.3ZM360.39 278V263.6H362.49V270.23H362.25V278H360.39ZM365.18 276.41C365.847 276.41 366.397 276.24 366.83 275.9C367.27 275.56 367.597 275.103 367.81 274.53C368.03 273.95 368.14 273.303 368.14 272.59C368.14 271.883 368.03 271.243 367.81 270.67C367.597 270.097 367.267 269.64 366.82 269.3C366.373 268.96 365.803 268.79 365.11 268.79C364.457 268.79 363.917 268.95 363.49 269.27C363.07 269.59 362.757 270.037 362.55 270.61C362.35 271.183 362.25 271.843 362.25 272.59C362.25 273.337 362.35 273.997 362.55 274.57C362.75 275.143 363.067 275.593 363.5 275.92C363.933 276.247 364.493 276.41 365.18 276.41ZM380.602 278.27C379.889 278.27 379.219 278.137 378.592 277.87C377.965 277.597 377.422 277.21 376.962 276.71C376.509 276.21 376.179 275.62 375.972 274.94L377.992 274.38C378.185 275 378.522 275.477 379.002 275.81C379.482 276.137 380.015 276.297 380.602 276.29C381.129 276.283 381.592 276.16 381.992 275.92C382.392 275.68 382.705 275.357 382.932 274.95C383.159 274.537 383.272 274.063 383.272 273.53C383.272 272.73 383.022 272.07 382.522 271.55C382.029 271.03 381.382 270.77 380.582 270.77C380.355 270.77 380.122 270.803 379.882 270.87C379.649 270.937 379.429 271.023 379.222 271.13L378.242 269.48L383.322 264.99L383.542 265.59H376.542V263.6H385.202V265.59L380.982 269.65L380.962 268.97C381.869 268.97 382.655 269.173 383.322 269.58C383.989 269.98 384.502 270.527 384.862 271.22C385.229 271.907 385.412 272.677 385.412 273.53C385.412 274.45 385.195 275.267 384.762 275.98C384.335 276.693 383.759 277.253 383.032 277.66C382.312 278.067 381.502 278.27 380.602 278.27ZM388.377 278V275.79H390.587V278H388.377ZM398.76 278.3C397.78 278.3 396.913 278.087 396.16 277.66C395.407 277.227 394.813 276.633 394.38 275.88C393.953 275.127 393.74 274.26 393.74 273.28V268.32C393.74 267.34 393.953 266.473 394.38 265.72C394.813 264.967 395.407 264.377 396.16 263.95C396.913 263.517 397.78 263.3 398.76 263.3C399.74 263.3 400.607 263.517 401.36 263.95C402.113 264.377 402.703 264.967 403.13 265.72C403.563 266.473 403.78 267.34 403.78 268.32V273.28C403.78 274.26 403.563 275.127 403.13 275.88C402.703 276.633 402.113 277.227 401.36 277.66C400.607 278.087 399.74 278.3 398.76 278.3ZM398.76 276.3C399.293 276.3 399.777 276.173 400.21 275.92C400.65 275.66 401 275.313 401.26 274.88C401.52 274.44 401.65 273.95 401.65 273.41V268.17C401.65 267.637 401.52 267.153 401.26 266.72C401 266.28 400.65 265.933 400.21 265.68C399.777 265.42 399.293 265.29 398.76 265.29C398.227 265.29 397.74 265.42 397.3 265.68C396.867 265.933 396.52 266.28 396.26 266.72C396 267.153 395.87 267.637 395.87 268.17V273.41C395.87 273.95 396 274.44 396.26 274.88C396.52 275.313 396.867 275.66 397.3 275.92C397.74 276.173 398.227 276.3 398.76 276.3ZM410.576 278V263.6H412.466L417.686 274.43L422.876 263.6H424.786V277.99H422.806V268.14L418.156 278H417.206L412.546 268.14V278H410.576ZM430.638 278.3C429.838 278.3 429.168 278.153 428.628 277.86C428.088 277.56 427.678 277.167 427.398 276.68C427.124 276.187 426.988 275.647 426.988 275.06C426.988 274.513 427.084 274.033 427.278 273.62C427.471 273.207 427.758 272.857 428.138 272.57C428.518 272.277 428.984 272.04 429.538 271.86C430.018 271.72 430.561 271.597 431.168 271.49C431.774 271.383 432.411 271.283 433.078 271.19C433.751 271.097 434.418 271.003 435.078 270.91L434.318 271.33C434.331 270.483 434.151 269.857 433.778 269.45C433.411 269.037 432.778 268.83 431.878 268.83C431.311 268.83 430.791 268.963 430.318 269.23C429.844 269.49 429.514 269.923 429.328 270.53L427.378 269.93C427.644 269.003 428.151 268.267 428.898 267.72C429.651 267.173 430.651 266.9 431.898 266.9C432.864 266.9 433.704 267.067 434.418 267.4C435.138 267.727 435.664 268.247 435.998 268.96C436.171 269.313 436.278 269.687 436.318 270.08C436.358 270.473 436.378 270.897 436.378 271.35V278H434.528V275.53L434.888 275.85C434.441 276.677 433.871 277.293 433.178 277.7C432.491 278.1 431.644 278.3 430.638 278.3ZM431.008 276.59C431.601 276.59 432.111 276.487 432.538 276.28C432.964 276.067 433.308 275.797 433.568 275.47C433.828 275.143 433.998 274.803 434.078 274.45C434.191 274.13 434.254 273.77 434.268 273.37C434.288 272.97 434.298 272.65 434.298 272.41L434.978 272.66C434.318 272.76 433.718 272.85 433.178 272.93C432.638 273.01 432.148 273.09 431.708 273.17C431.274 273.243 430.888 273.333 430.548 273.44C430.261 273.54 430.004 273.66 429.778 273.8C429.558 273.94 429.381 274.11 429.248 274.31C429.121 274.51 429.058 274.753 429.058 275.04C429.058 275.32 429.128 275.58 429.268 275.82C429.408 276.053 429.621 276.24 429.908 276.38C430.194 276.52 430.561 276.59 431.008 276.59ZM438.974 278V267.2H440.834V269.82L440.574 269.48C440.708 269.133 440.881 268.817 441.094 268.53C441.308 268.237 441.554 267.997 441.834 267.81C442.108 267.61 442.411 267.457 442.744 267.35C443.084 267.237 443.431 267.17 443.784 267.15C444.138 267.123 444.478 267.14 444.804 267.2V269.16C444.451 269.067 444.058 269.04 443.624 269.08C443.198 269.12 442.804 269.257 442.444 269.49C442.104 269.71 441.834 269.977 441.634 270.29C441.441 270.603 441.301 270.953 441.214 271.34C441.128 271.72 441.084 272.123 441.084 272.55V278H438.974ZM446.699 278L446.709 263.6H448.829V272.4L453.069 267.2H455.729L451.249 272.6L456.189 278H453.349L448.829 272.8V278H446.699ZM461.792 278.3C460.718 278.3 459.775 278.067 458.962 277.6C458.155 277.127 457.525 276.47 457.072 275.63C456.625 274.783 456.402 273.803 456.402 272.69C456.402 271.51 456.622 270.487 457.062 269.62C457.508 268.753 458.128 268.083 458.922 267.61C459.715 267.137 460.638 266.9 461.692 266.9C462.792 266.9 463.728 267.157 464.502 267.67C465.275 268.177 465.852 268.9 466.232 269.84C466.618 270.78 466.772 271.897 466.692 273.19H464.602V272.43C464.588 271.177 464.348 270.25 463.882 269.65C463.422 269.05 462.718 268.75 461.772 268.75C460.725 268.75 459.938 269.08 459.412 269.74C458.885 270.4 458.622 271.353 458.622 272.6C458.622 273.787 458.885 274.707 459.412 275.36C459.938 276.007 460.698 276.33 461.692 276.33C462.345 276.33 462.908 276.183 463.382 275.89C463.862 275.59 464.235 275.163 464.502 274.61L466.552 275.26C466.132 276.227 465.495 276.977 464.642 277.51C463.788 278.037 462.838 278.3 461.792 278.3ZM457.942 273.19V271.56H465.652V273.19H457.942ZM475.115 278C474.435 278.133 473.768 278.19 473.115 278.17C472.462 278.15 471.878 278.023 471.365 277.79C470.852 277.557 470.465 277.19 470.205 276.69C469.972 276.243 469.845 275.79 469.825 275.33C469.812 274.863 469.805 274.337 469.805 273.75V264.2H471.905V273.65C471.905 274.083 471.908 274.46 471.915 274.78C471.928 275.1 471.998 275.37 472.125 275.59C472.365 276.003 472.745 276.24 473.265 276.3C473.792 276.353 474.408 276.33 475.115 276.23V278ZM467.735 268.88V267.2H475.115V268.88H467.735ZM482.462 278.3C481.429 278.3 480.562 278.05 479.862 277.55C479.162 277.043 478.632 276.36 478.272 275.5C477.912 274.64 477.732 273.67 477.732 272.59C477.732 271.51 477.909 270.54 478.262 269.68C478.622 268.82 479.149 268.143 479.842 267.65C480.542 267.15 481.402 266.9 482.422 266.9C483.436 266.9 484.309 267.15 485.042 267.65C485.782 268.143 486.352 268.82 486.752 269.68C487.152 270.533 487.352 271.503 487.352 272.59C487.352 273.67 487.152 274.643 486.752 275.51C486.359 276.37 485.796 277.05 485.062 277.55C484.336 278.05 483.469 278.3 482.462 278.3ZM477.382 282.8V267.2H479.242V274.97H479.482V282.8H477.382ZM482.172 276.41C482.839 276.41 483.389 276.24 483.822 275.9C484.262 275.56 484.589 275.103 484.802 274.53C485.022 273.95 485.132 273.303 485.132 272.59C485.132 271.883 485.022 271.243 484.802 270.67C484.589 270.097 484.259 269.64 483.812 269.3C483.366 268.96 482.796 268.79 482.102 268.79C481.449 268.79 480.909 268.95 480.482 269.27C480.062 269.59 479.749 270.037 479.542 270.61C479.342 271.183 479.242 271.843 479.242 272.59C479.242 273.337 479.342 273.997 479.542 274.57C479.742 275.143 480.059 275.593 480.492 275.92C480.926 276.247 481.486 276.41 482.172 276.41ZM489.76 278V263.3H491.85V278H489.76ZM497.903 278.3C497.103 278.3 496.433 278.153 495.893 277.86C495.353 277.56 494.943 277.167 494.663 276.68C494.39 276.187 494.253 275.647 494.253 275.06C494.253 274.513 494.35 274.033 494.543 273.62C494.736 273.207 495.023 272.857 495.403 272.57C495.783 272.277 496.25 272.04 496.803 271.86C497.283 271.72 497.826 271.597 498.433 271.49C499.04 271.383 499.676 271.283 500.343 271.19C501.016 271.097 501.683 271.003 502.343 270.91L501.583 271.33C501.596 270.483 501.416 269.857 501.043 269.45C500.676 269.037 500.043 268.83 499.143 268.83C498.576 268.83 498.056 268.963 497.583 269.23C497.11 269.49 496.78 269.923 496.593 270.53L494.643 269.93C494.91 269.003 495.416 268.267 496.163 267.72C496.916 267.173 497.916 266.9 499.163 266.9C500.13 266.9 500.97 267.067 501.683 267.4C502.403 267.727 502.93 268.247 503.263 268.96C503.436 269.313 503.543 269.687 503.583 270.08C503.623 270.473 503.643 270.897 503.643 271.35V278H501.793V275.53L502.153 275.85C501.706 276.677 501.136 277.293 500.443 277.7C499.756 278.1 498.91 278.3 497.903 278.3ZM498.273 276.59C498.866 276.59 499.376 276.487 499.803 276.28C500.23 276.067 500.573 275.797 500.833 275.47C501.093 275.143 501.263 274.803 501.343 274.45C501.456 274.13 501.52 273.77 501.533 273.37C501.553 272.97 501.563 272.65 501.563 272.41L502.243 272.66C501.583 272.76 500.983 272.85 500.443 272.93C499.903 273.01 499.413 273.09 498.973 273.17C498.54 273.243 498.153 273.333 497.813 273.44C497.526 273.54 497.27 273.66 497.043 273.8C496.823 273.94 496.646 274.11 496.513 274.31C496.386 274.51 496.323 274.753 496.323 275.04C496.323 275.32 496.393 275.58 496.533 275.82C496.673 276.053 496.886 276.24 497.173 276.38C497.46 276.52 497.826 276.59 498.273 276.59ZM510.86 278.3C509.753 278.3 508.813 278.053 508.04 277.56C507.267 277.067 506.673 276.39 506.26 275.53C505.853 274.67 505.647 273.693 505.64 272.6C505.647 271.487 505.86 270.503 506.28 269.65C506.7 268.79 507.3 268.117 508.08 267.63C508.86 267.143 509.797 266.9 510.89 266.9C512.07 266.9 513.077 267.193 513.91 267.78C514.75 268.367 515.303 269.17 515.57 270.19L513.49 270.79C513.283 270.183 512.943 269.713 512.47 269.38C512.003 269.04 511.467 268.87 510.86 268.87C510.173 268.87 509.61 269.033 509.17 269.36C508.73 269.68 508.403 270.12 508.19 270.68C507.977 271.24 507.867 271.88 507.86 272.6C507.867 273.713 508.12 274.613 508.62 275.3C509.127 275.987 509.873 276.33 510.86 276.33C511.533 276.33 512.077 276.177 512.49 275.87C512.91 275.557 513.23 275.11 513.45 274.53L515.57 275.03C515.217 276.083 514.633 276.893 513.82 277.46C513.007 278.02 512.02 278.3 510.86 278.3ZM522.104 278.3C521.031 278.3 520.087 278.067 519.274 277.6C518.467 277.127 517.837 276.47 517.384 275.63C516.937 274.783 516.714 273.803 516.714 272.69C516.714 271.51 516.934 270.487 517.374 269.62C517.821 268.753 518.441 268.083 519.234 267.61C520.027 267.137 520.951 266.9 522.004 266.9C523.104 266.9 524.041 267.157 524.814 267.67C525.587 268.177 526.164 268.9 526.544 269.84C526.931 270.78 527.084 271.897 527.004 273.19H524.914V272.43C524.901 271.177 524.661 270.25 524.194 269.65C523.734 269.05 523.031 268.75 522.084 268.75C521.037 268.75 520.251 269.08 519.724 269.74C519.197 270.4 518.934 271.353 518.934 272.6C518.934 273.787 519.197 274.707 519.724 275.36C520.251 276.007 521.011 276.33 522.004 276.33C522.657 276.33 523.221 276.183 523.694 275.89C524.174 275.59 524.547 275.163 524.814 274.61L526.864 275.26C526.444 276.227 525.807 276.977 524.954 277.51C524.101 278.037 523.151 278.3 522.104 278.3ZM518.254 273.19V271.56H525.964V273.19H518.254Z" fill="#FDC500"/>
<path d="M271.063 230H297V255.937H271.063V230Z" fill="url(#paint4_linear_1347_3)"/>
<path d="M245.937 255.937H271.063V281.063H245.937V255.937Z" fill="url(#paint5_linear_1347_3)"/>
<path d="M271.063 281.063H297V307H271.063V281.063Z" fill="url(#paint6_linear_1347_3)"/>
<path d="M220 230H245.937V255.937H220V230Z" fill="url(#paint7_linear_1347_3)"/>
<path d="M220 281.063H245.937V307H220V281.063Z" fill="url(#paint8_linear_1347_3)"/>
<defs>
<linearGradient id="paint0_linear_1347_3" x1="411" y1="18" x2="411" y2="50" gradientUnits="userSpaceOnUse">
<stop stop-color="#FDC500"/>
<stop offset="1" stop-color="#3A5EFC"/>
</linearGradient>
<linearGradient id="paint1_linear_1347_3" x1="36" y1="253" x2="36" y2="285" gradientUnits="userSpaceOnUse">
<stop stop-color="#FDC500"/>
<stop offset="1" stop-color="#3A5EFC"/>
</linearGradient>
<linearGradient id="paint2_linear_1347_3" x1="411" y1="489" x2="411" y2="521" gradientUnits="userSpaceOnUse">
<stop stop-color="#FDC500"/>
<stop offset="1" stop-color="#3A5EFC"/>
</linearGradient>
<linearGradient id="paint3_linear_1347_3" x1="477.5" y1="245" x2="477.5" y2="296" gradientUnits="userSpaceOnUse">
<stop stop-color="#FDC500"/>
<stop offset="1" stop-color="#3A5EFC"/>
</linearGradient>
<linearGradient id="paint4_linear_1347_3" x1="270.79" y1="230.137" x2="296.864" y2="255.664" gradientUnits="userSpaceOnUse">
<stop stop-color="#FDC500"/>
<stop offset="1" stop-color="#3A5EFC"/>
</linearGradient>
<linearGradient id="paint5_linear_1347_3" x1="245.672" y1="256.069" x2="270.931" y2="280.799" gradientUnits="userSpaceOnUse">
<stop stop-color="#FDC500"/>
<stop offset="1" stop-color="#3A5EFC"/>
</linearGradient>
<linearGradient id="paint6_linear_1347_3" x1="270.79" y1="281.2" x2="296.864" y2="306.727" gradientUnits="userSpaceOnUse">
<stop stop-color="#FDC500"/>
<stop offset="1" stop-color="#3A5EFC"/>
</linearGradient>
<linearGradient id="paint7_linear_1347_3" x1="219.727" y1="230.137" x2="245.8" y2="255.664" gradientUnits="userSpaceOnUse">
<stop stop-color="#FDC500"/>
<stop offset="1" stop-color="#3A5EFC"/>
</linearGradient>
<linearGradient id="paint8_linear_1347_3" x1="219.727" y1="281.2" x2="245.8" y2="306.727" gradientUnits="userSpaceOnUse">
<stop stop-color="#FDC500"/>
<stop offset="1" stop-color="#3A5EFC"/>
</linearGradient>
<clipPath id="clip0_1347_3">
<rect width="48" height="48" fill="white" transform="translate(81 245)"/>
</clipPath>
</defs>
</svg>
