<svg width="54" height="53" viewBox="0 0 54 53" fill="none" xmlns="http://www.w3.org/2000/svg">
<rect width="54" height="53" rx="8" fill="url(#paint0_linear_1277_659)"/>
<path d="M21.704 36.36C20.528 36.36 19.488 36.104 18.584 35.592C17.68 35.072 16.968 34.36 16.448 33.456C15.936 32.552 15.68 31.512 15.68 30.336V24.384C15.68 23.208 15.936 22.168 16.448 21.264C16.968 20.36 17.68 19.652 18.584 19.14C19.488 18.62 20.528 18.36 21.704 18.36C22.88 18.36 23.92 18.62 24.824 19.14C25.728 19.652 26.436 20.36 26.948 21.264C27.468 22.168 27.728 23.208 27.728 24.384V30.336C27.728 31.512 27.468 32.552 26.948 33.456C26.436 34.36 25.728 35.072 24.824 35.592C23.92 36.104 22.88 36.36 21.704 36.36ZM21.704 33.96C22.344 33.96 22.924 33.808 23.444 33.504C23.972 33.192 24.392 32.776 24.704 32.256C25.016 31.728 25.172 31.14 25.172 30.492V24.204C25.172 23.564 25.016 22.984 24.704 22.464C24.392 21.936 23.972 21.52 23.444 21.216C22.924 20.904 22.344 20.748 21.704 20.748C21.064 20.748 20.48 20.904 19.952 21.216C19.432 21.52 19.016 21.936 18.704 22.464C18.392 22.984 18.236 23.564 18.236 24.204V30.492C18.236 31.14 18.392 31.728 18.704 32.256C19.016 32.776 19.432 33.192 19.952 33.504C20.48 33.808 21.064 33.96 21.704 33.96ZM34.0904 36V21.48L30.8384 23.46V20.664L34.0904 18.72H36.6464V36H34.0904Z" fill="black"/>
<defs>
<linearGradient id="paint0_linear_1277_659" x1="5" y1="-1.3154e-06" x2="54" y2="50" gradientUnits="userSpaceOnUse">
<stop stop-color="#FDC500"/>
<stop offset="1" stop-color="#3A5EFC"/>
</linearGradient>
</defs>
</svg>
