<svg width="54" height="53" viewBox="0 0 54 53" fill="none" xmlns="http://www.w3.org/2000/svg">
<rect width="54" height="53" rx="8" fill="url(#paint0_linear_1277_662)"/>
<path d="M19.704 36.36C18.528 36.36 17.488 36.104 16.584 35.592C15.68 35.072 14.968 34.36 14.448 33.456C13.936 32.552 13.68 31.512 13.68 30.336V24.384C13.68 23.208 13.936 22.168 14.448 21.264C14.968 20.36 15.68 19.652 16.584 19.14C17.488 18.62 18.528 18.36 19.704 18.36C20.88 18.36 21.92 18.62 22.824 19.14C23.728 19.652 24.436 20.36 24.948 21.264C25.468 22.168 25.728 23.208 25.728 24.384V30.336C25.728 31.512 25.468 32.552 24.948 33.456C24.436 34.36 23.728 35.072 22.824 35.592C21.92 36.104 20.88 36.36 19.704 36.36ZM19.704 33.96C20.344 33.96 20.924 33.808 21.444 33.504C21.972 33.192 22.392 32.776 22.704 32.256C23.016 31.728 23.172 31.14 23.172 30.492V24.204C23.172 23.564 23.016 22.984 22.704 22.464C22.392 21.936 21.972 21.52 21.444 21.216C20.924 20.904 20.344 20.748 19.704 20.748C19.064 20.748 18.48 20.904 17.952 21.216C17.432 21.52 17.016 21.936 16.704 22.464C16.392 22.984 16.236 23.564 16.236 24.204V30.492C16.236 31.14 16.392 31.728 16.704 32.256C17.016 32.776 17.432 33.192 17.952 33.504C18.48 33.808 19.064 33.96 19.704 33.96ZM28.5984 35.988L28.6104 33.756L36.1344 27.012C36.7424 26.476 37.1544 25.964 37.3704 25.476C37.5944 24.988 37.7064 24.5 37.7064 24.012C37.7064 23.396 37.5704 22.844 37.2984 22.356C37.0264 21.86 36.6504 21.468 36.1704 21.18C35.6904 20.892 35.1384 20.748 34.5144 20.748C33.8744 20.748 33.3024 20.9 32.7984 21.204C32.3024 21.5 31.9144 21.896 31.6344 22.392C31.3544 22.888 31.2184 23.424 31.2264 24H28.6584C28.6584 22.88 28.9104 21.9 29.4144 21.06C29.9264 20.212 30.6264 19.552 31.5144 19.08C32.4024 18.6 33.4184 18.36 34.5624 18.36C35.6504 18.36 36.6264 18.608 37.4904 19.104C38.3544 19.592 39.0344 20.264 39.5304 21.12C40.0344 21.976 40.2864 22.952 40.2864 24.048C40.2864 24.84 40.1824 25.512 39.9744 26.064C39.7664 26.616 39.4544 27.128 39.0384 27.6C38.6224 28.072 38.1024 28.584 37.4784 29.136L31.6704 34.32L31.3944 33.6H40.2864V35.988H28.5984Z" fill="black"/>
<defs>
<linearGradient id="paint0_linear_1277_662" x1="5" y1="-1.3154e-06" x2="54" y2="50" gradientUnits="userSpaceOnUse">
<stop stop-color="#FDC500"/>
<stop offset="1" stop-color="#3A5EFC"/>
</linearGradient>
</defs>
</svg>
