<svg width="54" height="53" viewBox="0 0 54 53" fill="none" xmlns="http://www.w3.org/2000/svg">
<rect width="54" height="53" rx="8" fill="url(#paint0_linear_1277_706)"/>
<path d="M19.704 36.36C18.528 36.36 17.488 36.104 16.584 35.592C15.68 35.072 14.968 34.36 14.448 33.456C13.936 32.552 13.68 31.512 13.68 30.336V24.384C13.68 23.208 13.936 22.168 14.448 21.264C14.968 20.36 15.68 19.652 16.584 19.14C17.488 18.62 18.528 18.36 19.704 18.36C20.88 18.36 21.92 18.62 22.824 19.14C23.728 19.652 24.436 20.36 24.948 21.264C25.468 22.168 25.728 23.208 25.728 24.384V30.336C25.728 31.512 25.468 32.552 24.948 33.456C24.436 34.36 23.728 35.072 22.824 35.592C21.92 36.104 20.88 36.36 19.704 36.36ZM19.704 33.96C20.344 33.96 20.924 33.808 21.444 33.504C21.972 33.192 22.392 32.776 22.704 32.256C23.016 31.728 23.172 31.14 23.172 30.492V24.204C23.172 23.564 23.016 22.984 22.704 22.464C22.392 21.936 21.972 21.52 21.444 21.216C20.924 20.904 20.344 20.748 19.704 20.748C19.064 20.748 18.48 20.904 17.952 21.216C17.432 21.52 17.016 21.936 16.704 22.464C16.392 22.984 16.236 23.564 16.236 24.204V30.492C16.236 31.14 16.392 31.728 16.704 32.256C17.016 32.776 17.432 33.192 17.952 33.504C18.48 33.808 19.064 33.96 19.704 33.96ZM33.9144 36.324C33.0584 36.324 32.2544 36.164 31.5024 35.844C30.7504 35.516 30.0984 35.052 29.5464 34.452C29.0024 33.852 28.6064 33.144 28.3584 32.328L30.7824 31.656C31.0144 32.4 31.4184 32.972 31.9944 33.372C32.5704 33.764 33.2104 33.956 33.9144 33.948C34.5464 33.94 35.1024 33.792 35.5824 33.504C36.0624 33.216 36.4384 32.828 36.7104 32.34C36.9824 31.844 37.1184 31.276 37.1184 30.636C37.1184 29.676 36.8184 28.884 36.2184 28.26C35.6264 27.636 34.8504 27.324 33.8904 27.324C33.6184 27.324 33.3384 27.364 33.0504 27.444C32.7704 27.524 32.5064 27.628 32.2584 27.756L31.0824 25.776L37.1784 20.388L37.4424 21.108H29.0424V18.72H39.4344V21.108L34.3704 25.98L34.3464 25.164C35.4344 25.164 36.3784 25.408 37.1784 25.896C37.9784 26.376 38.5944 27.032 39.0264 27.864C39.4664 28.688 39.6864 29.612 39.6864 30.636C39.6864 31.74 39.4264 32.72 38.9064 33.576C38.3944 34.432 37.7024 35.104 36.8304 35.592C35.9664 36.08 34.9944 36.324 33.9144 36.324Z" fill="black"/>
<defs>
<linearGradient id="paint0_linear_1277_706" x1="5" y1="-1.3154e-06" x2="54" y2="50" gradientUnits="userSpaceOnUse">
<stop stop-color="#FDC500"/>
<stop offset="1" stop-color="#3A5EFC"/>
</linearGradient>
</defs>
</svg>
