<svg width="54" height="53" viewBox="0 0 54 53" fill="none" xmlns="http://www.w3.org/2000/svg">
<rect width="54" height="53" rx="8" fill="url(#paint0_linear_1277_712)"/>
<path d="M19.704 36.36C18.528 36.36 17.488 36.104 16.584 35.592C15.68 35.072 14.968 34.36 14.448 33.456C13.936 32.552 13.68 31.512 13.68 30.336V24.384C13.68 23.208 13.936 22.168 14.448 21.264C14.968 20.36 15.68 19.652 16.584 19.14C17.488 18.62 18.528 18.36 19.704 18.36C20.88 18.36 21.92 18.62 22.824 19.14C23.728 19.652 24.436 20.36 24.948 21.264C25.468 22.168 25.728 23.208 25.728 24.384V30.336C25.728 31.512 25.468 32.552 24.948 33.456C24.436 34.36 23.728 35.072 22.824 35.592C21.92 36.104 20.88 36.36 19.704 36.36ZM19.704 33.96C20.344 33.96 20.924 33.808 21.444 33.504C21.972 33.192 22.392 32.776 22.704 32.256C23.016 31.728 23.172 31.14 23.172 30.492V24.204C23.172 23.564 23.016 22.984 22.704 22.464C22.392 21.936 21.972 21.52 21.444 21.216C20.924 20.904 20.344 20.748 19.704 20.748C19.064 20.748 18.48 20.904 17.952 21.216C17.432 21.52 17.016 21.936 16.704 22.464C16.392 22.984 16.236 23.564 16.236 24.204V30.492C16.236 31.14 16.392 31.728 16.704 32.256C17.016 32.776 17.432 33.192 17.952 33.504C18.48 33.808 19.064 33.96 19.704 33.96ZM36.3984 36V32.988H28.5984V30.612L34.2144 18.72H37.0824L31.4664 30.612H36.3984V25.932H38.9424V30.612H40.6584V32.988H38.9424V36H36.3984Z" fill="black"/>
<defs>
<linearGradient id="paint0_linear_1277_712" x1="5" y1="-1.3154e-06" x2="54" y2="50" gradientUnits="userSpaceOnUse">
<stop stop-color="#FDC500"/>
<stop offset="1" stop-color="#3A5EFC"/>
</linearGradient>
</defs>
</svg>
