<svg width="69" height="69" viewBox="0 0 69 69" fill="none" xmlns="http://www.w3.org/2000/svg">
<rect x="0.5" y="0.5" width="68" height="68" rx="34" fill="#181B20"/>
<rect x="0.5" y="0.5" width="68" height="68" rx="34" stroke="url(#paint0_linear_1111_539)"/>
<path d="M29.92 42.3C28.94 42.3 28.0733 42.0867 27.32 41.66C26.5667 41.2267 25.9733 40.6333 25.54 39.88C25.1133 39.1267 24.9 38.26 24.9 37.28V32.32C24.9 31.34 25.1133 30.4733 25.54 29.72C25.9733 28.9667 26.5667 28.3767 27.32 27.95C28.0733 27.5167 28.94 27.3 29.92 27.3C30.9 27.3 31.7667 27.5167 32.52 27.95C33.2733 28.3767 33.8633 28.9667 34.29 29.72C34.7233 30.4733 34.94 31.34 34.94 32.32V37.28C34.94 38.26 34.7233 39.1267 34.29 39.88C33.8633 40.6333 33.2733 41.2267 32.52 41.66C31.7667 42.0867 30.9 42.3 29.92 42.3ZM29.92 40.3C30.4533 40.3 30.9367 40.1733 31.37 39.92C31.81 39.66 32.16 39.3133 32.42 38.88C32.68 38.44 32.81 37.95 32.81 37.41V32.17C32.81 31.6367 32.68 31.1533 32.42 30.72C32.16 30.28 31.81 29.9333 31.37 29.68C30.9367 29.42 30.4533 29.29 29.92 29.29C29.3867 29.29 28.9 29.42 28.46 29.68C28.0267 29.9333 27.68 30.28 27.42 30.72C27.16 31.1533 27.03 31.6367 27.03 32.17V37.41C27.03 37.95 27.16 38.44 27.42 38.88C27.68 39.3133 28.0267 39.66 28.46 39.92C28.9 40.1733 29.3867 40.3 29.92 40.3ZM40.242 42V29.9L37.532 31.55V29.22L40.242 27.6H42.372V42H40.242Z" fill="white"/>
<defs>
<linearGradient id="paint0_linear_1111_539" x1="3.13636" y1="5.25" x2="81.6525" y2="32.3724" gradientUnits="userSpaceOnUse">
<stop stop-color="#FDC500"/>
<stop offset="1" stop-color="#3A5EFC"/>
</linearGradient>
</defs>
</svg>
