<svg width="89" height="89" viewBox="0 0 89 89" fill="none" xmlns="http://www.w3.org/2000/svg">
<rect width="89" height="89" rx="8" fill="url(#paint0_linear_1003_28)"/>
<path d="M69.8569 44.4532C68.6539 41.711 67.3332 38.9985 66.0932 36.2649C65.8769 35.8416 65.7532 35.269 65.2575 35.0909L53.5601 30.6059L51.1458 25.8791C51.0418 25.6768 50.8657 25.5209 50.6524 25.4421C50.439 25.3633 50.2038 25.3673 49.9933 25.4534L48.0353 26.2598C47.8171 26.3542 47.6448 26.5305 47.5553 26.7507C47.4659 26.9709 47.4665 27.2174 47.557 27.4372C47.6475 27.657 47.8207 27.8324 48.0393 27.9258C48.2579 28.0191 48.5044 28.0229 48.7258 27.9363L49.9114 27.4477C51.2786 30.1333 60.6997 48.5072 62.2934 51.6402L55.0066 54.8853L42.5483 30.4723L45.3708 29.3146C45.5897 29.2209 45.7629 29.0449 45.8531 28.8246C45.9432 28.6043 45.9432 28.3574 45.8529 28.1372C45.7626 27.917 45.5893 27.7411 45.3704 27.6475C45.1515 27.554 44.9046 27.5503 44.683 27.6372C42.4366 28.6359 36.9123 30.6561 34.5304 31.5013C34.4104 31.5463 34.3013 31.6159 34.2099 31.7057C34.1186 31.7955 34.0472 31.9035 34.0003 32.0227C33.9534 32.1419 33.932 32.2696 33.9377 32.3975C33.9433 32.5255 33.9757 32.6508 34.0329 32.7655L37.1529 38.8775L31.434 40.9862C31.2117 41.0718 31.032 41.2415 30.9338 41.4586C30.8356 41.6757 30.8267 41.9227 30.9092 42.1462C30.9917 42.3698 31.1588 42.5519 31.3745 42.6532C31.5901 42.7545 31.837 42.7668 32.0617 42.6875L37.9832 40.5041L40.3785 45.1965L34.8377 47.5053L27.3281 44.4282L28.5616 43.9746C28.784 43.8892 28.9639 43.7198 29.0623 43.5028C29.1608 43.2859 29.1699 43.0389 29.0876 42.8153C29.0054 42.5918 28.8384 42.4095 28.6228 42.3081C28.4073 42.2067 28.1605 42.1942 27.9358 42.2733L24.5432 43.521C24.3176 43.5907 24.1287 43.7467 24.0175 43.9551C24.0175 43.9551 19.2364 52.9801 19.2265 52.999C19.17 53.1102 19.1366 53.2316 19.1284 53.356C19.1203 53.4805 19.1375 53.6052 19.179 53.7228C19.2205 53.8404 19.2854 53.9483 19.3699 54.04C19.4544 54.1318 19.5566 54.2054 19.6703 54.2564C19.6963 54.2618 34.4827 60.6226 34.5088 60.6169C34.7332 60.7054 34.9833 60.7027 35.2058 60.6094L45.8413 55.8977L49.5299 63.1238C49.6392 63.3293 49.822 63.486 50.0419 63.5624C50.2618 63.6388 50.5024 63.6293 50.7156 63.5358L64.3665 57.2908C64.5388 57.2121 64.6821 57.0812 64.7762 56.9167C64.8703 56.7522 64.9104 56.5623 64.8909 56.3738L64.4377 51.9864C64.4184 51.8925 64.3472 51.6831 64.3435 51.6668L62.6912 48.4371C62.6912 48.4371 69.3378 45.4907 69.3421 45.4887C69.5288 45.3954 69.6799 45.2439 69.7728 45.0571C69.8657 44.8703 69.8952 44.6583 69.8569 44.4532ZM33.9338 58.4035L21.2889 52.9782L25.235 45.5298L33.9337 49.094L33.9338 58.4035ZM54.8065 33.0251L62.5049 35.9769L57.4042 38.1028L54.8065 33.0251ZM35.7466 58.3873V49.0902L41.2051 46.8157L45.0159 54.2809L35.7466 58.3873ZM50.4257 60.8914L36.114 32.8549L40.8502 31.1323L53.5464 56.0122L50.4257 60.8914ZM62.7629 53.4156L63.021 55.9131L52.759 60.6078L55.2071 56.7805L62.7629 53.4156ZM61.8643 46.8209L58.2323 39.7215L64.4886 37.1142L67.7658 44.2047L61.8643 46.8209Z" fill="black"/>
<defs>
<linearGradient id="paint0_linear_1003_28" x1="0" y1="0" x2="95.7846" y2="79.8029" gradientUnits="userSpaceOnUse">
<stop stop-color="#FDC500"/>
<stop offset="1" stop-color="#3A5EFC"/>
</linearGradient>
</defs>
</svg>
