<svg width="64" height="64" viewBox="0 0 64 64" fill="none" xmlns="http://www.w3.org/2000/svg">
<path fill-rule="evenodd" clip-rule="evenodd" d="M44.755 47.5537V32.1637C44.755 30.8362 43.6763 29.7562 42.3488 29.7562H30.0812C28.7537 29.7562 27.6737 30.8362 27.6737 32.1637V39.4125C25.985 38.84 24.3325 38.8487 22.63 39.4412L17.3838 41.2687V25.8L34.9613 12.1312C35.7113 11.5475 36.7188 11.5475 37.4688 12.1312L55.0462 25.8V46.71L44.755 47.5537ZM38.39 10.9475L57.2475 25.6125C57.85 26.0812 58.6025 26.285 59.365 26.19C60.1287 26.095 60.8063 25.71 61.275 25.1087C61.7425 24.5062 61.9475 23.755 61.8525 22.9912C61.7575 22.2275 61.3725 21.55 60.7713 21.0812L55.3363 16.855C55.1538 16.7125 55.0462 16.495 55.0462 16.2625V5.42621C55.0462 5.03621 54.7287 4.71871 54.3387 4.71871H50.0137C49.6237 4.71871 49.3063 5.03621 49.3063 5.42621V10.6325C49.3063 10.9187 49.1437 11.18 48.8862 11.3062C48.6287 11.4325 48.3225 11.4 48.0962 11.225L37.4688 2.95996C37.0938 2.66871 36.6538 2.52246 36.215 2.52246C35.775 2.52246 35.3363 2.66871 34.9613 2.95996L11.6587 21.0812C10.41 22.0525 10.1838 23.8587 11.155 25.1087C11.6237 25.71 12.3012 26.095 13.065 26.19C13.8287 26.2862 14.58 26.08 15.1825 25.6125L34.04 10.9475C35.3413 9.93496 37.0887 9.93496 38.39 10.9475ZM42.3488 31.255H30.0812C29.5812 31.255 29.1737 31.6625 29.1737 32.1625V39.9537L38.2887 43.2825C39.39 43.685 40.1938 44.4775 40.61 45.5737C40.9025 46.3425 40.9538 47.1237 40.7663 47.8787L43.255 47.675V32.1625C43.255 31.6625 42.8488 31.255 42.3488 31.255ZM37.7738 44.6925L27.3587 40.8887C25.9375 40.37 24.5525 40.36 23.1238 40.8575L12.6375 44.51V57.6262L15.3413 56.8512C16.4513 56.5325 17.55 56.3737 18.635 56.3737C20.4675 56.3737 22.2575 56.8275 23.9862 57.7337L26.5088 59.0562C27.7675 59.7162 28.9038 60.0912 30.3075 60.3125L31.7337 60.5362C34.0662 60.9037 36.1675 60.6537 38.3488 59.75L58.76 51.2975C59.23 51.1025 59.5437 50.7762 59.7175 50.2975C59.8913 49.82 59.8625 49.3687 59.6263 48.9162L59.6162 48.8962C59.2875 48.2625 58.66 47.9187 57.94 47.9787L40.0412 49.445C39.175 50.7225 37.68 51.3625 36.1237 51.0875L23.9937 48.9475C23.5863 48.875 23.3137 48.4862 23.3862 48.0787C23.4575 47.6712 23.8462 47.3987 24.255 47.4712L36.385 49.6112C37.4325 49.7962 38.435 49.3112 38.94 48.3737L39.0762 48.1187C39.425 47.4712 39.4688 46.795 39.2075 46.1087C38.9463 45.4212 38.465 44.945 37.7738 44.6925ZM11.1375 58.605V43.9937C11.1375 43.9825 11.1375 43.9712 11.1375 43.9587V40.3775C11.1375 39.945 10.785 39.5937 10.3538 39.5937H5.98V51.0325C5.98 51.4462 5.645 51.7825 5.23 51.7825C4.81625 51.7825 4.48 51.4462 4.48 51.0325V39.5937H2.90875C2.47625 39.5937 2.125 39.9462 2.125 40.3775V60.6937C2.125 61.1262 2.47625 61.4775 2.90875 61.4775H10.3538C10.785 61.4775 11.1375 61.1262 11.1375 60.6937V58.6387C11.1375 58.6275 11.1375 58.6162 11.1375 58.605Z" fill="url(#paint0_linear_1234_92)"/>
<defs>
<linearGradient id="paint0_linear_1234_92" x1="16.1956" y1="69.27" x2="53.7303" y2="4.25796" gradientUnits="userSpaceOnUse">
<stop stop-color="#FDC500"/>
<stop offset="1" stop-color="#3A5EFC"/>
</linearGradient>
</defs>
</svg>
