<svg width="64" height="64" viewBox="0 0 64 64" fill="none" xmlns="http://www.w3.org/2000/svg">
<path d="M48.8626 22.8749L49.1001 36.1499C49.1001 36.5124 48.9251 36.8749 48.6126 37.0624C48.3001 37.2624 47.9126 37.2999 47.5751 37.1499L45.3251 36.1249L43.0751 38.3874C42.8626 38.5874 42.5876 38.6874 42.3001 38.6874C42.1626 38.6874 42.0251 38.6624 41.8876 38.5999C41.4751 38.4374 41.2251 38.0499 41.2251 37.6249L41.0501 26.0874L32.7126 29.5374V55.7874L57.4626 45.5624V19.3124L48.8626 22.8749ZM42.6251 36.8124L44.4751 34.9624C44.7876 34.6499 45.2751 34.5499 45.6876 34.7499L47.6501 35.6499L47.4251 23.4624L42.4501 25.5124L42.6251 36.8124ZM56.3126 18.2499L32.0001 8.2124L25.9876 10.6999L48.1626 21.6249L56.3126 18.2499ZM46.4001 22.3499L24.2376 11.4249L18.8876 13.6374L41.7501 24.2749L46.4001 22.3499ZM17.1126 14.3624L7.6876 18.2499L32.0001 28.2999L39.9751 25.0124L17.1126 14.3624ZM6.5376 45.5874L31.2876 55.7874V29.5499L6.5376 19.3124V45.5874ZM9.9126 39.8499C10.0376 39.4874 10.4251 39.2749 10.8126 39.3874L14.6376 40.6249C15.0001 40.7499 15.2126 41.1374 15.1001 41.5249C14.9876 41.8374 14.7126 42.0249 14.4126 42.0249C14.3501 42.0249 14.2626 42.0124 14.2001 41.9874L10.3751 40.7499C10.0126 40.6249 9.8001 40.2374 9.9126 39.8499ZM9.7251 43.1749C9.8501 42.8124 10.2376 42.5999 10.6251 42.7124L14.4501 43.9499C14.8126 44.0749 15.0251 44.4624 14.9126 44.8499C14.8126 45.1624 14.5376 45.3499 14.2376 45.3499C14.1751 45.3499 14.0876 45.3374 14.0251 45.3124L10.1876 44.0749C9.8251 43.9499 9.6126 43.5624 9.7251 43.1749Z" fill="url(#paint0_linear_1234_181)"/>
<defs>
<linearGradient id="paint0_linear_1234_181" x1="32.0001" y1="8.2124" x2="32.0001" y2="55.7874" gradientUnits="userSpaceOnUse">
<stop stop-color="#FDC500"/>
<stop offset="1" stop-color="#3A5EFC"/>
</linearGradient>
</defs>
</svg>
