<svg width="623" height="342" viewBox="0 0 623 342" fill="none" xmlns="http://www.w3.org/2000/svg">
<g filter="url(#filter0_b_1391_4)">
<rect y="65" width="151" height="151" rx="75.5" fill="white" fill-opacity="0.1"/>
<rect x="0.5" y="65.5" width="150" height="150" rx="75" stroke="url(#paint0_linear_1391_4)"/>
<path d="M23.8934 135.5V123.98H27.3894C27.5121 123.98 27.7201 123.983 28.0134 123.988C28.3121 123.993 28.5974 124.015 28.8694 124.052C29.7441 124.175 30.4748 124.5 31.0614 125.028C31.6481 125.556 32.0881 126.228 32.3814 127.044C32.6748 127.86 32.8214 128.759 32.8214 129.74C32.8214 130.721 32.6748 131.62 32.3814 132.436C32.0881 133.252 31.6481 133.924 31.0614 134.452C30.4748 134.98 29.7441 135.305 28.8694 135.428C28.6028 135.46 28.3174 135.481 28.0134 135.492C27.7094 135.497 27.5014 135.5 27.3894 135.5H23.8934ZM25.1094 134.372H27.3894C27.6081 134.372 27.8428 134.367 28.0934 134.356C28.3494 134.34 28.5681 134.313 28.7494 134.276C29.4214 134.159 29.9628 133.887 30.3734 133.46C30.7894 133.033 31.0934 132.5 31.2854 131.86C31.4774 131.215 31.5734 130.508 31.5734 129.74C31.5734 128.967 31.4774 128.257 31.2854 127.612C31.0934 126.967 30.7894 126.433 30.3734 126.012C29.9574 125.591 29.4161 125.321 28.7494 125.204C28.5681 125.167 28.3468 125.143 28.0854 125.132C27.8294 125.116 27.5974 125.108 27.3894 125.108H25.1094V134.372ZM38.2994 135.74C37.4568 135.74 36.7261 135.553 36.1074 135.18C35.4941 134.807 35.0168 134.281 34.6754 133.604C34.3341 132.927 34.1634 132.132 34.1634 131.22C34.1634 130.276 34.3314 129.46 34.6674 128.772C35.0034 128.084 35.4754 127.553 36.0834 127.18C36.6968 126.807 37.4194 126.62 38.2514 126.62C39.1048 126.62 39.8328 126.817 40.4354 127.212C41.0381 127.601 41.4941 128.161 41.8034 128.892C42.1128 129.623 42.2541 130.495 42.2274 131.508H41.0274V131.092C41.0061 129.972 40.7634 129.127 40.2994 128.556C39.8408 127.985 39.1688 127.7 38.2834 127.7C37.3554 127.7 36.6434 128.001 36.1474 128.604C35.6568 129.207 35.4114 130.065 35.4114 131.18C35.4114 132.268 35.6568 133.113 36.1474 133.716C36.6434 134.313 37.3448 134.612 38.2514 134.612C38.8701 134.612 39.4088 134.471 39.8674 134.188C40.3314 133.9 40.6968 133.487 40.9634 132.948L42.0594 133.372C41.7181 134.124 41.2141 134.708 40.5474 135.124C39.8861 135.535 39.1368 135.74 38.2994 135.74ZM34.9954 131.508V130.524H41.5954V131.508H34.9954ZM47.5868 135.74C46.7175 135.74 45.9815 135.545 45.3788 135.156C44.7761 134.767 44.3175 134.231 44.0028 133.548C43.6935 132.86 43.5335 132.071 43.5228 131.18C43.5335 130.273 43.6988 129.479 44.0188 128.796C44.3388 128.108 44.8001 127.575 45.4028 127.196C46.0055 126.812 46.7361 126.62 47.5948 126.62C48.4695 126.62 49.2295 126.833 49.8748 127.26C50.5255 127.687 50.9708 128.271 51.2108 129.012L50.0588 129.38C49.8561 128.863 49.5335 128.463 49.0908 128.18C48.6535 127.892 48.1521 127.748 47.5868 127.748C46.9521 127.748 46.4268 127.895 46.0108 128.188C45.5948 128.476 45.2855 128.879 45.0828 129.396C44.8801 129.913 44.7761 130.508 44.7708 131.18C44.7815 132.215 45.0215 133.047 45.4908 133.676C45.9601 134.3 46.6588 134.612 47.5868 134.612C48.1735 134.612 48.6721 134.479 49.0828 134.212C49.4988 133.94 49.8135 133.545 50.0268 133.028L51.2108 133.38C50.8908 134.148 50.4215 134.735 49.8028 135.14C49.1841 135.54 48.4455 135.74 47.5868 135.74ZM56.2838 135.74C55.4411 135.74 54.7105 135.553 54.0918 135.18C53.4785 134.807 53.0011 134.281 52.6598 133.604C52.3185 132.927 52.1478 132.132 52.1478 131.22C52.1478 130.276 52.3158 129.46 52.6518 128.772C52.9878 128.084 53.4598 127.553 54.0678 127.18C54.6811 126.807 55.4038 126.62 56.2358 126.62C57.0891 126.62 57.8171 126.817 58.4198 127.212C59.0225 127.601 59.4785 128.161 59.7878 128.892C60.0971 129.623 60.2385 130.495 60.2118 131.508H59.0118V131.092C58.9905 129.972 58.7478 129.127 58.2838 128.556C57.8251 127.985 57.1531 127.7 56.2678 127.7C55.3398 127.7 54.6278 128.001 54.1318 128.604C53.6411 129.207 53.3958 130.065 53.3958 131.18C53.3958 132.268 53.6411 133.113 54.1318 133.716C54.6278 134.313 55.3291 134.612 56.2358 134.612C56.8545 134.612 57.3931 134.471 57.8518 134.188C58.3158 133.9 58.6811 133.487 58.9478 132.948L60.0438 133.372C59.7025 134.124 59.1985 134.708 58.5318 135.124C57.8705 135.535 57.1211 135.74 56.2838 135.74ZM52.9798 131.508V130.524H59.5798V131.508H52.9798ZM67.9928 135.5V131.092C67.9928 130.612 67.9475 130.172 67.8568 129.772C67.7661 129.367 67.6195 129.015 67.4168 128.716C67.2195 128.412 66.9608 128.177 66.6408 128.012C66.3261 127.847 65.9421 127.764 65.4888 127.764C65.0728 127.764 64.7048 127.836 64.3848 127.98C64.0701 128.124 63.8035 128.332 63.5848 128.604C63.3715 128.871 63.2088 129.196 63.0968 129.58C62.9848 129.964 62.9288 130.401 62.9288 130.892L62.0968 130.708C62.0968 129.823 62.2515 129.079 62.5608 128.476C62.8701 127.873 63.2968 127.417 63.8408 127.108C64.3848 126.799 65.0088 126.644 65.7128 126.644C66.2301 126.644 66.6808 126.724 67.0648 126.884C67.4541 127.044 67.7821 127.26 68.0488 127.532C68.3208 127.804 68.5395 128.116 68.7048 128.468C68.8701 128.815 68.9901 129.185 69.0648 129.58C69.1395 129.969 69.1768 130.359 69.1768 130.748V135.5H67.9928ZM61.7448 135.5V126.86H62.8088V128.988H62.9288V135.5H61.7448ZM75.9568 135.5C75.4715 135.601 74.9915 135.641 74.5168 135.62C74.0475 135.599 73.6261 135.497 73.2528 135.316C72.8848 135.135 72.6048 134.852 72.4128 134.468C72.2581 134.148 72.1728 133.825 72.1568 133.5C72.1461 133.169 72.1408 132.793 72.1408 132.372V124.46H73.3088V132.324C73.3088 132.687 73.3115 132.991 73.3168 133.236C73.3275 133.476 73.3835 133.689 73.4848 133.876C73.6768 134.233 73.9808 134.447 74.3968 134.516C74.8181 134.585 75.3381 134.569 75.9568 134.468V135.5ZM70.2928 127.868V126.86H75.9568V127.868H70.2928ZM77.6591 135.5V126.86H78.7151V128.94L78.5071 128.668C78.6031 128.412 78.7284 128.177 78.8831 127.964C79.0377 127.745 79.2057 127.567 79.3871 127.428C79.6111 127.231 79.8724 127.081 80.1711 126.98C80.4697 126.873 80.7711 126.812 81.0751 126.796C81.3791 126.775 81.6564 126.796 81.9071 126.86V127.964C81.5924 127.884 81.2484 127.865 80.8751 127.908C80.5017 127.951 80.1577 128.1 79.8431 128.356C79.5551 128.58 79.3391 128.849 79.1951 129.164C79.0511 129.473 78.9551 129.804 78.9071 130.156C78.8591 130.503 78.8351 130.847 78.8351 131.188V135.5H77.6591ZM85.5842 135.74C84.9335 135.74 84.3869 135.623 83.9442 135.388C83.5069 135.153 83.1789 134.841 82.9602 134.452C82.7415 134.063 82.6322 133.639 82.6322 133.18C82.6322 132.711 82.7255 132.311 82.9122 131.98C83.1042 131.644 83.3629 131.369 83.6882 131.156C84.0189 130.943 84.4002 130.78 84.8322 130.668C85.2695 130.561 85.7522 130.468 86.2802 130.388C86.8135 130.303 87.3335 130.231 87.8402 130.172C88.3522 130.108 88.8002 130.047 89.1842 129.988L88.7682 130.244C88.7842 129.391 88.6189 128.759 88.2722 128.348C87.9255 127.937 87.3229 127.732 86.4642 127.732C85.8722 127.732 85.3709 127.865 84.9602 128.132C84.5549 128.399 84.2695 128.82 84.1042 129.396L82.9602 129.06C83.1575 128.287 83.5549 127.687 84.1522 127.26C84.7495 126.833 85.5255 126.62 86.4802 126.62C87.2695 126.62 87.9389 126.769 88.4882 127.068C89.0429 127.361 89.4349 127.788 89.6642 128.348C89.7709 128.599 89.8402 128.879 89.8722 129.188C89.9042 129.497 89.9202 129.812 89.9202 130.132V135.5H88.8722V133.332L89.1762 133.46C88.8829 134.201 88.4269 134.767 87.8082 135.156C87.1895 135.545 86.4482 135.74 85.5842 135.74ZM85.7202 134.724C86.2695 134.724 86.7495 134.625 87.1602 134.428C87.5709 134.231 87.9015 133.961 88.1522 133.62C88.4029 133.273 88.5655 132.884 88.6402 132.452C88.7042 132.175 88.7389 131.871 88.7442 131.54C88.7495 131.204 88.7522 130.953 88.7522 130.788L89.2002 131.02C88.8002 131.073 88.3655 131.127 87.8962 131.18C87.4322 131.233 86.9735 131.295 86.5202 131.364C86.0722 131.433 85.6669 131.516 85.3042 131.612C85.0589 131.681 84.8215 131.78 84.5922 131.908C84.3629 132.031 84.1735 132.196 84.0242 132.404C83.8802 132.612 83.8082 132.871 83.8082 133.18C83.8082 133.431 83.8695 133.673 83.9922 133.908C84.1202 134.143 84.3229 134.337 84.6002 134.492C84.8829 134.647 85.2562 134.724 85.7202 134.724ZM92.1628 135.5V123.74H93.3388V135.5H92.1628ZM95.8972 125.22V123.9H97.0732V125.22H95.8972ZM95.8972 135.5V126.86H97.0732V135.5H95.8972ZM98.6716 135.5V135.252L104.248 127.956H99.0876V126.86H106.184V127.132L100.616 134.404H105.88V135.5H98.6716ZM110.956 135.74C110.113 135.74 109.382 135.553 108.764 135.18C108.15 134.807 107.673 134.281 107.332 133.604C106.99 132.927 106.82 132.132 106.82 131.22C106.82 130.276 106.988 129.46 107.324 128.772C107.66 128.084 108.132 127.553 108.74 127.18C109.353 126.807 110.076 126.62 110.908 126.62C111.761 126.62 112.489 126.817 113.092 127.212C113.694 127.601 114.15 128.161 114.46 128.892C114.769 129.623 114.91 130.495 114.884 131.508H113.684V131.092C113.662 129.972 113.42 129.127 112.956 128.556C112.497 127.985 111.825 127.7 110.94 127.7C110.012 127.7 109.3 128.001 108.804 128.604C108.313 129.207 108.068 130.065 108.068 131.18C108.068 132.268 108.313 133.113 108.804 133.716C109.3 134.313 110.001 134.612 110.908 134.612C111.526 134.612 112.065 134.471 112.524 134.188C112.988 133.9 113.353 133.487 113.62 132.948L114.716 133.372C114.374 134.124 113.87 134.708 113.204 135.124C112.542 135.535 111.793 135.74 110.956 135.74ZM107.652 131.508V130.524H114.252V131.508H107.652ZM120.011 135.74C119.206 135.74 118.518 135.54 117.947 135.14C117.376 134.735 116.939 134.188 116.635 133.5C116.331 132.812 116.179 132.036 116.179 131.172C116.179 130.313 116.328 129.54 116.627 128.852C116.931 128.164 117.366 127.62 117.931 127.22C118.496 126.82 119.174 126.62 119.963 126.62C120.774 126.62 121.456 126.817 122.011 127.212C122.566 127.607 122.984 128.148 123.267 128.836C123.555 129.519 123.699 130.297 123.699 131.172C123.699 132.031 123.558 132.807 123.275 133.5C122.992 134.188 122.576 134.735 122.027 135.14C121.478 135.54 120.806 135.74 120.011 135.74ZM120.131 134.644C120.744 134.644 121.251 134.495 121.651 134.196C122.051 133.897 122.35 133.487 122.547 132.964C122.744 132.436 122.843 131.839 122.843 131.172C122.843 130.495 122.744 129.897 122.547 129.38C122.35 128.857 122.051 128.449 121.651 128.156C121.256 127.863 120.758 127.716 120.155 127.716C119.536 127.716 119.024 127.868 118.619 128.172C118.214 128.476 117.912 128.889 117.715 129.412C117.523 129.935 117.427 130.521 117.427 131.172C117.427 131.828 117.526 132.42 117.723 132.948C117.926 133.471 118.227 133.884 118.627 134.188C119.027 134.492 119.528 134.644 120.131 134.644ZM122.843 135.5V128.996H122.715V123.98H123.899V135.5H122.843ZM29.945 157.5L33.913 145.98H35.473L39.441 157.5H38.217L34.449 146.636H34.913L31.169 157.5H29.945ZM31.713 154.708V153.604H37.665V154.708H31.713ZM44.7656 157.74C43.971 157.74 43.299 157.54 42.7496 157.14C42.2003 156.735 41.7843 156.188 41.5016 155.5C41.219 154.807 41.0776 154.031 41.0776 153.172C41.0776 152.297 41.219 151.519 41.5016 150.836C41.7896 150.148 42.211 149.607 42.7656 149.212C43.3203 148.817 44.003 148.62 44.8136 148.62C45.603 148.62 46.2803 148.82 46.8456 149.22C47.411 149.62 47.843 150.164 48.1416 150.852C48.4456 151.54 48.5976 152.313 48.5976 153.172C48.5976 154.036 48.4456 154.812 48.1416 155.5C47.8376 156.188 47.4003 156.735 46.8296 157.14C46.259 157.54 45.571 157.74 44.7656 157.74ZM40.8776 161.34V148.86H41.9336V155.364H42.0616V161.34H40.8776ZM44.6456 156.644C45.2483 156.644 45.7496 156.492 46.1496 156.188C46.5496 155.884 46.8483 155.471 47.0456 154.948C47.2483 154.42 47.3496 153.828 47.3496 153.172C47.3496 152.521 47.251 151.935 47.0536 151.412C46.8563 150.889 46.555 150.476 46.1496 150.172C45.7496 149.868 45.2403 149.716 44.6216 149.716C44.019 149.716 43.5176 149.863 43.1176 150.156C42.723 150.449 42.427 150.857 42.2296 151.38C42.0323 151.897 41.9336 152.495 41.9336 153.172C41.9336 153.839 42.0323 154.436 42.2296 154.964C42.427 155.487 42.7256 155.897 43.1256 156.196C43.5256 156.495 44.0323 156.644 44.6456 156.644ZM54.2344 157.74C53.4397 157.74 52.7677 157.54 52.2184 157.14C51.669 156.735 51.253 156.188 50.9704 155.5C50.6877 154.807 50.5464 154.031 50.5464 153.172C50.5464 152.297 50.6877 151.519 50.9704 150.836C51.2584 150.148 51.6797 149.607 52.2344 149.212C52.789 148.817 53.4717 148.62 54.2824 148.62C55.0717 148.62 55.749 148.82 56.3144 149.22C56.8797 149.62 57.3117 150.164 57.6104 150.852C57.9144 151.54 58.0664 152.313 58.0664 153.172C58.0664 154.036 57.9144 154.812 57.6104 155.5C57.3064 156.188 56.869 156.735 56.2984 157.14C55.7277 157.54 55.0397 157.74 54.2344 157.74ZM50.3464 161.34V148.86H51.4024V155.364H51.5304V161.34H50.3464ZM54.1144 156.644C54.717 156.644 55.2184 156.492 55.6184 156.188C56.0184 155.884 56.317 155.471 56.5144 154.948C56.717 154.42 56.8184 153.828 56.8184 153.172C56.8184 152.521 56.7197 151.935 56.5224 151.412C56.325 150.889 56.0237 150.476 55.6184 150.172C55.2184 149.868 54.709 149.716 54.0904 149.716C53.4877 149.716 52.9864 149.863 52.5864 150.156C52.1917 150.449 51.8957 150.857 51.6984 151.38C51.501 151.897 51.4024 152.495 51.4024 153.172C51.4024 153.839 51.501 154.436 51.6984 154.964C51.8957 155.487 52.1944 155.897 52.5944 156.196C52.9944 156.495 53.501 156.644 54.1144 156.644ZM59.9831 157.5V145.74H61.1591V157.5H59.9831ZM63.7175 147.22V145.9H64.8935V147.22H63.7175ZM63.7175 157.5V148.86H64.8935V157.5H63.7175ZM70.8759 157.74C70.0065 157.74 69.2705 157.545 68.6679 157.156C68.0652 156.767 67.6065 156.231 67.2919 155.548C66.9825 154.86 66.8225 154.071 66.8119 153.18C66.8225 152.273 66.9879 151.479 67.3079 150.796C67.6279 150.108 68.0892 149.575 68.6919 149.196C69.2945 148.812 70.0252 148.62 70.8839 148.62C71.7585 148.62 72.5185 148.833 73.1639 149.26C73.8145 149.687 74.2599 150.271 74.4999 151.012L73.3479 151.38C73.1452 150.863 72.8225 150.463 72.3799 150.18C71.9425 149.892 71.4412 149.748 70.8759 149.748C70.2412 149.748 69.7159 149.895 69.2999 150.188C68.8839 150.476 68.5745 150.879 68.3719 151.396C68.1692 151.913 68.0652 152.508 68.0599 153.18C68.0705 154.215 68.3105 155.047 68.7799 155.676C69.2492 156.3 69.9479 156.612 70.8759 156.612C71.4625 156.612 71.9612 156.479 72.3719 156.212C72.7879 155.94 73.1025 155.545 73.3159 155.028L74.4999 155.38C74.1799 156.148 73.7105 156.735 73.0919 157.14C72.4732 157.54 71.7345 157.74 70.8759 157.74ZM78.5608 157.74C77.9101 157.74 77.3634 157.623 76.9208 157.388C76.4834 157.153 76.1554 156.841 75.9368 156.452C75.7181 156.063 75.6088 155.639 75.6088 155.18C75.6088 154.711 75.7021 154.311 75.8888 153.98C76.0808 153.644 76.3394 153.369 76.6648 153.156C76.9954 152.943 77.3768 152.78 77.8088 152.668C78.2461 152.561 78.7288 152.468 79.2568 152.388C79.7901 152.303 80.3101 152.231 80.8168 152.172C81.3288 152.108 81.7768 152.047 82.1608 151.988L81.7448 152.244C81.7608 151.391 81.5954 150.759 81.2488 150.348C80.9021 149.937 80.2994 149.732 79.4408 149.732C78.8488 149.732 78.3474 149.865 77.9368 150.132C77.5314 150.399 77.2461 150.82 77.0807 151.396L75.9368 151.06C76.1341 150.287 76.5314 149.687 77.1288 149.26C77.7261 148.833 78.5021 148.62 79.4568 148.62C80.2461 148.62 80.9154 148.769 81.4648 149.068C82.0194 149.361 82.4114 149.788 82.6408 150.348C82.7474 150.599 82.8168 150.879 82.8488 151.188C82.8808 151.497 82.8968 151.812 82.8968 152.132V157.5H81.8488V155.332L82.1528 155.46C81.8594 156.201 81.4034 156.767 80.7848 157.156C80.1661 157.545 79.4248 157.74 78.5608 157.74ZM78.6968 156.724C79.2461 156.724 79.7261 156.625 80.1368 156.428C80.5474 156.231 80.8781 155.961 81.1288 155.62C81.3794 155.273 81.5421 154.884 81.6168 154.452C81.6808 154.175 81.7154 153.871 81.7208 153.54C81.7261 153.204 81.7288 152.953 81.7288 152.788L82.1768 153.02C81.7768 153.073 81.3421 153.127 80.8728 153.18C80.4088 153.233 79.9501 153.295 79.4968 153.364C79.0488 153.433 78.6434 153.516 78.2808 153.612C78.0354 153.681 77.7981 153.78 77.5688 153.908C77.3394 154.031 77.1501 154.196 77.0008 154.404C76.8568 154.612 76.7848 154.871 76.7848 155.18C76.7848 155.431 76.8461 155.673 76.9688 155.908C77.0968 156.143 77.2994 156.337 77.5768 156.492C77.8594 156.647 78.2328 156.724 78.6968 156.724ZM89.6834 157.5C89.198 157.601 88.718 157.641 88.2434 157.62C87.774 157.599 87.3527 157.497 86.9794 157.316C86.6114 157.135 86.3314 156.852 86.1394 156.468C85.9847 156.148 85.8994 155.825 85.8834 155.5C85.8727 155.169 85.8674 154.793 85.8674 154.372V146.46H87.0354V154.324C87.0354 154.687 87.038 154.991 87.0434 155.236C87.054 155.476 87.11 155.689 87.2114 155.876C87.4034 156.233 87.7074 156.447 88.1234 156.516C88.5447 156.585 89.0647 156.569 89.6834 156.468V157.5ZM84.0194 149.868V148.86H89.6834V149.868H84.0194ZM91.5456 147.22V145.9H92.7216V147.22H91.5456ZM91.5456 157.5V148.86H92.7216V157.5H91.5456ZM98.728 157.74C97.8693 157.74 97.136 157.545 96.528 157.156C95.92 156.767 95.4533 156.228 95.128 155.54C94.8027 154.852 94.64 154.063 94.64 153.172C94.64 152.265 94.8053 151.471 95.136 150.788C95.4667 150.105 95.936 149.575 96.544 149.196C97.1573 148.812 97.8853 148.62 98.728 148.62C99.592 148.62 100.328 148.815 100.936 149.204C101.549 149.588 102.016 150.124 102.336 150.812C102.661 151.495 102.824 152.281 102.824 153.172C102.824 154.079 102.661 154.876 102.336 155.564C102.011 156.247 101.541 156.78 100.928 157.164C100.315 157.548 99.5813 157.74 98.728 157.74ZM98.728 156.612C99.688 156.612 100.403 156.295 100.872 155.66C101.341 155.02 101.576 154.191 101.576 153.172C101.576 152.127 101.339 151.295 100.864 150.676C100.395 150.057 99.6827 149.748 98.728 149.748C98.0827 149.748 97.5493 149.895 97.128 150.188C96.712 150.476 96.4 150.879 96.192 151.396C95.9893 151.908 95.888 152.5 95.888 153.172C95.888 154.212 96.128 155.047 96.608 155.676C97.088 156.3 97.7947 156.612 98.728 156.612ZM110.829 157.5V153.092C110.829 152.612 110.783 152.172 110.693 151.772C110.602 151.367 110.455 151.015 110.253 150.716C110.055 150.412 109.797 150.177 109.477 150.012C109.162 149.847 108.778 149.764 108.325 149.764C107.909 149.764 107.541 149.836 107.221 149.98C106.906 150.124 106.639 150.332 106.421 150.604C106.207 150.871 106.045 151.196 105.933 151.58C105.821 151.964 105.765 152.401 105.765 152.892L104.933 152.708C104.933 151.823 105.087 151.079 105.397 150.476C105.706 149.873 106.133 149.417 106.677 149.108C107.221 148.799 107.845 148.644 108.549 148.644C109.066 148.644 109.517 148.724 109.901 148.884C110.29 149.044 110.618 149.26 110.885 149.532C111.157 149.804 111.375 150.116 111.541 150.468C111.706 150.815 111.826 151.185 111.901 151.58C111.975 151.969 112.013 152.359 112.013 152.748V157.5H110.829ZM104.581 157.5V148.86H105.645V150.988H105.765V157.5H104.581ZM117.313 157.732C116.299 157.732 115.465 157.513 114.809 157.076C114.158 156.639 113.758 156.031 113.609 155.252L114.809 155.052C114.937 155.543 115.227 155.935 115.681 156.228C116.139 156.516 116.705 156.66 117.377 156.66C118.033 156.66 118.55 156.524 118.929 156.252C119.307 155.975 119.497 155.599 119.497 155.124C119.497 154.857 119.435 154.641 119.313 154.476C119.195 154.305 118.953 154.148 118.585 154.004C118.217 153.86 117.667 153.689 116.937 153.492C116.153 153.279 115.539 153.065 115.097 152.852C114.654 152.639 114.339 152.393 114.153 152.116C113.966 151.833 113.873 151.489 113.873 151.084C113.873 150.593 114.011 150.164 114.289 149.796C114.566 149.423 114.95 149.135 115.441 148.932C115.931 148.724 116.502 148.62 117.153 148.62C117.803 148.62 118.385 148.727 118.897 148.94C119.414 149.148 119.83 149.441 120.145 149.82C120.459 150.199 120.646 150.639 120.705 151.14L119.505 151.356C119.425 150.849 119.171 150.449 118.745 150.156C118.323 149.857 117.787 149.703 117.137 149.692C116.523 149.676 116.025 149.793 115.641 150.044C115.257 150.289 115.065 150.617 115.065 151.028C115.065 151.257 115.134 151.455 115.273 151.62C115.411 151.78 115.662 151.932 116.025 152.076C116.393 152.22 116.915 152.377 117.593 152.548C118.387 152.751 119.011 152.964 119.465 153.188C119.918 153.412 120.241 153.676 120.433 153.98C120.625 154.284 120.721 154.66 120.721 155.108C120.721 155.924 120.417 156.567 119.809 157.036C119.206 157.5 118.374 157.732 117.313 157.732Z" fill="white"/>
</g>
<rect x="171" width="281" height="281" rx="140.5" fill="#181B20"/>
<g clip-path="url(#clip0_1391_4)">
<path d="M311.485 50.5015L310.297 54.5923V173.636L311.485 174.832L366.469 142.168L311.485 50.5015Z" fill="#937821"/>
<path d="M311.484 50.5017L256.5 142.168L311.484 174.832V117.057V50.5017Z" fill="#D8BA5A"/>
<path d="M311.485 185.279L310.797 186.129V228.516L311.485 230.499L366.5 152.647L311.485 185.279Z" fill="#937821"/>
<path d="M311.484 230.499V185.279L256.5 152.647L311.484 230.499Z" fill="#D8BA5A"/>
<path d="M311.484 174.832L366.469 142.168L311.484 117.056V174.832Z" fill="#725D1A"/>
<path d="M256.5 142.168L311.484 174.832V117.056L256.5 142.168Z" fill="#9A8023"/>
</g>
<g filter="url(#filter1_b_1391_4)">
<rect x="472" y="65" width="151" height="151" rx="75.5" fill="white" fill-opacity="0.1"/>
<rect x="472.5" y="65.5" width="150" height="150" rx="75" stroke="url(#paint1_linear_1391_4)"/>
<path d="M494.403 135.74C493.256 135.74 492.283 135.487 491.483 134.98C490.683 134.473 490.072 133.769 489.651 132.868C489.235 131.967 489.027 130.924 489.027 129.74C489.027 128.556 489.235 127.513 489.651 126.612C490.072 125.711 490.683 125.007 491.483 124.5C492.283 123.993 493.256 123.74 494.403 123.74C495.736 123.74 496.832 124.079 497.691 124.756C498.555 125.433 499.15 126.345 499.475 127.492L498.027 127.876C497.792 127.017 497.374 126.34 496.771 125.844C496.168 125.348 495.379 125.1 494.403 125.1C493.544 125.1 492.83 125.295 492.259 125.684C491.688 126.073 491.259 126.617 490.971 127.316C490.683 128.009 490.536 128.817 490.531 129.74C490.526 130.657 490.667 131.465 490.955 132.164C491.243 132.857 491.675 133.401 492.251 133.796C492.827 134.185 493.544 134.38 494.403 134.38C495.379 134.38 496.168 134.132 496.771 133.636C497.374 133.135 497.792 132.457 498.027 131.604L499.475 131.988C499.15 133.129 498.555 134.041 497.691 134.724C496.832 135.401 495.736 135.74 494.403 135.74ZM501.229 135.5V126.86H502.501V128.948L502.293 128.676C502.395 128.409 502.525 128.164 502.685 127.94C502.851 127.716 503.035 127.532 503.237 127.388C503.461 127.207 503.715 127.068 503.997 126.972C504.28 126.876 504.568 126.82 504.861 126.804C505.155 126.783 505.429 126.801 505.685 126.86V128.196C505.387 128.116 505.059 128.095 504.701 128.132C504.344 128.169 504.013 128.3 503.709 128.524C503.432 128.721 503.216 128.961 503.061 129.244C502.912 129.527 502.808 129.833 502.749 130.164C502.691 130.489 502.661 130.823 502.661 131.164V135.5H501.229ZM508.242 139.34L509.914 134.796L509.938 136.14L506.162 126.86H507.658L510.618 134.324H510.106L512.882 126.86H514.33L509.626 139.34H508.242ZM519.619 135.74C518.809 135.74 518.126 135.54 517.571 135.14C517.017 134.735 516.595 134.188 516.307 133.5C516.025 132.807 515.883 132.031 515.883 131.172C515.883 130.303 516.025 129.524 516.307 128.836C516.595 128.148 517.017 127.607 517.571 127.212C518.131 126.817 518.817 126.62 519.627 126.62C520.427 126.62 521.115 126.82 521.691 127.22C522.273 127.615 522.718 128.156 523.027 128.844C523.337 129.532 523.491 130.308 523.491 131.172C523.491 132.036 523.337 132.812 523.027 133.5C522.718 134.188 522.273 134.735 521.691 135.14C521.115 135.54 520.425 135.74 519.619 135.74ZM515.643 139.34V126.86H516.915V133.22H517.075V139.34H515.643ZM519.443 134.436C520.014 134.436 520.486 134.292 520.859 134.004C521.233 133.716 521.513 133.327 521.699 132.836C521.886 132.34 521.979 131.785 521.979 131.172C521.979 130.564 521.886 130.015 521.699 129.524C521.518 129.033 521.235 128.644 520.851 128.356C520.473 128.068 519.99 127.924 519.403 127.924C518.843 127.924 518.379 128.063 518.011 128.34C517.643 128.612 517.369 128.993 517.187 129.484C517.006 129.969 516.915 130.532 516.915 131.172C516.915 131.801 517.003 132.364 517.179 132.86C517.361 133.351 517.638 133.737 518.011 134.02C518.385 134.297 518.862 134.436 519.443 134.436ZM530.069 135.5C529.557 135.601 529.05 135.641 528.549 135.62C528.053 135.604 527.61 135.505 527.221 135.324C526.832 135.137 526.536 134.849 526.333 134.46C526.162 134.119 526.069 133.775 526.053 133.428C526.042 133.076 526.037 132.679 526.037 132.236V124.46H527.461V132.172C527.461 132.524 527.464 132.825 527.469 133.076C527.48 133.327 527.536 133.543 527.637 133.724C527.829 134.065 528.133 134.265 528.549 134.324C528.97 134.383 529.477 134.367 530.069 134.276V135.5ZM524.285 128.036V126.86H530.069V128.036H524.285ZM535.144 135.74C534.285 135.74 533.544 135.545 532.92 135.156C532.301 134.767 531.824 134.228 531.488 133.54C531.152 132.852 530.984 132.063 530.984 131.172C530.984 130.265 531.154 129.471 531.496 128.788C531.837 128.105 532.32 127.575 532.944 127.196C533.568 126.812 534.301 126.62 535.144 126.62C536.008 126.62 536.752 126.815 537.376 127.204C538 127.588 538.477 128.124 538.808 128.812C539.144 129.495 539.312 130.281 539.312 131.172C539.312 132.073 539.144 132.868 538.808 133.556C538.472 134.239 537.992 134.775 537.368 135.164C536.744 135.548 536.002 135.74 535.144 135.74ZM535.144 134.388C536.04 134.388 536.706 134.089 537.144 133.492C537.581 132.895 537.8 132.121 537.8 131.172C537.8 130.196 537.578 129.42 537.136 128.844C536.693 128.263 536.029 127.972 535.144 127.972C534.541 127.972 534.045 128.108 533.656 128.38C533.266 128.652 532.976 129.028 532.784 129.508C532.592 129.988 532.496 130.543 532.496 131.172C532.496 132.143 532.72 132.921 533.168 133.508C533.616 134.095 534.274 134.388 535.144 134.388ZM544.713 135.74C543.838 135.74 543.094 135.545 542.481 135.156C541.873 134.761 541.409 134.22 541.089 133.532C540.769 132.844 540.604 132.06 540.593 131.18C540.604 130.279 540.772 129.487 541.097 128.804C541.428 128.116 541.9 127.58 542.513 127.196C543.126 126.812 543.865 126.62 544.729 126.62C545.641 126.62 546.425 126.844 547.081 127.292C547.742 127.74 548.185 128.353 548.409 129.132L547.001 129.556C546.82 129.055 546.524 128.665 546.113 128.388C545.708 128.111 545.241 127.972 544.713 127.972C544.121 127.972 543.633 128.111 543.249 128.388C542.865 128.66 542.58 129.039 542.393 129.524C542.206 130.004 542.11 130.556 542.105 131.18C542.116 132.14 542.337 132.916 542.769 133.508C543.206 134.095 543.854 134.388 544.713 134.388C545.278 134.388 545.748 134.26 546.121 134.004C546.494 133.743 546.777 133.367 546.969 132.876L548.409 133.252C548.11 134.057 547.644 134.673 547.009 135.1C546.374 135.527 545.609 135.74 544.713 135.74ZM553.322 135.724C552.767 135.724 552.29 135.636 551.89 135.46C551.495 135.284 551.167 135.049 550.906 134.756C550.645 134.463 550.439 134.137 550.29 133.78C550.141 133.423 550.034 133.057 549.97 132.684C549.911 132.311 549.882 131.961 549.882 131.636V126.86H551.322V131.188C551.322 131.593 551.359 131.985 551.434 132.364C551.509 132.743 551.634 133.084 551.81 133.388C551.991 133.692 552.231 133.932 552.53 134.108C552.834 134.284 553.213 134.372 553.666 134.372C554.023 134.372 554.349 134.311 554.642 134.188C554.935 134.065 555.186 133.884 555.394 133.644C555.602 133.399 555.762 133.089 555.874 132.716C555.986 132.343 556.042 131.908 556.042 131.412L556.978 131.7C556.978 132.532 556.826 133.249 556.522 133.852C556.223 134.455 555.799 134.919 555.25 135.244C554.706 135.564 554.063 135.724 553.322 135.724ZM556.202 135.5V133.188H556.042V126.86H557.474V135.5H556.202ZM559.714 135.5V126.86H560.986V128.948L560.778 128.676C560.879 128.409 561.01 128.164 561.17 127.94C561.335 127.716 561.519 127.532 561.722 127.388C561.946 127.207 562.199 127.068 562.482 126.972C562.764 126.876 563.052 126.82 563.346 126.804C563.639 126.783 563.914 126.801 564.17 126.86V128.196C563.871 128.116 563.543 128.095 563.186 128.132C562.828 128.169 562.498 128.3 562.194 128.524C561.916 128.721 561.7 128.961 561.546 129.244C561.396 129.527 561.292 129.833 561.234 130.164C561.175 130.489 561.146 130.823 561.146 131.164V135.5H559.714ZM565.683 135.5V126.86H566.955V128.948L566.747 128.676C566.848 128.409 566.979 128.164 567.139 127.94C567.304 127.716 567.488 127.532 567.691 127.388C567.915 127.207 568.168 127.068 568.451 126.972C568.733 126.876 569.021 126.82 569.315 126.804C569.608 126.783 569.883 126.801 570.139 126.86V128.196C569.84 128.116 569.512 128.095 569.155 128.132C568.797 128.169 568.467 128.3 568.163 128.524C567.885 128.721 567.669 128.961 567.515 129.244C567.365 129.527 567.261 129.833 567.203 130.164C567.144 130.489 567.115 130.823 567.115 131.164V135.5H565.683ZM575.239 135.74C574.391 135.74 573.65 135.553 573.015 135.18C572.386 134.801 571.895 134.276 571.543 133.604C571.191 132.927 571.015 132.137 571.015 131.236C571.015 130.292 571.188 129.476 571.535 128.788C571.882 128.095 572.364 127.561 572.983 127.188C573.607 126.809 574.338 126.62 575.175 126.62C576.044 126.62 576.783 126.82 577.391 127.22C578.004 127.62 578.463 128.191 578.767 128.932C579.076 129.673 579.21 130.556 579.167 131.58H577.727V131.068C577.711 130.007 577.495 129.215 577.079 128.692C576.663 128.164 576.044 127.9 575.223 127.9C574.343 127.9 573.674 128.183 573.215 128.748C572.756 129.313 572.527 130.124 572.527 131.18C572.527 132.199 572.756 132.988 573.215 133.548C573.674 134.108 574.327 134.388 575.175 134.388C575.746 134.388 576.242 134.257 576.663 133.996C577.084 133.735 577.415 133.359 577.655 132.868L579.023 133.34C578.687 134.103 578.18 134.695 577.503 135.116C576.831 135.532 576.076 135.74 575.239 135.74ZM572.047 131.58V130.436H578.431V131.58H572.047ZM586.866 135.5V131.172C586.866 130.761 586.828 130.367 586.754 129.988C586.684 129.609 586.559 129.271 586.378 128.972C586.202 128.668 585.962 128.428 585.658 128.252C585.359 128.076 584.98 127.988 584.522 127.988C584.164 127.988 583.839 128.049 583.546 128.172C583.258 128.289 583.01 128.471 582.802 128.716C582.594 128.961 582.431 129.271 582.314 129.644C582.202 130.012 582.146 130.447 582.146 130.948L581.21 130.66C581.21 129.823 581.359 129.105 581.658 128.508C581.962 127.905 582.386 127.444 582.93 127.124C583.479 126.799 584.124 126.636 584.866 126.636C585.426 126.636 585.903 126.724 586.298 126.9C586.692 127.076 587.02 127.311 587.282 127.604C587.543 127.892 587.748 128.217 587.898 128.58C588.047 128.937 588.151 129.303 588.21 129.676C588.274 130.044 588.306 130.393 588.306 130.724V135.5H586.866ZM580.706 135.5V126.86H581.986V129.172H582.146V135.5H580.706ZM593.948 135.74C593.073 135.74 592.329 135.545 591.716 135.156C591.108 134.761 590.644 134.22 590.324 133.532C590.004 132.844 589.838 132.06 589.828 131.18C589.838 130.279 590.006 129.487 590.332 128.804C590.662 128.116 591.134 127.58 591.748 127.196C592.361 126.812 593.1 126.62 593.964 126.62C594.876 126.62 595.66 126.844 596.316 127.292C596.977 127.74 597.42 128.353 597.644 129.132L596.236 129.556C596.054 129.055 595.758 128.665 595.348 128.388C594.942 128.111 594.476 127.972 593.948 127.972C593.356 127.972 592.868 128.111 592.484 128.388C592.1 128.66 591.814 129.039 591.628 129.524C591.441 130.004 591.345 130.556 591.34 131.18C591.35 132.14 591.572 132.916 592.004 133.508C592.441 134.095 593.089 134.388 593.948 134.388C594.513 134.388 594.982 134.26 595.356 134.004C595.729 133.743 596.012 133.367 596.204 132.876L597.644 133.252C597.345 134.057 596.878 134.673 596.244 135.1C595.609 135.527 594.844 135.74 593.948 135.74ZM600.164 139.34L601.836 134.796L601.86 136.14L598.084 126.86H599.58L602.54 134.324H602.028L604.804 126.86H606.252L601.548 139.34H600.164ZM507.464 157.5V145.98H514.744V147.332H508.888V150.94H513.784V152.292H508.888V156.148H514.744V157.5H507.464ZM515.707 157.5L519.011 153.132L515.779 148.86H517.475L519.843 152.028L522.187 148.86H523.883L520.651 153.132L523.963 157.5H522.259L519.843 154.236L517.411 157.5H515.707ZM528.573 157.74C527.698 157.74 526.954 157.545 526.341 157.156C525.733 156.761 525.269 156.22 524.949 155.532C524.629 154.844 524.463 154.06 524.453 153.18C524.463 152.279 524.631 151.487 524.957 150.804C525.287 150.116 525.759 149.58 526.373 149.196C526.986 148.812 527.725 148.62 528.589 148.62C529.501 148.62 530.285 148.844 530.941 149.292C531.602 149.74 532.045 150.353 532.269 151.132L530.861 151.556C530.679 151.055 530.383 150.665 529.973 150.388C529.567 150.111 529.101 149.972 528.573 149.972C527.981 149.972 527.493 150.111 527.109 150.388C526.725 150.66 526.439 151.039 526.253 151.524C526.066 152.004 525.97 152.556 525.965 153.18C525.975 154.14 526.197 154.916 526.629 155.508C527.066 156.095 527.714 156.388 528.573 156.388C529.138 156.388 529.607 156.26 529.981 156.004C530.354 155.743 530.637 155.367 530.829 154.876L532.269 155.252C531.97 156.057 531.503 156.673 530.869 157.1C530.234 157.527 529.469 157.74 528.573 157.74ZM540.053 157.5V153.172C540.053 152.761 540.016 152.367 539.941 151.988C539.872 151.609 539.747 151.271 539.565 150.972C539.389 150.668 539.149 150.428 538.845 150.252C538.547 150.076 538.168 149.988 537.709 149.988C537.352 149.988 537.027 150.049 536.733 150.172C536.445 150.289 536.197 150.471 535.989 150.716C535.781 150.961 535.619 151.271 535.501 151.644C535.389 152.012 535.333 152.447 535.333 152.948L534.397 152.66C534.397 151.823 534.547 151.105 534.845 150.508C535.149 149.905 535.573 149.444 536.117 149.124C536.667 148.799 537.312 148.636 538.053 148.636C538.613 148.636 539.091 148.724 539.485 148.9C539.88 149.076 540.208 149.311 540.469 149.604C540.731 149.892 540.936 150.217 541.085 150.58C541.235 150.937 541.339 151.303 541.397 151.676C541.461 152.044 541.493 152.393 541.493 152.724V157.5H540.053ZM533.893 157.5V145.98H535.173V152.34H535.333V157.5H533.893ZM546.029 157.74C545.384 157.74 544.842 157.623 544.405 157.388C543.973 157.148 543.645 156.833 543.421 156.444C543.202 156.055 543.093 155.628 543.093 155.164C543.093 154.711 543.178 154.319 543.349 153.988C543.525 153.652 543.77 153.375 544.085 153.156C544.4 152.932 544.776 152.756 545.213 152.628C545.624 152.516 546.082 152.42 546.589 152.34C547.101 152.255 547.618 152.177 548.141 152.108C548.664 152.039 549.152 151.972 549.605 151.908L549.093 152.204C549.109 151.436 548.954 150.868 548.629 150.5C548.309 150.132 547.754 149.948 546.965 149.948C546.442 149.948 545.984 150.068 545.589 150.308C545.2 150.543 544.925 150.927 544.765 151.46L543.413 151.052C543.621 150.295 544.024 149.7 544.621 149.268C545.218 148.836 546.005 148.62 546.981 148.62C547.765 148.62 548.437 148.761 548.997 149.044C549.562 149.321 549.968 149.743 550.213 150.308C550.336 150.575 550.413 150.865 550.445 151.18C550.477 151.489 550.493 151.815 550.493 152.156V157.5H549.229V155.428L549.525 155.62C549.2 156.319 548.744 156.847 548.157 157.204C547.576 157.561 546.866 157.74 546.029 157.74ZM546.245 156.548C546.757 156.548 547.2 156.457 547.573 156.276C547.952 156.089 548.256 155.847 548.485 155.548C548.714 155.244 548.864 154.913 548.933 154.556C549.013 154.289 549.056 153.993 549.061 153.668C549.072 153.337 549.077 153.084 549.077 152.908L549.573 153.124C549.109 153.188 548.653 153.249 548.205 153.308C547.757 153.367 547.333 153.431 546.933 153.5C546.533 153.564 546.173 153.641 545.853 153.732C545.618 153.807 545.397 153.903 545.189 154.02C544.986 154.137 544.821 154.289 544.693 154.476C544.57 154.657 544.509 154.884 544.509 155.156C544.509 155.391 544.568 155.615 544.685 155.828C544.808 156.041 544.994 156.215 545.245 156.348C545.501 156.481 545.834 156.548 546.245 156.548ZM558.725 157.5V153.172C558.725 152.761 558.688 152.367 558.613 151.988C558.544 151.609 558.418 151.271 558.237 150.972C558.061 150.668 557.821 150.428 557.517 150.252C557.218 150.076 556.84 149.988 556.381 149.988C556.024 149.988 555.698 150.049 555.405 150.172C555.117 150.289 554.869 150.471 554.661 150.716C554.453 150.961 554.29 151.271 554.173 151.644C554.061 152.012 554.005 152.447 554.005 152.948L553.069 152.66C553.069 151.823 553.218 151.105 553.517 150.508C553.821 149.905 554.245 149.444 554.789 149.124C555.338 148.799 555.984 148.636 556.725 148.636C557.285 148.636 557.762 148.724 558.157 148.9C558.552 149.076 558.88 149.311 559.141 149.604C559.402 149.892 559.608 150.217 559.757 150.58C559.906 150.937 560.01 151.303 560.069 151.676C560.133 152.044 560.165 152.393 560.165 152.724V157.5H558.725ZM552.565 157.5V148.86H553.845V151.172H554.005V157.5H552.565ZM565.741 161.58C565.288 161.58 564.845 161.511 564.413 161.372C563.981 161.233 563.584 161.023 563.221 160.74C562.864 160.463 562.565 160.111 562.325 159.684L563.629 158.996C563.842 159.417 564.144 159.724 564.533 159.916C564.928 160.108 565.333 160.204 565.749 160.204C566.298 160.204 566.754 160.103 567.117 159.9C567.48 159.703 567.746 159.407 567.917 159.012C568.093 158.617 568.178 158.127 568.173 157.54V155.18H568.341V148.86H569.605V157.556C569.605 157.791 569.597 158.017 569.581 158.236C569.57 158.455 569.544 158.671 569.501 158.884C569.389 159.497 569.168 160.001 568.837 160.396C568.506 160.796 568.08 161.092 567.557 161.284C567.034 161.481 566.429 161.58 565.741 161.58ZM565.637 157.74C564.832 157.74 564.141 157.54 563.565 157.14C562.989 156.735 562.544 156.188 562.229 155.5C561.92 154.812 561.765 154.036 561.765 153.172C561.765 152.308 561.92 151.532 562.229 150.844C562.544 150.156 562.989 149.615 563.565 149.22C564.141 148.82 564.829 148.62 565.629 148.62C566.445 148.62 567.13 148.817 567.685 149.212C568.24 149.607 568.658 150.148 568.941 150.836C569.229 151.524 569.373 152.303 569.373 153.172C569.373 154.031 569.229 154.807 568.941 155.5C568.658 156.188 568.24 156.735 567.685 157.14C567.13 157.54 566.448 157.74 565.637 157.74ZM565.813 156.436C566.394 156.436 566.872 156.297 567.245 156.02C567.618 155.737 567.893 155.351 568.069 154.86C568.25 154.364 568.341 153.801 568.341 153.172C568.341 152.532 568.25 151.969 568.069 151.484C567.893 150.993 567.621 150.612 567.253 150.34C566.885 150.063 566.418 149.924 565.853 149.924C565.266 149.924 564.781 150.068 564.397 150.356C564.018 150.644 563.736 151.033 563.549 151.524C563.368 152.015 563.277 152.564 563.277 153.172C563.277 153.785 563.37 154.34 563.557 154.836C563.744 155.327 564.024 155.716 564.397 156.004C564.776 156.292 565.248 156.436 565.813 156.436ZM575.583 157.74C574.735 157.74 573.993 157.553 573.359 157.18C572.729 156.801 572.239 156.276 571.887 155.604C571.535 154.927 571.359 154.137 571.359 153.236C571.359 152.292 571.532 151.476 571.879 150.788C572.225 150.095 572.708 149.561 573.327 149.188C573.951 148.809 574.681 148.62 575.519 148.62C576.388 148.62 577.127 148.82 577.735 149.22C578.348 149.62 578.807 150.191 579.111 150.932C579.42 151.673 579.553 152.556 579.511 153.58H578.071V153.068C578.055 152.007 577.839 151.215 577.423 150.692C577.007 150.164 576.388 149.9 575.567 149.9C574.687 149.9 574.017 150.183 573.559 150.748C573.1 151.313 572.871 152.124 572.871 153.18C572.871 154.199 573.1 154.988 573.559 155.548C574.017 156.108 574.671 156.388 575.519 156.388C576.089 156.388 576.585 156.257 577.007 155.996C577.428 155.735 577.759 155.359 577.999 154.868L579.367 155.34C579.031 156.103 578.524 156.695 577.847 157.116C577.175 157.532 576.42 157.74 575.583 157.74ZM572.391 153.58V152.436H578.775V153.58H572.391ZM584.556 157.732C583.527 157.732 582.681 157.508 582.02 157.06C581.364 156.607 580.961 155.975 580.812 155.164L582.268 154.932C582.385 155.401 582.655 155.775 583.076 156.052C583.497 156.324 584.02 156.46 584.644 156.46C585.236 156.46 585.7 156.337 586.036 156.092C586.372 155.847 586.54 155.513 586.54 155.092C586.54 154.847 586.484 154.649 586.372 154.5C586.26 154.345 586.028 154.201 585.676 154.068C585.329 153.935 584.804 153.775 584.1 153.588C583.337 153.385 582.737 153.175 582.3 152.956C581.863 152.737 581.551 152.484 581.364 152.196C581.177 151.908 581.084 151.559 581.084 151.148C581.084 150.641 581.223 150.199 581.5 149.82C581.777 149.436 582.164 149.14 582.66 148.932C583.161 148.724 583.743 148.62 584.404 148.62C585.06 148.62 585.647 148.724 586.164 148.932C586.681 149.14 587.097 149.436 587.412 149.82C587.732 150.199 587.921 150.641 587.98 151.148L586.524 151.412C586.455 150.948 586.231 150.583 585.852 150.316C585.479 150.049 584.996 149.908 584.404 149.892C583.844 149.871 583.388 149.969 583.036 150.188C582.689 150.407 582.516 150.703 582.516 151.076C582.516 151.284 582.58 151.463 582.708 151.612C582.841 151.761 583.084 151.903 583.436 152.036C583.793 152.169 584.311 152.321 584.988 152.492C585.751 152.684 586.351 152.895 586.788 153.124C587.231 153.348 587.545 153.615 587.732 153.924C587.919 154.228 588.012 154.604 588.012 155.052C588.012 155.884 587.705 156.54 587.092 157.02C586.479 157.495 585.633 157.732 584.556 157.732Z" fill="white"/>
</g>
<path d="M536.833 218C536.833 219.473 538.027 220.667 539.5 220.667C540.973 220.667 542.167 219.473 542.167 218C542.167 216.527 540.973 215.333 539.5 215.333C538.027 215.333 536.833 216.527 536.833 218ZM452.04 308.155L451.807 307.713L452.04 308.155ZM311.137 341.498L311.135 340.998L311.137 341.498ZM169.793 309.111L169.563 309.556L169.793 309.111ZM78.3333 219C78.3333 220.473 79.5272 221.667 81 221.667C82.4728 221.667 83.6667 220.473 83.6667 219C83.6667 217.527 82.4728 216.333 81 216.333C79.5272 216.333 78.3333 217.527 78.3333 219ZM539.042 217.8C524.106 252.106 492.492 286.273 451.807 307.713L452.273 308.598C493.139 287.063 524.923 252.733 539.958 218.2L539.042 217.8ZM451.807 307.713C411.111 329.158 361.832 340.826 311.135 340.998L311.139 341.998C361.98 341.826 411.42 330.126 452.273 308.598L451.807 307.713ZM311.135 340.998C260.438 341.17 211.005 329.836 170.022 308.667L169.563 309.556C210.702 330.806 260.297 342.17 311.139 341.998L311.135 340.998ZM170.022 308.667C129.053 287.505 96.8527 253.001 81.4559 218.795L80.5441 219.205C96.0404 253.633 128.409 288.298 169.563 309.556L170.022 308.667Z" fill="white"/>
<defs>
<filter id="filter0_b_1391_4" x="-31.8" y="33.2" width="214.6" height="214.6" filterUnits="userSpaceOnUse" color-interpolation-filters="sRGB">
<feFlood flood-opacity="0" result="BackgroundImageFix"/>
<feGaussianBlur in="BackgroundImageFix" stdDeviation="15.9"/>
<feComposite in2="SourceAlpha" operator="in" result="effect1_backgroundBlur_1391_4"/>
<feBlend mode="normal" in="SourceGraphic" in2="effect1_backgroundBlur_1391_4" result="shape"/>
</filter>
<filter id="filter1_b_1391_4" x="440.2" y="33.2" width="214.6" height="214.6" filterUnits="userSpaceOnUse" color-interpolation-filters="sRGB">
<feFlood flood-opacity="0" result="BackgroundImageFix"/>
<feGaussianBlur in="BackgroundImageFix" stdDeviation="15.9"/>
<feComposite in2="SourceAlpha" operator="in" result="effect1_backgroundBlur_1391_4"/>
<feBlend mode="normal" in="SourceGraphic" in2="effect1_backgroundBlur_1391_4" result="shape"/>
</filter>
<linearGradient id="paint0_linear_1391_4" x1="75.5" y1="65" x2="75.5" y2="216" gradientUnits="userSpaceOnUse">
<stop stop-color="#FDC500"/>
<stop offset="1" stop-color="#3A5EFC"/>
</linearGradient>
<linearGradient id="paint1_linear_1391_4" x1="547.5" y1="65" x2="547.5" y2="216" gradientUnits="userSpaceOnUse">
<stop stop-color="#FDC500"/>
<stop offset="1" stop-color="#3A5EFC"/>
</linearGradient>
<clipPath id="clip0_1391_4">
<rect width="110" height="180" fill="white" transform="translate(256.5 50.5)"/>
</clipPath>
</defs>
</svg>
