<svg width="69" height="69" viewBox="0 0 69 69" fill="none" xmlns="http://www.w3.org/2000/svg">
<rect x="0.5" y="0.5" width="68" height="68" rx="34" fill="#181B20"/>
<rect x="0.5" y="0.5" width="68" height="68" rx="34" stroke="url(#paint0_linear_1111_553)"/>
<path d="M28.7813 42.3C27.8013 42.3 26.9347 42.0867 26.1813 41.66C25.428 41.2267 24.8347 40.6333 24.4013 39.88C23.9747 39.1267 23.7613 38.26 23.7613 37.28V32.32C23.7613 31.34 23.9747 30.4733 24.4013 29.72C24.8347 28.9667 25.428 28.3767 26.1813 27.95C26.9347 27.5167 27.8013 27.3 28.7813 27.3C29.7613 27.3 30.628 27.5167 31.3813 27.95C32.1347 28.3767 32.7247 28.9667 33.1513 29.72C33.5847 30.4733 33.8013 31.34 33.8013 32.32V37.28C33.8013 38.26 33.5847 39.1267 33.1513 39.88C32.7247 40.6333 32.1347 41.2267 31.3813 41.66C30.628 42.0867 29.7613 42.3 28.7813 42.3ZM28.7813 40.3C29.3147 40.3 29.798 40.1733 30.2313 39.92C30.6713 39.66 31.0213 39.3133 31.2813 38.88C31.5413 38.44 31.6713 37.95 31.6713 37.41V32.17C31.6713 31.6367 31.5413 31.1533 31.2813 30.72C31.0213 30.28 30.6713 29.9333 30.2313 29.68C29.798 29.42 29.3147 29.29 28.7813 29.29C28.248 29.29 27.7613 29.42 27.3213 29.68C26.888 29.9333 26.5413 30.28 26.2813 30.72C26.0213 31.1533 25.8913 31.6367 25.8913 32.17V37.41C25.8913 37.95 26.0213 38.44 26.2813 38.88C26.5413 39.3133 26.888 39.66 27.3213 39.92C27.7613 40.1733 28.248 40.3 28.7813 40.3ZM40.6234 42.27C39.91 42.27 39.24 42.1367 38.6134 41.87C37.9867 41.5967 37.4434 41.21 36.9834 40.71C36.53 40.21 36.2 39.62 35.9934 38.94L38.0134 38.38C38.2067 39 38.5434 39.4767 39.0234 39.81C39.5034 40.1367 40.0367 40.2967 40.6234 40.29C41.15 40.2833 41.6134 40.16 42.0134 39.92C42.4134 39.68 42.7267 39.3567 42.9534 38.95C43.18 38.5367 43.2934 38.0633 43.2934 37.53C43.2934 36.73 43.0434 36.07 42.5434 35.55C42.05 35.03 41.4034 34.77 40.6034 34.77C40.3767 34.77 40.1434 34.8033 39.9034 34.87C39.67 34.9367 39.45 35.0233 39.2434 35.13L38.2634 33.48L43.3434 28.99L43.5634 29.59H36.5634V27.6H45.2234V29.59L41.0034 33.65L40.9834 32.97C41.89 32.97 42.6767 33.1733 43.3434 33.58C44.01 33.98 44.5234 34.5267 44.8834 35.22C45.25 35.9067 45.4334 36.6767 45.4334 37.53C45.4334 38.45 45.2167 39.2667 44.7834 39.98C44.3567 40.6933 43.78 41.2533 43.0534 41.66C42.3334 42.0667 41.5234 42.27 40.6234 42.27Z" fill="white"/>
<defs>
<linearGradient id="paint0_linear_1111_553" x1="3.13636" y1="5.25" x2="81.6525" y2="32.3724" gradientUnits="userSpaceOnUse">
<stop stop-color="#FDC500"/>
<stop offset="1" stop-color="#3A5EFC"/>
</linearGradient>
</defs>
</svg>
