<svg width="64" height="64" viewBox="0 0 64 64" fill="none" xmlns="http://www.w3.org/2000/svg">
<path d="M32 10.8712C33.047 10.8715 34.0661 11.2092 34.9069 11.8343C35.7477 12.4595 36.3657 13.3391 36.6697 14.3432C36.9736 15.3472 36.9474 16.4227 36.5948 17.4107C36.2423 18.3987 35.5822 19.2469 34.7119 19.8302V29.8964C34.7119 30.6172 34.4262 31.3085 33.9176 31.8182C33.409 32.3279 32.7192 32.6143 32 32.6143C31.2808 32.6143 30.591 32.3279 30.0824 31.8182C29.5738 31.3085 29.2881 30.6172 29.2881 29.8964V19.8302C28.4178 19.2469 27.7577 18.3987 27.4052 17.4107C27.0526 16.4227 27.0264 15.3472 27.3303 14.3432C27.6343 13.3391 28.2523 12.4595 29.0931 11.8343C29.9339 11.2092 30.953 10.8715 32 10.8712ZM5.42373 43.3441H4.33898V44.4312H5.42373V43.3441ZM5.42373 38.9955H4.33898V40.0826H5.42373V38.9955ZM5.42373 41.1698H4.33898V42.2569H5.42373V41.1698ZM9.76271 40.6262C9.76271 40.482 9.81985 40.3438 9.92157 40.2418C10.0233 40.1399 10.1612 40.0826 10.3051 40.0826H11.9322V38.9955H6.50847V44.4312H9.76271V40.6262ZM64 27.0368V60.7385C63.9989 61.6032 63.6556 62.4321 63.0456 63.0435C62.4356 63.6549 61.6085 63.9989 60.7458 64H3.25424C2.39151 63.9989 1.56445 63.6549 0.954412 63.0435C0.344373 62.4321 0.00114801 61.6032 0 60.7385V27.0368C0.00114801 26.1721 0.344373 25.3432 0.954412 24.7318C1.56445 24.1204 2.39151 23.7765 3.25424 23.7753H13.8658C14.2119 25.2554 14.6636 26.7087 15.2176 28.1239H12.4746C12.3307 28.1239 12.1928 28.1812 12.0911 28.2831C11.9893 28.3851 11.9322 28.5233 11.9322 28.6675C11.9322 28.8117 11.9893 28.9499 12.0911 29.0519C12.1928 29.1538 12.3307 29.2111 12.4746 29.2111H15.6692C15.8278 29.5766 15.9941 29.939 16.1681 30.2982H12.4746C12.3307 30.2982 12.1928 30.3555 12.0911 30.4574C11.9893 30.5594 11.9322 30.6976 11.9322 30.8418C11.9322 30.986 11.9893 31.1242 12.0911 31.2262C12.1928 31.3281 12.3307 31.3854 12.4746 31.3854H16.7159C16.9098 31.7509 17.1105 32.1133 17.318 32.4725H12.4746C12.3307 32.4725 12.1928 32.5298 12.0911 32.6317C11.9893 32.7337 11.9322 32.8719 11.9322 33.0161C11.9322 33.1603 11.9893 33.2985 12.0911 33.4005C12.1928 33.5024 12.3307 33.5597 12.4746 33.5597H17.9783C21.1321 38.5517 25.6058 42.569 30.9017 45.1651L31.7776 45.5945C31.852 45.6307 31.9336 45.6493 32.0163 45.6488C32.1036 45.6488 32.1896 45.6278 32.2671 45.5877L32.7525 45.3336C37.9232 42.6288 42.255 38.5552 45.2773 33.5556C45.4942 33.1982 45.7035 32.8372 45.9051 32.4725H58.2414L56.6142 29.2111H47.4739C48.1999 27.4536 48.7672 25.6344 49.1688 23.7753H60.7458C61.6085 23.7765 62.4356 24.1204 63.0456 24.7318C63.6556 25.3432 63.9989 26.1721 64 27.0368ZM18.4407 53.672C18.4407 53.8162 18.4978 53.9545 18.5995 54.0564C18.7013 54.1583 18.8392 54.2156 18.9831 54.2156C19.1269 54.2156 19.2649 54.1583 19.3666 54.0564C19.4683 53.9545 19.5254 53.8162 19.5254 53.672V51.4977C19.5254 51.3536 19.4683 51.2153 19.3666 51.1134C19.2649 51.0114 19.1269 50.9542 18.9831 50.9542C18.8392 50.9542 18.7013 51.0114 18.5995 51.1134C18.4978 51.2153 18.4407 51.3536 18.4407 51.4977V53.672ZM16.2712 53.672C16.2712 53.8162 16.3283 53.9545 16.43 54.0564C16.5318 54.1583 16.6697 54.2156 16.8136 54.2156C16.9574 54.2156 17.0954 54.1583 17.1971 54.0564C17.2988 53.9545 17.3559 53.8162 17.3559 53.672V51.4977C17.3559 51.3536 17.2988 51.2153 17.1971 51.1134C17.0954 51.0114 16.9574 50.9542 16.8136 50.9542C16.6697 50.9542 16.5318 51.0114 16.43 51.1134C16.3283 51.2153 16.2712 51.3536 16.2712 51.4977V53.672ZM3.25424 30.8418C3.25496 31.5624 3.5409 32.2533 4.04932 32.7628C4.55773 33.2724 5.24709 33.559 5.9661 33.5597H8.13559C8.85482 33.5597 9.5446 33.2733 10.0532 32.7636C10.5617 32.2539 10.8475 31.5626 10.8475 30.8418C10.8475 30.121 10.5617 29.4297 10.0532 28.92C9.5446 28.4103 8.85482 28.1239 8.13559 28.1239H5.9661C5.24709 28.1246 4.55773 28.4112 4.04932 28.9208C3.5409 29.4303 3.25496 30.1212 3.25424 30.8418ZM3.25424 44.9748C3.25424 45.119 3.31138 45.2572 3.41309 45.3592C3.51481 45.4611 3.65276 45.5184 3.79661 45.5184H12.4746C12.6184 45.5184 12.7564 45.4611 12.8581 45.3592C12.9598 45.2572 13.0169 45.119 13.0169 44.9748V38.4519C13.0169 38.3077 12.9598 38.1695 12.8581 38.0675C12.7564 37.9656 12.6184 37.9083 12.4746 37.9083H3.79661C3.65276 37.9083 3.51481 37.9656 3.41309 38.0675C3.31138 38.1695 3.25424 38.3077 3.25424 38.4519V44.9748ZM12.4746 50.9542C12.3307 50.9542 12.1928 51.0114 12.0911 51.1134C11.9893 51.2153 11.9322 51.3536 11.9322 51.4977V53.672C11.9322 53.8162 11.9893 53.9545 12.0911 54.0564C12.1928 54.1583 12.3307 54.2156 12.4746 54.2156C12.6184 54.2156 12.7564 54.1583 12.8581 54.0564C12.9598 53.9545 13.0169 53.8162 13.0169 53.672V51.4977C13.0169 51.3536 12.9598 51.2153 12.8581 51.1134C12.7564 51.0114 12.6184 50.9542 12.4746 50.9542ZM10.3051 50.9542C10.1612 50.9542 10.0233 51.0114 9.92157 51.1134C9.81985 51.2153 9.76271 51.3536 9.76271 51.4977V53.672C9.76271 53.8162 9.81985 53.9545 9.92157 54.0564C10.0233 54.1583 10.1612 54.2156 10.3051 54.2156C10.4489 54.2156 10.5869 54.1583 10.6886 54.0564C10.7903 53.9545 10.8475 53.8162 10.8475 53.672V51.4977C10.8475 51.3536 10.7903 51.2153 10.6886 51.1134C10.5869 51.0114 10.4489 50.9542 10.3051 50.9542ZM8.13559 50.9542C7.99175 50.9542 7.85379 51.0114 7.75208 51.1134C7.65036 51.2153 7.59322 51.3536 7.59322 51.4977V53.672C7.59322 53.8162 7.65036 53.9545 7.75208 54.0564C7.85379 54.1583 7.99175 54.2156 8.13559 54.2156C8.27944 54.2156 8.41739 54.1583 8.51911 54.0564C8.62082 53.9545 8.67797 53.8162 8.67797 53.672V51.4977C8.67797 51.3536 8.62082 51.2153 8.51911 51.1134C8.41739 51.0114 8.27944 50.9542 8.13559 50.9542ZM5.9661 50.9542C5.82226 50.9542 5.6843 51.0114 5.58259 51.1134C5.48087 51.2153 5.42373 51.3536 5.42373 51.4977V53.672C5.42373 53.8162 5.48087 53.9545 5.58259 54.0564C5.6843 54.1583 5.82226 54.2156 5.9661 54.2156C6.10995 54.2156 6.2479 54.1583 6.34962 54.0564C6.45133 53.9545 6.50847 53.8162 6.50847 53.672V51.4977C6.50847 51.3536 6.45133 51.2153 6.34962 51.1134C6.2479 51.0114 6.10995 50.9542 5.9661 50.9542ZM3.25424 53.672C3.25424 53.8162 3.31138 53.9545 3.41309 54.0564C3.51481 54.1583 3.65276 54.2156 3.79661 54.2156C3.94046 54.2156 4.07841 54.1583 4.18013 54.0564C4.28184 53.9545 4.33898 53.8162 4.33898 53.672V51.4977C4.33898 51.3536 4.28184 51.2153 4.18013 51.1134C4.07841 51.0114 3.94046 50.9542 3.79661 50.9542C3.65276 50.9542 3.51481 51.0114 3.41309 51.1134C3.31138 51.2153 3.25424 51.3536 3.25424 51.4977V53.672ZM21.6949 58.0207C21.6949 57.8765 21.6378 57.7382 21.5361 57.6363C21.4343 57.5343 21.2964 57.4771 21.1525 57.4771H3.79661C3.65276 57.4771 3.51481 57.5343 3.41309 57.6363C3.31138 57.7382 3.25424 57.8765 3.25424 58.0207C3.25424 58.1648 3.31138 58.3031 3.41309 58.405C3.51481 58.507 3.65276 58.5642 3.79661 58.5642H21.1525C21.2964 58.5642 21.4343 58.507 21.5361 58.405C21.6378 58.3031 21.6949 58.1648 21.6949 58.0207ZM21.6949 51.4977C21.6949 51.3536 21.6378 51.2153 21.5361 51.1134C21.4343 51.0114 21.2964 50.9542 21.1525 50.9542C21.0087 50.9542 20.8707 51.0114 20.769 51.1134C20.6673 51.2153 20.6102 51.3536 20.6102 51.4977V53.672C20.6102 53.8162 20.6673 53.9545 20.769 54.0564C20.8707 54.1583 21.0087 54.2156 21.1525 54.2156C21.2964 54.2156 21.4343 54.1583 21.5361 54.0564C21.6378 53.9545 21.6949 53.8162 21.6949 53.672V51.4977ZM29.2881 53.672C29.2881 53.8162 29.3453 53.9545 29.447 54.0564C29.5487 54.1583 29.6867 54.2156 29.8305 54.2156C29.9744 54.2156 30.1123 54.1583 30.214 54.0564C30.3157 53.9545 30.3729 53.8162 30.3729 53.672V51.4977C30.3729 51.3536 30.3157 51.2153 30.214 51.1134C30.1123 51.0114 29.9744 50.9542 29.8305 50.9542C29.6867 50.9542 29.5487 51.0114 29.447 51.1134C29.3453 51.2153 29.2881 51.3536 29.2881 51.4977V53.672ZM27.1186 53.672C27.1186 53.8162 27.1758 53.9545 27.2775 54.0564C27.3792 54.1583 27.5172 54.2156 27.661 54.2156C27.8049 54.2156 27.9428 54.1583 28.0445 54.0564C28.1462 53.9545 28.2034 53.8162 28.2034 53.672V51.4977C28.2034 51.3536 28.1462 51.2153 28.0445 51.1134C27.9428 51.0114 27.8049 50.9542 27.661 50.9542C27.5172 50.9542 27.3792 51.0114 27.2775 51.1134C27.1758 51.2153 27.1186 51.3536 27.1186 51.4977V53.672ZM22.7797 53.672C22.7797 53.8162 22.8368 53.9545 22.9385 54.0564C23.0402 54.1583 23.1782 54.2156 23.322 54.2156C23.4659 54.2156 23.6038 54.1583 23.7055 54.0564C23.8073 53.9545 23.8644 53.8162 23.8644 53.672V51.4977C23.8644 51.3536 23.8073 51.2153 23.7055 51.1134C23.6038 51.0114 23.4659 50.9542 23.322 50.9542C23.1782 50.9542 23.0402 51.0114 22.9385 51.1134C22.8368 51.2153 22.7797 51.3536 22.7797 51.4977V53.672ZM32.5424 58.0207C32.5424 57.8765 32.4852 57.7382 32.3835 57.6363C32.2818 57.5343 32.1438 57.4771 32 57.4771H23.322C23.1782 57.4771 23.0402 57.5343 22.9385 57.6363C22.8368 57.7382 22.7797 57.8765 22.7797 58.0207C22.7797 58.1648 22.8368 58.3031 22.9385 58.405C23.0402 58.507 23.1782 58.5642 23.322 58.5642H32C32.1438 58.5642 32.2818 58.507 32.3835 58.405C32.4852 58.3031 32.5424 58.1648 32.5424 58.0207ZM32.5424 51.4977C32.5424 51.3536 32.4852 51.2153 32.3835 51.1134C32.2818 51.0114 32.1438 50.9542 32 50.9542C31.8562 50.9542 31.7182 51.0114 31.6165 51.1134C31.5148 51.2153 31.4576 51.3536 31.4576 51.4977V53.672C31.4576 53.8162 31.5148 53.9545 31.6165 54.0564C31.7182 54.1583 31.8562 54.2156 32 54.2156C32.1438 54.2156 32.2818 54.1583 32.3835 54.0564C32.4852 53.9545 32.5424 53.8162 32.5424 53.672V51.4977ZM34.7119 51.4977C34.7119 51.3536 34.6547 51.2153 34.553 51.1134C34.4513 51.0114 34.3133 50.9542 34.1695 50.9542C34.0256 50.9542 33.8877 51.0114 33.786 51.1134C33.6843 51.2153 33.6271 51.3536 33.6271 51.4977V53.672C33.6271 53.8162 33.6843 53.9545 33.786 54.0564C33.8877 54.1583 34.0256 54.2156 34.1695 54.2156C34.3133 54.2156 34.4513 54.1583 34.553 54.0564C34.6547 53.9545 34.7119 53.8162 34.7119 53.672V51.4977ZM59.661 53.672C59.661 52.4894 59.3111 51.3334 58.6555 50.3501C58 49.3668 57.0682 48.6004 55.978 48.1478C54.8879 47.6953 53.6883 47.5769 52.531 47.8076C51.3737 48.0383 50.3106 48.6078 49.4762 49.444C48.6419 50.2802 48.0737 51.3456 47.8435 52.5055C47.6132 53.6654 47.7314 54.8677 48.183 55.9602C48.6345 57.0528 49.3992 57.9867 50.3803 58.6437C51.3614 59.3007 52.5149 59.6514 53.6949 59.6514C55.2766 59.6495 56.7931 59.019 57.9115 57.898C59.03 56.7771 59.6591 55.2573 59.661 53.672ZM48.8136 4.89144V16.9779C48.8133 22.6245 47.2694 28.1632 44.3494 32.9923C41.4295 37.8215 37.2451 41.7565 32.2508 44.3701L32.0081 44.4965L31.379 44.188C26.1963 41.6457 21.8295 37.6968 18.7752 32.7905C15.7209 27.8841 14.1017 22.2172 14.1017 16.4343V4.89144C14.1017 4.74727 14.1588 4.60901 14.2606 4.50707C14.3623 4.40513 14.5002 4.34786 14.6441 4.34786H15.661C21.2976 4.34545 26.8362 2.87153 31.7315 0.0712667C31.8133 0.0245607 31.9059 0 32 0C32.0941 0 32.1867 0.0245607 32.2685 0.0712667L32.3281 0.10524C37.1845 2.88352 42.6793 4.34575 48.2712 4.34786C48.415 4.34786 48.553 4.40513 48.6547 4.50707C48.7564 4.60901 48.8136 4.74727 48.8136 4.89144ZM44.4746 8.49807C40.1306 8.04478 35.9036 6.8111 31.9959 4.8561C27.7614 6.96873 23.1577 8.237 18.4407 8.59048V16.4343C18.441 21.1398 19.6889 25.7607 22.0566 29.824C24.4244 33.8873 27.8269 37.2471 31.9159 39.5594C35.7556 37.1797 38.9248 33.8561 41.1228 29.904C43.3207 25.9519 44.4745 21.5024 44.4746 16.9779V8.49807ZM53.6949 48.7798C52.7295 48.7798 51.7857 49.0668 50.983 49.6043C50.1802 50.1419 49.5546 50.9059 49.1851 51.7999C48.8157 52.6938 48.719 53.6775 48.9074 54.6265C49.0957 55.5755 49.5606 56.4472 50.2433 57.1313C50.9259 57.8155 51.7957 58.2815 52.7426 58.4702C53.6895 58.659 54.671 58.5621 55.5629 58.1918C56.4549 57.8216 57.2172 57.1945 57.7536 56.39C58.29 55.5855 58.5763 54.6396 58.5763 53.672C58.5748 52.375 58.0601 51.1315 57.145 50.2143C56.2299 49.2972 54.9891 48.7813 53.6949 48.7798ZM10.8475 42.2569H11.9322V41.1698H10.8475V42.2569ZM10.8475 44.4312H11.9322V43.3441H10.8475V44.4312Z" fill="url(#paint0_linear_943_196)"/>
<defs>
<linearGradient id="paint0_linear_943_196" x1="4.93085" y1="13.8573" x2="58.6456" y2="67.4531" gradientUnits="userSpaceOnUse">
<stop stop-color="#3A5EFC"/>
<stop offset="0.35" stop-color="#FEF3CB"/>
<stop offset="1" stop-color="#FDC500"/>
</linearGradient>
</defs>
</svg>
