<svg width="547" height="271" viewBox="0 0 547 271" fill="none" xmlns="http://www.w3.org/2000/svg">
<rect x="140" y="1" width="267" height="269" rx="133.5" fill="#181B20"/>
<rect x="140" y="1" width="267" height="269" rx="133.5" stroke="url(#paint0_linear_1111_524)" stroke-width="2"/>
<path d="M255.554 111.153C255.67 112.597 255.131 115.787 256.286 116.94C256.509 117.204 256.828 117.371 257.174 117.405C257.521 117.439 257.866 117.336 258.137 117.12C258.408 116.904 258.582 116.592 258.621 116.25C258.66 115.908 258.562 115.565 258.348 115.294C258.039 115.246 258.276 111.379 258.205 111.153C258.206 109.921 258.598 108.72 259.328 107.721C260.057 106.722 261.087 105.974 262.27 105.585L270.125 102.993C272.302 102.279 274.654 102.278 276.831 102.992L284.689 105.585C285.873 105.974 286.902 106.721 287.632 107.721C288.361 108.72 288.754 109.921 288.755 111.153V114.86C288.755 115.016 288.703 115.168 288.607 115.292C288.5 115.428 288.422 115.584 288.377 115.75C288.331 115.916 288.319 116.089 288.342 116.259C288.364 116.43 288.42 116.595 288.507 116.744C288.594 116.893 288.709 117.024 288.847 117.129C290.308 118.149 291.479 116.159 291.405 114.86L291.406 111.153C291.405 109.371 290.838 107.635 289.783 106.189C288.729 104.744 287.241 103.663 285.53 103.1L278.848 100.895C287.131 95.7362 283.412 82.741 273.48 82.75C263.548 82.7501 259.829 95.7254 268.113 100.895L261.429 103.101C259.719 103.664 258.231 104.745 257.176 106.19C256.122 107.635 255.554 109.372 255.554 111.153ZM266.161 92.604C266.468 83.0438 280.495 83.0451 280.801 92.6042C280.493 102.164 266.467 102.161 266.161 92.604Z" fill="white"/>
<path d="M305.688 102.353L300.774 100.738C302.188 99.7174 303.24 98.2805 303.778 96.6334C304.316 94.9862 304.313 93.2131 303.769 91.5677C303.226 89.9223 302.17 88.4889 300.752 87.4726C299.334 86.4563 297.628 85.9091 295.876 85.9093C294.125 85.9095 292.418 86.4571 291.001 87.4738C289.584 88.4905 288.528 89.9241 287.985 91.5697C287.442 93.2152 287.439 94.9883 287.978 96.6353C288.516 98.2823 289.568 99.7189 290.982 100.739C290.812 100.785 290.653 100.865 290.514 100.972C290.376 101.079 290.26 101.213 290.174 101.365C290.088 101.518 290.034 101.685 290.014 101.858C289.995 102.032 290.01 102.207 290.06 102.374C290.11 102.541 290.193 102.697 290.304 102.832C290.416 102.967 290.553 103.079 290.709 103.161C290.865 103.243 291.035 103.293 291.211 103.309C291.387 103.325 291.564 103.306 291.732 103.254C293.039 102.716 294.43 102.403 295.843 102.329C297.74 102.178 302.992 104.328 304.846 104.837C305.752 105.137 306.54 105.711 307.099 106.478C307.658 107.244 307.959 108.165 307.96 109.11V112.097C307.96 112.188 307.925 112.277 307.86 112.343C307.796 112.409 307.708 112.447 307.615 112.45H295.382C295.03 112.45 294.693 112.588 294.444 112.834C294.196 113.08 294.056 113.413 294.056 113.76C294.056 114.107 294.196 114.441 294.444 114.686C294.693 114.932 295.03 115.07 295.382 115.07H307.616C308.411 115.067 309.174 114.753 309.735 114.195C310.297 113.638 310.611 112.883 310.611 112.097V109.11C310.61 107.616 310.134 106.16 309.251 104.948C308.367 103.735 307.121 102.828 305.688 102.353ZM295.854 99.709C294.365 99.6902 292.943 99.0914 291.897 98.0427C290.852 96.994 290.267 95.58 290.27 94.1077C290.273 92.6355 290.863 91.2238 291.913 90.1793C292.963 89.1348 294.388 88.5417 295.877 88.5288C297.367 88.5476 298.789 89.1464 299.835 90.1951C300.88 91.2438 301.465 92.6578 301.462 94.1301C301.459 95.6024 300.868 97.014 299.819 98.0585C298.769 99.1031 297.344 99.6962 295.854 99.709Z" fill="white"/>
<path d="M252.904 113.76C252.904 113.413 252.764 113.08 252.515 112.834C252.267 112.588 251.93 112.45 251.578 112.45H239.384C239.292 112.447 239.204 112.409 239.14 112.343C239.075 112.277 239.04 112.188 239.04 112.097V109.11C239.041 108.166 239.341 107.246 239.899 106.48C240.456 105.714 241.243 105.139 242.148 104.838L248.485 102.756C250.723 102.097 253.127 102.27 255.244 103.242C255.576 103.343 255.935 103.312 256.243 103.155C256.552 102.998 256.785 102.727 256.894 102.401C257.003 102.076 256.979 101.721 256.826 101.413C256.673 101.105 256.404 100.868 256.076 100.754C257.102 99.9668 257.936 98.9618 258.516 97.8136C259.097 96.6654 259.409 95.4031 259.431 94.1197C259.431 92.7166 259.068 91.3367 258.375 90.1119C257.683 88.8871 256.684 87.8582 255.474 87.1237C254.265 86.3891 252.885 85.9733 251.466 85.9161C250.047 85.8589 248.638 86.1621 247.371 86.7967C246.105 87.4314 245.025 88.3763 244.233 89.5413C243.442 90.7062 242.966 92.0522 242.851 93.4507C242.736 94.8492 242.986 96.2535 243.577 97.5293C244.167 98.8052 245.079 99.9101 246.225 100.738L241.306 102.354C239.874 102.83 238.629 103.738 237.747 104.95C236.865 106.162 236.39 107.617 236.389 109.11V112.097C236.389 112.883 236.703 113.638 237.265 114.195C237.826 114.753 238.589 115.067 239.384 115.07H251.578C251.93 115.07 252.267 114.932 252.515 114.686C252.764 114.441 252.904 114.107 252.904 113.76ZM251.122 88.5288C252.613 88.5419 254.038 89.1359 255.088 90.1818C256.138 91.2276 256.728 92.6407 256.729 94.1139C256.731 95.5872 256.144 97.0015 255.096 98.0494C254.048 99.0973 252.624 99.6941 251.133 99.7101C249.643 99.6971 248.217 99.103 247.167 98.0572C246.117 97.0114 245.527 95.5983 245.526 94.125C245.525 92.6518 246.111 91.2375 247.159 90.1896C248.207 89.1417 249.631 88.5449 251.122 88.5288Z" fill="white"/>
<path d="M291.526 130.718C291.072 129.012 290.407 127.367 289.546 125.821C289.851 125.583 290.101 125.285 290.281 124.945C290.462 124.605 290.567 124.232 290.591 123.849C290.615 123.466 290.558 123.083 290.422 122.723C290.286 122.364 290.075 122.037 289.802 121.764L287.189 119.181C286.902 118.911 286.56 118.702 286.187 118.569C285.814 118.435 285.416 118.38 285.02 118.406C284.624 118.432 284.237 118.54 283.885 118.721C283.533 118.903 283.223 119.155 282.975 119.461C281.433 118.572 279.786 117.875 278.071 117.386C278.117 117.005 278.081 116.619 277.966 116.252C277.85 115.886 277.658 115.548 277.401 115.26C277.144 114.972 276.829 114.741 276.475 114.582C276.122 114.423 275.738 114.339 275.35 114.336H271.65C271.261 114.336 270.876 114.418 270.521 114.576C270.166 114.735 269.85 114.966 269.592 115.254C269.066 115.873 268.806 116.672 268.871 117.478C267.144 117.927 265.479 118.584 263.915 119.435C263.676 119.132 263.375 118.882 263.031 118.703C262.687 118.523 262.309 118.418 261.92 118.394C261.532 118.372 261.144 118.432 260.781 118.568C260.418 118.703 260.087 118.913 259.81 119.182L257.197 121.765C256.923 122.049 256.711 122.386 256.576 122.755C256.441 123.124 256.385 123.517 256.412 123.908C256.438 124.3 256.547 124.682 256.731 125.03C256.915 125.378 257.17 125.684 257.48 125.929C256.58 127.453 255.875 129.08 255.38 130.775C254.994 130.727 254.602 130.76 254.23 130.874C253.858 130.987 253.515 131.177 253.223 131.431C252.931 131.686 252.697 131.998 252.537 132.349C252.377 132.7 252.294 133.08 252.294 133.464V137.121C252.294 137.506 252.377 137.886 252.537 138.237C252.697 138.587 252.931 138.9 253.223 139.154C253.851 139.672 254.658 139.927 255.473 139.867C255.928 141.574 256.593 143.219 257.454 144.765C257.147 145.001 256.894 145.299 256.712 145.639C256.53 145.978 256.424 146.353 256.399 146.736C256.375 147.12 256.434 147.504 256.571 147.864C256.709 148.223 256.922 148.55 257.197 148.822L259.811 151.404C260.098 151.675 260.44 151.883 260.813 152.016C261.186 152.15 261.584 152.205 261.98 152.179C262.376 152.152 262.762 152.045 263.114 151.864C263.466 151.682 263.776 151.431 264.025 151.125C265.566 152.013 267.213 152.71 268.928 153.199C268.882 153.58 268.918 153.967 269.034 154.333C269.15 154.7 269.342 155.038 269.599 155.326C269.856 155.613 270.171 155.844 270.525 156.004C270.878 156.163 271.261 156.246 271.65 156.249L275.35 156.249C275.739 156.249 276.124 156.167 276.479 156.009C276.833 155.851 277.15 155.62 277.407 155.332C277.934 154.713 278.193 153.914 278.129 153.107C279.856 152.658 281.521 152.001 283.085 151.15C283.324 151.454 283.625 151.704 283.969 151.883C284.313 152.063 284.691 152.168 285.08 152.192C285.468 152.216 285.857 152.158 286.221 152.022C286.584 151.886 286.915 151.675 287.19 151.404L289.803 148.821C290.077 148.537 290.289 148.2 290.424 147.831C290.559 147.462 290.615 147.069 290.588 146.677C290.562 146.286 290.453 145.904 290.269 145.556C290.085 145.208 289.83 144.902 289.52 144.656C290.389 143.118 291.093 141.494 291.62 139.811C292.005 139.856 292.396 139.82 292.767 139.706C293.138 139.592 293.48 139.401 293.771 139.148C294.062 138.894 294.296 138.582 294.457 138.233C294.618 137.884 294.703 137.505 294.706 137.121V133.464C294.697 133.072 294.605 132.686 294.437 132.33C294.268 131.975 294.027 131.658 293.728 131.4C293.429 131.142 293.079 130.948 292.7 130.83C292.321 130.713 291.921 130.675 291.526 130.718ZM292.055 137.121L291.95 137.211C291.289 137.128 290.62 137.287 290.069 137.657C289.518 138.028 289.123 138.584 288.957 139.222C288.674 141.786 285.211 144.605 287.917 146.831C287.922 146.836 287.922 146.965 287.928 146.97L285.316 149.551L285.176 149.54C284.767 149.02 284.18 148.666 283.525 148.543C282.871 148.42 282.193 148.538 281.62 148.874C279.594 150.482 275.112 150.061 275.441 153.527L276.756 153.363L275.35 153.63H271.65L271.559 153.526C271.642 152.872 271.482 152.212 271.107 151.667C270.733 151.123 270.17 150.732 269.524 150.568C268.068 150.203 266.672 149.632 265.381 148.874C264.807 148.538 264.13 148.421 263.475 148.544C262.82 148.666 262.234 149.021 261.824 149.54C261.819 149.546 261.689 149.545 261.684 149.551L259.072 146.97L258.135 147.896L259.083 146.831C259.609 146.427 259.968 145.847 260.092 145.2C260.216 144.553 260.097 143.884 259.758 143.317C258.132 141.313 258.553 136.892 255.048 137.211L254.945 137.121V133.464L255.05 133.375C255.711 133.456 256.379 133.296 256.93 132.926C257.48 132.556 257.876 132.001 258.043 131.364C258.413 129.925 258.99 128.546 259.758 127.269C260.097 126.702 260.216 126.033 260.092 125.386C259.968 124.739 259.609 124.159 259.083 123.754C259.077 123.75 259.078 123.621 259.072 123.616L261.684 121.034L261.824 121.046C264.076 123.717 266.931 120.303 269.524 120.018C270.169 119.854 270.732 119.463 271.107 118.918C271.482 118.373 271.642 117.712 271.559 117.058L271.65 116.956H275.35L275.441 117.06C275.357 117.713 275.518 118.374 275.893 118.919C276.267 119.463 276.83 119.854 277.475 120.017C278.932 120.383 280.327 120.954 281.619 121.712C282.193 122.047 282.87 122.165 283.525 122.042C284.179 121.919 284.766 121.565 285.176 121.046C285.18 121.04 285.311 121.041 285.316 121.034L287.928 123.616L287.917 123.754C285.213 125.981 288.669 128.8 288.957 131.364C289.125 132.001 289.521 132.556 290.072 132.926C290.623 133.295 291.291 133.455 291.952 133.374L292.055 133.464L292.055 137.121Z" fill="white"/>
<path d="M273.5 123.305C271.101 123.305 268.756 124.008 266.761 125.326C264.766 126.643 263.211 128.515 262.293 130.705C261.375 132.896 261.135 135.306 261.603 137.632C262.071 139.957 263.226 142.093 264.923 143.769C266.619 145.446 268.78 146.588 271.133 147.05C273.486 147.513 275.925 147.275 278.142 146.368C280.359 145.461 282.253 143.924 283.586 141.953C284.919 139.981 285.63 137.664 285.63 135.293C285.627 132.115 284.347 129.068 282.073 126.82C279.799 124.573 276.716 123.309 273.5 123.305ZM273.5 144.661C271.625 144.661 269.792 144.112 268.233 143.082C266.674 142.053 265.459 140.59 264.742 138.878C264.024 137.166 263.837 135.283 264.203 133.465C264.568 131.648 265.471 129.979 266.797 128.669C268.123 127.359 269.812 126.466 271.651 126.105C273.489 125.743 275.395 125.929 277.128 126.638C278.86 127.347 280.34 128.548 281.382 130.088C282.424 131.629 282.979 133.44 282.979 135.293C282.977 137.777 281.977 140.158 280.2 141.914C278.423 143.67 276.013 144.658 273.5 144.661Z" fill="white"/>
<path d="M276.539 131.747L272.175 136.06L270.461 134.367C270.213 134.121 269.875 133.983 269.524 133.983C269.172 133.983 268.835 134.121 268.587 134.367C268.338 134.612 268.199 134.946 268.199 135.293C268.199 135.64 268.338 135.973 268.587 136.219L271.238 138.838C271.361 138.96 271.507 139.057 271.668 139.122C271.828 139.188 272.001 139.222 272.175 139.222C272.349 139.222 272.521 139.188 272.682 139.122C272.843 139.057 272.989 138.96 273.112 138.838L278.413 133.599C278.536 133.478 278.634 133.333 278.701 133.174C278.767 133.016 278.801 132.845 278.801 132.673C278.801 132.501 278.767 132.331 278.701 132.172C278.634 132.013 278.536 131.869 278.413 131.747C278.29 131.626 278.144 131.529 277.983 131.463C277.823 131.398 277.65 131.364 277.476 131.364C277.302 131.364 277.13 131.398 276.969 131.463C276.808 131.529 276.662 131.626 276.539 131.747Z" fill="white"/>
<path d="M217.676 188.74C216.849 188.74 216.156 188.54 215.596 188.14C215.036 187.735 214.612 187.188 214.324 186.5C214.036 185.812 213.892 185.036 213.892 184.172C213.892 183.308 214.033 182.532 214.316 181.844C214.604 181.156 215.025 180.615 215.58 180.22C216.14 179.82 216.828 179.62 217.644 179.62C218.455 179.62 219.153 179.82 219.74 180.22C220.332 180.615 220.788 181.156 221.108 181.844C221.428 182.527 221.588 183.303 221.588 184.172C221.588 185.036 221.428 185.815 221.108 186.508C220.793 187.196 220.343 187.74 219.756 188.14C219.175 188.54 218.481 188.74 217.676 188.74ZM213.612 192.34V179.86H215.1V186.076H215.292V192.34H213.612ZM217.444 187.228C217.977 187.228 218.417 187.092 218.764 186.82C219.116 186.548 219.377 186.183 219.548 185.724C219.724 185.26 219.812 184.743 219.812 184.172C219.812 183.607 219.724 183.095 219.548 182.636C219.377 182.177 219.113 181.812 218.756 181.54C218.399 181.268 217.943 181.132 217.388 181.132C216.865 181.132 216.433 181.26 216.092 181.516C215.756 181.772 215.505 182.129 215.34 182.588C215.18 183.047 215.1 183.575 215.1 184.172C215.1 184.769 215.18 185.297 215.34 185.756C215.5 186.215 215.753 186.575 216.1 186.836C216.447 187.097 216.895 187.228 217.444 187.228ZM223.354 188.5V179.86H224.842V181.956L224.634 181.684C224.741 181.407 224.88 181.153 225.05 180.924C225.221 180.689 225.418 180.497 225.642 180.348C225.861 180.188 226.104 180.065 226.37 179.98C226.642 179.889 226.92 179.836 227.202 179.82C227.485 179.799 227.757 179.812 228.018 179.86V181.428C227.736 181.353 227.421 181.332 227.074 181.364C226.733 181.396 226.418 181.505 226.13 181.692C225.858 181.868 225.642 182.081 225.482 182.332C225.328 182.583 225.216 182.863 225.146 183.172C225.077 183.476 225.042 183.799 225.042 184.14V188.5H223.354ZM233.138 188.74C232.274 188.74 231.524 188.545 230.89 188.156C230.255 187.767 229.764 187.231 229.418 186.548C229.076 185.86 228.906 185.068 228.906 184.172C228.906 183.271 229.082 182.479 229.434 181.796C229.786 181.108 230.279 180.575 230.914 180.196C231.548 179.812 232.29 179.62 233.138 179.62C234.002 179.62 234.751 179.815 235.386 180.204C236.02 180.593 236.511 181.129 236.858 181.812C237.204 182.495 237.378 183.281 237.378 184.172C237.378 185.073 237.202 185.868 236.85 186.556C236.503 187.239 236.012 187.775 235.378 188.164C234.743 188.548 233.996 188.74 233.138 188.74ZM233.138 187.164C233.964 187.164 234.58 186.887 234.986 186.332C235.396 185.772 235.602 185.052 235.602 184.172C235.602 183.271 235.394 182.551 234.978 182.012C234.567 181.468 233.954 181.196 233.138 181.196C232.578 181.196 232.116 181.324 231.754 181.58C231.391 181.831 231.122 182.18 230.946 182.628C230.77 183.071 230.682 183.585 230.682 184.172C230.682 185.079 230.89 185.804 231.306 186.348C231.722 186.892 232.332 187.164 233.138 187.164ZM239.928 188.5V179.556C239.928 179.337 239.936 179.105 239.952 178.86C239.968 178.609 240.013 178.364 240.088 178.124C240.168 177.879 240.298 177.655 240.48 177.452C240.698 177.212 240.938 177.041 241.2 176.94C241.461 176.839 241.72 176.78 241.976 176.764C242.237 176.748 242.477 176.74 242.696 176.74H243.784V178.116H242.776C242.381 178.116 242.085 178.215 241.888 178.412C241.696 178.604 241.6 178.879 241.6 179.236V188.5H239.928ZM238.496 181.204V179.86H243.784V181.204H238.496ZM248.577 188.74C247.718 188.74 246.964 188.553 246.313 188.18C245.668 187.801 245.164 187.276 244.801 186.604C244.444 185.927 244.265 185.143 244.265 184.252C244.265 183.308 244.441 182.489 244.793 181.796C245.15 181.103 245.646 180.567 246.281 180.188C246.916 179.809 247.654 179.62 248.497 179.62C249.377 179.62 250.126 179.825 250.745 180.236C251.364 180.641 251.825 181.22 252.129 181.972C252.438 182.724 252.561 183.617 252.497 184.652H250.825V184.044C250.814 183.041 250.622 182.3 250.249 181.82C249.881 181.34 249.318 181.1 248.561 181.1C247.724 181.1 247.094 181.364 246.673 181.892C246.252 182.42 246.041 183.183 246.041 184.18C246.041 185.129 246.252 185.865 246.673 186.388C247.094 186.905 247.702 187.164 248.497 187.164C249.02 187.164 249.47 187.047 249.849 186.812C250.233 186.572 250.532 186.231 250.745 185.788L252.385 186.308C252.049 187.081 251.54 187.681 250.857 188.108C250.174 188.529 249.414 188.74 248.577 188.74ZM245.497 184.652V183.348H251.665V184.652H245.497ZM257.596 188.732C256.545 188.732 255.689 188.5 255.028 188.036C254.367 187.572 253.961 186.919 253.812 186.076L255.524 185.812C255.631 186.26 255.876 186.615 256.26 186.876C256.649 187.132 257.132 187.26 257.708 187.26C258.231 187.26 258.639 187.153 258.932 186.94C259.231 186.727 259.38 186.433 259.38 186.06C259.38 185.841 259.327 185.665 259.22 185.532C259.119 185.393 258.903 185.263 258.572 185.14C258.241 185.017 257.737 184.865 257.06 184.684C256.319 184.492 255.729 184.287 255.292 184.068C254.86 183.844 254.551 183.585 254.364 183.292C254.183 182.993 254.092 182.633 254.092 182.212C254.092 181.689 254.231 181.233 254.508 180.844C254.785 180.455 255.175 180.153 255.676 179.94C256.183 179.727 256.775 179.62 257.452 179.62C258.113 179.62 258.703 179.724 259.22 179.932C259.737 180.14 260.156 180.436 260.476 180.82C260.796 181.199 260.988 181.644 261.052 182.156L259.34 182.468C259.281 182.052 259.087 181.724 258.756 181.484C258.425 181.244 257.996 181.113 257.468 181.092C256.961 181.071 256.551 181.156 256.236 181.348C255.921 181.535 255.764 181.793 255.764 182.124C255.764 182.316 255.823 182.479 255.94 182.612C256.063 182.745 256.297 182.873 256.644 182.996C256.991 183.119 257.503 183.265 258.18 183.436C258.905 183.623 259.481 183.831 259.908 184.06C260.335 184.284 260.639 184.553 260.82 184.868C261.007 185.177 261.1 185.553 261.1 185.996C261.1 186.849 260.788 187.519 260.164 188.004C259.545 188.489 258.689 188.732 257.596 188.732ZM266.174 188.732C265.123 188.732 264.267 188.5 263.606 188.036C262.945 187.572 262.539 186.919 262.39 186.076L264.102 185.812C264.209 186.26 264.454 186.615 264.838 186.876C265.227 187.132 265.71 187.26 266.286 187.26C266.809 187.26 267.217 187.153 267.51 186.94C267.809 186.727 267.958 186.433 267.958 186.06C267.958 185.841 267.905 185.665 267.798 185.532C267.697 185.393 267.481 185.263 267.15 185.14C266.819 185.017 266.315 184.865 265.638 184.684C264.897 184.492 264.307 184.287 263.87 184.068C263.438 183.844 263.129 183.585 262.942 183.292C262.761 182.993 262.67 182.633 262.67 182.212C262.67 181.689 262.809 181.233 263.086 180.844C263.363 180.455 263.753 180.153 264.254 179.94C264.761 179.727 265.353 179.62 266.03 179.62C266.691 179.62 267.281 179.724 267.798 179.932C268.315 180.14 268.734 180.436 269.054 180.82C269.374 181.199 269.566 181.644 269.63 182.156L267.918 182.468C267.859 182.052 267.665 181.724 267.334 181.484C267.003 181.244 266.574 181.113 266.046 181.092C265.539 181.071 265.129 181.156 264.814 181.348C264.499 181.535 264.342 181.793 264.342 182.124C264.342 182.316 264.401 182.479 264.518 182.612C264.641 182.745 264.875 182.873 265.222 182.996C265.569 183.119 266.081 183.265 266.758 183.436C267.483 183.623 268.059 183.831 268.486 184.06C268.913 184.284 269.217 184.553 269.398 184.868C269.585 185.177 269.678 185.553 269.678 185.996C269.678 186.849 269.366 187.519 268.742 188.004C268.123 188.489 267.267 188.732 266.174 188.732ZM271.608 178.444V176.82H273.28V178.444H271.608ZM271.608 188.5V179.86H273.28V188.5H271.608ZM279.435 188.74C278.571 188.74 277.821 188.545 277.187 188.156C276.552 187.767 276.061 187.231 275.715 186.548C275.373 185.86 275.203 185.068 275.203 184.172C275.203 183.271 275.379 182.479 275.731 181.796C276.083 181.108 276.576 180.575 277.211 180.196C277.845 179.812 278.587 179.62 279.435 179.62C280.299 179.62 281.048 179.815 281.683 180.204C282.317 180.593 282.808 181.129 283.155 181.812C283.501 182.495 283.675 183.281 283.675 184.172C283.675 185.073 283.499 185.868 283.147 186.556C282.8 187.239 282.309 187.775 281.675 188.164C281.04 188.548 280.293 188.74 279.435 188.74ZM279.435 187.164C280.261 187.164 280.877 186.887 281.283 186.332C281.693 185.772 281.899 185.052 281.899 184.172C281.899 183.271 281.691 182.551 281.275 182.012C280.864 181.468 280.251 181.196 279.435 181.196C278.875 181.196 278.413 181.324 278.051 181.58C277.688 181.831 277.419 182.18 277.243 182.628C277.067 183.071 276.979 183.585 276.979 184.172C276.979 185.079 277.187 185.804 277.603 186.348C278.019 186.892 278.629 187.164 279.435 187.164ZM291.497 188.5V184.252C291.497 183.916 291.467 183.572 291.409 183.22C291.355 182.863 291.249 182.532 291.089 182.228C290.934 181.924 290.713 181.679 290.425 181.492C290.142 181.305 289.771 181.212 289.312 181.212C289.014 181.212 288.731 181.263 288.465 181.364C288.198 181.46 287.963 181.617 287.761 181.836C287.563 182.055 287.406 182.343 287.289 182.7C287.177 183.057 287.121 183.492 287.121 184.004L286.081 183.612C286.081 182.828 286.227 182.137 286.521 181.54C286.814 180.937 287.235 180.468 287.785 180.132C288.334 179.796 288.998 179.628 289.777 179.628C290.374 179.628 290.875 179.724 291.281 179.916C291.686 180.108 292.014 180.361 292.265 180.676C292.521 180.985 292.715 181.324 292.849 181.692C292.982 182.06 293.073 182.42 293.121 182.772C293.169 183.124 293.193 183.433 293.193 183.7V188.5H291.497ZM285.425 188.5V179.86H286.921V182.356H287.121V188.5H285.425ZM297.716 188.74C297.076 188.74 296.54 188.623 296.108 188.388C295.676 188.148 295.348 187.833 295.124 187.444C294.906 187.049 294.796 186.617 294.796 186.148C294.796 185.711 294.874 185.327 295.028 184.996C295.183 184.665 295.412 184.385 295.716 184.156C296.02 183.921 296.394 183.732 296.836 183.588C297.22 183.476 297.655 183.377 298.14 183.292C298.626 183.207 299.135 183.127 299.668 183.052C300.207 182.977 300.74 182.903 301.268 182.828L300.66 183.164C300.671 182.487 300.527 181.985 300.228 181.66C299.935 181.329 299.428 181.164 298.708 181.164C298.255 181.164 297.839 181.271 297.46 181.484C297.082 181.692 296.818 182.039 296.668 182.524L295.108 182.044C295.322 181.303 295.727 180.713 296.324 180.276C296.927 179.839 297.727 179.62 298.724 179.62C299.498 179.62 300.17 179.753 300.74 180.02C301.316 180.281 301.738 180.697 302.004 181.268C302.143 181.551 302.228 181.849 302.26 182.164C302.292 182.479 302.308 182.817 302.308 183.18V188.5H300.828V186.524L301.116 186.78C300.759 187.441 300.303 187.935 299.748 188.26C299.199 188.58 298.522 188.74 297.716 188.74ZM298.012 187.372C298.487 187.372 298.895 187.289 299.236 187.124C299.578 186.953 299.852 186.737 300.06 186.476C300.268 186.215 300.404 185.943 300.468 185.66C300.559 185.404 300.61 185.116 300.62 184.796C300.636 184.476 300.644 184.22 300.644 184.028L301.188 184.228C300.66 184.308 300.18 184.38 299.748 184.444C299.316 184.508 298.924 184.572 298.572 184.636C298.226 184.695 297.916 184.767 297.644 184.852C297.415 184.932 297.21 185.028 297.028 185.14C296.852 185.252 296.711 185.388 296.604 185.548C296.503 185.708 296.452 185.903 296.452 186.132C296.452 186.356 296.508 186.564 296.62 186.756C296.732 186.943 296.903 187.092 297.132 187.204C297.362 187.316 297.655 187.372 298.012 187.372ZM304.546 188.5V176.74H306.218V188.5H304.546ZM308.78 178.444V176.82H310.452V178.444H308.78ZM308.78 188.5V179.86H310.452V188.5H308.78ZM316.158 188.732C315.108 188.732 314.252 188.5 313.59 188.036C312.929 187.572 312.524 186.919 312.374 186.076L314.086 185.812C314.193 186.26 314.438 186.615 314.822 186.876C315.212 187.132 315.694 187.26 316.27 187.26C316.793 187.26 317.201 187.153 317.494 186.94C317.793 186.727 317.942 186.433 317.942 186.06C317.942 185.841 317.889 185.665 317.782 185.532C317.681 185.393 317.465 185.263 317.134 185.14C316.804 185.017 316.3 184.865 315.622 184.684C314.881 184.492 314.292 184.287 313.854 184.068C313.422 183.844 313.113 183.585 312.926 183.292C312.745 182.993 312.654 182.633 312.654 182.212C312.654 181.689 312.793 181.233 313.07 180.844C313.348 180.455 313.737 180.153 314.238 179.94C314.745 179.727 315.337 179.62 316.014 179.62C316.676 179.62 317.265 179.724 317.782 179.932C318.3 180.14 318.718 180.436 319.038 180.82C319.358 181.199 319.55 181.644 319.614 182.156L317.902 182.468C317.844 182.052 317.649 181.724 317.318 181.484C316.988 181.244 316.558 181.113 316.03 181.092C315.524 181.071 315.113 181.156 314.798 181.348C314.484 181.535 314.326 181.793 314.326 182.124C314.326 182.316 314.385 182.479 314.502 182.612C314.625 182.745 314.86 182.873 315.206 182.996C315.553 183.119 316.065 183.265 316.742 183.436C317.468 183.623 318.044 183.831 318.47 184.06C318.897 184.284 319.201 184.553 319.382 184.868C319.569 185.177 319.662 185.553 319.662 185.996C319.662 186.849 319.35 187.519 318.726 188.004C318.108 188.489 317.252 188.732 316.158 188.732ZM331.785 188.5L331.793 183.116C331.793 182.492 331.633 182.007 331.313 181.66C330.993 181.308 330.571 181.132 330.049 181.132C329.729 181.132 329.435 181.207 329.168 181.356C328.907 181.5 328.694 181.719 328.529 182.012C328.369 182.3 328.289 182.663 328.289 183.1L327.481 182.692C327.47 182.084 327.598 181.551 327.865 181.092C328.137 180.633 328.505 180.279 328.969 180.028C329.433 179.772 329.953 179.644 330.529 179.644C331.462 179.644 332.185 179.924 332.697 180.484C333.209 181.044 333.465 181.788 333.465 182.716L333.457 188.5H331.785ZM321.425 188.5V179.86H322.913V182.356H323.105V188.5H321.425ZM326.609 188.5L326.617 183.148C326.617 182.519 326.457 182.025 326.137 181.668C325.822 181.311 325.398 181.132 324.865 181.132C324.337 181.132 323.91 181.313 323.585 181.676C323.265 182.039 323.105 182.513 323.105 183.1L322.305 182.588C322.305 182.023 322.441 181.519 322.713 181.076C322.985 180.633 323.353 180.284 323.817 180.028C324.281 179.772 324.806 179.644 325.393 179.644C326.006 179.644 326.529 179.775 326.961 180.036C327.393 180.292 327.721 180.652 327.945 181.116C328.174 181.58 328.289 182.119 328.289 182.732L328.281 188.5H326.609Z" fill="white"/>
<rect x="1" y="60" width="137" height="137" rx="68.5" fill="#181B20"/>
<rect x="1" y="60" width="137" height="137" rx="68.5" stroke="url(#paint1_linear_1111_524)" stroke-width="2"/>
<path d="M90.4457 112.402C91.4719 110.348 91.047 107.909 89.3882 106.334L86.9805 104.048C86.4252 103.521 86.0857 102.925 85.9119 102.175L85.1587 98.9223C84.6399 96.6812 82.7651 95.0895 80.4935 94.9616L77.1968 94.7761C76.4363 94.7333 75.7981 94.4983 75.1883 94.0365L72.5449 92.0345C70.7239 90.6552 68.2764 90.6551 66.4551 92.0345L63.8117 94.0364C63.2019 94.4983 62.5637 94.7333 61.8032 94.7761L58.5065 94.9616C56.235 95.0895 54.3602 96.6812 53.8413 98.9223L53.0881 102.175C52.9144 102.925 52.5748 103.521 52.0196 104.048L49.6118 106.334C47.953 107.909 47.5281 110.348 48.5543 112.402L50.044 115.384C50.3876 116.072 50.5055 116.748 50.4151 117.513L50.0232 120.831C49.7533 123.116 50.9769 125.26 53.0681 126.167L56.1034 127.482C56.8035 127.785 57.3238 128.227 57.7408 128.872L59.548 131.668C60.7931 133.594 63.0928 134.441 65.2706 133.775L68.4313 132.809C69.1604 132.586 69.8395 132.586 70.5685 132.809L73.7292 133.775C74.2247 133.927 74.7264 134 75.2206 134C76.8987 134 78.49 133.156 79.4518 131.668L81.2592 128.872C81.676 128.227 82.1963 127.785 82.8964 127.482L85.9317 126.167C88.0229 125.26 89.2467 123.116 88.9766 120.831L88.5847 117.513C88.4943 116.748 88.6122 116.071 88.9558 115.384L90.4457 112.402ZM87.7179 114.751C87.2517 115.684 87.0847 116.642 87.2074 117.68L87.5993 120.997C87.7986 122.685 86.9297 124.207 85.3857 124.876L82.3504 126.192C81.4005 126.603 80.6638 127.229 80.0982 128.104L78.2909 130.9C77.3716 132.322 75.7384 132.923 74.1307 132.432L70.97 131.465C70.4754 131.314 69.9878 131.238 69.5 131.238C69.0124 131.238 68.5245 131.314 68.03 131.465L64.8693 132.432C63.2616 132.923 61.6285 132.322 60.7091 130.9L58.9019 128.104C58.3362 127.229 57.5994 126.603 56.6496 126.192L53.6143 124.876C52.0702 124.207 51.2014 122.685 51.4007 120.997L51.7926 117.68C51.9153 116.642 51.7483 115.684 51.2821 114.75L49.7924 111.769C49.0348 110.252 49.3364 108.521 50.5612 107.358L52.9689 105.071C53.7223 104.356 54.2031 103.513 54.4388 102.495L55.192 99.2424C55.5751 97.5878 56.9064 96.4575 58.5835 96.3632L61.8802 96.1777C62.912 96.1196 63.8156 95.7868 64.6429 95.1603L67.2863 93.1583C68.631 92.1399 70.3689 92.1398 71.7136 93.1583L74.357 95.1603C75.1843 95.7868 76.088 96.1196 77.1197 96.1777L80.4164 96.3632C82.0936 96.4576 83.4248 97.5878 83.8079 99.2425L84.5611 102.495C84.7968 103.513 85.2777 104.356 86.0311 105.071L88.4387 107.358C89.6635 108.521 89.9651 110.252 89.2075 111.769L87.7179 114.751ZM69.5001 98.151C61.6807 98.151 55.3192 104.587 55.3192 112.499C55.3192 120.41 61.6807 126.847 69.5001 126.847C77.3195 126.847 83.6809 120.41 83.6809 112.499C83.6809 104.587 77.3195 98.151 69.5001 98.151ZM69.5001 125.443C62.4457 125.443 56.7066 119.636 56.7066 112.499C56.7066 105.361 62.4457 99.5547 69.5001 99.5547C76.5544 99.5547 82.2936 105.361 82.2936 112.499C82.2936 119.636 76.5544 125.443 69.5001 125.443ZM75.4043 105.995C75.4009 105.995 75.3974 105.995 75.394 105.995C74.7009 105.998 74.0508 106.274 73.5638 106.772L67.8114 112.65L65.4358 110.246C64.9452 109.75 64.2928 109.476 63.5988 109.476C62.9047 109.476 62.2524 109.75 61.7617 110.246C60.7489 111.271 60.7489 112.939 61.7617 113.963L65.981 118.232C66.4875 118.745 67.1527 119.001 67.818 119.001C68.4833 119.001 69.1487 118.745 69.6551 118.232C71.2548 116.614 72.8689 114.957 74.4299 113.355C75.3678 112.393 76.3059 111.43 77.2462 110.47C78.2522 109.443 78.2469 107.778 77.2344 106.76C76.7446 106.266 76.0951 105.995 75.4043 105.995ZM76.2608 109.482C75.3196 110.443 74.3807 111.406 73.4419 112.37C71.8827 113.97 70.2703 115.625 68.6741 117.24C68.2021 117.717 67.4339 117.717 66.962 117.24L62.7428 112.971C62.2708 112.493 62.2708 111.716 62.7428 111.238C62.9714 111.007 63.2754 110.88 63.5988 110.88C63.9221 110.88 64.2262 111.007 64.4548 111.238L67.3234 114.141C67.4535 114.272 67.6299 114.346 67.8139 114.346H67.8156C68.0002 114.346 68.177 114.271 68.3068 114.138L74.5496 107.759C74.7756 107.528 75.0774 107.4 75.3994 107.399H75.4042C75.7258 107.399 76.0282 107.525 76.2562 107.755C76.7272 108.229 76.7292 109.003 76.2608 109.482Z" fill="white"/>
<path d="M52.152 161.232L48.936 158.032L50.008 156.96L53.208 160.16L52.152 161.232ZM47.928 161.24C46.776 161.24 45.7947 160.989 44.984 160.488C44.1733 159.981 43.552 159.277 43.12 158.376C42.6933 157.475 42.48 156.429 42.48 155.24C42.48 154.051 42.6933 153.005 43.12 152.104C43.552 151.203 44.1733 150.501 44.984 150C45.7947 149.493 46.776 149.24 47.928 149.24C49.0747 149.24 50.0533 149.493 50.864 150C51.68 150.501 52.3013 151.203 52.728 152.104C53.1547 153.005 53.368 154.051 53.368 155.24C53.368 156.429 53.1547 157.475 52.728 158.376C52.3013 159.277 51.68 159.981 50.864 160.488C50.0533 160.989 49.0747 161.24 47.928 161.24ZM47.928 159.648C48.744 159.659 49.4213 159.48 49.96 159.112C50.504 158.739 50.912 158.221 51.184 157.56C51.456 156.893 51.592 156.12 51.592 155.24C51.592 154.36 51.456 153.592 51.184 152.936C50.912 152.275 50.504 151.76 49.96 151.392C49.4213 151.024 48.744 150.837 47.928 150.832C47.112 150.821 46.432 151 45.888 151.368C45.3493 151.736 44.944 152.253 44.672 152.92C44.4 153.587 44.2613 154.36 44.256 155.24C44.2507 156.12 44.384 156.891 44.656 157.552C44.928 158.208 45.336 158.72 45.88 159.088C46.4293 159.456 47.112 159.643 47.928 159.648ZM58.2198 161.232C57.6224 161.232 57.1211 161.136 56.7158 160.944C56.3104 160.752 55.9798 160.501 55.7238 160.192C55.4731 159.877 55.2811 159.536 55.1478 159.168C55.0144 158.8 54.9238 158.44 54.8758 158.088C54.8278 157.736 54.8038 157.427 54.8038 157.16V152.36H56.4998V156.608C56.4998 156.944 56.5264 157.291 56.5798 157.648C56.6384 158 56.7451 158.328 56.8998 158.632C57.0598 158.936 57.2811 159.181 57.5638 159.368C57.8518 159.555 58.2251 159.648 58.6838 159.648C58.9824 159.648 59.2651 159.6 59.5318 159.504C59.7984 159.403 60.0304 159.243 60.2278 159.024C60.4304 158.805 60.5878 158.517 60.6998 158.16C60.8171 157.803 60.8758 157.368 60.8758 156.856L61.9158 157.248C61.9158 158.032 61.7691 158.725 61.4758 159.328C61.1824 159.925 60.7611 160.392 60.2118 160.728C59.6624 161.064 58.9984 161.232 58.2198 161.232ZM61.0758 161V158.504H60.8758V152.36H62.5638V161H61.0758ZM67.2475 161.24C66.6075 161.24 66.0715 161.123 65.6395 160.888C65.2075 160.648 64.8795 160.333 64.6555 159.944C64.4368 159.549 64.3275 159.117 64.3275 158.648C64.3275 158.211 64.4048 157.827 64.5595 157.496C64.7142 157.165 64.9435 156.885 65.2475 156.656C65.5515 156.421 65.9248 156.232 66.3675 156.088C66.7515 155.976 67.1862 155.877 67.6715 155.792C68.1568 155.707 68.6662 155.627 69.1995 155.552C69.7382 155.477 70.2715 155.403 70.7995 155.328L70.1915 155.664C70.2022 154.987 70.0582 154.485 69.7595 154.16C69.4662 153.829 68.9595 153.664 68.2395 153.664C67.7862 153.664 67.3702 153.771 66.9915 153.984C66.6128 154.192 66.3488 154.539 66.1995 155.024L64.6395 154.544C64.8528 153.803 65.2582 153.213 65.8555 152.776C66.4582 152.339 67.2582 152.12 68.2555 152.12C69.0288 152.12 69.7008 152.253 70.2715 152.52C70.8475 152.781 71.2688 153.197 71.5355 153.768C71.6742 154.051 71.7595 154.349 71.7915 154.664C71.8235 154.979 71.8395 155.317 71.8395 155.68V161H70.3595V159.024L70.6475 159.28C70.2902 159.941 69.8342 160.435 69.2795 160.76C68.7302 161.08 68.0528 161.24 67.2475 161.24ZM67.5435 159.872C68.0182 159.872 68.4262 159.789 68.7675 159.624C69.1088 159.453 69.3835 159.237 69.5915 158.976C69.7995 158.715 69.9355 158.443 69.9995 158.16C70.0902 157.904 70.1408 157.616 70.1515 157.296C70.1675 156.976 70.1755 156.72 70.1755 156.528L70.7195 156.728C70.1915 156.808 69.7115 156.88 69.2795 156.944C68.8475 157.008 68.4555 157.072 68.1035 157.136C67.7568 157.195 67.4475 157.267 67.1755 157.352C66.9462 157.432 66.7408 157.528 66.5595 157.64C66.3835 157.752 66.2422 157.888 66.1355 158.048C66.0342 158.208 65.9835 158.403 65.9835 158.632C65.9835 158.856 66.0395 159.064 66.1515 159.256C66.2635 159.443 66.4342 159.592 66.6635 159.704C66.8928 159.816 67.1862 159.872 67.5435 159.872ZM74.0769 161V149.24H75.7489V161H74.0769ZM78.3113 150.944V149.32H79.9833V150.944H78.3113ZM78.3113 161V152.36H79.9833V161H78.3113ZM87.3296 161C86.7856 161.107 86.2523 161.152 85.7296 161.136C85.207 161.12 84.7403 161.019 84.3296 160.832C83.919 160.645 83.6096 160.352 83.4016 159.952C83.215 159.595 83.1136 159.232 83.0976 158.864C83.087 158.491 83.0816 158.069 83.0816 157.6V149.96H84.7616V157.52C84.7616 157.867 84.7643 158.168 84.7696 158.424C84.7803 158.68 84.8363 158.896 84.9376 159.072C85.1296 159.403 85.4336 159.592 85.8496 159.64C86.271 159.683 86.7643 159.664 87.3296 159.584V161ZM81.4256 153.704V152.36H87.3296V153.704H81.4256ZM90.0849 164.84L91.7569 160.288L91.7809 161.632L88.0129 152.36H89.7569L92.5729 159.52H92.0609L94.7489 152.36H96.4449L91.6769 164.84H90.0849Z" fill="white"/>
<rect x="409" y="60" width="137" height="137" rx="68.5" fill="#181B20"/>
<rect x="409" y="60" width="137" height="137" rx="68.5" stroke="url(#paint2_linear_1111_524)" stroke-width="2"/>
<path d="M475.494 113.259L478.277 110.541C478.331 110.488 478.375 110.425 478.404 110.355C478.434 110.286 478.449 110.211 478.449 110.136C478.449 110.06 478.434 109.985 478.404 109.916C478.375 109.846 478.331 109.783 478.277 109.73L476.794 108.282C477.099 107.737 477.343 107.161 477.523 106.565H479.618C479.774 106.565 479.923 106.505 480.034 106.397C480.144 106.289 480.206 106.143 480.206 105.991V102.148C480.206 101.996 480.144 101.85 480.034 101.742C479.923 101.634 479.774 101.574 479.618 101.574H477.528C477.348 100.977 477.103 100.401 476.797 99.8554L478.277 98.4097C478.331 98.3564 478.375 98.2931 478.404 98.2234C478.434 98.1537 478.449 98.079 478.449 98.0036C478.449 97.9282 478.434 97.8535 478.404 97.7838C478.375 97.7141 478.331 97.6509 478.277 97.5976L475.494 94.8797C475.44 94.8263 475.375 94.784 475.304 94.7551C475.232 94.7262 475.156 94.7114 475.079 94.7114C475.002 94.7114 474.925 94.7262 474.854 94.7551C474.783 94.784 474.718 94.8263 474.663 94.8797L473.183 96.3257C472.625 96.0268 472.035 95.7874 471.424 95.6117V93.5695C471.424 93.4941 471.409 93.4194 471.379 93.3497C471.35 93.28 471.306 93.2167 471.252 93.1634C471.197 93.11 471.132 93.0677 471.061 93.0389C470.99 93.01 470.913 92.9952 470.836 92.9953H466.901C466.824 92.9952 466.747 93.01 466.676 93.0389C466.605 93.0677 466.54 93.11 466.485 93.1634C466.431 93.2167 466.387 93.28 466.358 93.3497C466.328 93.4194 466.313 93.4941 466.313 93.5695V95.6153C465.703 95.7911 465.114 96.0298 464.556 96.3274L463.074 94.8797C463.019 94.8263 462.955 94.784 462.883 94.7551C462.812 94.7262 462.736 94.7114 462.658 94.7114C462.581 94.7114 462.505 94.7262 462.433 94.7551C462.362 94.784 462.297 94.8263 462.243 94.8797L459.46 97.5976C459.405 97.6509 459.362 97.7141 459.332 97.7838C459.303 97.8535 459.288 97.9282 459.288 98.0036C459.288 98.079 459.303 98.1537 459.332 98.2234C459.362 98.2931 459.405 98.3564 459.46 98.4097L460.942 99.857C460.637 100.402 460.393 100.978 460.213 101.574H458.119C458.041 101.574 457.965 101.589 457.894 101.617C457.822 101.646 457.757 101.689 457.703 101.742C457.648 101.795 457.605 101.859 457.575 101.928C457.546 101.998 457.531 102.073 457.531 102.148V105.991C457.531 106.066 457.546 106.141 457.575 106.211C457.605 106.28 457.648 106.344 457.703 106.397C457.757 106.45 457.822 106.493 457.894 106.522C457.965 106.55 458.041 106.565 458.119 106.565H460.209C460.389 107.162 460.634 107.738 460.941 108.284L459.46 109.73C459.405 109.783 459.362 109.846 459.333 109.916C459.303 109.985 459.288 110.06 459.288 110.136C459.288 110.211 459.303 110.286 459.333 110.355C459.362 110.425 459.405 110.488 459.46 110.541L462.242 113.259C462.352 113.367 462.502 113.427 462.658 113.427C462.814 113.427 462.963 113.367 463.073 113.259L464.554 111.813C465.112 112.112 465.702 112.352 466.313 112.528V114.57C466.313 114.722 466.375 114.868 466.485 114.976C466.596 115.084 466.745 115.144 466.901 115.144H470.836C470.992 115.144 471.141 115.084 471.252 114.976C471.362 114.868 471.424 114.722 471.424 114.57V112.524C472.034 112.348 472.623 112.109 473.181 111.812L474.663 113.259C474.773 113.367 474.923 113.427 475.079 113.427C475.235 113.427 475.384 113.367 475.494 113.259ZM473.693 110.688C473.6 110.596 473.478 110.538 473.347 110.523C473.215 110.508 473.083 110.537 472.97 110.604C472.268 111.026 471.501 111.336 470.699 111.523C470.571 111.553 470.457 111.625 470.375 111.726C470.293 111.827 470.248 111.952 470.248 112.081V113.994H467.489V112.086C467.489 111.957 467.444 111.832 467.362 111.731C467.28 111.63 467.166 111.558 467.037 111.528C466.235 111.341 465.469 111.03 464.768 110.606C464.655 110.538 464.522 110.509 464.391 110.524C464.259 110.539 464.137 110.597 464.043 110.689L462.658 112.041L460.708 110.135L462.092 108.783C462.185 108.691 462.245 108.572 462.26 108.443C462.275 108.315 462.246 108.185 462.176 108.075C461.743 107.39 461.424 106.641 461.233 105.857C461.202 105.732 461.129 105.62 461.026 105.54C460.922 105.46 460.794 105.416 460.662 105.416H458.707V102.722H460.665C460.797 102.722 460.925 102.678 461.028 102.598C461.132 102.518 461.205 102.407 461.236 102.281C461.427 101.498 461.744 100.749 462.176 100.064C462.246 99.9536 462.275 99.824 462.259 99.6957C462.244 99.5675 462.185 99.448 462.091 99.3566L460.708 98.0034L462.658 96.0983L464.044 97.4515C464.137 97.5428 464.259 97.6007 464.391 97.6158C464.522 97.6309 464.655 97.6024 464.767 97.5349C465.469 97.1131 466.236 96.803 467.038 96.6161C467.166 96.586 467.28 96.5147 467.362 96.4135C467.444 96.3123 467.489 96.1872 467.489 96.0583V94.1437H470.248V96.0531C470.248 96.1821 470.293 96.3073 470.375 96.4085C470.457 96.5097 470.571 96.581 470.7 96.6109C471.502 96.7977 472.269 97.1088 472.97 97.5323C473.083 97.6003 473.216 97.6292 473.347 97.6142C473.479 97.5992 473.601 97.5412 473.695 97.4496L475.079 96.0977L477.03 98.0034L475.646 99.3556C475.552 99.4472 475.493 99.5668 475.477 99.6952C475.462 99.8236 475.491 99.9533 475.561 100.063C475.995 100.749 476.313 101.497 476.504 102.281C476.535 102.406 476.608 102.518 476.711 102.598C476.815 102.678 476.943 102.722 477.075 102.722H479.03V105.417H477.072C476.94 105.417 476.811 105.461 476.708 105.541C476.604 105.621 476.531 105.732 476.5 105.858C476.309 106.641 475.992 107.39 475.56 108.076C475.491 108.186 475.461 108.315 475.477 108.443C475.492 108.571 475.552 108.691 475.645 108.782L477.03 110.136L475.079 112.041L473.693 110.688Z" fill="white"/>
<path d="M468.869 99.0987C467.862 99.0987 466.878 99.3903 466.041 99.9364C465.204 100.483 464.552 101.259 464.167 102.167C463.782 103.076 463.681 104.075 463.877 105.039C464.074 106.003 464.558 106.889 465.27 107.584C465.982 108.28 466.889 108.753 467.876 108.945C468.863 109.137 469.886 109.038 470.816 108.662C471.746 108.286 472.541 107.649 473.1 106.831C473.659 106.014 473.958 105.053 473.958 104.069C473.956 102.752 473.42 101.488 472.466 100.556C471.511 99.6244 470.218 99.1002 468.869 99.0987ZM468.869 107.892C468.095 107.892 467.338 107.668 466.695 107.248C466.051 106.828 465.549 106.231 465.253 105.533C464.957 104.835 464.88 104.066 465.03 103.325C465.181 102.583 465.554 101.902 466.101 101.368C466.648 100.833 467.346 100.469 468.105 100.321C468.864 100.174 469.651 100.249 470.366 100.539C471.081 100.828 471.692 101.318 472.122 101.946C472.552 102.575 472.782 103.314 472.782 104.069C472.781 105.083 472.368 106.054 471.634 106.771C470.901 107.488 469.906 107.891 468.869 107.892V107.892Z" fill="white"/>
<path d="M496.881 118.435H494.79C494.61 117.838 494.365 117.262 494.059 116.716L495.539 115.27C495.594 115.217 495.637 115.154 495.667 115.084C495.696 115.015 495.712 114.94 495.712 114.864C495.712 114.789 495.696 114.714 495.667 114.645C495.637 114.575 495.594 114.512 495.539 114.459L492.757 111.741C492.703 111.688 492.638 111.646 492.566 111.617C492.495 111.588 492.419 111.573 492.341 111.573C492.264 111.573 492.188 111.588 492.116 111.617C492.045 111.646 491.98 111.688 491.926 111.741L490.446 113.187C489.887 112.888 489.297 112.648 488.687 112.472V110.43C488.687 110.278 488.625 110.132 488.514 110.024C488.404 109.916 488.255 109.856 488.099 109.856H484.164C484.008 109.856 483.858 109.916 483.748 110.024C483.638 110.132 483.576 110.278 483.576 110.43V112.476C482.966 112.652 482.377 112.891 481.818 113.188L480.337 111.741C480.282 111.688 480.217 111.646 480.146 111.617C480.075 111.588 479.998 111.573 479.921 111.573C479.844 111.573 479.767 111.588 479.696 111.617C479.625 111.646 479.56 111.688 479.505 111.741L476.723 114.459C476.613 114.566 476.551 114.712 476.551 114.864C476.551 115.017 476.613 115.163 476.723 115.27L478.205 116.718C477.901 117.263 477.656 117.839 477.477 118.435H475.381C475.225 118.435 475.076 118.495 474.965 118.603C474.855 118.711 474.793 118.857 474.793 119.009V122.852C474.793 123.004 474.855 123.15 474.965 123.258C475.076 123.366 475.225 123.426 475.381 123.426H477.472C477.652 124.023 477.897 124.599 478.203 125.145L476.723 126.59C476.613 126.698 476.551 126.844 476.551 126.996C476.551 127.149 476.613 127.295 476.723 127.402L479.505 130.12C479.56 130.174 479.625 130.216 479.696 130.245C479.767 130.274 479.844 130.289 479.921 130.289C479.998 130.289 480.075 130.274 480.146 130.245C480.217 130.216 480.282 130.174 480.337 130.12L481.817 128.677C482.375 128.976 482.965 129.215 483.576 129.391V131.433C483.576 131.508 483.591 131.583 483.621 131.653C483.65 131.722 483.693 131.786 483.748 131.839C483.803 131.892 483.867 131.935 483.939 131.963C484.01 131.992 484.087 132.007 484.164 132.007H488.098C488.176 132.007 488.252 131.992 488.323 131.963C488.395 131.935 488.46 131.892 488.514 131.839C488.569 131.786 488.612 131.722 488.642 131.653C488.671 131.583 488.686 131.508 488.686 131.433V129.387C489.296 129.211 489.886 128.972 490.444 128.675L491.926 130.122C491.98 130.175 492.045 130.218 492.116 130.247C492.188 130.275 492.264 130.29 492.341 130.29C492.419 130.29 492.495 130.275 492.566 130.247C492.638 130.218 492.703 130.175 492.757 130.122L495.539 127.405C495.594 127.351 495.637 127.288 495.667 127.218C495.696 127.149 495.712 127.074 495.712 126.999C495.712 126.923 495.696 126.849 495.667 126.779C495.637 126.709 495.594 126.646 495.539 126.593L494.058 125.145C494.362 124.6 494.607 124.024 494.787 123.429H496.881C496.958 123.429 497.035 123.414 497.106 123.385C497.177 123.356 497.242 123.314 497.297 123.26C497.352 123.207 497.395 123.144 497.424 123.074C497.454 123.004 497.469 122.93 497.469 122.854V119.009C497.469 118.934 497.454 118.859 497.424 118.789C497.395 118.72 497.352 118.656 497.297 118.603C497.242 118.55 497.177 118.507 497.106 118.478C497.035 118.45 496.958 118.435 496.881 118.435ZM496.293 122.278H494.335C494.203 122.278 494.075 122.322 493.971 122.402C493.868 122.482 493.795 122.593 493.764 122.719C493.573 123.502 493.255 124.251 492.823 124.937C492.754 125.047 492.725 125.176 492.741 125.304C492.756 125.433 492.815 125.552 492.909 125.643L494.294 126.997L492.344 128.902L490.958 127.549C490.865 127.458 490.742 127.4 490.611 127.385C490.48 127.37 490.347 127.398 490.235 127.465C489.532 127.887 488.766 128.197 487.964 128.384C487.835 128.414 487.721 128.486 487.639 128.587C487.557 128.688 487.513 128.813 487.512 128.942V130.855H484.752V128.945C484.752 128.816 484.707 128.691 484.625 128.59C484.543 128.489 484.428 128.417 484.3 128.388C483.498 128.201 482.731 127.89 482.029 127.466C481.917 127.398 481.784 127.369 481.652 127.384C481.521 127.399 481.399 127.457 481.305 127.549L479.921 128.901L477.97 126.997L479.354 125.644C479.448 125.553 479.507 125.433 479.523 125.305C479.538 125.176 479.508 125.047 479.439 124.937C479.005 124.251 478.687 123.503 478.496 122.719C478.465 122.594 478.392 122.482 478.289 122.402C478.185 122.322 478.057 122.278 477.925 122.278H475.969V119.583H477.927C478.059 119.583 478.187 119.539 478.291 119.459C478.394 119.379 478.468 119.268 478.498 119.142C478.69 118.359 479.007 117.61 479.439 116.924C479.508 116.815 479.537 116.685 479.522 116.557C479.506 116.429 479.447 116.309 479.354 116.218L477.97 114.864L479.921 112.959L481.306 114.313C481.4 114.404 481.522 114.462 481.653 114.477C481.784 114.492 481.917 114.464 482.03 114.396C482.732 113.974 483.499 113.664 484.301 113.477C484.429 113.447 484.543 113.376 484.625 113.275C484.707 113.173 484.751 113.048 484.752 112.919V111.006H487.511V112.916C487.511 113.045 487.556 113.17 487.638 113.271C487.72 113.372 487.834 113.444 487.963 113.474C488.765 113.661 489.531 113.972 490.233 114.395C490.346 114.463 490.478 114.492 490.61 114.477C490.741 114.462 490.864 114.404 490.958 114.313L492.342 112.959L494.292 114.865L492.908 116.217C492.814 116.308 492.755 116.428 492.74 116.556C492.724 116.685 492.754 116.814 492.823 116.924C493.257 117.61 493.575 118.358 493.766 119.142C493.797 119.268 493.87 119.379 493.973 119.46C494.077 119.54 494.205 119.583 494.337 119.584H496.292L496.293 122.278Z" fill="white"/>
<path d="M486.131 115.96C485.125 115.96 484.141 116.251 483.304 116.797C482.467 117.344 481.815 118.12 481.429 119.028C481.044 119.937 480.943 120.936 481.14 121.9C481.336 122.864 481.821 123.75 482.533 124.445C483.244 125.141 484.151 125.614 485.138 125.806C486.125 125.998 487.149 125.899 488.079 125.523C489.009 125.147 489.803 124.51 490.363 123.692C490.922 122.875 491.22 121.914 491.22 120.931C491.219 119.613 490.682 118.349 489.728 117.417C488.774 116.485 487.48 115.961 486.131 115.96ZM486.131 124.753C485.357 124.753 484.601 124.529 483.957 124.109C483.313 123.689 482.812 123.092 482.516 122.394C482.219 121.695 482.142 120.927 482.293 120.185C482.444 119.444 482.817 118.763 483.364 118.228C483.911 117.694 484.609 117.33 485.368 117.182C486.127 117.035 486.914 117.11 487.629 117.4C488.344 117.689 488.955 118.179 489.385 118.808C489.815 119.436 490.044 120.175 490.044 120.931C490.043 121.944 489.63 122.916 488.897 123.632C488.163 124.349 487.169 124.752 486.131 124.753V124.753Z" fill="white"/>
<path d="M481.77 98.3437C485.186 99.3259 488.136 101.457 490.097 104.359C489.627 104.775 489.329 105.345 489.262 105.962C489.194 106.578 489.36 107.197 489.729 107.702C490.098 108.206 490.645 108.56 491.264 108.697C491.883 108.833 492.532 108.743 493.087 108.442C493.642 108.142 494.065 107.653 494.275 107.067C494.485 106.482 494.467 105.842 494.225 105.269C493.983 104.696 493.534 104.23 492.963 103.959C492.392 103.688 491.739 103.632 491.128 103.801C489.015 100.635 485.814 98.3094 482.102 97.2422C482.028 97.2193 481.949 97.2111 481.871 97.2181C481.794 97.2251 481.718 97.2473 481.649 97.2831C481.58 97.319 481.519 97.368 481.47 97.4272C481.42 97.4864 481.384 97.5545 481.362 97.6278C481.34 97.701 481.333 97.7778 481.341 97.8536C481.35 97.9295 481.374 98.0029 481.412 98.0695C481.45 98.1362 481.501 98.1948 481.563 98.2419C481.624 98.2889 481.695 98.3236 481.77 98.3437ZM493.222 106.224C493.222 106.495 493.14 106.76 492.986 106.985C492.832 107.21 492.613 107.385 492.357 107.489C492.1 107.593 491.819 107.62 491.547 107.567C491.275 107.514 491.025 107.384 490.829 107.192C490.633 107.001 490.5 106.757 490.446 106.491C490.392 106.226 490.419 105.951 490.525 105.7C490.631 105.45 490.811 105.236 491.042 105.086C491.272 104.936 491.543 104.855 491.82 104.855C492.192 104.856 492.548 105 492.811 105.257C493.074 105.513 493.221 105.861 493.222 106.224Z" fill="white"/>
<path d="M473.23 126.656C469.815 125.674 466.866 123.543 464.904 120.641C465.374 120.225 465.672 119.655 465.74 119.038C465.808 118.422 465.641 117.803 465.272 117.298C464.903 116.794 464.357 116.44 463.738 116.303C463.119 116.167 462.47 116.257 461.915 116.558C461.359 116.858 460.937 117.348 460.727 117.933C460.517 118.518 460.535 119.158 460.776 119.731C461.018 120.304 461.467 120.77 462.038 121.041C462.609 121.312 463.262 121.368 463.873 121.199C465.986 124.365 469.186 126.69 472.898 127.758C472.952 127.773 473.008 127.781 473.064 127.781C473.205 127.781 473.341 127.731 473.448 127.64C473.555 127.55 473.624 127.425 473.645 127.289C473.665 127.152 473.634 127.013 473.558 126.897C473.481 126.781 473.365 126.695 473.229 126.656H473.23ZM461.778 118.776C461.778 118.505 461.861 118.24 462.015 118.015C462.169 117.79 462.388 117.615 462.644 117.511C462.9 117.408 463.182 117.381 463.453 117.434C463.725 117.487 463.975 117.617 464.171 117.809C464.367 118 464.5 118.244 464.554 118.51C464.608 118.775 464.58 119.05 464.474 119.3C464.368 119.55 464.189 119.764 463.958 119.915C463.728 120.065 463.457 120.145 463.18 120.145C462.808 120.145 462.451 120.001 462.189 119.744C461.926 119.487 461.778 119.139 461.778 118.776Z" fill="white"/>
<path d="M445.78 160.5V148.98H447.452V160.5H445.78ZM455.918 160.5V156.252C455.918 155.916 455.889 155.572 455.83 155.22C455.777 154.863 455.67 154.532 455.51 154.228C455.356 153.924 455.134 153.679 454.846 153.492C454.564 153.305 454.193 153.212 453.734 153.212C453.436 153.212 453.153 153.263 452.886 153.364C452.62 153.46 452.385 153.617 452.182 153.836C451.985 154.055 451.828 154.343 451.71 154.7C451.598 155.057 451.542 155.492 451.542 156.004L450.502 155.612C450.502 154.828 450.649 154.137 450.942 153.54C451.236 152.937 451.657 152.468 452.206 152.132C452.756 151.796 453.42 151.628 454.198 151.628C454.796 151.628 455.297 151.724 455.702 151.916C456.108 152.108 456.436 152.361 456.686 152.676C456.942 152.985 457.137 153.324 457.27 153.692C457.404 154.06 457.494 154.42 457.542 154.772C457.59 155.124 457.614 155.433 457.614 155.7V160.5H455.918ZM449.846 160.5V151.86H451.342V154.356H451.542V160.5H449.846ZM464.642 160.5C464.098 160.607 463.565 160.652 463.042 160.636C462.519 160.62 462.053 160.519 461.642 160.332C461.231 160.145 460.922 159.852 460.714 159.452C460.527 159.095 460.426 158.732 460.41 158.364C460.399 157.991 460.394 157.569 460.394 157.1V149.46H462.074V157.02C462.074 157.367 462.077 157.668 462.082 157.924C462.093 158.18 462.149 158.396 462.25 158.572C462.442 158.903 462.746 159.092 463.162 159.14C463.583 159.183 464.077 159.164 464.642 159.084V160.5ZM458.738 153.204V151.86H464.642V153.204H458.738ZM469.89 160.74C469.031 160.74 468.276 160.553 467.626 160.18C466.98 159.801 466.476 159.276 466.113 158.604C465.756 157.927 465.578 157.143 465.578 156.252C465.578 155.308 465.754 154.489 466.106 153.796C466.463 153.103 466.959 152.567 467.594 152.188C468.228 151.809 468.967 151.62 469.81 151.62C470.69 151.62 471.439 151.825 472.058 152.236C472.676 152.641 473.138 153.22 473.442 153.972C473.751 154.724 473.874 155.617 473.81 156.652H472.138V156.044C472.127 155.041 471.935 154.3 471.562 153.82C471.194 153.34 470.631 153.1 469.874 153.1C469.036 153.1 468.407 153.364 467.986 153.892C467.564 154.42 467.354 155.183 467.354 156.18C467.354 157.129 467.564 157.865 467.986 158.388C468.407 158.905 469.015 159.164 469.81 159.164C470.332 159.164 470.783 159.047 471.162 158.812C471.546 158.572 471.844 158.231 472.058 157.788L473.698 158.308C473.362 159.081 472.852 159.681 472.17 160.108C471.487 160.529 470.727 160.74 469.89 160.74ZM466.81 156.652V155.348H472.977V156.652H466.81ZM479.164 164.58C478.7 164.58 478.25 164.508 477.812 164.364C477.38 164.22 476.986 164.007 476.628 163.724C476.271 163.447 475.975 163.103 475.74 162.692L477.284 161.908C477.471 162.276 477.738 162.545 478.084 162.716C478.431 162.887 478.796 162.972 479.18 162.972C479.655 162.972 480.06 162.887 480.396 162.716C480.732 162.551 480.986 162.3 481.156 161.964C481.332 161.628 481.418 161.212 481.412 160.716V158.3H481.612V151.86H483.092V160.732C483.092 160.961 483.084 161.18 483.068 161.388C483.052 161.596 483.023 161.804 482.98 162.012C482.858 162.593 482.623 163.073 482.276 163.452C481.935 163.831 481.498 164.113 480.964 164.3C480.436 164.487 479.836 164.58 479.164 164.58ZM479.036 160.74C478.231 160.74 477.535 160.54 476.948 160.14C476.367 159.74 475.916 159.196 475.596 158.508C475.282 157.815 475.124 157.036 475.124 156.172C475.124 155.303 475.284 154.527 475.604 153.844C475.924 153.156 476.378 152.615 476.964 152.22C477.556 151.82 478.258 151.62 479.068 151.62C479.884 151.62 480.57 151.82 481.124 152.22C481.684 152.615 482.106 153.156 482.388 153.844C482.676 154.532 482.82 155.308 482.82 156.172C482.82 157.036 482.676 157.812 482.388 158.5C482.1 159.188 481.676 159.735 481.116 160.14C480.556 160.54 479.863 160.74 479.036 160.74ZM479.268 159.228C479.818 159.228 480.266 159.097 480.612 158.836C480.959 158.575 481.212 158.215 481.372 157.756C481.532 157.297 481.612 156.769 481.612 156.172C481.612 155.575 481.53 155.047 481.364 154.588C481.204 154.129 480.954 153.772 480.612 153.516C480.276 153.26 479.847 153.132 479.324 153.132C478.77 153.132 478.314 153.268 477.956 153.54C477.599 153.812 477.332 154.177 477.156 154.636C476.986 155.095 476.9 155.607 476.9 156.172C476.9 156.743 476.986 157.26 477.156 157.724C477.332 158.183 477.594 158.548 477.94 158.82C478.292 159.092 478.735 159.228 479.268 159.228ZM485.339 160.5V151.86H486.827V153.956L486.619 153.684C486.725 153.407 486.864 153.153 487.035 152.924C487.205 152.689 487.403 152.497 487.627 152.348C487.845 152.188 488.088 152.065 488.355 151.98C488.627 151.889 488.904 151.836 489.187 151.82C489.469 151.799 489.741 151.812 490.003 151.86V153.428C489.72 153.353 489.405 153.332 489.059 153.364C488.717 153.396 488.403 153.505 488.115 153.692C487.843 153.868 487.627 154.081 487.467 154.332C487.312 154.583 487.2 154.863 487.131 155.172C487.061 155.476 487.027 155.799 487.027 156.14V160.5H485.339ZM491.686 150.444V148.82H493.358V150.444H491.686ZM491.686 160.5V151.86H493.358V160.5H491.686ZM500.705 160.5C500.161 160.607 499.627 160.652 499.105 160.636C498.582 160.62 498.115 160.519 497.705 160.332C497.294 160.145 496.985 159.852 496.777 159.452C496.59 159.095 496.489 158.732 496.473 158.364C496.462 157.991 496.457 157.569 496.457 157.1V149.46H498.137V157.02C498.137 157.367 498.139 157.668 498.145 157.924C498.155 158.18 498.211 158.396 498.313 158.572C498.505 158.903 498.809 159.092 499.225 159.14C499.646 159.183 500.139 159.164 500.705 159.084V160.5ZM494.801 153.204V151.86H500.705V153.204H494.801ZM503.46 164.34L505.132 159.788L505.156 161.132L501.388 151.86H503.132L505.948 159.02H505.436L508.124 151.86H509.82L505.052 164.34H503.46Z" fill="white"/>
<defs>
<linearGradient id="paint0_linear_1111_524" x1="151.227" y1="20.6196" x2="457.807" y2="125.742" gradientUnits="userSpaceOnUse">
<stop stop-color="#FDC500"/>
<stop offset="1" stop-color="#3A5EFC"/>
</linearGradient>
<linearGradient id="paint1_linear_1111_524" x1="6.31818" y1="69.5761" x2="164.488" y2="124.214" gradientUnits="userSpaceOnUse">
<stop stop-color="#FDC500"/>
<stop offset="1" stop-color="#3A5EFC"/>
</linearGradient>
<linearGradient id="paint2_linear_1111_524" x1="414.318" y1="69.5761" x2="572.488" y2="124.214" gradientUnits="userSpaceOnUse">
<stop stop-color="#FDC500"/>
<stop offset="1" stop-color="#3A5EFC"/>
</linearGradient>
</defs>
</svg>
