<svg width="69" height="69" viewBox="0 0 69 69" fill="none" xmlns="http://www.w3.org/2000/svg">
<rect x="0.5" y="0.5" width="68" height="68" rx="34" fill="#181B20"/>
<rect x="0.5" y="0.5" width="68" height="68" rx="34" stroke="url(#paint0_linear_1111_548)"/>
<path d="M28.42 42.3C27.44 42.3 26.5733 42.0867 25.82 41.66C25.0667 41.2267 24.4733 40.6333 24.04 39.88C23.6133 39.1267 23.4 38.26 23.4 37.28V32.32C23.4 31.34 23.6133 30.4733 24.04 29.72C24.4733 28.9667 25.0667 28.3767 25.82 27.95C26.5733 27.5167 27.44 27.3 28.42 27.3C29.4 27.3 30.2667 27.5167 31.02 27.95C31.7733 28.3767 32.3633 28.9667 32.79 29.72C33.2233 30.4733 33.44 31.34 33.44 32.32V37.28C33.44 38.26 33.2233 39.1267 32.79 39.88C32.3633 40.6333 31.7733 41.2267 31.02 41.66C30.2667 42.0867 29.4 42.3 28.42 42.3ZM28.42 40.3C28.9533 40.3 29.4367 40.1733 29.87 39.92C30.31 39.66 30.66 39.3133 30.92 38.88C31.18 38.44 31.31 37.95 31.31 37.41V32.17C31.31 31.6367 31.18 31.1533 30.92 30.72C30.66 30.28 30.31 29.9333 29.87 29.68C29.4367 29.42 28.9533 29.29 28.42 29.29C27.8867 29.29 27.4 29.42 26.96 29.68C26.5267 29.9333 26.18 30.28 25.92 30.72C25.66 31.1533 25.53 31.6367 25.53 32.17V37.41C25.53 37.95 25.66 38.44 25.92 38.88C26.18 39.3133 26.5267 39.66 26.96 39.92C27.4 40.1733 27.8867 40.3 28.42 40.3ZM35.832 41.99L35.842 40.13L42.112 34.51C42.6187 34.0633 42.962 33.6367 43.142 33.23C43.3287 32.8233 43.422 32.4167 43.422 32.01C43.422 31.4967 43.3087 31.0367 43.082 30.63C42.8554 30.2167 42.542 29.89 42.142 29.65C41.742 29.41 41.282 29.29 40.762 29.29C40.2287 29.29 39.752 29.4167 39.332 29.67C38.9187 29.9167 38.5954 30.2467 38.362 30.66C38.1287 31.0733 38.0154 31.52 38.022 32H35.882C35.882 31.0667 36.092 30.25 36.512 29.55C36.9387 28.8433 37.522 28.2933 38.262 27.9C39.002 27.5 39.8487 27.3 40.802 27.3C41.7087 27.3 42.522 27.5067 43.242 27.92C43.962 28.3267 44.5287 28.8867 44.942 29.6C45.362 30.3133 45.572 31.1267 45.572 32.04C45.572 32.7 45.4854 33.26 45.312 33.72C45.1387 34.18 44.8787 34.6067 44.532 35C44.1854 35.3933 43.752 35.82 43.232 36.28L38.392 40.6L38.162 40H45.572V41.99H35.832Z" fill="white"/>
<defs>
<linearGradient id="paint0_linear_1111_548" x1="3.13636" y1="5.25" x2="81.6525" y2="32.3724" gradientUnits="userSpaceOnUse">
<stop stop-color="#FDC500"/>
<stop offset="1" stop-color="#3A5EFC"/>
</linearGradient>
</defs>
</svg>
