<svg width="64" height="64" viewBox="0 0 64 64" fill="none" xmlns="http://www.w3.org/2000/svg">
<g clip-path="url(#clip0_941_8)">
<path d="M58.375 34H39.625C36.5233 34 34 36.5233 34 39.625V58.375C34 61.4767 36.5233 64 39.625 64H58.375C61.4767 64 64 61.4767 64 58.375V39.625C64 36.5233 61.4767 34 58.375 34ZM24.375 0H5.625C2.52325 0 0 2.52325 0 5.625V24.375C0 27.4767 2.52325 30 5.625 30H24.375C27.4767 30 30 27.4767 30 24.375V5.625C30 2.52325 27.4767 0 24.375 0Z" fill="url(#paint0_linear_941_8)"/>
<path d="M11.7994 21.9506C12.1656 22.3169 12.6454 22.5 13.125 22.5C13.6046 22.5 14.0845 22.3169 14.4506 21.9506L21.9506 14.4506C22.683 13.7183 22.683 12.5316 21.9506 11.7992C21.2183 11.0669 20.0316 11.0669 19.2992 11.7992L13.125 17.9736L10.7006 15.5492C9.96825 14.8169 8.78162 14.8169 8.04925 15.5492C7.31687 16.2816 7.31687 17.4683 8.04925 18.2006L11.7994 21.9506ZM24.375 34H5.625C2.52325 34 0 36.5233 0 39.625V58.375C0 61.4767 2.52325 64 5.625 64H24.375C27.4767 64 30 61.4767 30 58.375V39.625C30 36.5233 27.4767 34 24.375 34ZM58.375 0H39.625C36.5233 0 34 2.52325 34 5.625V24.375C34 27.4767 36.5233 30 39.625 30H58.375C61.4767 30 64 27.4767 64 24.375V5.625C64 2.52325 61.4767 0 58.375 0ZM53.2994 45.7994L47.125 51.9736L44.7006 49.5493C43.9683 48.8169 42.7816 48.8169 42.0493 49.5493C41.3169 50.2816 41.3169 51.4683 42.0493 52.2006L45.7993 55.9506C46.1655 56.3169 46.6452 56.5 47.1249 56.5C47.6045 56.5 48.0844 56.3169 48.4505 55.9506L55.9505 48.4506C56.6829 47.7183 56.6829 46.5316 55.9505 45.7993C55.2181 45.0669 54.0317 45.0669 53.2994 45.7994Z" fill="url(#paint1_linear_941_8)"/>
</g>
<defs>
<linearGradient id="paint0_linear_941_8" x1="32" y1="64" x2="32" y2="0" gradientUnits="userSpaceOnUse">
<stop stop-color="#3A5EFC"/>
<stop offset="1" stop-color="#FDC500"/>
</linearGradient>
<linearGradient id="paint1_linear_941_8" x1="32" y1="64" x2="32" y2="0" gradientUnits="userSpaceOnUse">
<stop stop-color="#FFF9E6"/>
<stop offset="0.5028" stop-color="#FEEDB0"/>
<stop offset="1" stop-color="#FFF9E6"/>
</linearGradient>
<clipPath id="clip0_941_8">
<rect width="64" height="64" fill="white"/>
</clipPath>
</defs>
</svg>
