<svg width="566" height="338" viewBox="0 0 566 338" fill="none" xmlns="http://www.w3.org/2000/svg">
<path d="M32.8347 172.273C33.2024 172.491 33.5025 172.806 33.7019 173.183C33.9013 173.561 33.9922 173.986 33.9646 174.411C33.9646 174.649 33.9646 174.886 33.9646 175.124C33.9646 175.362 33.9646 175.608 33.9646 175.846C33.9935 176.27 33.9032 176.694 33.7036 177.071C33.504 177.447 33.2031 177.76 32.8347 177.975L30.2485 179.471L35.112 187.84L37.6982 186.353C38.0718 186.144 38.4961 186.041 38.9243 186.057C39.3526 186.072 39.7682 186.205 40.1256 186.441C40.5302 186.703 40.9486 186.944 41.379 187.162C41.761 187.354 42.0826 187.646 42.3084 188.008C42.5342 188.37 42.6555 188.787 42.6588 189.213V192.24H52.3682V189.274C52.3715 188.848 52.4927 188.431 52.7186 188.07C52.9444 187.708 53.266 187.415 53.648 187.224C54.0784 187.006 54.4968 186.765 54.9014 186.502C55.2588 186.267 55.6744 186.134 56.1027 186.118C56.5309 186.103 56.9552 186.205 57.3288 186.414L59.915 187.902L64.7696 179.506L62.1746 178.01C61.8092 177.79 61.5115 177.475 61.3138 177.098C61.1161 176.721 61.0261 176.297 61.0536 175.872C61.0536 175.634 61.0536 175.397 61.0536 175.159C61.0536 174.922 61.0536 174.684 61.0536 174.446C61.026 174.021 61.1169 173.596 61.3163 173.218C61.5157 172.841 61.8157 172.526 62.1834 172.308L64.7696 170.821L59.915 162.417L57.3288 163.904C56.9582 164.117 56.5355 164.222 56.1082 164.208C55.6809 164.194 55.2659 164.061 54.9102 163.825C54.5027 163.559 54.0814 163.316 53.648 163.094C53.2661 162.906 52.9442 162.615 52.7183 162.254C52.4923 161.894 52.3711 161.478 52.3682 161.053V158.078H42.6588V161.053C42.6559 161.478 42.5347 161.894 42.3087 162.254C42.0827 162.615 41.7609 162.906 41.379 163.094C40.9445 163.314 40.5231 163.557 40.1167 163.825C39.7593 164.061 39.343 164.194 38.9143 164.208C38.4857 164.222 38.0616 164.117 37.6894 163.904L35.112 162.417L30.2485 170.821L32.8347 172.273ZM47.5135 167.178C49.0847 167.178 50.6206 167.642 51.9269 168.512C53.2333 169.383 54.2515 170.62 54.8528 172.067C55.4541 173.514 55.6114 175.106 55.3049 176.643C54.9983 178.179 54.2417 179.59 53.1307 180.698C52.0198 181.806 50.6043 182.56 49.0633 182.865C47.5223 183.171 45.925 183.014 44.4735 182.415C43.0219 181.815 41.7812 180.8 40.9083 179.498C40.0354 178.195 39.5695 176.664 39.5695 175.098C39.5695 172.997 40.4064 170.983 41.8962 169.497C43.386 168.012 45.4066 167.178 47.5135 167.178Z" fill="#3A5EFC"/>
<path d="M301.769 31.5786C302.589 32.0637 303.258 32.7647 303.703 33.6042C304.147 34.4437 304.35 35.389 304.289 36.3359C304.289 36.8645 304.289 37.3931 304.289 37.9217C304.289 38.4503 304.289 38.9985 304.289 39.527C304.353 40.4717 304.152 41.4155 303.707 42.2525C303.261 43.0894 302.59 43.7863 301.769 44.2648L296 47.593L306.848 66.2112L312.617 62.9026C313.45 62.4371 314.396 62.209 315.352 62.2436C316.307 62.2781 317.234 62.5739 318.031 63.0984C318.933 63.6826 319.867 64.2185 320.827 64.7038C321.679 65.1291 322.396 65.7801 322.9 66.5849C323.404 67.3898 323.674 68.3173 323.681 69.2653V76H345.338V69.4024C345.346 68.4544 345.616 67.5268 346.12 66.7219C346.624 65.9171 347.341 65.2661 348.193 64.8408C349.153 64.3555 350.086 63.8196 350.989 63.2355C351.786 62.711 352.713 62.4152 353.668 62.3806C354.623 62.3461 355.57 62.5741 356.403 63.0397L362.172 66.3483L373 47.6713L367.212 44.3431C366.397 43.8538 365.733 43.1515 365.292 42.3125C364.851 41.4736 364.65 40.5304 364.711 39.5858C364.711 39.0572 364.711 38.5286 364.711 38C364.711 37.4714 364.711 36.9428 364.711 36.4142C364.65 35.4673 364.853 34.522 365.297 33.6825C365.742 32.843 366.411 32.142 367.231 31.6569L373 28.3483L362.172 9.65174L356.403 12.9603C355.577 13.4336 354.634 13.6678 353.68 13.6367C352.727 13.6056 351.802 13.3103 351.008 12.7842C350.099 12.1935 349.16 11.6511 348.193 11.1592C347.341 10.739 346.623 10.0919 346.119 9.28998C345.615 8.48808 345.345 7.56283 345.338 6.61722V0H323.681V6.61722C323.675 7.56283 323.404 8.48808 322.9 9.28998C322.396 10.0919 321.679 10.739 320.827 11.1592C319.858 11.6468 318.918 12.1893 318.011 12.7842C317.214 13.3099 316.285 13.6047 315.329 13.6359C314.373 13.667 313.427 13.4331 312.597 12.9603L306.848 9.65174L296 28.3483L301.769 31.5786ZM334.51 20.2432C338.014 20.2432 341.44 21.2766 344.354 23.2127C347.268 25.1487 349.539 27.9006 350.88 31.1202C352.221 34.3398 352.572 37.8825 351.889 41.3004C351.205 44.7183 349.517 47.8579 347.039 50.3221C344.561 52.7862 341.404 54.4643 337.967 55.1442C334.529 55.8241 330.967 55.4751 327.729 54.1415C324.491 52.8079 321.724 50.5496 319.777 47.652C317.83 44.7545 316.791 41.3478 316.791 37.863C316.791 33.1899 318.657 28.7082 321.98 25.4039C325.303 22.0995 329.81 20.2432 334.51 20.2432Z" fill="#3A5EFC"/>
<path d="M512.114 150.238C512.482 150.455 512.783 150.77 512.983 151.147C513.182 151.525 513.272 151.95 513.244 152.376C513.244 152.614 513.244 152.851 513.244 153.089C513.244 153.326 513.244 153.573 513.244 153.81C513.273 154.234 513.183 154.657 512.985 155.033C512.787 155.409 512.489 155.723 512.123 155.94L509.528 157.427L514.391 165.831L516.978 164.344C517.351 164.133 517.775 164.029 518.204 164.045C518.632 164.06 519.048 164.194 519.405 164.432C519.81 164.695 520.228 164.935 520.658 165.154C521.04 165.345 521.362 165.637 521.588 165.999C521.814 166.361 521.935 166.778 521.938 167.204V170.17H531.647V167.204C531.651 166.778 531.772 166.361 531.998 165.999C532.224 165.637 532.545 165.345 532.927 165.154C533.358 164.935 533.776 164.695 534.181 164.432C534.537 164.194 534.953 164.06 535.382 164.045C535.81 164.029 536.235 164.133 536.608 164.344L539.194 165.831L544.058 157.427L541.454 155.931C541.088 155.714 540.789 155.4 540.591 155.024C540.394 154.648 540.304 154.225 540.333 153.802C540.333 153.564 540.333 153.326 540.333 153.089C540.333 152.851 540.333 152.614 540.333 152.376C540.304 151.95 540.395 151.525 540.594 151.147C540.794 150.77 541.094 150.455 541.463 150.238L544.058 148.75L539.212 140.32L536.634 141.807C536.262 142.02 535.838 142.125 535.41 142.111C534.981 142.097 534.565 141.964 534.207 141.728C533.8 141.463 533.378 141.219 532.945 140.998C532.563 140.806 532.241 140.514 532.016 140.152C531.79 139.79 531.668 139.373 531.665 138.947V136.008H521.956V138.974C521.952 139.4 521.831 139.817 521.605 140.178C521.38 140.54 521.058 140.833 520.676 141.024C520.243 141.245 519.821 141.489 519.414 141.754C519.056 141.991 518.64 142.123 518.211 142.137C517.783 142.151 517.359 142.046 516.986 141.834L514.391 140.32L509.528 148.724L512.114 150.238ZM526.802 145.142C528.373 145.142 529.909 145.607 531.215 146.477C532.521 147.347 533.54 148.584 534.141 150.032C534.742 151.479 534.899 153.071 534.593 154.608C534.286 156.144 533.53 157.555 532.419 158.663C531.308 159.77 529.892 160.525 528.351 160.83C526.81 161.136 525.213 160.979 523.762 160.38C522.31 159.78 521.069 158.765 520.196 157.463C519.323 156.16 518.858 154.629 518.858 153.062C518.858 152.022 519.063 150.992 519.462 150.032C519.862 149.071 520.447 148.198 521.184 147.462C521.922 146.727 522.798 146.143 523.762 145.745C524.725 145.347 525.758 145.142 526.802 145.142Z" fill="#3A5EFC"/>
<path d="M166.126 44.7872C160.841 46.9216 156.31 50.5706 153.106 55.2725C149.901 59.9745 148.167 65.5183 148.123 71.2029C148.079 76.8874 149.727 82.4573 152.858 87.2082C155.989 91.959 160.463 95.6774 165.714 97.8931C170.965 100.109 176.757 100.722 182.358 99.6558C187.959 98.5894 193.116 95.8911 197.179 91.9021C201.241 87.9131 204.026 82.8126 205.181 77.2457C206.335 71.6787 205.808 65.8955 203.666 60.6272C202.245 57.1293 200.146 53.9447 197.491 51.2555C194.835 48.5662 191.673 46.425 188.187 44.954C184.701 43.4831 180.959 42.7112 177.173 42.6826C173.388 42.654 169.634 43.3691 166.126 44.7872ZM182.014 83.8592C179.546 84.8571 176.837 85.1027 174.229 84.5649C171.621 84.0271 169.231 82.7301 167.363 80.838C165.494 78.9459 164.231 76.5437 163.732 73.9355C163.234 71.3273 163.523 68.6302 164.562 66.1856C165.601 63.741 167.345 61.6587 169.572 60.2022C171.798 58.7458 174.408 57.9806 177.072 58.0036C179.735 58.0265 182.331 58.8366 184.532 60.3312C186.733 61.8258 188.441 63.9378 189.437 66.4C190.772 69.6969 190.74 73.3872 189.348 76.6606C187.957 79.934 185.319 82.523 182.014 83.8592Z" fill="#FDC500"/>
<path d="M171.714 43.8192L161.439 47.9728L159.065 40.4928L168.201 36.7968L171.714 43.8192Z" fill="#FDC500"/>
<path d="M153.566 55.1712L149.25 65.3528L142.259 61.736L146.098 52.6896L153.566 55.1712Z" fill="#FDC500"/>
<path d="M148.782 75.992L152.948 86.2352L145.445 88.6024L141.747 79.4944L148.782 75.992Z" fill="#FDC500"/>
<path d="M160.168 94.0848L170.381 98.3968L166.753 105.358L157.679 101.53L160.168 94.0848Z" fill="#FDC500"/>
<path d="M181.052 98.8544L191.326 94.7008L193.71 102.181L184.574 105.877L181.052 98.8544Z" fill="#FDC500"/>
<path d="M199.2 87.5024L203.525 77.3296L210.516 80.9376L206.667 89.9928L199.2 87.5024Z" fill="#FDC500"/>
<path d="M203.984 66.6816L199.827 56.4384L207.321 54.0712L211.028 63.1792L203.984 66.6816Z" fill="#FDC500"/>
<path d="M192.598 48.5888L182.394 44.2768L186.013 37.316L195.096 41.144L192.598 48.5888Z" fill="#FDC500"/>
<path d="M262.699 100.491C255.875 100.486 249.204 102.499 243.528 106.274C237.851 110.05 233.426 115.419 230.811 121.703C228.196 127.986 227.509 134.902 228.837 141.575C230.165 148.247 233.449 154.378 238.272 159.19C243.095 164.002 249.241 167.28 255.933 168.609C262.625 169.938 269.562 169.259 275.867 166.657C282.171 164.055 287.56 159.647 291.352 153.991C295.143 148.335 297.167 141.685 297.167 134.882C297.158 125.768 293.524 117.03 287.063 110.584C280.602 104.137 271.84 100.508 262.699 100.491ZM262.699 161.942C257.328 161.945 252.076 160.36 247.609 157.388C243.142 154.415 239.659 150.188 237.601 145.242C235.544 140.295 235.004 134.852 236.051 129.6C237.097 124.347 239.682 119.522 243.48 115.735C247.277 111.948 252.116 109.369 257.383 108.324C262.651 107.279 268.111 107.816 273.074 109.865C278.036 111.915 282.276 115.386 285.259 119.839C288.243 124.292 289.834 129.527 289.832 134.882C289.832 142.057 286.974 148.938 281.886 154.013C276.797 159.087 269.896 161.939 262.699 161.942ZM262.699 100.491C255.875 100.486 249.204 102.499 243.528 106.274C237.851 110.05 233.426 115.419 230.811 121.703C228.196 127.986 227.509 134.902 228.837 141.575C230.165 148.247 233.449 154.378 238.272 159.19C243.095 164.002 249.241 167.28 255.933 168.609C262.625 169.938 269.562 169.259 275.867 166.657C282.171 164.055 287.56 159.647 291.352 153.991C295.143 148.335 297.167 141.685 297.167 134.882C297.158 125.768 293.524 117.03 287.063 110.584C280.602 104.137 271.84 100.508 262.699 100.491ZM262.699 161.942C257.328 161.945 252.076 160.36 247.609 157.388C243.142 154.415 239.659 150.188 237.601 145.242C235.544 140.295 235.004 134.852 236.051 129.6C237.097 124.347 239.682 119.522 243.48 115.735C247.277 111.948 252.116 109.369 257.383 108.324C262.651 107.279 268.111 107.816 273.074 109.865C278.036 111.915 282.276 115.386 285.259 119.839C288.243 124.292 289.834 129.527 289.832 134.882C289.832 142.057 286.974 148.938 281.886 154.013C276.797 159.087 269.896 161.939 262.699 161.942ZM262.699 76.9072C251.199 76.9037 239.957 80.3002 230.394 86.667C220.83 93.0339 213.375 102.085 208.972 112.676C204.568 123.267 203.414 134.922 205.654 146.167C207.895 157.412 213.43 167.743 221.56 175.851C229.689 183.96 240.048 189.483 251.327 191.722C262.605 193.961 274.296 192.816 284.921 188.43C295.546 184.045 304.628 176.617 311.018 167.085C317.409 157.553 320.821 146.347 320.823 134.882C320.823 119.51 314.7 104.768 303.8 93.8969C292.901 83.0253 278.117 76.9142 262.699 76.9072ZM262.699 172.563C255.22 172.568 247.908 170.362 241.688 166.223C235.467 162.085 230.617 156.2 227.752 149.313C224.887 142.426 224.135 134.846 225.592 127.533C227.048 120.22 230.647 113.501 235.934 108.228C241.221 102.955 247.958 99.3629 255.293 97.9075C262.628 96.4521 270.23 97.1982 277.14 100.051C284.049 102.905 289.954 107.737 294.108 113.937C298.262 120.137 300.479 127.426 300.477 134.882C300.463 144.868 296.479 154.442 289.398 161.505C282.317 168.568 272.716 172.545 262.699 172.563ZM262.699 100.491C255.875 100.486 249.204 102.499 243.528 106.274C237.851 110.05 233.426 115.419 230.811 121.703C228.196 127.986 227.509 134.902 228.837 141.575C230.165 148.247 233.449 154.378 238.272 159.19C243.095 164.002 249.241 167.28 255.933 168.609C262.625 169.938 269.562 169.259 275.867 166.657C282.171 164.055 287.56 159.647 291.352 153.991C295.143 148.335 297.167 141.685 297.167 134.882C297.158 125.768 293.524 117.03 287.063 110.584C280.602 104.137 271.84 100.508 262.699 100.491ZM262.699 161.942C257.328 161.945 252.076 160.36 247.609 157.388C243.142 154.415 239.659 150.188 237.601 145.242C235.544 140.295 235.004 134.852 236.051 129.6C237.097 124.347 239.682 119.522 243.48 115.735C247.277 111.948 252.116 109.369 257.383 108.324C262.651 107.279 268.111 107.816 273.074 109.865C278.036 111.915 282.276 115.386 285.259 119.839C288.243 124.292 289.834 129.527 289.832 134.882C289.832 142.057 286.974 148.938 281.886 154.013C276.797 159.087 269.896 161.939 262.699 161.942Z" fill="#FDC500"/>
<path d="M269.531 77.9632H256.22L257.544 64.7104H268.207L269.531 77.9632Z" fill="#FDC500"/>
<path d="M240.067 82.1784L228.54 88.8136L223.049 76.6872L232.282 71.372L240.067 82.1784Z" fill="#FDC500"/>
<path d="M216.677 100.526L210.021 112.019L199.173 104.249L204.505 95.044L216.677 100.526Z" fill="#FDC500"/>
<path d="M205.617 128.07V141.341L192.324 140.021V129.39L205.617 128.07Z" fill="#FDC500"/>
<path d="M209.845 157.436L216.5 168.929L204.337 174.411L199.006 165.206L209.845 157.436Z" fill="#FDC500"/>
<path d="M228.24 180.765L239.776 187.4L231.982 198.215L222.75 192.9L228.24 180.765Z" fill="#FDC500"/>
<path d="M255.876 191.791H269.187L267.863 205.044H257.2L255.876 191.791Z" fill="#FDC500"/>
<path d="M285.331 187.567L296.858 180.932L302.357 193.067L293.125 198.382L285.331 187.567Z" fill="#FDC500"/>
<path d="M308.73 169.228L315.385 157.735L326.224 165.506L320.902 174.71L308.73 169.228Z" fill="#FDC500"/>
<path d="M319.79 141.684V128.414L333.074 129.734V140.364L319.79 141.684Z" fill="#FDC500"/>
<path d="M315.553 112.31L308.897 100.817L321.069 95.3432L326.401 104.548L315.553 112.31Z" fill="#FDC500"/>
<path d="M297.158 88.9896L285.63 82.3544L293.424 71.5392L302.657 76.8544L297.158 88.9896Z" fill="#FDC500"/>
<path d="M411.508 112.794C407.933 106.451 402.552 101.307 396.045 98.013C389.538 94.7186 382.198 93.4215 374.952 94.2855C367.706 95.1495 360.88 98.1359 355.336 102.867C349.792 107.598 345.78 113.862 343.806 120.866C341.832 127.871 341.986 135.301 344.247 142.219C346.508 149.136 350.776 155.23 356.51 159.73C362.245 164.229 369.188 166.933 376.464 167.499C383.739 168.065 391.02 166.468 397.385 162.91C401.614 160.545 405.335 157.373 408.334 153.574C411.333 149.775 413.552 145.424 414.864 140.77C416.175 136.115 416.554 131.249 415.978 126.449C415.402 121.648 413.883 117.008 411.508 112.794ZM364.32 139.264C362.649 136.303 361.896 132.915 362.156 129.527C362.416 126.139 363.679 122.905 365.783 120.232C367.887 117.56 370.739 115.569 373.978 114.513C377.217 113.457 380.698 113.382 383.98 114.297C387.261 115.213 390.197 117.079 392.415 119.658C394.633 122.237 396.035 125.415 396.442 128.788C396.849 132.161 396.243 135.579 394.702 138.609C393.16 141.639 390.752 144.146 387.781 145.811C383.799 148.044 379.091 148.609 374.691 147.381C370.291 146.153 366.561 143.234 364.32 139.264Z" fill="#FDC500"/>
<path d="M413.644 119.71L406.688 107.373L415.833 103.149L422.02 114.114L413.644 119.71Z" fill="#FDC500"/>
<path d="M396.237 98.5728L382.574 94.7536L386.034 85.32L398.188 88.7168L396.237 98.5728Z" fill="#FDC500"/>
<path d="M368.936 95.8976L356.561 102.841L352.325 93.724L363.323 87.5552L368.936 95.8976Z" fill="#FDC500"/>
<path d="M347.735 113.26L343.904 126.882L334.442 123.433L337.849 111.315L347.735 113.26Z" fill="#FDC500"/>
<path d="M345.052 140.478L352.016 152.807L342.872 157.04L336.684 146.066L345.052 140.478Z" fill="#FDC500"/>
<path d="M362.467 161.616L376.13 165.426L372.67 174.86L360.516 171.472L362.467 161.616Z" fill="#FDC500"/>
<path d="M389.768 164.291L402.143 157.348L406.379 166.465L395.373 172.634L389.768 164.291Z" fill="#FDC500"/>
<path d="M410.969 146.929L414.8 133.306L424.253 136.756L420.855 148.874L410.969 146.929Z" fill="#FDC500"/>
<path d="M515.812 185.614V327.998H64.9106V292.366H177.636V256.788H290.353V221.201H403.087V185.614H515.812Z" fill="#FDC500"/>
<path opacity="0.1" d="M515.812 185.614V327.998H64.9106V292.366H177.636V256.788H290.353V221.201H403.087V185.614H515.812Z" fill="black"/>
<path d="M543.695 185.614V327.998H92.7939V292.366H205.519V256.788H318.236V221.201H430.97V185.614H543.695Z" fill="#FDC500"/>
<path d="M96.5278 327.373L95.0449 323.228L153.071 302.557L153.398 302.539L206.702 299.917L263.961 268.008L317.618 271.748L370.658 234.7L430.75 237.419L474.839 196.517L477.849 199.738L432.4 241.898L371.955 239.162L318.872 276.245L264.967 272.487L207.947 304.264L153.945 306.922L96.5278 327.373Z" fill="#3A5EFC"/>
<path d="M153.504 311.841C157.092 311.841 160 308.941 160 305.364C160 301.787 157.092 298.887 153.504 298.887C149.916 298.887 147.007 301.787 147.007 305.364C147.007 308.941 149.916 311.841 153.504 311.841Z" fill="white"/>
<path d="M153.504 314.041C151.783 314.041 150.1 313.532 148.669 312.578C147.237 311.625 146.122 310.27 145.463 308.684C144.805 307.099 144.632 305.354 144.968 303.671C145.304 301.988 146.133 300.442 147.35 299.229C148.567 298.015 150.118 297.189 151.806 296.854C153.494 296.519 155.244 296.691 156.834 297.348C158.425 298.004 159.784 299.117 160.74 300.543C161.697 301.97 162.207 303.648 162.207 305.364C162.205 307.665 161.287 309.87 159.655 311.497C158.024 313.124 155.811 314.038 153.504 314.041ZM153.504 301.087C152.655 301.087 151.826 301.338 151.121 301.808C150.415 302.278 149.865 302.946 149.541 303.727C149.216 304.509 149.131 305.369 149.297 306.198C149.462 307.028 149.871 307.79 150.471 308.388C151.07 308.986 151.835 309.394 152.667 309.559C153.499 309.724 154.362 309.639 155.145 309.315C155.929 308.992 156.599 308.443 157.071 307.74C157.542 307.037 157.794 306.21 157.794 305.364C157.791 304.23 157.339 303.144 156.535 302.342C155.731 301.541 154.641 301.09 153.504 301.087Z" fill="#3A5EFC"/>
<path d="M371.417 243.421C375.005 243.421 377.913 240.521 377.913 236.944C377.913 233.367 375.005 230.467 371.417 230.467C367.829 230.467 364.92 233.367 364.92 236.944C364.92 240.521 367.829 243.421 371.417 243.421Z" fill="white"/>
<path d="M371.417 245.621C369.694 245.626 368.009 245.122 366.574 244.171C365.14 243.221 364.02 241.868 363.357 240.283C362.694 238.698 362.518 236.952 362.851 235.267C363.184 233.583 364.011 232.034 365.227 230.818C366.443 229.602 367.994 228.773 369.682 228.436C371.371 228.099 373.123 228.269 374.715 228.925C376.306 229.581 377.667 230.693 378.625 232.121C379.582 233.548 380.093 235.227 380.093 236.944C380.091 239.24 379.177 241.442 377.551 243.068C375.925 244.694 373.719 245.612 371.417 245.621ZM371.417 232.667C370.567 232.662 369.735 232.908 369.026 233.375C368.317 233.842 367.763 234.508 367.435 235.289C367.106 236.07 367.017 236.931 367.18 237.762C367.342 238.593 367.749 239.358 368.347 239.959C368.946 240.559 369.711 240.969 370.543 241.137C371.376 241.304 372.24 241.221 373.026 240.898C373.811 240.575 374.482 240.027 374.955 239.323C375.428 238.619 375.68 237.791 375.68 236.944C375.678 235.815 375.229 234.732 374.43 233.932C373.632 233.131 372.549 232.676 371.417 232.667Z" fill="#3A5EFC"/>
<path d="M264.579 276.729C268.167 276.729 271.075 273.829 271.075 270.252C271.075 266.675 268.167 263.775 264.579 263.775C260.991 263.775 258.083 266.675 258.083 270.252C258.083 273.829 260.991 276.729 264.579 276.729Z" fill="white"/>
<path d="M264.579 278.929C262.855 278.931 261.169 278.422 259.735 277.469C258.301 276.515 257.183 275.159 256.523 273.571C255.862 271.984 255.689 270.237 256.025 268.551C256.361 266.865 257.191 265.317 258.41 264.102C259.628 262.886 261.182 262.059 262.872 261.724C264.563 261.389 266.316 261.562 267.908 262.22C269.5 262.879 270.861 263.994 271.817 265.423C272.774 266.853 273.283 268.533 273.282 270.252C273.279 272.552 272.362 274.758 270.73 276.385C269.098 278.012 266.886 278.926 264.579 278.929ZM264.579 265.966C263.728 265.965 262.896 266.215 262.188 266.684C261.48 267.154 260.928 267.823 260.601 268.606C260.274 269.389 260.188 270.251 260.353 271.083C260.518 271.915 260.926 272.679 261.527 273.279C262.128 273.879 262.894 274.289 263.728 274.455C264.562 274.621 265.427 274.536 266.213 274.212C266.999 273.888 267.671 273.339 268.143 272.634C268.616 271.929 268.868 271.1 268.868 270.252C268.868 269.117 268.417 268.028 267.612 267.225C266.808 266.421 265.717 265.969 264.579 265.966Z" fill="#3A5EFC"/>
<path d="M565.198 327.998H0.793945V337.308H565.198V327.998Z" fill="white"/>
<path d="M29.8335 327.998C30.422 331.073 30.422 334.232 29.8335 337.308C29.245 334.232 29.245 331.073 29.8335 327.998Z" fill="#3A5EFC"/>
<path d="M63.5957 327.998C64.1842 331.073 64.1842 334.232 63.5957 337.308C63.0072 334.232 63.0072 331.073 63.5957 327.998Z" fill="#3A5EFC"/>
<path d="M97.3486 327.998C97.9372 331.073 97.9372 334.232 97.3486 337.308C96.7601 334.232 96.7601 331.073 97.3486 327.998Z" fill="#3A5EFC"/>
<path d="M131.102 327.998C131.411 329.53 131.558 331.09 131.543 332.653C131.567 334.216 131.419 335.777 131.102 337.308C130.785 335.777 130.637 334.216 130.661 332.653C130.645 331.09 130.793 329.53 131.102 327.998Z" fill="#3A5EFC"/>
<path d="M164.855 327.998C165.444 331.073 165.444 334.232 164.855 337.308C164.266 334.232 164.266 331.073 164.855 327.998Z" fill="#3A5EFC"/>
<path d="M198.608 327.998C199.197 331.073 199.197 334.232 198.608 337.308C198.02 334.232 198.02 331.073 198.608 327.998Z" fill="#3A5EFC"/>
<path d="M232.371 327.998C232.959 331.073 232.959 334.232 232.371 337.308C231.782 334.232 231.782 331.073 232.371 327.998Z" fill="#3A5EFC"/>
<path d="M266.123 327.998C266.432 329.53 266.58 331.09 266.565 332.653C266.584 334.216 266.436 335.776 266.123 337.308C265.807 335.777 265.659 334.216 265.682 332.653C265.663 331.09 265.811 329.529 266.123 327.998Z" fill="#3A5EFC"/>
<path d="M299.877 327.998C300.189 329.529 300.337 331.09 300.318 332.653C300.341 334.216 300.193 335.777 299.877 337.308C299.564 335.776 299.416 334.216 299.435 332.653C299.42 331.09 299.568 329.53 299.877 327.998Z" fill="#3A5EFC"/>
<path d="M333.63 327.998C334.218 331.073 334.218 334.232 333.63 337.308C333.041 334.232 333.041 331.073 333.63 327.998Z" fill="#3A5EFC"/>
<path d="M367.392 327.998C367.981 331.073 367.981 334.232 367.392 337.308C366.804 334.232 366.804 331.073 367.392 327.998Z" fill="#3A5EFC"/>
<path d="M401.145 327.998C401.734 331.073 401.734 334.232 401.145 337.308C400.556 334.232 400.556 331.073 401.145 327.998Z" fill="#3A5EFC"/>
<path d="M434.898 327.998C435.207 329.53 435.355 331.09 435.34 332.653C435.363 334.216 435.215 335.777 434.898 337.308C434.581 335.777 434.433 334.216 434.457 332.653C434.442 331.09 434.59 329.53 434.898 327.998Z" fill="#3A5EFC"/>
<path d="M468.651 327.998C469.24 331.073 469.24 334.232 468.651 337.308C468.063 334.232 468.063 331.073 468.651 327.998Z" fill="#3A5EFC"/>
<path d="M502.405 327.998C502.993 331.073 502.993 334.232 502.405 337.308C501.816 334.232 501.816 331.073 502.405 327.998Z" fill="#3A5EFC"/>
<path d="M536.166 327.998C536.755 331.073 536.755 334.232 536.166 337.308C535.578 334.232 535.578 331.073 536.166 327.998Z" fill="#3A5EFC"/>
<path d="M1.78271 337.308L72.2107 337.088L142.639 337.018L283.495 336.868L424.351 337.009L494.778 337.088L565.206 337.308L494.778 337.519L424.351 337.598L283.495 337.748L142.639 337.598L72.2107 337.519L1.78271 337.308Z" fill="#3A5EFC"/>
</svg>
