<svg width="64" height="41" viewBox="0 0 64 41" fill="none" xmlns="http://www.w3.org/2000/svg">
<path d="M58.2857 0H5.71429C4.19876 0 2.74531 0.598287 1.67368 1.66324C0.602039 2.7282 0 4.17259 0 5.67867V35.3213C0 36.8274 0.602039 38.2718 1.67368 39.3368C2.74531 40.4017 4.19876 41 5.71429 41H58.2857C59.8012 41 61.2547 40.4017 62.3263 39.3368C63.398 38.2718 64 36.8274 64 35.3213V5.67867C64 4.17259 63.398 2.7282 62.3263 1.66324C61.2547 0.598287 59.8012 0 58.2857 0ZM28.5714 26.1219H10.2857C9.98261 26.1219 9.69192 26.0022 9.47759 25.7892C9.26327 25.5762 9.14286 25.2874 9.14286 24.9861C9.14286 24.6849 9.26327 24.3961 9.47759 24.1831C9.69192 23.9701 9.98261 23.8504 10.2857 23.8504H28.5714C28.8745 23.8504 29.1652 23.9701 29.3796 24.1831C29.5939 24.3961 29.7143 24.6849 29.7143 24.9861C29.7143 25.2874 29.5939 25.5762 29.3796 25.7892C29.1652 26.0022 28.8745 26.1219 28.5714 26.1219ZM29.7143 31.1418C29.7143 31.443 29.5939 31.7319 29.3796 31.9449C29.1652 32.1579 28.8745 32.2776 28.5714 32.2776H24.6286C24.3255 32.2776 24.0348 32.1579 23.8205 31.9449C23.6061 31.7319 23.4857 31.443 23.4857 31.1418C23.4857 30.8406 23.6061 30.5517 23.8205 30.3387C24.0348 30.1258 24.3255 30.0061 24.6286 30.0061H28.5714C28.8745 30.0061 29.1652 30.1258 29.3796 30.3387C29.5939 30.5517 29.7143 30.8406 29.7143 31.1418ZM21.3943 31.1418C21.3943 31.443 21.2739 31.7319 21.0596 31.9449C20.8452 32.1579 20.5545 32.2776 20.2514 32.2776H16.32C16.0169 32.2776 15.7262 32.1579 15.5119 31.9449C15.2976 31.7319 15.1771 31.443 15.1771 31.1418C15.1771 30.8406 15.2976 30.5517 15.5119 30.3387C15.7262 30.1258 16.0169 30.0061 16.32 30.0061H20.2286C20.5317 30.0061 20.8224 30.1258 21.0367 30.3387C21.251 30.5517 21.3714 30.8406 21.3714 31.1418H21.3943ZM9.14286 20.4432C9.14286 20.142 9.26327 19.8531 9.47759 19.6401C9.69192 19.4271 9.98261 19.3075 10.2857 19.3075H19.2229C19.526 19.3075 19.8167 19.4271 20.031 19.6401C20.2453 19.8531 20.3657 20.142 20.3657 20.4432C20.3657 20.7444 20.2453 21.0333 20.031 21.2463C19.8167 21.4593 19.526 21.5789 19.2229 21.5789H10.2857C9.98261 21.5789 9.69192 21.4593 9.47759 21.2463C9.26327 21.0333 9.14286 20.7444 9.14286 20.4432ZM22.8571 12.9701C22.8541 13.7222 22.5521 14.4427 22.017 14.9745C21.4818 15.5063 20.7568 15.8064 20 15.8094H9.71429C8.95745 15.8064 8.23247 15.5063 7.69731 14.9745C7.16214 14.4427 6.86015 13.7222 6.85714 12.9701V9.7446C6.86015 8.99248 7.16214 8.27202 7.69731 7.74019C8.23247 7.20836 8.95745 6.90825 9.71429 6.90526H20C20.7568 6.90825 21.4818 7.20836 22.017 7.74019C22.5521 8.27202 22.8541 8.99248 22.8571 9.7446V12.9701ZM8 30.0061H11.9086C12.2117 30.0061 12.5024 30.1258 12.7167 30.3387C12.931 30.5517 13.0514 30.8406 13.0514 31.1418C13.0514 31.443 12.931 31.7319 12.7167 31.9449C12.5024 32.1579 12.2117 32.2776 11.9086 32.2776H8C7.6969 32.2776 7.40621 32.1579 7.19188 31.9449C6.97755 31.7319 6.85714 31.443 6.85714 31.1418C6.85714 30.8406 6.97755 30.5517 7.19188 30.3387C7.40621 30.1258 7.6969 30.0061 8 30.0061ZM33.1429 9.18809C32.8398 9.18809 32.5491 9.06843 32.3347 8.85544C32.1204 8.64245 32 8.35357 32 8.05235C32 7.75114 32.1204 7.46226 32.3347 7.24927C32.5491 7.03628 32.8398 6.91662 33.1429 6.91662H55.8971C56.2002 6.91662 56.4909 7.03628 56.7053 7.24927C56.9196 7.46226 57.04 7.75114 57.04 8.05235C57.04 8.35357 56.9196 8.64245 56.7053 8.85544C56.4909 9.06843 56.2002 9.18809 55.8971 9.18809H33.1429ZM48.5714 25.0884H54.2857C55.0426 25.0914 55.7675 25.3915 56.3027 25.9233C56.8379 26.4551 57.1399 27.1756 57.1429 27.9277V31.1532C57.1399 31.9053 56.8379 32.6258 56.3027 33.1576C55.7675 33.6894 55.0426 33.9895 54.2857 33.9925H48.5714C47.8146 33.9895 47.0896 33.6894 46.5545 33.1576C46.0193 32.6258 45.7173 31.9053 45.7143 31.1532V27.9163C45.7173 27.1642 46.0193 26.4438 46.5545 25.9119C47.0896 25.3801 47.8146 25.08 48.5714 25.077V25.0884ZM32.9486 30.0061H36.8571C37.1602 30.0061 37.4509 30.1258 37.6653 30.3387C37.8796 30.5517 38 30.8406 38 31.1418C38 31.443 37.8796 31.7319 37.6653 31.9449C37.4509 32.1579 37.1602 32.2776 36.8571 32.2776H32.9486C32.6455 32.2776 32.3548 32.1579 32.1405 31.9449C31.9261 31.7319 31.8057 31.443 31.8057 31.1418C31.8057 30.8406 31.9261 30.5517 32.1405 30.3387C32.3548 30.1258 32.6455 30.0061 32.9486 30.0061ZM56 14.5374H52.0914C51.7883 14.5374 51.4976 14.4177 51.2833 14.2047C51.069 13.9918 50.9486 13.7029 50.9486 13.4017C50.9486 13.1004 51.069 12.8116 51.2833 12.5986C51.4976 12.3856 51.7883 12.2659 52.0914 12.2659H56C56.3031 12.2659 56.5938 12.3856 56.8081 12.5986C57.0225 12.8116 57.1429 13.1004 57.1429 13.4017C57.1429 13.7029 57.0225 13.9918 56.8081 14.2047C56.5938 14.4177 56.3031 14.5374 56 14.5374ZM20.5714 9.7446V12.9701C20.5714 13.1207 20.5112 13.2651 20.4041 13.3716C20.2969 13.4781 20.1516 13.538 20 13.538H9.71429C9.56273 13.538 9.41739 13.4781 9.31022 13.3716C9.20306 13.2651 9.14286 13.1207 9.14286 12.9701V9.7446C9.14286 9.59399 9.20306 9.44955 9.31022 9.34306C9.41739 9.23656 9.56273 9.17673 9.71429 9.17673H20C20.1516 9.17673 20.2969 9.23656 20.4041 9.34306C20.5112 9.44955 20.5714 9.59399 20.5714 9.7446ZM48 31.1418V27.9163C48 27.7657 48.0602 27.6213 48.1674 27.5148C48.2745 27.4083 48.4199 27.3485 48.5714 27.3485H54.2857C54.4373 27.3485 54.5826 27.4083 54.6898 27.5148C54.7969 27.6213 54.8571 27.7657 54.8571 27.9163V31.1418C54.8571 31.2924 54.7969 31.4369 54.6898 31.5434C54.5826 31.6499 54.4373 31.7097 54.2857 31.7097H48.5714C48.4199 31.7097 48.2745 31.6499 48.1674 31.5434C48.0602 31.4369 48 31.2924 48 31.1418Z" fill="url(#paint0_linear_943_288)"/>
<defs>
<linearGradient id="paint0_linear_943_288" x1="0" y1="20.4432" x2="64" y2="20.4432" gradientUnits="userSpaceOnUse">
<stop stop-color="#FDC500"/>
<stop offset="1" stop-color="#3A5EFC"/>
</linearGradient>
</defs>
</svg>
