<svg width="64" height="73" viewBox="0 0 64 73" fill="none" xmlns="http://www.w3.org/2000/svg">
<path d="M54.8571 36.5C54.8571 38.6508 56.6204 40.4107 58.7755 40.4107H64V32.5893H58.7755C56.6204 32.5893 54.8571 34.3491 54.8571 36.5ZM60.0816 36.5C60.0487 38.2125 57.5021 38.2122 57.4694 36.5C57.5023 34.7875 60.0489 34.7878 60.0816 36.5ZM64 26.7232V29.9821H58.7755C55.1706 29.9821 52.2449 32.9021 52.2449 36.5C52.2449 40.0979 55.1706 43.0179 58.7755 43.0179H64V46.2768C64 49.1576 61.6621 51.4911 58.7755 51.4911H27.4286C24.542 51.4911 22.2041 49.1576 22.2041 46.2768V26.7232C22.2041 23.8423 24.542 21.5089 27.4286 21.5089H58.7755C61.6621 21.5089 64 23.8423 64 26.7232ZM15.6735 2.60714V0H28.7346V2.60714C28.7346 3.32409 28.1469 3.91071 27.4286 3.91071H16.9796C16.2612 3.91071 15.6735 3.32409 15.6735 2.60714ZM27.4286 54.0982H44.4082V66.4821C44.4082 70.08 41.4825 73 37.8776 73H6.53061C2.9257 73 0 70.08 0 66.4821V6.51786C0 2.91999 2.9257 0 6.53061 0H13.0612V2.60714C13.0612 4.75798 14.8245 6.51786 16.9796 6.51786H27.4286C29.5837 6.51786 31.3469 4.75798 31.3469 2.60714V0H37.8776C41.4825 0 44.4082 2.91999 44.4082 6.51786V18.9018H27.4286C23.1053 18.9018 19.5918 22.4084 19.5918 26.7232V46.2768C19.5918 50.5916 23.1053 54.0982 27.4286 54.0982Z" fill="url(#paint0_linear_943_281)"/>
<defs>
<linearGradient id="paint0_linear_943_281" x1="0" y1="36.5" x2="64" y2="36.5" gradientUnits="userSpaceOnUse">
<stop stop-color="#FDC500"/>
<stop offset="1" stop-color="#3A5EFC"/>
</linearGradient>
</defs>
</svg>
