<svg width="64" height="64" viewBox="0 0 64 64" fill="none" xmlns="http://www.w3.org/2000/svg">
<path d="M7.96094 36.9432C7.66835 36.2394 7.66373 35.4489 7.94807 34.7418C8.2324 34.0347 8.78297 33.4674 9.48131 33.1621C10.8221 32.604 29.2724 24.896 32.3578 23.6094C32.6048 23.5093 32.8811 23.5093 33.1281 23.6094L55.9546 32.992C56.6572 33.2931 57.2134 33.8581 57.5034 34.5653C57.7934 35.2725 57.794 36.0654 57.505 36.773L56.1846 40.104C55.2694 39.7273 33.1281 30.6314 33.1281 30.6314C32.8846 30.5313 32.6114 30.5313 32.3679 30.6314C29.8195 31.693 11.3731 39.3982 9.29127 40.2641L7.96094 36.9432ZM15.5031 28.4808L16.4034 18.3979C16.4386 17.8662 16.579 17.3468 16.8164 16.8697C17.0537 16.3926 17.3833 15.9673 17.7861 15.6185C18.1889 15.2696 18.6569 15.0041 19.163 14.8373C19.6691 14.6705 20.2032 14.6058 20.7345 14.6468C26.5512 14.6466 39.2475 14.647 45.1615 14.6468C46.1616 14.6703 47.1166 15.0674 47.8386 15.7597C48.5605 16.4521 48.9972 17.3897 49.0626 18.3879L49.9428 28.3607C47.0597 27.169 36.917 23.0111 33.8783 21.7588C33.5147 21.6094 33.1251 21.5333 32.732 21.535C32.3389 21.5367 31.9499 21.6162 31.5877 21.7688C31.5877 21.7688 16.5483 28.0362 15.5031 28.4808ZM40.3601 19.1581H42.4507C42.7132 19.1539 42.9636 19.0467 43.1478 18.8596C43.332 18.6725 43.4353 18.4204 43.4353 18.1578C43.4353 17.8953 43.3321 17.6432 43.1479 17.4561C42.9637 17.2689 42.7133 17.1617 42.4507 17.1575H40.3601C40.0976 17.1617 39.8472 17.2689 39.663 17.456C39.4788 17.6432 39.3755 17.8952 39.3755 18.1578C39.3755 18.4204 39.4788 18.6725 39.663 18.8596C39.8472 19.0467 40.0976 19.1539 40.3601 19.1581ZM31.6877 19.1581H33.7682C34.031 19.1543 34.2817 19.0472 34.4662 18.86C34.6507 18.6729 34.7541 18.4206 34.7541 18.1578C34.7541 17.895 34.6507 17.6427 34.4662 17.4556C34.2817 17.2684 34.031 17.1613 33.7682 17.1575H31.6877C31.425 17.1615 31.1744 17.2686 30.9901 17.4558C30.8058 17.643 30.7024 17.8951 30.7024 18.1578C30.7024 18.4205 30.8058 18.6727 30.9901 18.8598C31.1744 19.047 31.425 19.1541 31.6877 19.1581ZM23.0052 19.1581H25.0858C25.3487 19.1545 25.5996 19.0475 25.7842 18.8603C25.9689 18.6731 26.0724 18.4207 26.0724 18.1578C26.0724 17.8949 25.9689 17.6425 25.7842 17.4553C25.5996 17.2681 25.3487 17.1611 25.0858 17.1575H23.0052C22.7425 17.1615 22.492 17.2686 22.3076 17.4558C22.1233 17.643 22.02 17.8951 22.02 18.1578C22.02 18.4205 22.1233 18.6727 22.3076 18.8598C22.492 19.047 22.7425 19.1541 23.0052 19.1581ZM28.7168 8.35503C28.7153 8.08581 28.607 7.82822 28.4157 7.63879C28.2244 7.44937 27.9657 7.34361 27.6965 7.34474H23.7454C23.6126 7.34437 23.4811 7.37025 23.3583 7.42089C23.2356 7.47153 23.1241 7.54593 23.0302 7.63982C22.9363 7.73371 22.8619 7.84523 22.8113 7.96797C22.7606 8.09071 22.7347 8.22225 22.7351 8.35503V12.6462H28.7168V8.35503ZM59.0154 56.6388C57.4793 56.6699 55.9673 56.2528 54.6642 55.4386C53.5837 54.7832 52.337 54.4535 51.0738 54.489C49.8105 54.5244 48.5843 54.9236 47.5422 55.6385C46.3358 56.3311 44.9616 56.6772 43.5711 56.6388C42.0379 56.6702 40.529 56.253 39.2298 55.4384C38.2314 54.7798 37.0544 54.4445 35.8588 54.478C32.1915 54.5484 32.162 56.6912 28.1367 56.6387C24.1159 56.6903 24.0893 54.5466 20.4244 54.4781C17.4324 54.4121 15.8903 56.8793 12.7123 56.6387C8.69621 56.69 8.65592 54.5469 5.00006 54.4781C4.73531 54.4773 4.4817 54.3716 4.29479 54.1841C4.10788 53.9966 4.00293 53.7426 4.00293 53.4779C4.00293 53.2131 4.10788 52.9592 4.29479 52.7717C4.4817 52.5842 4.73531 52.4784 5.00006 52.4776C6.53487 52.4438 8.04537 52.8649 9.34137 53.6878C10.1708 54.1822 11.0978 54.4903 12.0582 54.5905C13.0186 54.6907 13.9893 54.5807 14.9029 54.2681L10.0315 42.1246C12.3381 41.1771 30.041 33.7646 32.7582 32.6419C33.5906 33.0185 53.3795 41.064 53.6039 41.2043L55.4544 41.9646L51.2932 52.4778C54.6896 52.2728 55.6614 54.6195 59.0154 54.6382C59.2779 54.6425 59.5283 54.7497 59.7124 54.9368C59.8965 55.124 59.9997 55.376 59.9997 55.6385C59.9997 55.901 59.8965 56.153 59.7124 56.3402C59.5283 56.5273 59.2779 56.6346 59.0154 56.6388ZM32.728 36.333C31.6227 36.3444 30.5664 36.7915 29.7888 37.5772C29.0112 38.3629 28.575 39.4237 28.575 40.5291C28.575 41.6346 29.0112 42.6954 29.7888 43.4811C30.5664 44.2668 31.6226 44.7139 32.7279 44.7254C33.8333 44.714 34.8895 44.2668 35.6671 43.4811C36.4448 42.6954 36.8809 41.6347 36.881 40.5292C36.881 39.4238 36.4448 38.363 35.6672 37.5773C34.8896 36.7916 33.8334 36.3444 32.728 36.333ZM32.7279 38.3336C32.1508 38.3414 31.5999 38.5761 31.1945 38.987C30.7891 39.3979 30.5618 39.952 30.5618 40.5292C30.5618 41.1065 30.7891 41.6605 31.1945 42.0714C31.5999 42.4823 32.1508 42.717 32.728 42.7248C33.3053 42.7172 33.8564 42.4825 34.262 42.0716C34.6675 41.6606 34.8949 41.1065 34.8949 40.5291C34.8949 39.9518 34.6675 39.3976 34.2619 38.9867C33.8564 38.5758 33.3053 38.3411 32.7279 38.3336Z" fill="url(#paint0_linear_1234_171)"/>
<defs>
<linearGradient id="paint0_linear_1234_171" x1="3.99979" y1="32" x2="59.9998" y2="32" gradientUnits="userSpaceOnUse">
<stop stop-color="#FDC500"/>
<stop offset="1" stop-color="#3A5EFC"/>
</linearGradient>
</defs>
</svg>
